<svg width="960" height="106" viewBox="0 0 960 106" fill="none" xmlns="http://www.w3.org/2000/svg">
<path d="M0 106L16 93.3C32 80.7 64 55.3 96 42.8C128 30.3 160 30.7 192 38.3C224 46 256 61 288 67.7C320 74.3 352 72.7 384 79.2C416 85.7 448 100.3 480 104.2C512 108 544 101 576 88C608 75 640 56 672 53.8C704 51.7 736 66.3 768 76.7C800 87 832 93 864 93C896 93 928 87 944 84L960 81V0H944C928 0 896 0 864 0C832 0 800 0 768 0C736 0 704 0 672 0C640 0 608 0 576 0C544 0 512 0 480 0C448 0 416 0 384 0C352 0 320 0 288 0C256 0 224 0 192 0C160 0 128 0 96 0C64 0 32 0 16 0H0V106Z" fill="#FFF0C8"/>
</svg>
