<svg width="960" height="147" viewBox="0 0 960 147" fill="none" xmlns="http://www.w3.org/2000/svg">
<path d="M0 147L14.5 138.2C29 129.3 58 111.7 87.2 103.3C116.3 95 145.7 96 174.8 93.7C204 91.3 233 85.7 262 92.5C291 99.3 320 118.7 349 112.3C378 106 407 74 436.2 55.5C465.3 37 494.7 32 523.8 45.8C553 59.7 582 92.3 611 98.7C640 105 669 85 698 71.3C727 57.7 756 50.3 785.2 56.7C814.3 63 843.7 83 872.8 89.5C902 96 931 89 945.5 85.5L960 82V0H945.5C931 0 902 0 872.8 0C843.7 0 814.3 0 785.2 0C756 0 727 0 698 0C669 0 640 0 611 0C582 0 553 0 523.8 0C494.7 0 465.3 0 436.2 0C407 0 378 0 349 0C320 0 291 0 262 0C233 0 204 0 174.8 0C145.7 0 116.3 0 87.2 0C58 0 29 0 14.5 0H0V147Z" fill="#FFF0C8"/>
</svg>
