<svg xmlns="http://www.w3.org/2000/svg" xmlns:xlink="http://www.w3.org/1999/xlink" viewBox="0 0 2098.94 574.86"><defs><style>.cls-1{fill:none;}.cls-2{fill:#1a1a1a;}.cls-3{clip-path:url(#clip-path);}.cls-4{fill:#ecdea4;}</style><clipPath id="clip-path" transform="translate(178.94 218.16)"><rect class="cls-1" width="1920" height="356.71"/></clipPath></defs><g id="Layer_2" data-name="Layer 2"><g id="Layer_1-2" data-name="Layer 1"><rect class="cls-2" x="178.94" y="218.16" width="1920" height="356.71"/><g class="cls-3"><path class="cls-4" d="M1773.4,227.25c-2.63-6.11-17.25-38.37-27.66-61.28,9,3.18,16.76,5.25,19,3.78,6-4-10.57-20.55-10.57-20.55s17.36,12.43,20.76,12.43,0-10,0-10,20.14,16.45,25.92,9.17-41.86-39.16-52-53.59c-2.31-3.27-5.7-8.52-9.52-14.63a9.18,9.18,0,0,0,3.41.4c4.49-1,0-9.55,0-9.55s21.82,13.85,29.74,10.76-21.07-19.89-24.36-26.42c-1.86-3.69-11.37-21.6-19.25-36.41,5.94,2,10.85,3.1,12.38,2.08,4.78-3.16-8.37-16.28-8.37-16.28S1746.56,27,1749.25,27s0-7.93,0-7.93,16,13,20.53,7.26-33.15-31-41.23-42.45c-4.12-5.84-12.51-19.51-19.74-31.5,5.65,3.33,13.06,7.12,15,5.41,3.29-2.86-4.18-8.22-10.31-16.08,0,0,26.9,18,32,15s-21.24-22.06-27.13-29.52c-3.34-4.22-14.44-22.11-23.46-36.86,4.82,4.07,11.79,9.45,14,8.42,3.43-1.61-5.74-14.48-5.74-14.48s15.72,4.47,17.68,2.15-10.31-11.24-22.7-25.73c-15.4-18-40.55-63.54-46.58-78.85-6,15.31-31.19,60.87-46.58,78.85-12.4,14.49-24.66,23.41-22.71,25.73s17.68-2.15,17.68-2.15-9.17,12.87-5.73,14.48c2.18,1,9.16-4.35,14-8.42-9,14.75-20.13,32.64-23.46,36.86-5.9,7.46-32.22,26.48-27.14,29.52s32-15,32-15c-6.12,7.86-13.6,13.22-10.31,16.08,2,1.71,9.38-2.08,15-5.41-7.23,12-15.62,25.66-19.74,31.5-8.07,11.44-45.81,36.69-41.23,42.45s20.53-7.26,20.53-7.26-2.69,7.93,0,7.93,16.44-9.85,16.44-9.85-13.14,13.12-8.37,16.28c1.54,1,6.44-.11,12.39-2.08-7.89,14.81-17.4,32.72-19.26,36.41-3.29,6.53-32.28,23.34-24.36,26.42s29.74-10.76,29.74-10.76-4.48,8.59,0,9.55a9.25,9.25,0,0,0,3.42-.4c-3.83,6.11-7.22,11.36-9.52,14.63-10.19,14.43-57.84,46.32-52.06,53.59s25.93-9.17,25.93-9.17-3.4,10,0,10S1549,149.2,1549,149.2s-16.6,16.56-10.56,20.55c2.21,1.47,10-.6,19-3.78-10.4,22.91-25,55.17-27.65,61.28-4.16,9.66-40.77,34.55-30.76,39.12s37.55-15.94,37.55-15.94-5.66,12.73,0,14.13S1565.36,252,1565.36,252s-8.85,16.56-1.54,18.82,33.08-26.29,33.08-26.29-7.74,13.66-3.4,20,17.74-10.88,17.74-10.88-5.29,22.11,0,21.21c5.1-.87,23.41-22.78,24.69-24.31V356.71h31.26V259c9.08,7.84,19.68,15.95,24.68,15.94,5.34,0,0-21.21,0-21.21s13.39,17.25,17.74,10.88-3.39-20-3.39-20,25.77,28.54,33.08,26.29-1.55-18.82-1.55-18.82,23.19,14,28.85,12.55,0-14.13,0-14.13,27.56,20.5,37.56,15.94S1777.55,236.91,1773.4,227.25Z" transform="translate(178.94 218.16)"/><polygon class="cls-4" points="0 510.56 108.38 395.83 127.56 375.52 158.42 329.21 164.06 315.17 171.32 309.79 199.67 348.15 220.96 361.53 232.52 371.62 272.79 321.99 283.12 323.34 305.28 295.48 322.89 282.46 331.85 289.19 369.66 348.15 417.13 395.63 446.94 410.48 473.02 378.83 477.68 364.06 490.57 359.17 521.87 405.28 610.97 510.56 518.8 414.38 490.34 370.68 489.25 390.15 476.41 407.55 483.56 431.84 360.08 501.95 422.63 455.12 424.58 442.1 443.55 417.05 414.41 399.77 350.63 331.74 325.81 295.51 302.71 351.62 260.43 391.18 321.78 353.97 312.6 367.42 285.41 389.33 326.34 378.83 331.65 401.27 194.64 486.06 312.6 432.2 357.36 466.78 152.54 501.38 235.81 440.25 80.88 493.21 169.08 439.61 191.46 429.12 224.82 382.53 215.79 363.54 196.4 352.56 172.84 314.68 156.02 353.44 98.33 416.15 174.27 348.15 162.11 395.63 121.19 428.91 115.8 455.32 0 510.56"/></g></g></g></svg>