<?xml version="1.0" encoding="UTF-8"?>
<svg id="Layer_2" data-name="Layer 2" xmlns="http://www.w3.org/2000/svg" viewBox="0 0 378.95 62.97">
  <defs>
    <style>
      .cls-1 {
        font-family: FreigeistXWide-Black, Freigeist;
        font-size: 54.28px;
        font-weight: 800;
      }

      .cls-1, .cls-2 {
        fill: #fff;
      }

      .cls-3 {
        letter-spacing: -.02em;
      }

      .cls-2 {
        stroke-width: 0px;
      }
    </style>
  </defs>
  <g id="Layer_1-2" data-name="Layer 1">
    <g>
      <path class="cls-2" d="m19.83,50.74c-.38,0-.77-.11-1.1-.33-.77-.51-18.73-12.66-18.73-27.44C0,12.03,8.9,3.13,19.83,3.13s19.83,8.9,19.83,19.83c0,14.78-17.97,26.93-18.73,27.44-.33.22-.72.33-1.1.33Zm0-43.64c-8.75,0-15.87,7.12-15.87,15.87,0,10.74,12.1,20.56,15.87,23.35,3.76-2.79,15.87-12.61,15.87-23.35,0-8.75-7.12-15.87-15.87-15.87Z"/>
      <path class="cls-2" d="m19.83,30.9c-4.38,0-7.93-3.56-7.93-7.93s3.56-7.93,7.93-7.93,7.93,3.56,7.93,7.93-3.56,7.93-7.93,7.93Zm0-11.9c-2.19,0-3.97,1.78-3.97,3.97s1.78,3.97,3.97,3.97,3.97-1.78,3.97-3.97-1.78-3.97-3.97-3.97Z"/>
    </g>
    <text class="cls-1" transform="translate(53.03 46.14)"><tspan x="0" y="0">ARI</tspan><tspan class="cls-3" x="118.94" y="0">E</tspan><tspan x="162.58" y="0">ȘENI</tspan></text>
  </g>
</svg>