<?xml version="1.0" encoding="utf-8"?>
<!-- Generator: Adobe Illustrator 26.0.1, SVG Export Plug-In . SVG Version: 6.00 Build 0)  -->
<svg version="1.1" id="Layer_1" xmlns="http://www.w3.org/2000/svg" xmlns:xlink="http://www.w3.org/1999/xlink" x="0px" y="0px"
	 viewBox="0 0 379 63" style="enable-background:new 0 0 379 63;" xml:space="preserve">
<style type="text/css">
	.st0{enable-background:new    ;}
	.st1{fill:#1A1A1A;}
</style>
<g id="Layer_1-2">
	<path d="M19.8,50.7c-0.4,0-0.8-0.1-1.1-0.3C18,49.9,0,37.7,0,23C-0.2,12,8.4,3,19.4,2.7s20,8.4,20.3,19.4c0,0.3,0,0.6,0,0.9
		c0,14.8-18,26.9-18.7,27.4C20.6,50.6,20.2,50.8,19.8,50.7z M19.8,7.1C11.1,7.1,4,14.2,4,23c0,10.7,12.1,20.5,15.9,23.3
		c3.7-2.8,15.8-12.6,15.8-23.3C35.7,14.2,28.6,7.1,19.8,7.1z"/>
	<path d="M19.8,30.9c-4.4,0-7.9-3.6-7.9-7.9s3.6-7.9,7.9-7.9c4.4,0,7.9,3.6,7.9,7.9l0,0C27.7,27.4,24.2,30.9,19.8,30.9z M19.8,19
		c-2.2,0-4,1.8-4,4s1.8,4,4,4s4-1.8,4-4S22,19,19.8,19z"/>
	<g class="st0">
		<path class="st1" d="M102.2,46.1h-8.9L89,37.4H65.9l-4.2,8.7h-8.4l19.2-38H83L102.2,46.1z M77.5,13.4l-8.4,17.5h16.8L77.5,13.4z"
			/>
		<path class="st1" d="M135.8,31.5v0.2c2,0.4,3.6,0.9,5,1.5c1.3,0.7,2.3,1.3,2.9,2.1c0.6,0.7,1.1,1.6,1.5,2.6s0.6,1.9,0.8,2.7
			c0.1,0.9,0.4,1.8,0.7,2.8c0.3,1,0.8,1.9,1.4,2.7h-9c-0.3-0.4-0.5-1-0.6-1.8c-0.1-0.8-0.3-1.7-0.3-2.6c-0.1-0.9-0.3-1.8-0.8-2.8
			c-0.5-1-1.1-1.9-1.9-2.6c-0.8-0.7-2.1-1.4-3.9-1.9c-1.8-0.5-4-0.8-6.5-0.8h-9v12.4h-8v-38h25.6c4.5,0,8,1,10.5,2.9
			c2.5,2,3.8,4.7,3.8,8.2c0,3.4-1,6.1-3.1,8.3C142.5,29.7,139.6,31.1,135.8,31.5z M115.8,14.8v12.3h16.3c2.3,0,4.1-0.6,5.5-1.9
			c1.4-1.3,2.1-2.8,2.1-4.7c0-1.8-0.7-3.2-2-4.2s-3-1.5-5.2-1.5H115.8z"/>
		<path class="st1" d="M163.7,46.1h-8v-38h8V46.1z"/>
	</g>
	<g class="st0">
		<path class="st1" d="M185.3,30.5v9h26.6v6.6h-34.6v-38h34.1v6.6h-26.1v9.1H209v6.6H185.3z"/>
	</g>
	<g class="st0">
		<path class="st1" d="M228.1,17.6c0,1.1,0.5,2,1.6,2.7c1.1,0.7,2.5,1.3,4.2,1.7c1.7,0.4,3.7,0.9,5.8,1.2c2.1,0.4,4.2,0.9,6.3,1.4
			c2.1,0.6,4,1.2,5.8,2c1.7,0.8,3.1,1.9,4.2,3.3c1.1,1.4,1.6,3.1,1.6,5.1c0,3.5-1.6,6.3-4.8,8.4c-3.2,2.1-7.3,3.1-12.4,3.1
			c-5,0-9.7-1-13.9-3s-7.2-4.6-9-7.7l5.4-4.8c1.2,2.6,3.5,5,6.7,7c3.2,2,7,3,11.4,3c2.6,0,4.6-0.4,6.1-1.3c1.5-0.8,2.2-2,2.2-3.6
			c0-1.2-0.7-2.2-2.2-3c-1.5-0.8-3.3-1.4-5.5-1.8c-2.2-0.4-4.6-0.9-7.2-1.5c-2.6-0.6-5-1.3-7.2-2.1s-4-1.9-5.5-3.5
			c-1.5-1.6-2.2-3.5-2.2-5.8c0-3.4,1.5-6.1,4.5-8.1s6.9-3,11.8-3c5.2,0,9.7,1,13.5,3c3.8,2,6.4,4.4,7.7,7.3l-5.9,4.4
			c-0.7-2.4-2.5-4.5-5.5-6.4c-3-1.9-6.5-2.8-10.4-2.8C230.5,13.1,228.1,14.6,228.1,17.6z M237,49.5c1.2,0,2.2,0.4,3,1.3
			c0.7,0.9,1.1,2.1,1.1,3.5c0,2.7-0.7,4.7-2.2,6.1c-1.4,1.4-3.4,2-6,2v-3.1c3.3,0.7,5.2-0.3,5.8-3c-0.5,0.2-1,0.3-1.5,0.3
			c-1.1,0-2-0.3-2.8-1c-0.8-0.7-1.2-1.5-1.2-2.5c0-1.1,0.4-1.9,1.1-2.6C235.1,49.8,235.9,49.5,237,49.5z"/>
		<path class="st1" d="M273.1,30.5v9h26.6v6.6h-34.6v-38h34.1v6.6h-26.1v9.1h23.8v6.6H273.1z"/>
		<path class="st1" d="M342.8,40.3V8.1h8v38H338l-21-31.4v31.4h-8v-38h12.1L342.8,40.3z"/>
		<path class="st1" d="M369.4,46.1h-8v-38h8V46.1z"/>
	</g>
</g>
</svg>
