<svg xmlns="http://www.w3.org/2000/svg" viewBox="0 0 1944.13 873.14"><defs><style>.cls-1{fill:#ecdea4;}</style></defs><g id="Layer_2" data-name="Layer 2"><g id="Layer_1-2" data-name="Layer 1"><path class="cls-1" d="M1932,398.81c-1-2.28-6.45-14.35-10.35-22.93,3.36,1.2,6.28,2,7.1,1.42,2.26-1.5-4-7.69-4-7.69s6.5,4.65,7.77,4.65,0-3.75,0-3.75,7.54,6.15,9.7,3.43-15.67-14.65-19.48-20.05c-.86-1.22-2.12-3.18-3.55-5.46a3.22,3.22,0,0,0,1.26.13c1.68-.35,0-3.57,0-3.57s8.17,5.18,11.13,4-7.88-7.45-9.11-9.89c-.7-1.38-4.26-8.08-7.21-13.63,2.23.74,4.06,1.16,4.64.78,1.78-1.18-3.13-6.09-3.13-6.09s5.14,3.69,6.15,3.69,0-3,0-3,6,4.87,7.68,2.72-12.41-11.61-15.43-15.89c-1.54-2.18-4.68-7.3-7.38-11.78,2.11,1.24,4.88,2.66,5.62,2,1.23-1.07-1.57-3.08-3.86-6,0,0,10.07,6.75,12,5.62s-8-8.26-10.16-11.05c-1.24-1.58-5.4-8.27-8.77-13.79,1.8,1.52,4.41,3.53,5.23,3.15,1.28-.6-2.15-5.42-2.15-5.42s5.88,1.67,6.61.8-3.85-4.2-8.49-9.62c-5.76-6.73-15.17-23.78-17.43-29.51-2.26,5.73-11.67,22.78-17.43,29.51-4.64,5.42-9.23,8.76-8.5,9.62s6.62-.8,6.62-.8-3.43,4.82-2.15,5.42c.82.38,3.43-1.63,5.24-3.15-3.38,5.52-7.54,12.21-8.78,13.79-2.21,2.79-12.06,9.91-10.16,11.05s12-5.62,12-5.62c-2.29,2.94-5.09,5-3.86,6,.74.64,3.51-.78,5.62-2-2.7,4.48-5.84,9.6-7.38,11.78-3,4.28-17.14,13.73-15.43,15.89s7.68-2.72,7.68-2.72-1,3,0,3,6.16-3.69,6.16-3.69-4.92,4.91-3.14,6.09c.58.38,2.41,0,4.64-.78-1.48,2.77-3.1,5.82-4.44,8.36-7.06-6.89-20.1-16.52-23.84-21.82-1.25-1.77-3.07-4.59-5.14-7.9a4.83,4.83,0,0,0,1.84.19c2.42-.52,0-5.18,0-5.18s11.82,7.51,16.11,5.84-11.42-10.78-13.2-14.32c-1-2-6.16-11.7-10.43-19.73,3.22,1.07,5.88,1.68,6.71,1.13,2.58-1.72-4.54-8.83-4.54-8.83s7.45,5.34,8.91,5.34,0-4.3,0-4.3,8.65,7.06,11.12,3.94-18-16.81-22.34-23c-2.23-3.16-6.78-10.56-10.69-17.06,3.06,1.8,7.07,3.85,8.14,2.93,1.78-1.55-2.27-4.46-5.59-8.72,0,0,14.58,9.78,17.33,8.14s-11.51-12-14.7-16c-1.81-2.29-7.83-12-12.71-20,2.61,2.21,6.39,5.12,7.57,4.57,1.86-.88-3.11-7.85-3.11-7.85s8.52,2.42,9.58,1.16-5.58-6.09-12.3-13.94c-8.34-9.74-22-34.43-25.24-42.73-3.27,8.3-16.9,33-25.24,42.73-6.72,7.85-13.37,12.68-12.31,13.94s9.58-1.16,9.58-1.16-5,7-3.1,7.85c1.18.55,5-2.36,7.57-4.57-4.89,8-10.91,17.69-12.71,20a71.18,71.18,0,0,1-6.89,6.49c-1.91-1.88-4.28-4.22-6.67-7-7.24-8.45-19.07-29.88-21.9-37.08-2.84,7.2-14.67,28.63-21.91,37.08-5.83,6.82-11.59,11-10.68,12.1s8.32-1,8.32-1-4.32,6.05-2.7,6.81c1,.49,4.31-2,6.58-4-4.25,6.94-9.47,15.35-11,17.34-2.77,3.5-15.15,12.45-12.76,13.88s15-7.06,15-7.06c-2.88,3.7-6.39,6.22-4.85,7.56.93.81,4.41-1,7.07-2.53-3.4,5.63-7.35,12.06-9.28,14.8-3.8,5.38-21.54,17.26-19.39,20s9.65-3.42,9.65-3.42-1.26,3.73,0,3.73,7.74-4.63,7.74-4.63-6.19,6.17-3.94,7.66c.72.47,3-.05,5.82-1-3.71,7-8.18,15.38-9,17.12-1.37,2.71-12.12,9.17-12.1,11.66-1.63-3.09-3.9-7.36-5.92-11.15,2.48.82,4.52,1.28,5.16.86,2-1.31-3.49-6.77-3.49-6.77s5.73,4.1,6.85,4.1,0-3.3,0-3.3,6.63,5.42,8.54,3-13.8-12.91-17.16-17.66c-1.71-2.43-5.2-8.12-8.21-13.11,2.35,1.39,5.43,3,6.25,2.25,1.37-1.19-1.74-3.42-4.29-6.69,0,0,11.2,7.51,13.31,6.24s-8.84-9.18-11.29-12.28c-1.39-1.76-6-9.2-9.76-15.34,2,1.7,4.91,3.93,5.81,3.51,1.43-.68-2.38-6-2.38-6s6.54,1.86,7.35.89-4.29-4.67-9.44-10.7c-6.41-7.48-16.88-26.44-19.39-32.81-2.51,6.37-13,25.33-19.38,32.81-5.16,6-10.26,9.74-9.45,10.7s7.36-.89,7.36-.89-3.81,5.35-2.38,6c.9.42,3.81-1.81,5.81-3.51-3.75,6.14-8.37,13.58-9.76,15.34-2.45,3.1-13.41,11-11.29,12.28s13.31-6.24,13.31-6.24c-2.55,3.27-5.66,5.5-4.29,6.69.81.71,3.9-.86,6.25-2.25-3,5-6.5,10.68-8.22,13.11-3.35,4.75-19,15.26-17.15,17.66s8.54-3,8.54-3-1.12,3.3,0,3.3,6.84-4.1,6.84-4.1-5.47,5.46-3.48,6.77c.64.42,2.68,0,5.15-.86-1.63,3.07-3.44,6.46-4.93,9.29-7.85-7.67-22.35-18.37-26.51-24.27-1.38-2-3.41-5.1-5.71-8.77a5.08,5.08,0,0,0,2,.2c2.71-.57,0-5.75,0-5.75s13.15,8.34,17.93,6.48-12.7-12-14.68-15.92c-1.13-2.23-6.85-13-11.61-21.94,3.59,1.19,6.54,1.86,7.47,1.25,2.87-1.9-5.05-9.81-5.05-9.81s8.29,5.94,9.91,5.94,0-4.78,0-4.78,9.61,7.85,12.37,4.37-20-18.69-24.84-25.58c-2.48-3.51-7.54-11.74-11.9-19,3.41,2,7.87,4.28,9.06,3.25,2-1.72-2.52-5-6.22-9.69,0,0,16.21,10.88,19.28,9.05s-12.8-13.3-16.36-17.79c-2-2.55-8.7-13.33-14.13-22.21,2.9,2.45,7.11,5.69,8.42,5.07,2.07-1-3.45-8.72-3.45-8.72s9.47,2.69,10.65,1.29-6.21-6.78-13.68-15.5c-9.28-10.84-24.44-38.3-28.07-47.52-3.64,9.22-18.79,36.68-28.07,47.52-7.47,8.72-14.86,14.1-13.68,15.5s10.65-1.29,10.65-1.29-5.53,7.75-3.45,8.72c1.31.62,5.51-2.62,8.42-5.08-5.44,8.89-12.13,19.67-14.14,22.22a79.57,79.57,0,0,1-7.66,7.22c-2.12-2.09-4.76-4.69-7.41-7.79-8-9.41-21.21-33.24-24.36-41.24-3.15,8-16.31,31.83-24.36,41.24-6.48,7.57-12.9,12.24-11.87,13.45s9.24-1.12,9.24-1.12-4.8,6.73-3,7.57c1.14.54,4.79-2.27,7.31-4.4-4.72,7.71-10.52,17.07-12.27,19.27-3.08,3.9-16.84,13.85-14.19,15.44s16.73-7.85,16.73-7.85c-3.2,4.11-7.11,6.92-5.39,8.41,1,.9,4.9-1.08,7.85-2.82-3.78,6.27-8.16,13.41-10.32,16.46-4.22,6-24,19.19-21.56,22.2,1.87,2.36,7.37-1.28,9.68-3,.27,0,.55-.06.85-.1-.33,1.18-.83,3.44.21,3.44a4.78,4.78,0,0,0,1.68-.67c-.33.83-.45,1.53,0,1.74s1.73-.46,3-1.39c-.77,1.26-1.23,2.47-.84,3.23-2.49,4-4.83,7.68-5.71,8.8-2.2,2.79-12,9.91-10.15,11.05s12-5.62,12-5.62c-2.3,2.94-5.09,5-3.86,6,.56.49,2.34-.24,4.09-1.17-3,3.77-16.18,11.63-12.29,13.15,1.17.45,2.92.2,4.82-.39-4.7,4.71-15.31,12.17-13.81,14.06,1.71,2.15,7.68-2.72,7.68-2.72s-1,3,0,3,6.15-3.69,6.15-3.69-4.92,4.91-3.13,6.09a1.31,1.31,0,0,0,.7.14c-1.46,1.25-3,2.52-4.47,3.79-7.19-6.34-16.76-13.76-19.87-18.17-1.25-1.77-3.07-4.59-5.15-7.9a4.85,4.85,0,0,0,1.84.19c2.43-.52,0-5.18,0-5.18s11.83,7.51,16.12,5.84-11.42-10.78-13.2-14.32c-1-2-6.17-11.7-10.44-19.73,3.22,1.07,5.88,1.68,6.71,1.13,2.59-1.72-4.53-8.83-4.53-8.83s7.45,5.34,8.91,5.34,0-4.3,0-4.3,8.64,7.06,11.12,3.94-18-16.81-22.34-23c-2.23-3.16-6.78-10.56-10.7-17.06,3.06,1.8,7.08,3.85,8.15,2.93,1.78-1.55-2.27-4.46-5.59-8.72,0,0,14.58,9.78,17.33,8.14s-11.51-12-14.7-16c-1.81-2.29-7.83-12-12.72-20,2.61,2.21,6.4,5.12,7.58,4.57,1.86-.88-3.11-7.85-3.11-7.85s8.52,2.42,9.58,1.16-5.58-6.09-12.3-13.94c-8.35-9.74-22-34.43-25.25-42.73-3.26,8.3-16.89,33-25.24,42.73-6.72,7.85-13.36,12.68-12.3,13.94s9.58-1.16,9.58-1.16-5,7-3.11,7.85c1.18.55,5-2.36,7.58-4.57-4.89,8-10.91,17.69-12.72,20a70.84,70.84,0,0,1-6.88,6.49c-1.91-1.88-4.28-4.22-6.67-7-7.24-8.45-19.07-29.88-21.91-37.08-2.38,6-11.09,22.09-18.11,32.1-5.93-5-12.07-10.13-14.43-13.48-2.79-3.94-8.45-13.17-13.33-21.26,3.81,2.24,8.82,4.79,10.14,3.64,2.22-1.93-2.82-5.55-7-10.86,0,0,18.16,12.19,21.6,10.14s-14.35-14.9-18.33-19.94c-2.25-2.85-9.75-14.93-15.84-24.89,3.26,2.75,8,6.39,9.44,5.69,2.32-1.09-3.87-9.77-3.87-9.77s10.61,3,11.94,1.45-7-7.6-15.33-17.37c-10.4-12.15-27.38-42.91-31.45-53.24-4.08,10.33-21.06,41.09-31.45,53.24-3.43,4-6.83,7.36-9.58,10.06-4.11-3.63-8.14-7.13-9.88-9.33-2.6-3.28-11.24-17.2-18.26-28.67,3.75,3.16,9.18,7.34,10.88,6.55,2.67-1.26-4.46-11.27-4.46-11.27s12.23,3.48,13.75,1.67-8-8.74-17.66-20c-12-14-31.55-49.44-36.24-61.35-4.69,11.91-24.26,47.35-36.24,61.35-9.65,11.27-19.19,18.2-17.66,20s13.75-1.67,13.75-1.67-7.14,10-4.46,11.27c1.69.79,7.12-3.39,10.87-6.55-7,11.47-15.66,25.39-18.25,28.67-4.59,5.81-25.06,20.61-21.11,23s24.88-11.68,24.88-11.68c-4.76,6.12-10.58,10.29-8,12.51,1.53,1.33,7.29-1.61,11.69-4.19-5.63,9.32-12.15,19.95-15.36,24.49-4.16,5.9-18.44,16.5-26.57,24.3-4.29-3.9-9.45-8.14-11.34-10.53-2.14-2.71-9.29-14.22-15.09-23.71,3.1,2.62,7.59,6.08,9,5.42,2.21-1-3.69-9.31-3.69-9.31s10.12,2.87,11.38,1.38-6.63-7.24-14.61-16.55c-9.9-11.57-26.08-40.88-30-50.72-3.88,9.84-20.06,39.15-30,50.72-8,9.31-15.86,15-14.6,16.55s11.37-1.38,11.37-1.38-5.9,8.27-3.69,9.31c1.4.66,5.89-2.8,9-5.42-5.8,9.49-12.94,21-15.09,23.71-3.79,4.8-20.72,17-17.45,19s20.57-9.65,20.57-9.65c-3.94,5.06-8.75,8.5-6.63,10.34,1.26,1.1,6-1.33,9.66-3.46-4.65,7.7-10,16.49-12.7,20.25-3.91,5.54-18.66,16.13-24.43,22.6-2.58-3.85-6.8-10.74-10.5-16.88,3.27,1.93,7.56,4.12,8.7,3.13,1.91-1.66-2.42-4.76-6-9.31,0,0,15.58,10.45,18.52,8.69s-12.3-12.78-15.71-17.09c-1.93-2.45-8.36-12.8-13.58-21.34,2.79,2.35,6.83,5.46,8.09,4.87,2-.93-3.32-8.38-3.32-8.38s9.1,2.58,10.23,1.24-6-6.51-13.14-14.9c-8.92-10.41-23.48-36.79-27-45.65-3.5,8.86-18.06,35.24-27,45.65-2.94,3.44-5.86,6.32-8.21,8.63-3.53-3.1-7-6.11-8.48-8-2.23-2.81-9.63-14.75-15.65-24.59,3.21,2.72,7.87,6.31,9.32,5.62,2.3-1.08-3.82-9.66-3.82-9.66s10.49,3,11.79,1.43-6.87-7.5-15.15-17.16c-10.27-12-27-42.4-31.07-52.61-4,10.21-20.81,40.61-31.08,52.61-8.27,9.66-16.45,15.61-15.15,17.16s11.8-1.43,11.8-1.43-6.12,8.58-3.83,9.66c1.45.69,6.11-2.9,9.33-5.62-6,9.84-13.43,21.78-15.66,24.59-3.93,5-21.49,17.67-18.1,19.7s21.34-10,21.34-10c-4.09,5.24-9.08,8.82-6.88,10.73,1.31,1.14,6.25-1.39,10-3.6-4.82,8-10.42,17.11-13.17,21-5.38,7.63-30.56,24.48-27.5,28.32s13.7-4.84,13.7-4.84-1.8,5.29,0,5.29,11-6.57,11-6.57-8.78,8.75-5.59,10.86c1,.68,4.29-.07,8.26-1.39-5.26,9.89-11.6,21.83-12.85,24.3-1,2.07-6,5.7-10.28,9.15-4.91-4.17-10.27-8.55-12.24-11.35-2.16-3.05-6.55-10.19-10.33-16.46,3,1.74,6.83,3.72,7.86,2.82,1.72-1.49-2.19-4.3-5.39-8.41,0,0,14.07,9.44,16.72,7.85s-11.1-11.54-14.19-15.44c-1.74-2.2-7.55-11.56-12.27-19.27,2.52,2.13,6.17,4.94,7.31,4.4,1.8-.84-3-7.57-3-7.57s8.22,2.33,9.24,1.12-5.39-5.88-11.87-13.45c-8-9.41-21.21-33.24-24.36-41.24-3.16,8-16.31,31.83-24.36,41.24-2.66,3.1-5.29,5.7-7.41,7.79a78.37,78.37,0,0,1-7.66-7.22c-2-2.55-8.71-13.33-14.14-22.22,2.9,2.46,7.11,5.7,8.42,5.08,2.07-1-3.45-8.72-3.45-8.72s9.47,2.69,10.65,1.29-6.21-6.78-13.68-15.5c-9.28-10.84-24.44-38.3-28.07-47.52-3.63,9.22-18.79,36.68-28.07,47.52-7.47,8.72-14.86,14.1-13.68,15.5s10.65-1.29,10.65-1.29-5.53,7.75-3.45,8.72c1.31.62,5.52-2.62,8.42-5.07-5.44,8.88-12.13,19.66-14.14,22.21-3.55,4.49-19.41,16-16.35,17.79s19.27-9.05,19.27-9.05c-3.69,4.74-8.19,8-6.21,9.69,1.18,1,5.65-1.25,9.05-3.25-4.35,7.23-9.41,15.46-11.89,19-4.86,6.89-27.6,22.11-24.84,25.58s12.37-4.37,12.37-4.37-1.62,4.78,0,4.78,9.91-5.94,9.91-5.94-7.93,7.91-5,9.81c.93.61,3.88-.06,7.46-1.25-4.75,8.93-10.48,19.71-11.6,21.94-2,3.93-19.45,14.06-14.68,15.92s17.92-6.48,17.92-6.48-2.7,5.18,0,5.75a5.11,5.11,0,0,0,2-.2c-2.3,3.67-4.33,6.81-5.72,8.77-4.15,5.9-18.65,16.6-26.5,24.27-1.5-2.83-3.3-6.22-4.94-9.29,2.48.82,4.52,1.28,5.16.86,2-1.31-3.49-6.77-3.49-6.77s5.73,4.1,6.84,4.1,0-3.3,0-3.3,6.64,5.42,8.55,3-13.8-12.91-17.16-17.66c-1.71-2.43-5.2-8.12-8.21-13.11,2.35,1.39,5.43,3,6.25,2.25,1.37-1.19-1.74-3.42-4.29-6.69,0,0,11.19,7.51,13.31,6.24s-8.84-9.18-11.29-12.28c-1.39-1.76-6-9.2-9.76-15.34,2,1.7,4.91,3.93,5.81,3.51,1.43-.68-2.38-6-2.38-6s6.54,1.86,7.35.89-4.29-4.67-9.45-10.7c-6.4-7.48-16.87-26.44-19.38-32.81-2.51,6.37-13,25.33-19.38,32.81-5.16,6-10.26,9.74-9.45,10.7s7.36-.89,7.36-.89-3.82,5.35-2.39,6c.91.42,3.82-1.81,5.82-3.51-3.75,6.14-8.37,13.58-9.76,15.34-2.45,3.1-13.41,11-11.29,12.28S309,274.57,309,274.57c-2.55,3.27-5.66,5.5-4.29,6.69.81.71,3.9-.86,6.25-2.25-3,5-6.5,10.68-8.22,13.11-3.35,4.75-19.06,15.26-17.15,17.66s8.54-3,8.54-3-1.12,3.3,0,3.3S301,306,301,306s-5.47,5.46-3.48,6.77c.64.42,2.68,0,5.15-.86L296.75,323c0-2.49-10.73-8.95-12.09-11.66-.87-1.74-5.35-10.15-9.05-17.12,2.79.93,5.1,1.45,5.82,1,2.25-1.49-3.94-7.66-3.94-7.66s6.47,4.63,7.73,4.63,0-3.73,0-3.73,7.51,6.13,9.66,3.42-15.59-14.59-19.39-20c-1.94-2.74-5.88-9.17-9.28-14.8,2.65,1.56,6.14,3.34,7.07,2.53,1.54-1.34-2-3.86-4.85-7.56,0,0,12.65,8.49,15,7.06s-10-10.38-12.76-13.88c-1.57-2-6.8-10.4-11-17.34,2.27,1.92,5.55,4.45,6.58,4,1.61-.76-2.7-6.81-2.7-6.81s7.39,2.1,8.31,1S267,220.8,261.18,214c-7.23-8.45-19.06-29.88-21.9-37.08-2.84,7.2-14.67,28.63-21.91,37.08-2.38,2.79-4.75,5.14-6.66,7a70,70,0,0,1-6.89-6.49c-1.81-2.29-7.83-12-12.71-20,2.61,2.21,6.39,5.12,7.57,4.57,1.87-.88-3.11-7.85-3.11-7.85s8.52,2.42,9.58,1.16-5.58-6.09-12.3-13.94c-8.34-9.74-22-34.43-25.24-42.73-3.27,8.3-16.9,33-25.24,42.73-6.72,7.85-13.37,12.68-12.31,13.94s9.58-1.16,9.58-1.16-5,7-3.1,7.85c1.18.55,5-2.36,7.57-4.57-4.89,8-10.91,17.69-12.71,20-3.19,4-17.46,14.35-14.71,16S134,222.36,134,222.36c-3.32,4.26-7.38,7.17-5.59,8.72,1.06.92,5.08-1.13,8.14-2.93-3.92,6.5-8.46,13.9-10.7,17.06-4.37,6.2-24.82,19.88-22.34,23s11.13-3.94,11.13-3.94-1.46,4.3,0,4.3,8.91-5.34,8.91-5.34-7.13,7.11-4.54,8.83c.83.55,3.49-.06,6.71-1.13-4.27,8-9.42,17.73-10.43,19.73-1.79,3.54-17.5,12.65-13.2,14.32s16.11-5.84,16.11-5.84-2.43,4.66,0,5.18a4.83,4.83,0,0,0,1.84-.19c-2.07,3.31-3.9,6.13-5.15,7.9-3.74,5.3-16.77,14.92-23.83,21.82l-4.44-8.36c2.23.74,4.06,1.16,4.63.78,1.79-1.18-3.13-6.09-3.13-6.09s5.15,3.69,6.15,3.69,0-3,0-3,6,4.87,7.69,2.72S89.58,312,86.56,307.74c-1.54-2.18-4.68-7.3-7.39-11.78,2.12,1.24,4.89,2.66,5.63,2,1.23-1.07-1.57-3.08-3.86-6,0,0,10.06,6.75,12,5.62s-8-8.26-10.16-11.05c-1.25-1.58-5.4-8.27-8.78-13.79,1.81,1.52,4.42,3.53,5.23,3.15,1.29-.6-2.14-5.42-2.14-5.42s5.88,1.67,6.61.8-3.85-4.2-8.49-9.62c-5.76-6.73-15.17-23.78-17.43-29.51-2.26,5.73-11.67,22.78-17.43,29.51-4.64,5.42-9.23,8.76-8.5,9.62s6.62-.8,6.62-.8-3.43,4.82-2.15,5.42c.82.38,3.43-1.63,5.23-3.15C38.15,278.26,34,285,32.74,286.53c-2.2,2.79-12,9.91-10.15,11.05s12-5.62,12-5.62c-2.3,2.94-5.09,5-3.86,6,.73.64,3.51-.78,5.62-2-2.7,4.48-5.84,9.6-7.38,11.78-3,4.28-17.14,13.73-15.43,15.89s7.68-2.72,7.68-2.72-1,3,0,3,6.15-3.69,6.15-3.69-4.92,4.91-3.13,6.09c.57.38,2.41,0,4.63-.78-2.95,5.55-6.5,12.25-7.2,13.63-1.23,2.44-12.08,8.73-9.12,9.89s11.13-4,11.13-4-1.68,3.22,0,3.57a3.26,3.26,0,0,0,1.27-.13c-1.43,2.28-2.69,4.24-3.55,5.46-3.82,5.4-21.64,17.33-19.48,20.05s9.7-3.43,9.7-3.43-1.27,3.75,0,3.75,7.77-4.65,7.77-4.65-6.21,6.19-4,7.69c.83.55,3.75-.22,7.1-1.41-3.89,8.57-9.36,20.64-10.34,22.92C10.6,402.43-3.1,411.74.65,413.45s14.05-6,14.05-6-2.12,4.76,0,5.29,10.8-4.7,10.8-4.7-3.32,6.2-.58,7,12.37-9.84,12.37-9.84-2.89,5.11-1.26,7.5,6.63-4.08,6.63-4.08-2,8.28,0,7.94,8.77-8.53,9.24-9.1v39.72H63.6V410.68c3.39,2.93,7.36,6,9.23,6s0-7.94,0-7.94,5,6.46,6.64,4.08-1.27-7.5-1.27-7.5,9.65,10.68,12.38,9.84-.58-7-.58-7,8.68,5.22,10.8,4.7,0-5.29,0-5.29,10.31,7.67,14,6-10-11-11.51-14.64c-.37-.85-1.37-3.1-2.69-6,2.7-1.71,4.61-3.14,4.61-3.14s-3.06,6.9,0,7.66,15.64-6.8,15.64-6.8-4.8,9-.84,10.2S138,386.47,138,386.47s-4.2,7.4-1.84,10.85,9.61-5.89,9.61-5.89-2.86,12,0,11.49,12.53-12.15,13.38-13.18v57.52h16.94V402.9a63.31,63.31,0,0,0,6.21-3.63c.63.46,1.25.89,1.85,1.29-.29,1.51-.24,3.05,1,3.36.81.2,2.38-.27,4.18-1h.11a.91.91,0,0,0,.74-.38,94.62,94.62,0,0,0,8.54-4.52s-4.16,7.79-.72,8.85c2.2.68,8-4.59,11.83-8.46.6.45,1.19.84,1.74,1.18a5.69,5.69,0,0,0,.39,4.33c2,3,8.34-5.12,8.34-5.12s-2.49,10.4,0,10,10.86-10.54,11.61-11.44v49.92h14.7v-46c4.27,3.69,9.26,7.5,11.61,7.5,2.51,0,0-10,0-10s6.3,8.12,8.34,5.12-1.59-9.41-1.59-9.41a108.33,108.33,0,0,0,9.26,9c-2.86,2.83-4.76,5.29-2.93,6.13,4.16,1.89,15.62-6.64,15.62-6.64s-2.36,5.3,0,5.88,12-5.22,12-5.22-3.69,6.89-.65,7.83c1.79.55,6.23-3.32,9.58-6.6a6.67,6.67,0,0,0,2.46.07,5.05,5.05,0,0,0,.32,3.92c1.81,2.65,7.38-4.52,7.38-4.52s-2.2,9.2,0,8.82,9.75-9.49,10.27-10.12v44.17h13V406.58c3.78,3.26,8.19,6.64,10.27,6.63s0-8.82,0-8.82,5.57,7.17,7.38,4.52-1.41-8.33-1.41-8.33,10.72,11.88,13.76,10.94-.64-7.83-.64-7.83,9.65,5.81,12,5.22,0-5.88,0-5.88,11.46,8.53,15.62,6.64-11.07-12.26-12.8-16.28c-.41-1-1.52-3.45-3-6.69,3-1.91,5.13-3.49,5.13-3.49s-3.41,7.67,0,8.52S405,384.17,405,384.17s-5.33,10-.93,11.33S424,379.67,424,379.67s-4.66,8.22-2,12.06,10.68-6.56,10.68-6.56-3.18,13.32,0,12.78,13.93-13.51,14.88-14.65v64H466.4V404a68,68,0,0,0,9.14-5.62l0,0c-.28.66-2.41,5.83,0,6.44,2.61.64,13.3-5.79,13.3-5.79s-4.08,7.63-.72,8.67,15.24-12.11,15.24-12.11-3.56,6.29-1.56,9.23,8.17-5,8.17-5-2.43,10.19,0,9.77c1.15-.2,3.76-2.72,6.2-5.33a26.87,26.87,0,0,0,5.17-4.51v47.54h23.46V408.84a5.74,5.74,0,0,0,2.32.72c2.46,0,0-9.77,0-9.77s6.17,7.95,8.17,5a3.5,3.5,0,0,0,.4-.88,5.4,5.4,0,0,0,2,.54c1,0,1.31-1.58,1.23-3.53,3.63,3.5,8.15,7.33,10,6.75,3.36-1-.71-8.67-.71-8.67s10.68,6.43,13.29,5.79c1-.26,1.24-1.34,1.12-2.55a2.28,2.28,0,0,0,1.34-2.25c3.92,2.61,11.5,7.15,14.84,5.63,2-.9,0-3.51-3-6.56a2.75,2.75,0,0,0,1,0c3-.74,0-7.39,0-7.39s14.41,10.72,19.64,8.33c3-1.37-2-6.26-7.29-11.13,6.87-3.92,18.2-16.46,18.2-16.46s-5.17,9.11-2.27,13.36S637,378.52,637,378.52s-3.53,14.75,0,14.15c3.37-.58,15.42-15,16.47-16.22v70.81h20.86V392.65a76.83,76.83,0,0,0,7.64-4.47c.78.56,1.54,1.09,2.28,1.58-.36,1.86-.3,3.75,1.27,4.14,1,.25,2.93-.33,5.14-1.24h.14a1.1,1.1,0,0,0,.9-.46,115.92,115.92,0,0,0,10.53-5.58s-5.13,9.59-.9,10.9c2.71.84,9.82-5.65,14.57-10.42a23.44,23.44,0,0,0,2.15,1.46c-.43,1.95-.48,3.94.47,5.33,2.52,3.69,10.27-6.3,10.27-6.3s-3.06,12.8,0,12.28,13.38-13,14.3-14.07v61.45h18.1V390.65c5.25,4.54,11.39,9.24,14.29,9.23,2.36,0,1.12-7.15.4-10.53.29-.06.59-.12.89-.2,2.31,2.65,7.1,7.51,9,4.75,1.47-2.15.55-5.73-.46-8.34l1-.57c4.44,4.63,13.49,13.51,16.64,12.54,4.23-1.31-.9-10.9-.9-10.9s13.43,8.09,16.71,7.27c1.76-.43,1.63-2.76,1.13-4.83.56-.42,1.14-.87,1.73-1.35,4.85,3.25,14.62,9.17,18.88,7.23,2.32-1.06.32-4-3.07-7.5a39.21,39.21,0,0,0,6.4-6.47s-3.4,14.22,0,13.64S858.65,380.2,859.66,379v68.27h20.11V384.37c5.84,5,12.66,10.26,15.88,10.25,3.44,0,0-13.64,0-13.64s8.62,11.1,11.41,7-2.18-12.88-2.18-12.88,16.58,18.36,21.28,16.91-1-12.1-1-12.1,14.92,9,18.57,8.07c2.68-.67,1.41-5.28.55-7.67a8.41,8.41,0,0,0,.94-.35c4.4,3.08,17.36,11.6,22.66,9.18,4.34-2-5-9.9-12.28-16.76C962,366.65,968,360,968,360s-6,10.62-2.64,15.58,13.8-8.47,13.8-8.47-4.11,17.2,0,16.5c3.93-.67,18-17.44,19.21-18.91v82.57h24.32V383.58a88.85,88.85,0,0,0,8.92-5.22c.9.66,1.79,1.28,2.65,1.85-.42,2.17-.34,4.38,1.49,4.83,1.16.29,3.42-.38,6-1.46l.16,0a1.29,1.29,0,0,0,1-.54,133,133,0,0,0,12.28-6.5s-6,11.19-1,12.71c3.16,1,11.44-6.59,17-12.15.87.65,1.71,1.22,2.51,1.71-.5,2.26-.56,4.59.55,6.21,2.93,4.3,12-7.35,12-7.35s-3.56,14.93,0,14.32,15.61-15.14,16.67-16.41v71.66H1124v-66c4.39,3.79,9.3,7.67,13,9.56-5.44,5.32-14.3,12.35-10.76,14,4.7,2.15,17.66-7.49,17.66-7.49s-2.67,6,0,6.64,13.57-5.9,13.57-5.9-4.16,7.79-.73,8.85,15.56-12.36,15.56-12.36-3.64,6.42-1.6,9.41,8.34-5.12,8.34-5.12-2.51,10,0,10c2.36,0,7.34-3.81,11.61-7.5v46h14.7V397.34c.74.89,9.24,11,11.62,11.44s0-10,0-10,6.29,8.12,8.34,5.12a5.65,5.65,0,0,0,.38-4.33c.56-.34,1.14-.73,1.75-1.18,3.86,3.87,9.62,9.14,11.83,8.46,3.43-1.06-.73-8.85-.73-8.85a93.94,93.94,0,0,0,8.55,4.52.88.88,0,0,0,.74.38h.1c1.8.74,3.37,1.21,4.18,1,1.27-.31,1.32-1.85,1-3.36.6-.4,1.22-.83,1.85-1.29a63.31,63.31,0,0,0,6.21,3.63v44.36h16.95V389.75c.86,1,10.64,12.7,13.37,13.17s0-11.49,0-11.49,7.26,9.34,9.61,5.89-1.83-10.85-1.83-10.85,14,15.47,17.92,14.25-.84-10.2-.84-10.2a97.81,97.81,0,0,0,11.41,5.87c-1.17,1.7-1.44,3-.1,3.62s3.54.33,5.85-.49c-2.73,4-14.62,12.33-11.11,13.93,3.75,1.71,14.06-6,14.06-6s-2.12,4.76,0,5.29,10.79-4.7,10.79-4.7-3.31,6.2-.58,7,12.38-9.84,12.38-9.84-2.89,5.11-1.27,7.5,6.64-4.08,6.64-4.08-2,7.93,0,7.94,5.84-3,9.24-6v36.58h11.69V407.54c.48.57,7.33,8.77,9.24,9.1s0-7.94,0-7.94,2.64,3.39,4.71,4.34v34.22h16.34v-37c2.6,1.37,5.75,2.82,6.92,2.53,2.11-.53,0-5.29,0-5.29s10.31,7.67,14,6c2.51-1.14-2.83-5.71-7.08-9.69.92-2.45-1-10.38-1-10.38s7,9,9.27,5.69c.86-1.26.81-3.06.43-4.82.62-.37,1.27-.82,1.94-1.31,4.29,4.3,10.71,10.16,13.15,9.4,3.83-1.18-.81-9.84-.81-9.84a106,106,0,0,0,9.51,5,1,1,0,0,0,.82.41h.12c2,.83,3.75,1.35,4.65,1.13,1.41-.35,1.47-2.06,1.15-3.75.66-.43,1.35-.91,2-1.42a69.42,69.42,0,0,0,6.91,4v49.33h18.84v-64c1,1.14,11.83,14.13,14.87,14.65,3.19.54,0-12.78,0-12.78s8.07,10.4,10.69,6.56-2-12.06-2-12.06,15.53,17.19,19.93,15.83-.93-11.33-.93-11.33,14,8.41,17.39,7.56,0-8.52,0-8.52,2.12,1.58,5.12,3.49c-1.46,3.24-2.58,5.73-3,6.69-1.72,4-17,14.38-12.79,16.28s15.62-6.64,15.62-6.64-2.35,5.3,0,5.88,12-5.22,12-5.22-3.68,6.89-.65,7.83,13.77-10.94,13.77-10.94-3.22,5.68-1.41,8.33,7.38-4.52,7.38-4.52-2.22,8.81,0,8.82,6.49-3.37,10.27-6.63v40.68h13V403.09c.52.63,8.15,9.76,10.27,10.12s0-8.82,0-8.82,5.57,7.17,7.38,4.52a5.09,5.09,0,0,0,.32-3.92,6.67,6.67,0,0,0,2.46-.07c3.35,3.28,7.79,7.15,9.57,6.6,3-.94-.64-7.83-.64-7.83s9.65,5.81,12,5.22,0-5.88,0-5.88,11.46,8.53,15.62,6.64c1.83-.84-.08-3.3-2.93-6.13a108.33,108.33,0,0,0,9.26-9s-3.64,6.42-1.59,9.41,8.34-5.12,8.34-5.12-2.51,10,0,10c2.35,0,7.34-3.81,11.61-7.5v46h14.7V397.34c.73.89,9.23,11,11.61,11.44s0-10,0-10,6.3,8.12,8.34,5.12a5.65,5.65,0,0,0,.38-4.33c.56-.34,1.15-.73,1.75-1.18,3.86,3.87,9.63,9.14,11.83,8.46,3.44-1.06-.73-8.85-.73-8.85a95.5,95.5,0,0,0,8.55,4.52.91.91,0,0,0,.74.38h.11c1.79.74,3.37,1.21,4.17,1,1.28-.31,1.33-1.85,1-3.36.6-.4,1.22-.83,1.85-1.29a61,61,0,0,0,6.21,3.63v44.36H1785V389.74c.85,1,10.64,12.71,13.38,13.18s0-11.49,0-11.49,7.25,9.34,9.61,5.89-1.84-10.85-1.84-10.85,14,15.47,17.92,14.25-.83-10.2-.83-10.2,12.57,7.57,15.63,6.8,0-7.66,0-7.66,1.92,1.43,4.61,3.14c-1.31,2.91-2.31,5.16-2.68,6-1.56,3.62-15.26,12.93-11.51,14.64s14-6,14-6-2.12,4.76,0,5.29,10.8-4.7,10.8-4.7-3.32,6.2-.58,7,12.38-9.84,12.38-9.84-2.9,5.11-1.27,7.5,6.63-4.08,6.63-4.08-2,7.93,0,7.94,5.84-3,9.24-6v36.58h11.7V407.54c.47.57,7.33,8.77,9.24,9.1s0-7.94,0-7.94,5,6.46,6.63,4.08-1.27-7.5-1.27-7.5,9.65,10.68,12.38,9.84-.58-7-.58-7,8.68,5.22,10.8,4.7,0-5.29,0-5.29,10.31,7.67,14,6S1933.53,402.43,1932,398.81Zm-99.86-64s9.41,6.73,11.25,6.73,0-5.43,0-5.43a45.74,45.74,0,0,0,6.06,4.08c-2.84,2.85-10.86,7.81-8.26,8.83,3,1.15,11.12-4,11.12-4s-1.67,3.22,0,3.57a3.26,3.26,0,0,0,1.27-.13c-1.43,2.28-2.69,4.24-3.55,5.46-2,2.83-7.85,7.46-12.65,11.61-3-6.65-6.73-14.87-9.79-21.6,4.86,1.72,9.08,2.84,10.28,2C1841.11,343.78,1832.11,334.81,1832.11,334.81Zm7.87,36.53-.21-.47.45-.36S1840.11,370.86,1840,371.34ZM1725.24,227.92l.63.53-.16.24Zm-68.81,138.71a28.1,28.1,0,0,0-4.43-5.72s2.91,2.08,5.4,3.6C1657.08,365.22,1656.76,365.92,1656.43,366.63Zm-.1-16.69,0,0,.32-.23Zm-7.82,17.95a29.42,29.42,0,0,0,6.56,1.75l-2.88,6.37C1650.92,373.21,1649.65,370.42,1648.51,367.89Zm94.42-145.53c-3.32,4.26-7.37,7.17-5.58,8.72,1.06.92,5.08-1.13,8.14-2.93-3.54,5.88-7.6,12.49-10,16-1.81-2.6-5.3-8.2-8.59-13.54a8,8,0,0,0,1.39-.32c1.51,1.07,2.91,1.84,3.51,1.55s.32-1.53-.31-2.85c1.61-.76,3.34-1.71,5-2.65a1.38,1.38,0,0,0,1-.3.41.41,0,0,0,.08-.31C1740.54,224,1742.93,222.36,1742.93,222.36ZM1648,323.79c3.72,1.45,14-5.06,14-5.06s-2.11,4,0,4.49a4.08,4.08,0,0,0,1.59-.17c-1.8,2.87-3.38,5.33-4.46,6.86a25.1,25.1,0,0,1-2.82,3.16c-2.78-2.25-6.16-4.69-6.84-6.05-.27-.53-.92-1.77-1.78-3.4A1.58,1.58,0,0,0,1648,323.79Zm-.78,13.72c1.86-.4,0-4,0-4a52.49,52.49,0,0,0,5.4,2.92c-1.51,1.33-3.13,2.71-4.78,4.1-.62-1-1.31-2-2-3.2A3.67,3.67,0,0,0,1647.23,337.51ZM1549,322.21s10.46,7.49,12.51,7.49,0-6,0-6a50.78,50.78,0,0,0,6.74,4.53c-3.16,3.17-12.09,8.69-9.2,9.81,3.3,1.29,12.38-4.47,12.38-4.47s-1.87,3.57,0,4a3.67,3.67,0,0,0,1.41-.15c-1.59,2.54-3,4.71-4,6.07-2.22,3.15-8.73,8.29-14.07,12.91-3.34-7.39-7.48-16.53-10.89-24,5.41,1.92,10.1,3.16,11.44,2.28C1559,332.19,1549,322.21,1549,322.21Zm8.75,40.62-.24-.52.51-.4S1557.86,362.3,1557.72,362.83ZM1332,389.66s.45.34,1.21.87l-.64.61C1332.24,390.27,1332,389.66,1332,389.66Zm5.17-12.36c.83.55,3.74-.22,7.1-1.42l-3.31,7.29v0c-2.53-2.41-4.62-4.59-5.27-6.09-.26-.6-.75-1.71-1.39-3.15a67.34,67.34,0,0,0,6.84-4.34S1334.88,375.8,1337.14,377.3Zm93-174,.69.59c-.06.09-.12.18-.17.27Zm-97.05,168c-.07-.15-.13-.3-.21-.46l.46-.36S1333.21,370.86,1333.08,371.33ZM1449.8,197.17c-3.69,4.74-8.19,8-6.21,9.69,1.18,1,5.65-1.25,9.05-3.25-3.94,6.54-8.45,13.89-11.11,17.83-2-2.89-5.89-9.11-9.55-15.06a8.19,8.19,0,0,0,1.55-.35c1.68,1.19,3.23,2.05,3.91,1.73s.35-1.7-.35-3.17c1.79-.85,3.71-1.9,5.51-3a1.55,1.55,0,0,0,1.08-.33.47.47,0,0,0,.09-.35C1447.14,199,1449.8,197.17,1449.8,197.17ZM1332.06,339.39c-.62.67-1.16,1.3-1.61,1.88a41,41,0,0,0-5.23-6.46S1328.87,337.42,1332.06,339.39Zm-1.11,6.55a2.43,2.43,0,0,0,.25-.2c3.14.35,8.26-3.12,10.56-4.83-3.29,2.9-9.89,7.18-7.5,8.11,3,1.15,11.13-4,11.13-4s-1.68,3.22,0,3.57a3.26,3.26,0,0,0,1.27-.13c-1.43,2.28-2.69,4.24-3.55,5.46-2,2.83-7.85,7.45-12.66,11.61-3-6.65-6.73-14.87-9.79-21.6C1325.53,345.62,1329.75,346.74,1331,345.94Zm-531.81-95.3s8,5.7,9.52,5.7,0-4.59,0-4.59,1.23,1,2.92,2.11c-1.93,3.65-3.41,6.47-3.94,7.52-.72,1.42-3.35,3.62-6.31,6-1.48-2.8-3-5.73-4.51-8.49,3.44,1.15,6.28,1.79,7.17,1.21C806.76,258.23,799.14,250.64,799.14,250.64ZM922,228.82s1.67,1.19,3.69,2.54l-.83.65C923.39,230.22,922,228.82,922,228.82ZM811.1,277.59a5.52,5.52,0,0,0,2.18-.22c-1.13,1.81-2.2,3.5-3.17,5A10.27,10.27,0,0,1,808,280c-.4-.79-1.39-2.69-2.71-5.19,3.3-1.7,5.84-3.31,5.84-3.31S808.22,277,811.1,277.59ZM805,289.34c-.09-.2-.16-.33-.16-.33l.3.18Zm413.34-61.42.62.52c0,.09-.11.17-.16.25Zm-47.08,1.17c-.61,1.3-.94,2.48-.28,2.79,1,.49,4.3-2,6.57-4-2.06,3.38-4.36,7.09-6.35,10.26-1.84-3.47-3.8-7.16-5.64-10.61A38.89,38.89,0,0,0,1171.27,229.09Zm-87.8-95.64-.23-.34.9-.76ZM934.88,253.13a41.34,41.34,0,0,1-4.66,5.23c-1.89-3.62-5.05-9.57-8.2-15.48,7.46-1.82,17.61-8.26,17.61-8.26s-3.49,6.69,0,7.43a6.6,6.6,0,0,0,2.63-.26C939.29,246.53,936.67,250.59,934.88,253.13Zm-208.47-75-.19-.29.77-.65C726.8,177.52,726.61,177.84,726.41,178.15ZM591.81,340.31c-.85-.95-1.48-1.57-1.48-1.57L592,339.9Zm1.12-17.87A71.7,71.7,0,0,0,601,320l-3.09,6.8C596.16,325.3,594.46,323.83,592.93,322.44Zm1.83-13a42.66,42.66,0,0,0-6.39,8.37c-.32-.37-.61-.73-.85-1.07-.37-.53-.8-1.17-1.27-1.87,3.07-1.85,6.7-4.36,8.31-5.49ZM513.48,204.21a2.11,2.11,0,0,0-.18-.27l.7-.58ZM606.35,377.4a33.63,33.63,0,0,0-2.53,6.41,24,24,0,0,1-2.9-3.33C604,378.81,606.35,377.4,606.35,377.4Zm228.21-2.3a29,29,0,0,0-2.73,7l-2.1-1.95C832.54,377.33,834.56,375.1,834.56,375.1Zm306.08,2.59s1,1.36,2.55,3l-1.36,3C1141.36,380.55,1140.64,377.69,1140.64,377.69ZM1236,222.36c-3.32,4.26-7.37,7.17-5.59,8.72,1.07.92,5.09-1.13,8.15-2.93-3.55,5.88-7.6,12.49-10,16-1.8-2.6-5.3-8.2-8.58-13.54a8.19,8.19,0,0,0,1.39-.32c1.51,1.07,2.9,1.84,3.51,1.55s.32-1.53-.31-2.85c1.61-.76,3.34-1.71,5-2.65a1.38,1.38,0,0,0,1-.3.41.41,0,0,0,.08-.31C1233.65,224,1236,222.36,1236,222.36Zm-65.33-2.68-.45.45c-1.1-1.27-2-2.15-2-2.15S1169.3,218.71,1170.71,219.68Zm-104.19-90.42a.61.61,0,0,0,.12.46,2.07,2.07,0,0,0,1.39.43c2.32,1.34,4.81,2.7,7.12,3.8-.91,1.89-1.41,3.64-.45,4.09s2.87-.69,5-2.23a12.44,12.44,0,0,0,2,.46c-4.72,7.67-9.74,15.7-12.33,19.44-3.43-5.1-9.25-14.59-14.34-23,4.39,2.58,10.16,5.52,11.69,4.19,2.56-2.22-3.26-6.39-8-12.51C1058.73,124.37,1062.17,126.68,1066.52,129.26Zm-146.95,57.1c-1.22,1.69-1.69,3-1,3.85,1.59,2,4.94,1.08,8.17-.54,1.55.5,2.79.67,3.45.27s.5-1.15-.14-2.17a51.82,51.82,0,0,0,4.49-3.21s-2.09,6.17,0,6.17,12.79-7.66,12.79-7.66-10.23,10.2-6.51,12.66c1.19.79,5-.08,9.63-1.62-6.09,11.45-13.41,25.24-14.94,28.26-6.33-5.43-13.65-11.29-16.23-15s-8-12.54-12.7-20.25c3.64,2.13,8.4,4.56,9.67,3.46,2.11-1.84-2.7-5.28-6.64-10.34C909.58,180.29,914.49,183.58,919.57,186.36Zm-112.7,48.79c1.73,0,10.58-6.33,10.58-6.33s-8.46,8.44-5.39,10.47c1,.65,4.14-.06,8-1.34-1.72,3.23-3.55,6.68-5.28,9.92-4.7-4.26-11.1-9.29-15.12-13.21a39.17,39.17,0,0,0,7.24-4.61S805.14,235.15,806.87,235.15Zm-95-60.59a.53.53,0,0,0,.1.39,1.78,1.78,0,0,0,1.19.37c2,1.15,4.13,2.32,6.11,3.26-.78,1.63-1.21,3.12-.38,3.51s2.46-.59,4.32-1.91a10.45,10.45,0,0,0,1.71.39c-4,6.58-8.35,13.47-10.57,16.67-3-4.37-7.94-12.51-12.3-19.74,3.77,2.21,8.71,4.74,10,3.6,2.2-1.91-2.79-5.49-6.88-10.73C705.2,170.37,708.15,172.34,711.88,174.56ZM587.77,274.82c.89,0,.65-1.65.36-2.87q.48-.12,1-.27c2.46,1.77,7.62,5.06,9.42,2.79.75-.94-.69-2.9-3.13-5.32a85.92,85.92,0,0,0,7.68-4.24s-3,5.74,0,6.37a5.72,5.72,0,0,0,2.26-.22c-2.55,4.07-4.79,7.54-6.33,9.72-2.31,3.27-7.51,7.89-13.21,12.75-2-3.79-5.59-10.57-8.71-16.43,3.11,1,5.68,1.62,6.48,1.09,2.5-1.66-4.38-8.52-4.38-8.52S586.36,274.82,587.77,274.82ZM500.35,201a.52.52,0,0,0,.1.35,1.54,1.54,0,0,0,1.07.33c1.8,1.05,3.73,2.1,5.52,3-.7,1.47-1.09,2.82-.35,3.17s2.23-.54,3.9-1.73a8.55,8.55,0,0,0,1.55.35c-3.65,6-7.54,12.17-9.54,15.06-2.67-3.94-7.17-11.29-11.11-17.83,3.4,2,7.86,4.28,9.05,3.25,2-1.72-2.52-5-6.22-9.69C494.32,197.17,497,199,500.35,201ZM382.65,329.7c2.05,0,12.51-7.49,12.51-7.49s-10,10-6.37,12.39c1.33.88,6-.36,11.43-2.28-3.4,7.49-7.55,16.63-10.88,24-5.34-4.62-11.85-9.76-14.07-12.91-1-1.36-2.36-3.53-3.95-6.07a3.67,3.67,0,0,0,1.41.15c1.86-.4,0-4,0-4s9.08,5.76,12.37,4.47c2.89-1.12-6-6.64-9.19-9.81a50.78,50.78,0,0,0,6.74-4.53S380.6,329.7,382.65,329.7Zm3.49,32.21s.19.16.51.4l-.24.52C386.27,362.3,386.14,361.91,386.14,361.91Zm-98.61-12.24.32.23-.05,0Zm-.8,14.84c2.49-1.52,5.39-3.6,5.39-3.6a28.48,28.48,0,0,0-4.43,5.72ZM218.42,228.69l-.16-.25c.22-.17.43-.35.63-.52C218.73,228.17,218.58,228.43,218.42,228.69Zm70.64,141a29.42,29.42,0,0,0,6.56-1.75L291.94,376C291,374,290.06,371.85,289.06,369.64Zm7.84-32.13a3.67,3.67,0,0,0,1.41-.15c-.73,1.16-1.41,2.24-2,3.2-1.65-1.39-3.28-2.77-4.78-4.1a52.49,52.49,0,0,0,5.4-2.92S295,337.11,296.9,337.51Zm-14.77-14.29c2.11-.45,0-4.49,0-4.49s10.26,6.51,14,5.06a1.58,1.58,0,0,0,.32-.17c-.87,1.63-1.51,2.87-1.78,3.4-.69,1.36-4.06,3.8-6.84,6.05a25.1,25.1,0,0,1-2.82-3.16c-1.08-1.53-2.66-4-4.46-6.86A4.08,4.08,0,0,0,282.13,323.22Zm-75.52-97.45a.46.46,0,0,0,.09.31,1.35,1.35,0,0,0,1,.3c1.62.94,3.36,1.89,5,2.65-.64,1.32-1,2.54-.32,2.85s2-.48,3.51-1.55a8.29,8.29,0,0,0,1.4.32c-3.29,5.34-6.78,10.93-8.59,13.54-2.4-3.55-6.45-10.16-10-16,3.06,1.8,7.07,3.85,8.14,2.93,1.78-1.55-2.27-4.46-5.59-8.72C201.19,222.36,203.58,224,206.61,225.77ZM100.76,341.54c1.85,0,11.25-6.73,11.25-6.73s-9,9-5.72,11.13c1.2.8,5.42-.32,10.28-2-3.06,6.73-6.79,15-9.79,21.6-4.8-4.15-10.65-8.78-12.65-11.61-.86-1.22-2.12-3.18-3.56-5.46a3.29,3.29,0,0,0,1.27.13c1.68-.35,0-3.57,0-3.57s8.17,5.18,11.13,4c2.6-1-5.42-6-8.27-8.83a45,45,0,0,0,6.06-4.08S98.92,341.54,100.76,341.54Zm3.15,29,.45.36-.21.47C104,370.86,103.91,370.51,103.91,370.51Zm-7.6,12.68L93,375.88c3.36,1.2,6.27,2,7.1,1.42,2.26-1.5-4-7.69-4-7.69A66.17,66.17,0,0,0,103,374c-.65,1.44-1.14,2.55-1.4,3.15C100.94,378.6,98.84,380.79,96.31,383.19ZM279.82,398l.18.11-.09.08Zm31.51,4.07-.26-.43,1-1.08S311.73,401.19,311.33,402.09ZM377.69,376c-1.27-2.8-2.54-5.6-3.68-8.13,3.73,1.33,7,2.18,7.89,1.57,2.51-1.66-4.4-8.55-4.4-8.55a73.52,73.52,0,0,0,7.61,4.83c-.72,1.61-1.26,2.83-1.55,3.5C382.84,370.91,380.51,373.34,377.69,376Zm1182.88-6.78c-.29-.67-.83-1.89-1.55-3.5a73,73,0,0,0,7.6-4.83s-6.9,6.89-4.39,8.55c.92.61,4.16-.24,7.89-1.57l-3.69,8.13C1563.62,373.34,1561.29,370.91,1560.57,369.24Zm71.49,31.34s.37.42,1,1.08c-.1.15-.18.29-.26.43C1632.4,401.19,1632.06,400.58,1632.06,400.58Zm32.07-2.45.18-.11-.1.19Zm178.41-21c-.26-.6-.74-1.71-1.39-3.15a67.34,67.34,0,0,0,6.84-4.34s-6.21,6.19-4,7.69c.82.55,3.74-.22,7.1-1.42l-3.32,7.31C1845.29,380.79,1843.19,378.6,1842.54,377.1Z"/><rect class="cls-1" x="10.91" y="341.27" width="1921.85" height="531.87"/></g></g></svg>