<svg id="Layer_1" data-name="Layer 1" xmlns="http://www.w3.org/2000/svg" viewBox="0 0 1080.25 514.92"><defs><style>.cls-1{fill:#ecdea4;}</style></defs><g id="Layer_2" data-name="Layer 2"><g id="Layer_1-2" data-name="Layer 1-2"><rect class="cls-1" y="199.79" width="1080" height="315.13"/><path class="cls-1" d="M1073.25,221.36c-.54-1.27-3.58-8-5.74-12.72,1.86.66,3.48,1.08,3.94.78,1.25-.83-2.19-4.27-2.19-4.27s3.6,2.58,4.31,2.58,0-2.08,0-2.08,4.18,3.42,5.38,1.91-8.69-8.14-10.81-11.13c-.48-.68-1.18-1.77-2-3a1.84,1.84,0,0,0,.7.07c.93-.2,0-2,0-2s4.53,2.87,6.18,2.23-4.38-4.13-5.06-5.48c-.39-.77-2.36-4.49-4-7.57,1.23.41,2.25.64,2.57.43,1-.65-1.74-3.38-1.74-3.38s2.86,2.05,3.42,2.05,0-1.65,0-1.65,3.31,2.71,4.26,1.51-6.88-6.44-8.56-8.82c-.86-1.21-2.6-4-4.1-6.54,1.17.69,2.71,1.48,3.12,1.12.68-.59-.87-1.7-2.14-3.34,0,0,5.59,3.75,6.64,3.12s-4.41-4.58-5.63-6.13c-.7-.88-3-4.59-4.88-7.66,1,.85,2.45,2,2.91,1.75.71-.33-1.19-3-1.19-3s3.26.92,3.67.44-2.14-2.33-4.72-5.34c-3.2-3.74-8.42-13.2-9.67-16.38-1.26,3.18-6.48,12.64-9.68,16.38-2.57,3-5.12,4.86-4.71,5.34s3.67-.44,3.67-.44-1.91,2.67-1.19,3c.45.22,1.9-.9,2.9-1.75-1.87,3.07-4.18,6.78-4.87,7.66-1.23,1.55-6.69,5.5-5.64,6.13s6.65-3.12,6.65-3.12c-1.28,1.64-2.83,2.75-2.15,3.34.41.36,2-.43,3.12-1.12-1.5,2.49-3.24,5.33-4.1,6.54-1.67,2.38-9.51,7.62-8.56,8.82s4.27-1.51,4.27-1.51-.56,1.65,0,1.65,3.41-2.05,3.41-2.05-2.73,2.73-1.74,3.38a4.42,4.42,0,0,0,2.57-.43c-.81,1.54-1.71,3.23-2.46,4.64-3.92-3.83-11.15-9.17-13.23-12.11-.69-1-1.71-2.55-2.86-4.39a2.59,2.59,0,0,0,1,.11c1.35-.29,0-2.87,0-2.87s6.57,4.16,9,3.23-6.34-6-7.33-7.94c-.56-1.11-3.42-6.5-5.79-11,1.79.6,3.26.94,3.73.63,1.43-.95-2.52-4.9-2.52-4.9s4.13,3,4.94,3,0-2.39,0-2.39,4.8,3.92,6.18,2.18-10-9.32-12.4-12.76c-1.24-1.76-3.76-5.87-5.94-9.47,1.7,1,3.93,2.13,4.52,1.62,1-.86-1.26-2.47-3.1-4.84,0,0,8.09,5.43,9.62,4.52s-6.39-6.64-8.16-8.88c-1-1.27-4.35-6.65-7.06-11.09,1.45,1.23,3.55,2.84,4.21,2.53,1-.48-1.73-4.35-1.73-4.35s4.73,1.34,5.32.64-3.1-3.38-6.83-7.73c-4.63-5.41-12.2-19.12-14-23.72-1.82,4.6-9.38,18.31-14,23.72-3.73,4.35-7.42,7-6.83,7.73s5.32-.64,5.32-.64-2.76,3.87-1.73,4.35c.66.31,2.76-1.3,4.21-2.53-2.72,4.44-6.06,9.82-7.06,11.09a39.38,39.38,0,0,1-3.82,3.6,50.1,50.1,0,0,1-3.7-3.89c-4-4.69-10.59-16.59-12.16-20.58-1.58,4-8.14,15.89-12.16,20.58-3.24,3.78-6.44,6.11-5.93,6.72s4.62-.56,4.62-.56-2.4,3.36-1.5,3.78c.57.26,2.39-1.14,3.65-2.2-2.36,3.85-5.26,8.52-6.13,9.62-1.53,2-8.4,6.91-7.08,7.71s8.35-3.92,8.35-3.92c-1.6,2.05-3.55,3.45-2.69,4.2.51.44,2.45-.55,3.92-1.41-1.89,3.13-4.08,6.69-5.15,8.22-2.11,3-12,9.57-10.76,11.08s5.36-1.9,5.36-1.9-.71,2.07,0,2.07,4.29-2.57,4.29-2.57-3.43,3.42-2.19,4.25c.4.27,1.68,0,3.23-.54-2,3.87-4.54,8.54-5,9.5-.76,1.5-6.73,5.09-6.71,6.47L912,173.1c1.37.46,2.51.72,2.86.48,1.1-.73-1.93-3.76-1.93-3.76s3.17,2.28,3.79,2.28,0-1.83,0-1.83,3.69,3,4.75,1.67-7.66-7.16-9.53-9.8c-1-1.35-2.88-4.5-4.55-7.27,1.3.76,3,1.64,3.47,1.24.76-.66-1-1.89-2.39-3.71,0,0,6.22,4.17,7.39,3.47s-4.9-5.1-6.27-6.82c-.77-1-3.33-5.11-5.41-8.52,1.11.94,2.72,2.19,3.22,1.95.8-.37-1.32-3.34-1.32-3.34s3.63,1,4.08.49-2.38-2.6-5.24-5.94c-3.56-4.15-9.37-14.68-10.76-18.21-1.39,3.53-7.2,14.06-10.76,18.21-2.86,3.34-5.69,5.4-5.24,5.94s4.08-.49,4.08-.49-2.12,3-1.32,3.34c.5.24,2.11-1,3.23-1.95-2.09,3.41-4.65,7.54-5.42,8.52-1.36,1.72-7.44,6.11-6.27,6.82s7.39-3.47,7.39-3.47c-1.42,1.82-3.14,3-2.38,3.71.45.4,2.16-.48,3.47-1.24-1.67,2.77-3.61,5.92-4.56,7.27-1.87,2.64-10.58,8.47-9.52,9.8s4.74-1.67,4.74-1.67-.62,1.83,0,1.83,3.8-2.28,3.8-2.28-3,3-1.94,3.76c.36.24,1.49,0,2.86-.48l-2.74,5.16c-4.36-4.26-12.4-10.2-14.71-13.47-.77-1.09-1.89-2.83-3.17-4.87a2.7,2.7,0,0,0,1.13.11c1.5-.32,0-3.19,0-3.19s7.3,4.63,9.95,3.6-7-6.66-8.15-8.84c-.62-1.23-3.8-7.22-6.44-12.18,2,.66,3.63,1,4.14.7,1.6-1.06-2.8-5.45-2.8-5.45s4.6,3.3,5.5,3.3,0-2.66,0-2.66,5.34,4.36,6.87,2.43-11.09-10.37-13.79-14.19c-1.38-2-4.19-6.53-6.6-10.53,1.88,1.11,4.36,2.37,5,1.8,1.1-1-1.4-2.75-3.45-5.38,0,0,9,6,10.7,5s-7.11-7.38-9.08-9.87c-1.11-1.41-4.83-7.4-7.84-12.33,1.61,1.36,3.94,3.16,4.67,2.82,1.15-.54-1.92-4.85-1.92-4.85s5.26,1.5,5.92.72-3.45-3.76-7.6-8.6c-5.15-6-13.56-21.26-15.58-26.38-2,5.12-10.43,20.36-15.58,26.38-4.14,4.84-8.25,7.82-7.59,8.6s5.91-.72,5.91-.72-3.07,4.31-1.92,4.85c.73.34,3.07-1.46,4.68-2.82-3,4.93-6.73,10.91-7.85,12.33a45.91,45.91,0,0,1-4.25,4c-1.18-1.16-2.64-2.61-4.11-4.33C791.15,99,783.85,85.79,782.1,81.35,780.35,85.79,773,99,768.58,104.24c-3.6,4.2-7.16,6.79-6.6,7.47s5.14-.62,5.14-.62-2.67,3.73-1.67,4.2c.63.3,2.66-1.26,4.06-2.45-2.62,4.29-5.84,9.48-6.81,10.7-1.71,2.17-9.35,7.69-7.88,8.57s9.29-4.35,9.29-4.35c-1.78,2.28-4,3.83-3,4.66.57.5,2.73-.6,4.36-1.56-2.09,3.48-4.53,7.44-5.72,9.14-2.35,3.32-13.3,10.64-12,12.32,1,1.31,4.09-.72,5.37-1.66l.47-.06c-.18.65-.46,1.91.12,1.91a2.88,2.88,0,0,0,.93-.37c-.18.46-.25.85,0,1s1-.25,1.67-.77c-.43.7-.68,1.37-.47,1.8-1.38,2.22-2.67,4.26-3.16,4.88-1.23,1.55-6.7,5.5-5.64,6.13s6.64-3.12,6.64-3.12c-1.27,1.64-2.82,2.75-2.14,3.34.32.28,1.3-.13,2.28-.64-1.68,2.09-9,6.45-6.83,7.29a4.4,4.4,0,0,0,2.68-.21c-2.61,2.61-8.5,6.75-7.67,7.8,1,1.2,4.26-1.51,4.26-1.51s-.55,1.65,0,1.65,3.42-2.05,3.42-2.05S747,180.45,748,181.1a.74.74,0,0,0,.39.08l-2.48,2.1c-4-3.51-9.3-7.63-11-10.08-.69-1-1.71-2.55-2.86-4.39a2.59,2.59,0,0,0,1,.11c1.35-.29,0-2.87,0-2.87s6.57,4.16,9,3.23-6.34-6-7.33-7.94c-.56-1.11-3.42-6.5-5.79-11,1.79.6,3.26.94,3.72.63,1.44-.95-2.51-4.9-2.51-4.9s4.13,3,4.94,3,0-2.39,0-2.39,4.8,3.92,6.18,2.18-10-9.32-12.4-12.76c-1.24-1.76-3.77-5.87-5.94-9.47,1.7,1,3.93,2.13,4.52,1.62,1-.86-1.26-2.47-3.1-4.84,0,0,8.09,5.43,9.62,4.52s-6.39-6.64-8.17-8.88c-1-1.27-4.34-6.65-7-11.09,1.45,1.23,3.55,2.84,4.2,2.53,1-.48-1.72-4.35-1.72-4.35s4.73,1.34,5.31.64-3.09-3.38-6.82-7.73c-4.63-5.41-12.2-19.12-14-23.72-1.82,4.6-9.38,18.31-14,23.72-3.73,4.35-7.42,7-6.83,7.73s5.31-.64,5.31-.64-2.76,3.87-1.72,4.35c.65.31,2.75-1.3,4.2-2.53-2.71,4.44-6,9.82-7,11.09a38.37,38.37,0,0,1-3.83,3.6,52.07,52.07,0,0,1-3.7-3.89c-4-4.69-10.58-16.59-12.16-20.58A118.82,118.82,0,0,1,655.78,116c-3.29-2.79-6.7-5.63-8-7.49-1.54-2.18-4.69-7.3-7.4-11.8,2.12,1.25,4.9,2.66,5.63,2,1.23-1.07-1.57-3.08-3.86-6,0,0,10.08,6.76,12,5.62s-8-8.27-10.17-11.06c-1.25-1.58-5.41-8.29-8.79-13.82C637,75,639.58,77,640.4,76.62c1.29-.6-2.15-5.43-2.15-5.43s5.89,1.68,6.63.81-3.86-4.21-8.51-9.64c-5.77-6.74-15.2-23.82-17.46-29.55-2.26,5.73-11.68,22.81-17.45,29.55-1.91,2.22-3.79,4.09-5.32,5.58a57.09,57.09,0,0,1-5.49-5.17c-1.44-1.83-6.23-9.55-10.13-15.92,2.09,1.76,5.1,4.08,6,3.64,1.48-.7-2.48-6.26-2.48-6.26s6.79,1.93,7.64.93-4.45-4.85-9.81-11.11C575.26,26.28,564.4,6.61,561.8,0c-2.61,6.61-13.47,26.28-20.12,34.05-5.35,6.26-10.65,10.11-9.8,11.11s7.63-.93,7.63-.93-4,5.56-2.47,6.26c.94.44,4-1.88,6-3.64-3.89,6.37-8.69,14.09-10.13,15.92C530.4,66,519,74.2,521.22,75.51S535,69,535,69c-2.65,3.4-5.88,5.71-4.46,7,.85.74,4-.9,6.49-2.33-3.12,5.17-6.74,11.07-8.52,13.59-2.31,3.28-10.24,9.16-14.75,13.49a78.91,78.91,0,0,1-6.29-5.84c-1.19-1.51-5.16-7.9-8.38-13.16,1.72,1.45,4.21,3.37,5,3,1.23-.57-2-5.17-2-5.17s5.62,1.6,6.31.77-3.68-4-8.1-9.18c-5.5-6.43-14.48-22.69-16.63-28.16-2.16,5.47-11.14,21.73-16.63,28.16-4.43,5.17-8.81,8.35-8.11,9.18s6.31-.77,6.31-.77-3.27,4.6-2.05,5.17c.78.37,3.27-1.55,5-3-3.2,5.25-7.14,11.63-8.35,13.14-2.11,2.66-11.51,9.45-9.69,10.54s11.42-5.36,11.42-5.36c-2.19,2.81-4.86,4.72-3.68,5.74.7.61,3.35-.74,5.36-1.92-2.58,4.28-5.58,9.15-7.05,11.24-2.17,3.07-10.36,9-13.56,12.54-1.43-2.13-3.77-6-5.83-9.36,1.82,1.06,4.2,2.28,4.83,1.73,1.06-.92-1.34-2.64-3.31-5.17,0,0,8.64,5.8,10.28,4.83s-6.83-7.09-8.72-9.49c-1.07-1.36-4.64-7.11-7.54-11.85,1.55,1.31,3.79,3,4.49,2.71,1.1-.52-1.84-4.65-1.84-4.65s5.05,1.43,5.68.69-3.31-3.62-7.3-8.27c-4.95-5.78-13-20.42-15-25.34-1.94,4.92-10,19.56-15,25.34-1.63,1.9-3.25,3.5-4.55,4.79a48.21,48.21,0,0,1-4.71-4.44c-1.24-1.56-5.35-8.19-8.69-13.65,1.79,1.51,4.37,3.5,5.18,3.12,1.27-.6-2.13-5.36-2.13-5.36s5.83,1.65,6.55.79-3.82-4.16-8.41-9.53c-5.7-6.66-15-23.53-17.25-29.2-2.23,5.67-11.55,22.54-17.25,29.2-4.59,5.37-9.13,8.67-8.4,9.53s6.54-.79,6.54-.79-3.39,4.76-2.12,5.36c.81.38,3.39-1.61,5.18-3.12-3.27,5.46-7.4,12.09-8.63,13.65C342.45,92,332.71,99,334.59,100.12s11.84-5.56,11.84-5.56c-2.27,2.91-5,4.9-3.82,6,.73.63,3.48-.77,5.57-2-2.68,4.44-5.79,9.5-7.31,11.66-3,4.23-17,13.58-15.27,15.72s7.6-2.69,7.6-2.69-1,2.94,0,2.94,6.09-3.65,6.09-3.65-4.87,4.86-3.1,6c.57.37,2.39,0,4.59-.77-2.92,5.49-6.44,12.11-7.13,13.48-.58,1.15-3.32,3.17-5.71,5.08-2.72-2.31-5.7-4.74-6.8-6.29s-3.63-5.66-5.73-9.14c1.64,1,3.79,2.06,4.36,1.56,1-.83-1.21-2.38-3-4.66,0,0,7.81,5.23,9.29,4.35s-6.17-6.4-7.88-8.57c-1-1.22-4.19-6.42-6.81-10.7,1.4,1.19,3.42,2.75,4.06,2.45,1-.47-1.67-4.2-1.67-4.2s4.57,1.29,5.13.62-3-3.27-6.59-7.47c-4.47-5.22-11.77-18.45-13.52-22.89-1.75,4.44-9,17.67-13.52,22.89-1.47,1.72-2.93,3.17-4.11,4.33a44.6,44.6,0,0,1-4.25-4c-1.12-1.42-4.83-7.4-7.85-12.33,1.61,1.36,3.95,3.16,4.67,2.82,1.15-.54-1.91-4.85-1.91-4.85s5.26,1.5,5.91.72-3.45-3.76-7.59-8.6c-5.15-6-13.57-21.26-15.58-26.38-2,5.12-10.43,20.36-15.58,26.38-4.15,4.84-8.25,7.82-7.6,8.6s5.91-.72,5.91-.72-3.06,4.31-1.91,4.85c.73.34,3.06-1.46,4.67-2.82-3,4.93-6.73,10.91-7.84,12.33-2,2.49-10.78,8.85-9.08,9.87s10.7-5,10.7-5c-2,2.63-4.55,4.42-3.45,5.38.66.57,3.13-.69,5-1.8-2.42,4-5.22,8.57-6.6,10.53-2.7,3.82-15.32,12.27-13.79,14.19s6.87-2.43,6.87-2.43-.9,2.66,0,2.66,5.5-3.3,5.5-3.3-4.4,4.39-2.8,5.45c.51.34,2.15,0,4.14-.7l-6.44,12.18c-1.1,2.18-10.8,7.81-8.15,8.84s10-3.6,10-3.6-1.5,2.87,0,3.19a2.7,2.7,0,0,0,1.13-.11c-1.28,2-2.4,3.78-3.17,4.87-2.31,3.27-10.36,9.21-14.71,13.47l-2.74-5.16c1.37.46,2.5.72,2.86.48,1.1-.73-1.94-3.76-1.94-3.76s3.18,2.28,3.8,2.28,0-1.83,0-1.83,3.69,3,4.74,1.67-7.66-7.16-9.52-9.8c-1-1.35-2.89-4.5-4.56-7.27,1.31.76,3,1.64,3.47,1.24.76-.66-1-1.89-2.38-3.71,0,0,6.21,4.17,7.39,3.47s-4.91-5.1-6.27-6.82c-.77-1-3.33-5.11-5.42-8.52,1.12,1,2.73,2.19,3.23,2,.79-.37-1.32-3.34-1.32-3.34s3.63,1,4.08.49-2.38-2.6-5.24-5.94c-3.56-4.15-9.37-14.68-10.76-18.21-1.4,3.53-7.21,14.06-10.76,18.21-2.86,3.34-5.7,5.4-5.24,5.94s4.08-.49,4.08-.49-2.12,3-1.33,3.34c.51.24,2.12-1,3.23-2-2.08,3.41-4.65,7.54-5.42,8.52-1.36,1.72-7.44,6.11-6.26,6.82s7.38-3.47,7.38-3.47c-1.41,1.82-3.14,3-2.38,3.71.46.4,2.17-.48,3.47-1.24-1.67,2.77-3.6,5.92-4.56,7.27-1.86,2.64-10.58,8.47-9.52,9.8s4.74-1.67,4.74-1.67-.62,1.83,0,1.83,3.8-2.28,3.8-2.28-3,3-1.93,3.76c.35.24,1.48,0,2.86-.48l-3.29,6.19c0-1.38-6-5-6.71-6.47-.49-1-3-5.63-5-9.5,1.56.51,2.84.81,3.24.54,1.24-.83-2.19-4.25-2.19-4.25s3.59,2.57,4.29,2.57,0-2.07,0-2.07,4.17,3.4,5.36,1.9S156,154,153.87,151c-1.07-1.53-3.26-5.09-5.15-8.22,1.47.86,3.41,1.85,3.92,1.41.86-.75-1.09-2.15-2.69-4.2,0,0,7,4.71,8.35,3.92s-5.55-5.76-7.09-7.71c-.87-1.1-3.77-5.77-6.12-9.62,1.26,1.06,3.08,2.46,3.65,2.2.9-.42-1.5-3.78-1.5-3.78s4.11,1.16,4.62.56-2.69-2.94-5.93-6.72c-4-4.69-10.58-16.59-12.16-20.58-1.57,4-8.14,15.89-12.16,20.58-1.32,1.55-2.64,2.85-3.7,3.89a39.38,39.38,0,0,1-3.82-3.6c-1-1.27-4.34-6.65-7.06-11.09,1.45,1.22,3.55,2.84,4.21,2.53,1-.48-1.73-4.35-1.73-4.35s4.73,1.34,5.32.64-3.1-3.38-6.83-7.73C103.37,93.69,95.8,80,94,75.38,92.19,80,84.62,93.69,80,99.1c-3.73,4.35-7.42,7-6.83,7.73s5.32-.64,5.32-.64-2.76,3.87-1.73,4.35c.66.31,2.76-1.3,4.21-2.53-2.72,4.44-6.06,9.82-7.06,11.09-1.77,2.24-9.69,8-8.16,8.88s9.62-4.52,9.62-4.52c-1.84,2.37-4.09,4-3.1,4.84.59.51,2.82-.63,4.52-1.62-2.18,3.6-4.7,7.71-5.94,9.47-2.43,3.44-13.78,11-12.4,12.76s6.18-2.18,6.18-2.18-.81,2.39,0,2.39,4.94-3,4.94-3-4,3.95-2.52,4.9c.46.31,1.94,0,3.73-.63-2.37,4.46-5.23,9.85-5.79,11-1,2-9.71,7-7.33,7.94s8.94-3.23,8.94-3.23-1.34,2.58,0,2.87a2.59,2.59,0,0,0,1-.11c-1.15,1.84-2.16,3.41-2.85,4.39-2.08,2.94-9.31,8.28-13.23,12.11-.75-1.41-1.65-3.1-2.46-4.64,1.23.41,2.25.64,2.57.43,1-.65-1.74-3.38-1.74-3.38s2.85,2,3.41,2,0-1.65,0-1.65,3.32,2.71,4.27,1.51-6.89-6.44-8.57-8.82c-.85-1.21-2.59-4.05-4.1-6.54,1.18.69,2.72,1.48,3.13,1.12.68-.59-.87-1.7-2.15-3.34,0,0,5.59,3.75,6.65,3.12s-4.42-4.58-5.64-6.13c-.69-.88-3-4.59-4.87-7.66,1,.85,2.45,2,2.9,1.75.72-.33-1.19-3-1.19-3s3.27.92,3.67.44-2.14-2.33-4.71-5.34c-3.2-3.74-8.43-13.2-9.68-16.38-1.25,3.18-6.48,12.64-9.67,16.38-2.58,3-5.12,4.86-4.72,5.34s3.67-.44,3.67-.44-1.9,2.67-1.19,3c.46.22,1.9-.9,2.91-1.75-1.88,3.07-4.18,6.78-4.88,7.66-1.22,1.55-6.69,5.5-5.63,6.13s6.64-3.12,6.64-3.12c-1.27,1.64-2.83,2.75-2.14,3.34.41.36,1.95-.43,3.12-1.12-1.5,2.49-3.24,5.33-4.1,6.54-1.68,2.38-9.51,7.62-8.56,8.82s4.26-1.51,4.26-1.51-.56,1.65,0,1.65,3.42-2,3.42-2-2.73,2.73-1.74,3.38c.32.21,1.33,0,2.57-.43-1.64,3.08-3.61,6.8-4,7.57-.68,1.35-6.71,4.84-5.06,5.48S14,191.49,14,191.49s-.93,1.78,0,2a1.84,1.84,0,0,0,.7-.07c-.79,1.26-1.49,2.35-2,3-2.12,3-12,9.62-10.81,11.13s5.38-1.91,5.38-1.91-.7,2.08,0,2.08,4.31-2.58,4.31-2.58-3.44,3.44-2.19,4.27c.46.3,2.08-.12,3.94-.78-2.16,4.75-5.2,11.45-5.74,12.72-.87,2-8.47,7.18-6.39,8.13S9,226.17,9,226.17s-1.18,2.64,0,2.93,6-2.6,6-2.6-1.84,3.43-.32,3.9,6.93-5.4,6.93-5.4-1.61,2.84-.71,4.16,3.69-2.26,3.69-2.26-1.1,4.59,0,4.41,4.86-4.74,5.13-5v22h6.49V228c1.88,1.62,4.09,3.31,5.13,3.31s0-4.41,0-4.41,2.78,3.59,3.68,2.26-.71-4.16-.71-4.16,5.36,5.93,6.88,5.46-.33-3.9-.33-3.9,4.82,2.89,6,2.6,0-2.93,0-2.93,5.72,4.26,7.8,3.31-5.53-6.12-6.39-8.13c-.21-.47-.76-1.72-1.49-3.34,1.49-1,2.56-1.74,2.56-1.74s-1.71,3.83,0,4.26S68,216.76,68,216.76s-2.67,5-.47,5.66,10-7.91,10-7.91-2.33,4.11-1,6,5.33-3.28,5.33-3.28-1.59,6.65,0,6.38,7-6.74,7.43-7.31v31.92h9.4V223.63a34.77,34.77,0,0,0,3.45-2l1,.71c-.17.84-.14,1.69.57,1.87a4.8,4.8,0,0,0,2.32-.57h.06a.52.52,0,0,0,.41-.21c2.19-1,4.74-2.51,4.74-2.51s-2.31,4.32-.4,4.91c1.22.38,4.42-2.54,6.56-4.69.32.23.66.45,1,.65a3.16,3.16,0,0,0,.22,2.41c1.13,1.66,4.63-2.84,4.63-2.84s-1.38,5.77,0,5.53,6-5.85,6.44-6.34v27.7h8.16V222.73c2.37,2.05,5.14,4.17,6.45,4.16s0-5.53,0-5.53,3.49,4.5,4.63,2.84S148,219,148,219a59.16,59.16,0,0,0,5.14,5c-1.58,1.58-2.64,2.94-1.63,3.41,2.31,1.05,8.68-3.69,8.68-3.69s-1.31,2.94,0,3.27,6.66-2.9,6.66-2.9-2,3.82-.36,4.35c1,.3,3.46-1.85,5.32-3.67a3.46,3.46,0,0,0,1.36,0,2.8,2.8,0,0,0,.18,2.18c1,1.47,4.1-2.51,4.1-2.51s-1.23,5.1,0,4.89,5.41-5.26,5.7-5.61v24.51h7.22V225.67c2.09,1.81,4.54,3.69,5.7,3.68s0-4.89,0-4.89,3.09,4,4.1,2.51-.79-4.63-.79-4.63,6,6.6,7.64,6.08-.36-4.35-.36-4.35,5.36,3.22,6.67,2.9,0-3.27,0-3.27,6.36,4.74,8.67,3.69-6.14-6.81-7.1-9c-.23-.53-.85-1.91-1.66-3.71,1.67-1.06,2.85-1.94,2.85-1.94s-1.9,4.26,0,4.73,9.65-4.2,9.65-4.2-3,5.54-.52,6.3,11.06-8.8,11.06-8.8-2.59,4.57-1.13,6.7,5.93-3.64,5.93-3.64-1.77,7.39,0,7.09,7.73-7.49,8.26-8.13v35.5h10.45v-24a35.66,35.66,0,0,0,5.08-3.12h0c-.16.37-1.34,3.24,0,3.58s7.38-3.21,7.38-3.21-2.27,4.23-.4,4.81,8.46-6.72,8.46-6.72-2,3.49-.87,5.12S284,222,284,222s-1.35,5.65,0,5.42c.63-.11,2.08-1.51,3.44-3a15.25,15.25,0,0,0,2.87-2.51v26.39h13V226.93a3.29,3.29,0,0,0,1.29.4c1.36,0,0-5.42,0-5.42s3.42,4.41,4.53,2.78a1.8,1.8,0,0,0,.22-.49,3,3,0,0,0,1.13.3c.58,0,.72-.87.68-2,2,2,4.52,4.07,5.56,3.75,1.87-.58-.39-4.81-.39-4.81s5.93,3.57,7.38,3.21c.57-.14.69-.74.62-1.41a1.27,1.27,0,0,0,.74-1.26c2.18,1.46,6.39,4,8.24,3.13,1.09-.5,0-2-1.68-3.64a1.23,1.23,0,0,0,.54,0c1.64-.41,0-4.1,0-4.1s8,5.95,10.9,4.63c1.67-.76-1.14-3.48-4-6.18,3.81-2.18,10.1-9.14,10.1-9.14s-2.87,5.06-1.26,7.42,6.57-4,6.57-4-1.95,8.18,0,7.85,8.56-8.3,9.14-9v39.3h11.58V217.94a44,44,0,0,0,4.25-2.48c.43.31.85.61,1.26.88-.2,1-.16,2.08.71,2.3a6.16,6.16,0,0,0,2.85-.7h.07a.63.63,0,0,0,.51-.25,63.89,63.89,0,0,0,5.84-3.1s-2.84,5.32-.5,6c1.51.46,5.45-3.14,8.09-5.78.41.3.81.58,1.19.81a3.87,3.87,0,0,0,.26,3c1.4,2,5.7-3.5,5.7-3.5s-1.69,7.1,0,6.81,7.43-7.2,7.94-7.81v34.11h10V216.83c2.92,2.52,6.33,5.13,7.94,5.12,1.31,0,.62-4,.22-5.84L432,216c1.29,1.47,4,4.16,5,2.64.81-1.2.31-3.19-.26-4.64.19-.1.38-.2.56-.31,2.47,2.57,7.49,7.5,9.24,7,2.35-.73-.5-6.05-.5-6.05s7.46,4.49,9.28,4c1-.25.9-1.54.62-2.68l1-.76c2.7,1.81,8.12,5.1,10.48,4,1.29-.59.18-2.22-1.7-4.17a21.47,21.47,0,0,0,3.55-3.58s-1.89,7.89,0,7.57,8.25-8,8.82-8.68v37.89h11.16v-34.9c3.24,2.8,7,5.69,8.81,5.69s0-7.57,0-7.57,4.78,6.15,6.34,3.88-1.22-7.15-1.22-7.15,9.21,10.19,11.81,9.39-.55-6.72-.55-6.72,8.28,5,10.31,4.48c1.49-.37.78-2.93.3-4.26a3.35,3.35,0,0,0,.53-.19c2.44,1.71,9.63,6.44,12.57,5.09,2.41-1.09-2.74-5.49-6.81-9.3,3.54-3.18,6.87-6.88,6.87-6.88s-3.34,5.9-1.46,8.65,7.66-4.7,7.66-4.7-2.28,9.55,0,9.16,10-9.68,10.66-10.5v45.83h13.5V212.91a50.77,50.77,0,0,0,5-2.9c.5.37,1,.71,1.47,1-.23,1.21-.19,2.44.83,2.69a7,7,0,0,0,3.32-.81h.09a.73.73,0,0,0,.59-.3,73.87,73.87,0,0,0,6.81-3.61s-3.32,6.21-.58,7.06c1.75.54,6.35-3.66,9.43-6.75.48.36,1,.68,1.39,1a4.5,4.5,0,0,0,.31,3.45c1.62,2.38,6.64-4.08,6.64-4.08s-2,8.28,0,8,8.67-8.41,9.25-9.11v39.77h11.72V211.61a42.54,42.54,0,0,0,7.21,5.31c-3,3-7.94,6.85-6,7.75,2.61,1.19,9.8-4.16,9.8-4.16s-1.47,3.32,0,3.69,7.54-3.28,7.54-3.28-2.31,4.32-.41,4.91,8.64-6.86,8.64-6.86-2,3.57-.89,5.23,4.63-2.84,4.63-2.84-1.39,5.53,0,5.53,4.08-2.11,6.45-4.16v25.52H670v-27.7c.41.49,5.13,6.12,6.45,6.34s0-5.53,0-5.53,3.49,4.5,4.63,2.84a3.11,3.11,0,0,0,.21-2.41,9.51,9.51,0,0,0,1-.65c2.14,2.15,5.35,5.07,6.57,4.69,1.9-.59-.41-4.91-.41-4.91,1.54.92,3.13,1.75,4.75,2.51a.52.52,0,0,0,.41.21h.06a4.8,4.8,0,0,0,2.32.57c.7-.18.73-1,.57-1.87l1-.71a35.79,35.79,0,0,0,3.44,2v24.62h9.41V216.33c.48.57,5.9,7,7.42,7.31s0-6.38,0-6.38,4,5.19,5.34,3.28-1-6-1-6,7.75,8.59,10,7.91-.47-5.66-.47-5.66a55.62,55.62,0,0,0,6.33,3.26c-.65.94-.79,1.67,0,2a4.65,4.65,0,0,0,3.24-.27c-1.51,2.21-8.11,6.84-6.16,7.73s7.8-3.31,7.8-3.31-1.18,2.64,0,2.93,6-2.6,6-2.6-1.84,3.43-.32,3.9,6.87-5.46,6.87-5.46-1.61,2.84-.7,4.16,3.68-2.26,3.68-2.26-1.11,4.4,0,4.41,3.24-1.69,5.13-3.31v20.3H770v-22c.26.31,4.07,4.87,5.13,5s0-4.41,0-4.41a10.15,10.15,0,0,0,2.61,2.41v19h9.07V227.71c1.45.76,3.19,1.56,3.84,1.4,1.18-.29,0-2.93,0-2.93s5.72,4.26,7.8,3.31c1.39-.64-1.57-3.17-3.93-5.38.51-1.36-.54-5.76-.54-5.76s3.89,5,5.15,3.15a3.54,3.54,0,0,0,.24-2.67c.34-.21.7-.45,1.07-.73,2.39,2.39,5.94,5.64,7.3,5.22,2.13-.65-.45-5.46-.45-5.46a57.78,57.78,0,0,0,5.28,2.79.56.56,0,0,0,.46.23h.06a5.26,5.26,0,0,0,2.58.62c.79-.19.82-1.14.64-2.07.37-.25.75-.51,1.14-.8a37.55,37.55,0,0,0,3.83,2.24v27.38h10.46v-35.5c.53.64,6.57,7.84,8.26,8.13s0-7.09,0-7.09,4.48,5.77,5.93,3.64-1.13-6.7-1.13-6.7,8.62,9.55,11.06,8.8-.52-6.3-.52-6.3,7.76,4.67,9.65,4.2,0-4.73,0-4.73,1.18.88,2.85,1.94c-.81,1.8-1.43,3.18-1.66,3.71-1,2.23-9.41,8-7.1,9s8.67-3.69,8.67-3.69-1.31,2.94,0,3.27,6.66-2.9,6.66-2.9-2,3.82-.35,4.35,7.64-6.08,7.64-6.08-1.79,3.16-.79,4.63,4.1-2.51,4.1-2.51-1.23,4.89,0,4.89,3.6-1.87,5.7-3.68v22.58H898V223.74c.29.35,4.52,5.41,5.7,5.61s0-4.89,0-4.89,3.1,4,4.1,2.51a2.8,2.8,0,0,0,.18-2.18,3.46,3.46,0,0,0,1.36,0c1.86,1.82,4.32,4,5.32,3.67,1.68-.53-.36-4.35-.36-4.35s5.36,3.22,6.66,2.9,0-3.27,0-3.27,6.37,4.74,8.68,3.69c1-.47,0-1.83-1.63-3.41a60.66,60.66,0,0,0,5.14-5s-2,3.57-.89,5.23,4.63-2.84,4.63-2.84-1.39,5.53,0,5.53,4.08-2.11,6.45-4.16V248.3h8.16V220.6c.4.49,5.12,6.12,6.44,6.34s0-5.53,0-5.53,3.5,4.5,4.63,2.84a3.11,3.11,0,0,0,.21-2.41,9.51,9.51,0,0,0,1-.65c2.15,2.15,5.35,5.07,6.57,4.69,1.91-.59-.4-4.91-.4-4.91s2.55,1.53,4.74,2.51a.52.52,0,0,0,.41.21h.06a4.8,4.8,0,0,0,2.32.57c.71-.18.73-1,.57-1.87.34-.22.68-.46,1-.71a34.77,34.77,0,0,0,3.45,2V248.3h9.4v-32c.47.57,5.91,7,7.43,7.31s0-6.38,0-6.38,4,5.19,5.33,3.28-1-6-1-6,7.75,8.59,10,7.91-.47-5.66-.47-5.66,7,4.2,8.68,3.78,0-4.26,0-4.26,1.06.79,2.56,1.74c-.73,1.62-1.29,2.87-1.49,3.34-.86,2-8.47,7.18-6.39,8.13s7.8-3.31,7.8-3.31-1.17,2.64,0,2.93,6-2.6,6-2.6-1.84,3.43-.33,3.9,6.87-5.46,6.87-5.46-1.6,2.84-.7,4.16,3.68-2.26,3.68-2.26-1.11,4.4,0,4.41,3.24-1.69,5.13-3.31v20.3h6.49v-22c.27.31,4.07,4.87,5.13,5s0-4.41,0-4.41,2.78,3.59,3.68,2.26-.7-4.16-.7-4.16,5.35,5.93,6.87,5.46-.32-3.9-.32-3.9,4.82,2.89,6,2.6,0-2.93,0-2.93,5.72,4.26,7.8,3.31S1074.12,223.37,1073.25,221.36Zm-55.42-35.53s5.22,3.74,6.24,3.74,0-3,0-3a25.31,25.31,0,0,0,3.36,2.26c-1.57,1.59-6,4.34-4.59,4.9,1.65.64,6.18-2.23,6.18-2.23s-.93,1.78,0,2a1.89,1.89,0,0,0,.71-.07c-.8,1.26-1.5,2.35-2,3-1.11,1.57-4.35,4.14-7,6.44-1.66-3.69-3.73-8.25-5.43-12,2.7,1,5,1.58,5.7,1.14C1022.82,190.81,1017.83,185.83,1017.83,185.83Zm4.36,20.28a.61.61,0,0,0-.12-.26l.26-.2S1022.26,205.84,1022.19,206.11Zm-63.68-79.6.34.29-.08.13C958.68,126.79,958.59,126.65,958.51,126.51Zm-38.19,77a15.82,15.82,0,0,0-2.46-3.18s1.61,1.16,3,2c-.19.38-.37.78-.54,1.17Zm-.06-9.26h0l.18-.13Zm-4.35,10a16.6,16.6,0,0,0,3.65,1L918,208.7c-.74-1.55-1.45-3.1-2.09-4.5Zm52.42-80.78c-1.85,2.37-4.09,4-3.1,4.84.59.51,2.82-.63,4.52-1.62-2,3.26-4.22,6.93-5.55,8.9-1-1.45-2.94-4.55-4.77-7.52a7.25,7.25,0,0,0,.78-.17c.83.59,1.61,1,1.94.86s.18-.85-.17-1.58c.9-.43,1.86-1,2.76-1.48a.73.73,0,0,0,.53-.16.24.24,0,0,0,.05-.18c1.68-1,3-1.94,3-1.94Zm-52.69,56.3c2.07.8,7.76-2.81,7.76-2.81s-1.17,2.24,0,2.49a2.24,2.24,0,0,0,.89-.09c-1,1.59-1.88,3-2.48,3.81a13.64,13.64,0,0,1-1.56,1.75c-1.55-1.25-3.42-2.6-3.8-3.36l-1-1.89.19.05Zm-.43,7.61c1-.22,0-2.2,0-2.2a28.92,28.92,0,0,0,3,1.62c-.83.74-1.74,1.51-2.65,2.28l-1.13-1.78a2.05,2.05,0,0,0,.78,0Zm-54.54-8.49s5.8,4.16,6.94,4.16,0-3.35,0-3.35a28.47,28.47,0,0,0,3.74,2.52c-1.75,1.76-6.71,4.82-5.1,5.44,1.83.72,6.87-2.48,6.87-2.48s-1,2,0,2.2a1.88,1.88,0,0,0,.78-.08c-.88,1.41-1.66,2.62-2.19,3.37-1.24,1.75-4.85,4.6-7.81,7.17-1.85-4.1-4.16-9.18-6-13.34,3,1.07,5.6,1.76,6.34,1.27,2-1.39-3.57-6.93-3.57-6.93Zm4.85,22.55c0-.1-.08-.19-.13-.29l.28-.22a3.55,3.55,0,0,0-.15.46Zm-125.3,14.89s.25.19.67.48l-.35.34c-.17-.53-.32-.87-.32-.87Zm2.87-6.86c.46.3,2.08-.12,3.94-.78l-1.83,4h0a13.94,13.94,0,0,1-2.93-3.38c-.14-.34-.41-.95-.77-1.75a38.63,38.63,0,0,0,3.8-2.41s-3.46,3.44-2.21,4.27Zm51.61-96.55.39.33-.1.14a3.45,3.45,0,0,0-.29-.52Zm-53.86,93.24-.12-.26.25-.2a3.17,3.17,0,0,0-.13.41Zm64.78-96.67c-2,2.63-4.55,4.42-3.44,5.38.65.57,3.13-.69,5-1.8-2.19,3.62-4.69,7.7-6.17,9.89-1.11-1.6-3.27-5.06-5.3-8.36a5.08,5.08,0,0,0,.86-.19c.93.66,1.8,1.13,2.17,1s.2-1-.19-1.76c1-.47,2.06-1.06,3.06-1.64a.91.91,0,0,0,.6-.18.34.34,0,0,0,0-.2c1.94-1.2,3.41-2.19,3.41-2.19Zm-65.35,78.94c-.34.37-.65.72-.89,1a23.31,23.31,0,0,0-2.91-3.59s2,1.44,3.8,2.54Zm-.62,3.64a.81.81,0,0,0,.14-.12c1.74.2,4.59-1.73,5.86-2.68-1.82,1.61-5.49,4-4.16,4.5,1.65.64,6.18-2.23,6.18-2.23s-.93,1.78,0,2a1.84,1.84,0,0,0,.7-.07c-.79,1.26-1.49,2.35-2,3-1.11,1.57-4.35,4.13-7,6.44l-5.43-12c2.7.93,5.06,1.55,5.71,1.09Zm-295.18-52.9s4.42,3.16,5.29,3.16,0-2.55,0-2.55.68.56,1.62,1.18c-1.07,2-1.9,3.59-2.19,4.17a15.49,15.49,0,0,1-3.5,3.31l-2.5-4.71c1.91.64,3.48,1,4,.67,1.51-1.07-2.72-5.28-2.72-5.28ZM512.66,127s.92.66,2,1.4l-.46.37A21.69,21.69,0,0,0,512.66,127Zm-61.55,27.07a3.51,3.51,0,0,0,1.21-.12c-.63,1-1.22,1.94-1.76,2.77a5.48,5.48,0,0,1-1.19-1.35c-.22-.43-.77-1.49-1.5-2.88,1.83-.94,3.24-1.83,3.24-1.83s-1.6,3.08,0,3.42Zm-3.38,6.52-.09-.18.17.1-.08.09ZM677.15,126.5l.35.29-.09.13Zm-26.12.65c-.35.72-.53,1.38-.16,1.55.57.26,2.39-1.14,3.65-2.2-1.15,1.87-2.42,3.94-3.53,5.69l-3.13-5.89a20,20,0,0,0,3.14.86ZM602.29,74.07l-.13-.19.5-.42C602.54,73.67,602.41,73.87,602.29,74.07ZM519.81,140.5a23,23,0,0,1-2.58,2.9c-1.05-2-2.8-5.31-4.55-8.59,4.14-1,9.77-4.58,9.77-4.58s-1.94,3.71,0,4.12a3.79,3.79,0,0,0,1.46-.14C522.26,136.84,520.81,139.09,519.81,140.5ZM404.11,98.88l-.11-.16.42-.36C404.32,98.54,404.21,98.71,404.11,98.88Zm-74.72,90c-.47-.53-.82-.87-.82-.87l.92.64a2.44,2.44,0,0,1-.1.24ZM330,179a39.11,39.11,0,0,0,4.48-1.35l-1.71,3.77C331.81,180.56,330.87,179.74,330,179Zm1-7.2a24,24,0,0,0-3.55,4.65c-.17-.21-.33-.41-.47-.6s-.44-.64-.7-1c1.7-1,3.71-2.41,4.61-3Zm-45.11-58.43-.1-.14.39-.33Zm51.54,96.14a18.08,18.08,0,0,0-1.4,3.55,13.43,13.43,0,0,1-1.61-1.84c1.74-1,3-1.74,3-1.74Zm126.67-1.28a16.08,16.08,0,0,0-1.51,3.9L461.45,211c1.55-1.56,2.68-2.8,2.68-2.8ZM634,209.64s.59.75,1.42,1.65l-.76,1.69A31,31,0,0,0,634,209.64Zm53-86.22c-1.85,2.37-4.1,4-3.11,4.84.6.51,2.82-.63,4.52-1.62-2,3.26-4.21,6.93-5.54,8.9-1-1.45-2.94-4.55-4.77-7.52a5.06,5.06,0,0,0,.77-.18c.84.6,1.62,1,2,.87s.18-.85-.17-1.59c.89-.42,1.85-1,2.75-1.47a.8.8,0,0,0,.54-.16.24.24,0,0,0,0-.18C685.65,124.31,687,123.42,687,123.42Zm-36.27-1.49-.25.25c-.61-.7-1.1-1.19-1.1-1.19ZM592.88,71.75A.37.37,0,0,0,593,72a1.08,1.08,0,0,0,.77.24c1.29.75,2.67,1.5,4,2.11-.5,1.05-.78,2-.25,2.27s1.6-.38,2.8-1.24a6,6,0,0,0,1.11.25c-2.62,4.27-5.4,8.72-6.84,10.8-1.91-2.83-5.14-8.1-8-12.78C589,75.08,592.17,76.72,593,76c1.42-1.24-1.8-3.55-4.45-7C588.56,69,590.47,70.31,592.88,71.75Zm-81.56,31.69c-.68.94-.94,1.68-.58,2.14.89,1.11,2.75.6,4.54-.3a2.63,2.63,0,0,0,1.91.15c.36-.21.28-.64-.07-1.21.86-.55,1.69-1.15,2.49-1.78,0,0-1.16,3.42,0,3.42s7.1-4.25,7.1-4.25-5.68,5.67-3.61,7c.66.44,2.77,0,5.34-.9-3.38,6.35-7.44,14-8.29,15.69-3.52-3-7.58-6.27-9-8.3s-4.47-7-7-11.24c2,1.18,4.66,2.53,5.37,1.92,1.17-1-1.5-2.93-3.69-5.74A63,63,0,0,0,511.32,103.44Zm-62.56,27.08c1,0,5.87-3.51,5.87-3.51s-4.69,4.68-3,5.81c.54.36,2.29,0,4.42-.74-1,1.79-2,3.7-2.93,5.5-2.61-2.36-6.16-5.15-8.4-7.33a21.56,21.56,0,0,0,4-2.56S447.8,130.52,448.76,130.52ZM396,96.89a.29.29,0,0,0,.06.22,1,1,0,0,0,.66.2c1.1.64,2.29,1.29,3.39,1.81-.43.9-.67,1.74-.22,1.95s1.37-.33,2.4-1.06a5.21,5.21,0,0,0,.95.21c-2.24,3.66-4.63,7.48-5.86,9.26-1.64-2.43-4.41-6.94-6.83-11,2.09,1.23,4.83,2.63,5.56,2,1.22-1.06-1.55-3-3.82-6C392.33,94.56,394,95.66,396,96.89Zm-68.89,55.65c.49,0,.36-.92.2-1.59l.54-.15c1.36,1,4.22,2.8,5.22,1.55.42-.53-.38-1.61-1.74-3A46.62,46.62,0,0,0,335.6,147s-1.66,3.18,0,3.54a3.11,3.11,0,0,0,1.25-.13c-1.41,2.26-2.66,4.19-3.51,5.4-1.28,1.81-4.17,4.38-7.33,7.07-1.11-2.1-3.1-5.86-4.84-9.12,1.73.58,3.15.9,3.6.61,1.38-.92-2.43-4.73-2.43-4.73s4,2.9,4.81,2.9Zm-48.52-41a.29.29,0,0,0,.05.2.91.91,0,0,0,.6.18c1,.58,2.07,1.17,3.06,1.64-.39.81-.6,1.56-.19,1.76s1.23-.3,2.17-1a4.27,4.27,0,0,0,.86.19c-2,3.3-4.19,6.76-5.3,8.36-1.48-2.19-4-6.27-6.17-9.89,1.89,1.11,4.37,2.37,5,1.8,1.1-1-1.4-2.75-3.45-5.38.06,0,1.54,1,3.41,2.14ZM213.3,183c1.13,0,6.94-4.16,6.94-4.16s-5.55,5.54-3.53,6.88c.74.49,3.34-.2,6.34-1.27-1.88,4.16-4.19,9.24-6,13.34-3-2.57-6.57-5.42-7.81-7.17-.53-.75-1.31-2-2.19-3.37a1.88,1.88,0,0,0,.78.08c1-.22,0-2.2,0-2.2s5,3.2,6.87,2.48c1.61-.62-3.35-3.68-5.1-5.44a28.47,28.47,0,0,0,3.74-2.52S212.16,183,213.3,183Zm1.94,17.88s.1.09.28.22c-.05.1-.09.19-.13.29C215.31,201.09,215.24,200.88,215.24,200.88Zm-54.74-6.8.18.13h0Zm-.44,8.24c1.38-.84,3-2,3-2a15.82,15.82,0,0,0-2.46,3.18Zm-37.92-75.39a.38.38,0,0,0-.09-.13l.35-.29C122.32,126.65,122.23,126.79,122.14,126.93Zm39.21,78.24a16.37,16.37,0,0,0,3.64-1c-.63,1.4-1.34,3-2,4.5Zm4.35-17.84a1.92,1.92,0,0,0,.79-.08L165.36,189c-.92-.77-1.82-1.54-2.66-2.28a28.92,28.92,0,0,0,3-1.62s-1,2,0,2.23Zm-8.19-7.93c1.17-.25,0-2.49,0-2.49s5.69,3.61,7.76,2.81l.18-.1-1,1.89c-.38.76-2.25,2.11-3.8,3.36a13.64,13.64,0,0,1-1.56-1.75c-.6-.85-1.48-2.22-2.48-3.81a2.29,2.29,0,0,0,.9.09Zm-41.92-54.09a.28.28,0,0,0,0,.18.73.73,0,0,0,.53.16c.9.52,1.86,1,2.76,1.48-.35.73-.55,1.4-.18,1.58s1.11-.27,2-.87a5.19,5.19,0,0,0,.78.18c-1.83,3-3.77,6.07-4.77,7.52-1.33-2-3.58-5.64-5.55-8.9,1.7,1,3.93,2.13,4.52,1.62,1-.86-1.26-2.47-3.1-4.84,0,0,1.33.89,3,1.89ZM56.84,189.57c1,0,6.24-3.74,6.24-3.74s-5,5-3.18,6.19c.67.44,3-.18,5.71-1.14-1.7,3.74-3.77,8.3-5.43,12-2.67-2.3-5.92-4.87-7-6.44-.47-.68-1.17-1.77-2-3a1.89,1.89,0,0,0,.71.07c.93-.2,0-2,0-2s4.53,2.87,6.17,2.23c1.45-.56-3-3.31-4.59-4.9a25.41,25.41,0,0,0,3.37-2.26S55.82,189.57,56.84,189.57Zm1.74,16.08.25.2-.11.26c-.07-.27-.14-.46-.14-.46Zm-4.21,7-1.85-4.05c1.87.66,3.49,1.08,3.95.78,1.25-.83-2.2-4.27-2.2-4.27a35.81,35.81,0,0,0,3.8,2.41l-.78,1.75a13.87,13.87,0,0,1-2.92,3.42Zm101.85,8.23.1.06V221Zm17.49,2.26c0-.08-.09-.15-.14-.24.35-.37.55-.6.55-.6s-.19.38-.41.88Zm36.84-14.47c-.71-1.55-1.41-3.11-2.05-4.51,2.07.73,3.87,1.21,4.38.87,1.4-.92-2.44-4.75-2.44-4.75a39.53,39.53,0,0,0,4.22,2.68c-.4.9-.7,1.57-.86,1.95a15.56,15.56,0,0,1-3.25,3.8ZM867.11,205c-.17-.38-.47-1-.86-1.95a41.18,41.18,0,0,0,4.22-2.68s-3.84,3.83-2.44,4.75c.51.34,2.31-.14,4.38-.87-.64,1.4-1.35,3-2,4.51A15.58,15.58,0,0,1,867.11,205Zm39.68,17.39s.2.23.55.6c-.05.09-.1.16-.14.24a5.3,5.3,0,0,0-.41-.89Zm17.8-1.36.1-.06-.06.11Zm99-11.67-.78-1.75a35.81,35.81,0,0,0,3.8-2.41s-3.45,3.44-2.2,4.27c.46.3,2.08-.12,3.94-.78l-1.84,4.05a13.77,13.77,0,0,1-2.89-3.43Z"/></g></g></svg>