<?xml version="1.0" encoding="UTF-8"?>
<svg id="Layer_2" data-name="Layer 2" xmlns="http://www.w3.org/2000/svg" viewBox="0 0 1944.13 873.14">
  <defs>
    <style>
      .cls-1 {
        fill: #e3f7ff;
        stroke-width: 0px;
      }
    </style>
  </defs>
  <g id="Layer_1-2" data-name="Layer 1">
    <path class="cls-1" d="m1931.97,398.81c-.98-2.28-6.45-14.35-10.35-22.93,3.36,1.19,6.27,1.96,7.1,1.41,2.26-1.5-3.95-7.69-3.95-7.69,0,0,6.5,4.65,7.77,4.65s0-3.75,0-3.75c0,0,7.54,6.15,9.7,3.43,2.16-2.72-15.66-14.65-19.48-20.06-.86-1.22-2.12-3.17-3.55-5.45.53.13.98.19,1.27.13,1.68-.35,0-3.57,0-3.57,0,0,8.17,5.18,11.13,4.03,2.96-1.15-7.89-7.45-9.12-9.89-.7-1.38-4.25-8.08-7.21-13.63,2.23.74,4.06,1.16,4.63.78,1.79-1.18-3.13-6.09-3.13-6.09,0,0,5.14,3.68,6.15,3.68s0-2.97,0-2.97c0,0,5.97,4.87,7.68,2.72,1.71-2.16-12.41-11.6-15.43-15.88-1.54-2.18-4.68-7.3-7.39-11.78,2.11,1.24,4.89,2.66,5.62,2.02,1.23-1.07-1.57-3.08-3.86-6.02,0,0,10.07,6.75,11.97,5.62,1.9-1.14-7.95-8.26-10.15-11.05-1.25-1.58-5.4-8.27-8.78-13.79,1.8,1.52,4.41,3.54,5.23,3.15,1.29-.61-2.15-5.42-2.15-5.42,0,0,5.88,1.67,6.61.8.73-.87-3.86-4.21-8.49-9.63-5.76-6.73-15.17-23.78-17.43-29.51-2.26,5.73-11.67,22.77-17.43,29.51-4.64,5.42-9.23,8.76-8.49,9.63.73.87,6.61-.8,6.61-.8,0,0-3.43,4.81-2.14,5.42.82.38,3.43-1.63,5.23-3.15-3.38,5.52-7.53,12.22-8.78,13.79-2.21,2.79-12.06,9.91-10.16,11.05,1.9,1.14,11.97-5.62,11.97-5.62-2.29,2.94-5.09,4.95-3.86,6.02.74.64,3.51-.78,5.62-2.02-2.71,4.48-5.84,9.6-7.39,11.78-3.02,4.28-17.14,13.73-15.43,15.88,1.71,2.16,7.68-2.72,7.68-2.72,0,0-1.01,2.97,0,2.97s6.15-3.68,6.15-3.68c0,0-4.92,4.91-3.13,6.09.57.38,2.41-.04,4.63-.78-1.47,2.76-3.09,5.81-4.44,8.35-7.06-6.89-20.1-16.52-23.84-21.82-1.25-1.77-3.07-4.59-5.15-7.9.77.19,1.42.27,1.84.19,2.43-.51,0-5.17,0-5.17,0,0,11.82,7.5,16.12,5.83,4.29-1.67-11.42-10.78-13.2-14.32-1.01-2-6.16-11.7-10.44-19.73,3.22,1.07,5.88,1.68,6.71,1.13,2.59-1.72-4.54-8.82-4.54-8.82,0,0,7.45,5.34,8.91,5.34s0-4.3,0-4.3c0,0,8.65,7.06,11.13,3.94,2.48-3.12-17.97-16.81-22.34-23-2.23-3.16-6.78-10.57-10.7-17.06,3.06,1.8,7.08,3.85,8.14,2.92,1.78-1.55-2.27-4.45-5.59-8.71,0,0,14.58,9.78,17.33,8.13,2.75-1.65-11.51-11.96-14.71-16-1.81-2.29-7.83-11.98-12.71-19.97,2.61,2.21,6.39,5.12,7.58,4.56,1.86-.88-3.11-7.85-3.11-7.85,0,0,8.52,2.42,9.58,1.16,1.06-1.26-5.58-6.09-12.3-13.94-8.34-9.75-21.97-34.44-25.24-42.73-3.27,8.29-16.9,32.98-25.24,42.73-6.72,7.85-13.36,12.68-12.3,13.94,1.06,1.26,9.58-1.16,9.58-1.16,0,0-4.97,6.97-3.11,7.85,1.18.56,4.96-2.36,7.57-4.56-4.89,7.99-10.91,17.69-12.71,19.97-1.21,1.53-4.02,3.97-6.89,6.5-1.91-1.88-4.28-4.22-6.67-7.01-7.24-8.46-19.07-29.88-21.9-37.08-2.84,7.2-14.67,28.62-21.91,37.08-5.83,6.81-11.6,11.01-10.68,12.1.92,1.09,8.31-1.01,8.31-1.01,0,0-4.31,6.05-2.7,6.81,1.02.48,4.31-2.05,6.57-3.96-4.24,6.94-9.47,15.35-11.03,17.33-2.77,3.51-15.15,12.46-12.76,13.88,2.39,1.43,15.04-7.06,15.04-7.06-2.88,3.7-6.4,6.22-4.85,7.56.92.8,4.41-.98,7.07-2.54-3.4,5.64-7.35,12.06-9.28,14.81-3.8,5.38-21.54,17.25-19.39,19.96s9.66-3.42,9.66-3.42c0,0-1.26,3.73,0,3.73s7.73-4.63,7.73-4.63c0,0-6.18,6.17-3.94,7.66.72.48,3.03-.05,5.82-.98-3.71,6.97-8.18,15.39-9.06,17.13-1.36,2.7-12.11,9.17-12.09,11.65-1.63-3.09-3.9-7.36-5.92-11.15,2.47.82,4.51,1.29,5.15.87,1.99-1.32-3.48-6.77-3.48-6.77,0,0,5.72,4.1,6.84,4.1s0-3.3,0-3.3c0,0,6.64,5.42,8.54,3.02,1.9-2.4-13.8-12.91-17.16-17.66-1.71-2.43-5.21-8.12-8.21-13.1,2.35,1.38,5.43,2.96,6.25,2.25,1.37-1.19-1.74-3.42-4.29-6.69,0,0,11.19,7.51,13.31,6.24,2.11-1.27-8.84-9.18-11.29-12.29-1.39-1.76-6.01-9.2-9.76-15.34,2.01,1.69,4.91,3.93,5.82,3.51,1.43-.67-2.39-6.02-2.39-6.02,0,0,6.54,1.86,7.36.89.82-.97-4.29-4.68-9.45-10.71-6.41-7.48-16.87-26.44-19.38-32.81-2.51,6.37-12.98,25.33-19.38,32.81-5.16,6.03-10.26,9.74-9.45,10.71.81.97,7.36-.89,7.36-.89,0,0-3.82,5.35-2.38,6.02.91.43,3.81-1.81,5.82-3.51-3.75,6.14-8.38,13.58-9.76,15.34-2.45,3.1-13.41,11.02-11.29,12.29,2.11,1.26,13.31-6.24,13.31-6.24-2.55,3.27-5.66,5.5-4.29,6.69.82.71,3.9-.86,6.25-2.25-3.01,4.99-6.5,10.67-8.21,13.1-3.36,4.76-19.06,15.26-17.16,17.66,1.9,2.4,8.54-3.02,8.54-3.02,0,0-1.12,3.3,0,3.3s6.84-4.1,6.84-4.1c0,0-5.47,5.46-3.48,6.77.64.42,2.68-.04,5.15-.87-1.64,3.08-3.44,6.47-4.93,9.29-7.85-7.66-22.35-18.37-26.51-24.26-1.39-1.97-3.42-5.11-5.72-8.78.86.21,1.57.3,2.04.2,2.7-.57,0-5.75,0-5.75,0,0,13.15,8.34,17.92,6.49,4.77-1.86-12.7-11.99-14.68-15.92-1.12-2.23-6.85-13.01-11.6-21.94,3.58,1.19,6.54,1.86,7.46,1.25,2.88-1.91-5.04-9.81-5.04-9.81,0,0,8.29,5.93,9.91,5.93s0-4.78,0-4.78c0,0,9.61,7.85,12.37,4.38,2.76-3.47-19.98-18.69-24.84-25.58-2.48-3.52-7.54-11.75-11.89-18.97,3.4,2,7.87,4.28,9.05,3.25,1.98-1.72-2.52-4.95-6.21-9.69,0,0,16.21,10.87,19.27,9.04,3.06-1.83-12.8-13.3-16.35-17.79-2.01-2.54-8.7-13.32-14.14-22.21,2.9,2.45,7.11,5.69,8.42,5.08,2.07-.97-3.46-8.72-3.46-8.72,0,0,9.47,2.69,10.65,1.29,1.18-1.4-6.21-6.77-13.68-15.5-9.28-10.84-24.43-38.29-28.07-47.51-3.63,9.22-18.79,36.68-28.07,47.51-7.47,8.73-14.86,14.1-13.68,15.5,1.18,1.4,10.65-1.29,10.65-1.29,0,0-5.53,7.75-3.46,8.72,1.31.62,5.52-2.62,8.42-5.08-5.44,8.89-12.13,19.67-14.14,22.21-1.35,1.71-4.47,4.42-7.66,7.22-2.13-2.09-4.76-4.69-7.41-7.79-8.05-9.41-21.21-33.23-24.36-41.23-3.15,8-16.31,31.83-24.36,41.23-6.48,7.57-12.9,12.24-11.87,13.45,1.02,1.21,9.24-1.12,9.24-1.12,0,0-4.8,6.73-3,7.57,1.14.54,4.79-2.27,7.31-4.4-4.72,7.71-10.52,17.07-12.27,19.27-3.08,3.9-16.85,13.85-14.19,15.44,2.66,1.59,16.73-7.85,16.73-7.85-3.2,4.11-7.11,6.91-5.39,8.41,1.03.89,4.91-1.09,7.86-2.82-3.78,6.27-8.17,13.41-10.32,16.47-4.22,5.98-23.95,19.19-21.56,22.2,1.87,2.36,7.37-1.29,9.68-2.99.27-.03.55-.06.84-.11-.33,1.18-.83,3.45.21,3.45.32,0,.93-.27,1.69-.67-.34.83-.45,1.53-.01,1.74.51.24,1.73-.46,3.01-1.39-.77,1.26-1.24,2.47-.85,3.23-2.49,4.01-4.82,7.68-5.71,8.8-2.21,2.79-12.06,9.91-10.15,11.05,1.9,1.14,11.97-5.62,11.97-5.62-2.29,2.94-5.09,4.95-3.86,6.02.57.49,2.35-.24,4.1-1.17-3.02,3.77-16.18,11.63-12.29,13.15,1.17.45,2.91.2,4.82-.39-4.71,4.71-15.32,12.17-13.82,14.05,1.71,2.16,7.68-2.72,7.68-2.72,0,0-1.01,2.97,0,2.97s6.15-3.68,6.15-3.68c0,0-4.92,4.91-3.13,6.09.15.1.39.14.7.14-1.46,1.25-2.97,2.52-4.47,3.79-7.19-6.34-16.76-13.76-19.88-18.17-1.25-1.77-3.07-4.59-5.15-7.9.77.19,1.42.27,1.84.19,2.43-.51,0-5.17,0-5.17,0,0,11.82,7.5,16.12,5.83,4.29-1.67-11.42-10.78-13.2-14.32-1.01-2-6.16-11.7-10.43-19.73,3.22,1.07,5.88,1.68,6.71,1.13,2.59-1.72-4.54-8.82-4.54-8.82,0,0,7.45,5.34,8.91,5.34s0-4.3,0-4.3c0,0,8.65,7.06,11.13,3.94,2.48-3.12-17.97-16.81-22.34-23-2.23-3.16-6.78-10.57-10.7-17.06,3.06,1.8,7.08,3.85,8.14,2.92,1.78-1.55-2.27-4.45-5.59-8.71,0,0,14.58,9.78,17.33,8.13,2.75-1.65-11.51-11.96-14.7-16-1.81-2.29-7.83-11.98-12.71-19.97,2.61,2.21,6.39,5.12,7.57,4.56,1.86-.88-3.11-7.85-3.11-7.85,0,0,8.52,2.42,9.58,1.16,1.06-1.26-5.58-6.09-12.3-13.94-8.34-9.75-21.97-34.44-25.24-42.73-3.27,8.29-16.9,32.98-25.24,42.73-6.72,7.85-13.36,12.68-12.3,13.94,1.06,1.26,9.58-1.16,9.58-1.16,0,0-4.97,6.97-3.11,7.85,1.18.56,4.96-2.36,7.57-4.56-4.89,7.99-10.91,17.69-12.71,19.97-1.21,1.53-4.02,3.97-6.89,6.5-1.91-1.88-4.28-4.22-6.67-7.01-7.24-8.46-19.07-29.88-21.91-37.08-2.38,6.04-11.09,22.09-18.11,32.1-5.94-5.03-12.07-10.13-14.44-13.48-2.78-3.94-8.44-13.16-13.32-21.26,3.81,2.24,8.82,4.79,10.14,3.64,2.22-1.93-2.82-5.55-6.96-10.86,0,0,18.17,12.18,21.6,10.13,3.43-2.05-14.34-14.9-18.32-19.93-2.25-2.85-9.75-14.93-15.84-24.89,3.25,2.75,7.97,6.38,9.44,5.69,2.32-1.09-3.87-9.78-3.87-9.78,0,0,10.61,3.02,11.93,1.45,1.32-1.57-6.96-7.59-15.33-17.37-10.4-12.14-27.38-42.91-31.45-53.24-4.07,10.33-21.06,41.1-31.45,53.24-3.43,4-6.83,7.37-9.57,10.06-4.12-3.62-8.15-7.12-9.89-9.33-2.59-3.28-11.23-17.2-18.25-28.68,3.75,3.17,9.18,7.35,10.87,6.55,2.67-1.26-4.46-11.26-4.46-11.26,0,0,12.23,3.48,13.75,1.67,1.52-1.81-8.02-8.75-17.66-20.02-11.98-13.99-31.55-49.44-36.24-61.35-4.69,11.91-24.26,47.35-36.24,61.35-9.65,11.27-19.19,18.21-17.66,20.02,1.52,1.81,13.75-1.67,13.75-1.67,0,0-7.14,10.01-4.46,11.26,1.69.8,7.12-3.38,10.87-6.55-7.02,11.47-15.66,25.39-18.25,28.68-4.59,5.8-25.07,20.61-21.11,22.97,3.95,2.36,24.88-11.68,24.88-11.68-4.77,6.12-10.58,10.29-8.02,12.51,1.53,1.33,7.3-1.61,11.69-4.19-5.62,9.32-12.15,19.95-15.35,24.49-4.16,5.89-18.44,16.5-26.58,24.3-4.29-3.89-9.44-8.13-11.33-10.53-2.14-2.71-9.29-14.22-15.09-23.71,3.1,2.62,7.59,6.08,8.99,5.42,2.21-1.04-3.69-9.31-3.69-9.31,0,0,10.11,2.87,11.37,1.38,1.26-1.5-6.63-7.23-14.61-16.55-9.9-11.57-26.08-40.88-29.96-50.72-3.88,9.84-20.06,39.15-29.96,50.72-7.98,9.32-15.86,15.05-14.6,16.55,1.26,1.49,11.37-1.38,11.37-1.38,0,0-5.9,8.28-3.69,9.31,1.4.66,5.89-2.8,8.99-5.42-5.8,9.49-12.95,21-15.09,23.71-3.79,4.8-20.73,17.04-17.46,18.99,3.27,1.95,20.57-9.65,20.57-9.65-3.94,5.06-8.75,8.5-6.63,10.34,1.26,1.1,6.03-1.33,9.66-3.47-4.65,7.71-10.05,16.5-12.7,20.25-3.91,5.54-18.66,16.14-24.43,22.61-2.58-3.85-6.8-10.74-10.5-16.88,3.27,1.92,7.56,4.12,8.7,3.13,1.9-1.66-2.42-4.76-5.97-9.31,0,0,15.58,10.45,18.52,8.69,2.94-1.76-12.3-12.78-15.71-17.09-1.93-2.44-8.36-12.8-13.58-21.34,2.79,2.36,6.83,5.47,8.09,4.88,1.99-.94-3.32-8.38-3.32-8.38,0,0,9.1,2.59,10.24,1.24,1.13-1.34-5.97-6.51-13.15-14.89-8.91-10.41-23.48-36.79-26.97-45.66-3.49,8.86-18.06,35.24-26.97,45.66-2.94,3.43-5.86,6.32-8.21,8.63-3.53-3.11-6.99-6.11-8.48-8-2.22-2.81-9.63-14.75-15.65-24.59,3.22,2.72,7.87,6.3,9.33,5.62,2.29-1.08-3.83-9.66-3.83-9.66,0,0,10.49,2.98,11.79,1.43,1.3-1.55-6.87-7.5-15.15-17.16-10.27-12-27.05-42.4-31.08-52.61-4.02,10.21-20.81,40.61-31.08,52.61-8.27,9.66-16.45,15.61-15.15,17.16,1.31,1.55,11.79-1.43,11.79-1.43,0,0-6.12,8.58-3.83,9.66,1.45.68,6.11-2.9,9.33-5.62-6.02,9.84-13.43,21.78-15.65,24.59-3.93,4.98-21.49,17.67-18.1,19.7,3.39,2.03,21.34-10.01,21.34-10.01-4.09,5.24-9.07,8.82-6.88,10.73,1.31,1.14,6.26-1.38,10.02-3.6-4.82,8-10.42,17.11-13.17,21-5.38,7.63-30.56,24.48-27.51,28.32,3.05,3.84,13.7-4.85,13.7-4.85,0,0-1.79,5.29,0,5.29s10.97-6.57,10.97-6.57c0,0-8.77,8.75-5.59,10.86,1.02.68,4.29-.07,8.26-1.39-5.26,9.89-11.6,21.83-12.85,24.3-1.04,2.07-5.97,5.7-10.28,9.15-4.91-4.17-10.27-8.55-12.25-11.35-2.15-3.05-6.54-10.2-10.32-16.47,2.95,1.74,6.83,3.72,7.86,2.82,1.72-1.5-2.19-4.3-5.39-8.41,0,0,14.07,9.44,16.73,7.85,2.66-1.59-11.11-11.54-14.19-15.44-1.74-2.21-7.55-11.56-12.27-19.28,2.52,2.13,6.17,4.94,7.31,4.4,1.8-.84-3-7.57-3-7.57,0,0,8.22,2.34,9.24,1.12,1.02-1.21-5.39-5.88-11.87-13.45-8.05-9.41-21.21-33.23-24.36-41.23-3.15,8-16.31,31.83-24.36,41.23-2.66,3.1-5.29,5.71-7.41,7.79-3.19-2.81-6.31-5.52-7.66-7.22-2.01-2.54-8.7-13.32-14.14-22.21,2.9,2.45,7.11,5.69,8.42,5.08,2.07-.97-3.46-8.72-3.46-8.72,0,0,9.47,2.69,10.65,1.29,1.18-1.4-6.21-6.77-13.68-15.5-9.28-10.84-24.43-38.29-28.07-47.51-3.63,9.22-18.79,36.68-28.07,47.51-7.47,8.73-14.86,14.1-13.68,15.5,1.18,1.4,10.65-1.29,10.65-1.29,0,0-5.53,7.75-3.45,8.72,1.31.62,5.52-2.62,8.42-5.08-5.44,8.89-12.13,19.67-14.14,22.21-3.55,4.49-19.41,15.96-16.35,17.79,3.06,1.83,19.27-9.04,19.27-9.04-3.69,4.74-8.2,7.97-6.21,9.69,1.18,1.03,5.65-1.25,9.05-3.25-4.36,7.22-9.41,15.45-11.89,18.97-4.86,6.89-27.6,22.11-24.84,25.58,2.76,3.47,12.37-4.38,12.37-4.38,0,0-1.62,4.78,0,4.78s9.91-5.93,9.91-5.93c0,0-7.92,7.9-5.04,9.81.92.61,3.88-.06,7.46-1.25-4.75,8.93-10.48,19.71-11.6,21.94-1.98,3.93-19.45,14.06-14.68,15.92,4.77,1.86,17.92-6.49,17.92-6.49,0,0-2.7,5.18,0,5.75.46.1,1.18,0,2.04-.2-2.3,3.67-4.33,6.81-5.72,8.78-4.16,5.89-18.65,16.6-26.51,24.26-1.49-2.82-3.3-6.21-4.93-9.29,2.47.82,4.51,1.29,5.15.87,1.99-1.32-3.48-6.77-3.48-6.77,0,0,5.72,4.1,6.84,4.1s0-3.3,0-3.3c0,0,6.64,5.42,8.55,3.02,1.9-2.4-13.8-12.91-17.16-17.66-1.71-2.43-5.21-8.11-8.21-13.1,2.35,1.38,5.43,2.96,6.25,2.25,1.37-1.19-1.74-3.42-4.29-6.69,0,0,11.19,7.51,13.31,6.24,2.11-1.27-8.84-9.18-11.29-12.29-1.39-1.76-6.01-9.2-9.76-15.34,2.01,1.69,4.91,3.93,5.82,3.51,1.43-.67-2.39-6.02-2.39-6.02,0,0,6.54,1.86,7.36.89.81-.97-4.29-4.68-9.45-10.71-6.41-7.48-16.87-26.44-19.38-32.81-2.51,6.37-12.98,25.33-19.38,32.81-5.16,6.03-10.26,9.74-9.45,10.71.81.97,7.36-.89,7.36-.89,0,0-3.82,5.35-2.39,6.02.91.43,3.81-1.81,5.82-3.51-3.75,6.14-8.38,13.58-9.76,15.34-2.45,3.1-13.41,11.02-11.29,12.29,2.11,1.26,13.31-6.24,13.31-6.24-2.55,3.27-5.66,5.5-4.29,6.69.82.71,3.9-.86,6.25-2.25-3.01,4.99-6.5,10.67-8.21,13.1-3.36,4.76-19.06,15.26-17.16,17.66,1.9,2.4,8.54-3.02,8.54-3.02,0,0-1.12,3.3,0,3.3s6.84-4.1,6.84-4.1c0,0-5.47,5.46-3.48,6.77.64.42,2.68-.04,5.15-.87-2.02,3.79-4.29,8.06-5.92,11.15.02-2.49-10.73-8.95-12.09-11.65-.88-1.74-5.35-10.16-9.06-17.12,2.8.93,5.1,1.46,5.82.98,2.25-1.49-3.94-7.66-3.94-7.66,0,0,6.47,4.63,7.73,4.63s0-3.73,0-3.73c0,0,7.5,6.13,9.66,3.42s-15.59-14.59-19.39-19.96c-1.94-2.74-5.88-9.17-9.28-14.81,2.66,1.56,6.14,3.34,7.07,2.54,1.55-1.34-1.97-3.86-4.85-7.56,0,0,12.65,8.49,15.04,7.06,2.39-1.43-9.99-10.38-12.76-13.88-1.57-1.98-6.79-10.4-11.03-17.34,2.27,1.92,5.55,4.44,6.58,3.96,1.62-.76-2.7-6.81-2.7-6.81,0,0,7.39,2.1,8.31,1.01.92-1.09-4.85-5.29-10.68-12.1-7.24-8.46-19.07-29.88-21.9-37.08-2.84,7.2-14.67,28.62-21.91,37.08-2.39,2.79-4.76,5.13-6.67,7.01-2.87-2.52-5.67-4.96-6.89-6.5-1.81-2.29-7.83-11.98-12.71-19.98,2.61,2.21,6.39,5.12,7.58,4.57,1.86-.88-3.11-7.85-3.11-7.85,0,0,8.52,2.42,9.58,1.16,1.06-1.26-5.58-6.09-12.3-13.94-8.34-9.75-21.97-34.44-25.24-42.73-3.27,8.29-16.9,32.98-25.24,42.73-6.72,7.85-13.36,12.68-12.3,13.94,1.06,1.26,9.58-1.16,9.58-1.16,0,0-4.97,6.97-3.11,7.85,1.18.56,4.96-2.36,7.57-4.56-4.89,7.99-10.91,17.69-12.71,19.97-3.19,4.04-17.46,14.35-14.71,16,2.75,1.64,17.33-8.13,17.33-8.13-3.32,4.26-7.37,7.16-5.59,8.71,1.07.93,5.08-1.12,8.14-2.92-3.92,6.49-8.46,13.9-10.7,17.06-4.37,6.2-24.82,19.88-22.34,23,2.48,3.12,11.13-3.94,11.13-3.94,0,0-1.46,4.3,0,4.3s8.91-5.34,8.91-5.34c0,0-7.12,7.11-4.54,8.82.83.55,3.49-.06,6.71-1.13-4.27,8.03-9.43,17.73-10.44,19.73-1.78,3.54-17.49,12.65-13.2,14.32,4.29,1.67,16.12-5.83,16.12-5.83,0,0-2.43,4.66,0,5.17.42.09,1.07,0,1.84-.19-2.07,3.31-3.9,6.13-5.15,7.9-3.74,5.3-16.77,14.92-23.84,21.82-1.34-2.54-2.96-5.59-4.44-8.35,2.23.74,4.06,1.16,4.63.78,1.79-1.18-3.13-6.09-3.13-6.09,0,0,5.15,3.68,6.15,3.68s0-2.97,0-2.97c0,0,5.97,4.87,7.68,2.72,1.71-2.16-12.41-11.6-15.43-15.88-1.54-2.18-4.68-7.3-7.38-11.78,2.11,1.24,4.89,2.66,5.62,2.02,1.23-1.07-1.57-3.08-3.86-6.02,0,0,10.07,6.75,11.97,5.62,1.9-1.14-7.95-8.26-10.15-11.05-1.25-1.58-5.4-8.28-8.78-13.79,1.8,1.52,4.42,3.54,5.23,3.15,1.29-.61-2.15-5.42-2.15-5.42,0,0,5.88,1.67,6.62.8.73-.87-3.86-4.21-8.5-9.63-5.76-6.73-15.17-23.78-17.43-29.51-2.26,5.73-11.67,22.77-17.43,29.51-4.64,5.42-9.23,8.76-8.49,9.63.73.87,6.61-.8,6.61-.8,0,0-3.43,4.81-2.15,5.42.82.38,3.43-1.63,5.23-3.15-3.37,5.52-7.53,12.21-8.78,13.79-2.21,2.79-12.06,9.91-10.15,11.05,1.9,1.14,11.97-5.62,11.97-5.62-2.29,2.94-5.09,4.95-3.86,6.02.74.64,3.51-.78,5.62-2.02-2.71,4.48-5.84,9.6-7.39,11.78-3.02,4.28-17.14,13.73-15.43,15.88,1.71,2.16,7.68-2.72,7.68-2.72,0,0-1.01,2.97,0,2.97s6.15-3.68,6.15-3.68c0,0-4.92,4.91-3.13,6.09.57.38,2.41-.04,4.63-.78-2.95,5.54-6.51,12.24-7.21,13.63-1.23,2.44-12.08,8.73-9.12,9.89,2.96,1.15,11.13-4.03,11.13-4.03,0,0-1.68,3.22,0,3.57.29.06.74,0,1.27-.13-1.43,2.28-2.69,4.23-3.55,5.46-3.81,5.4-21.64,17.33-19.48,20.06,2.16,2.72,9.7-3.43,9.7-3.43,0,0-1.27,3.75,0,3.75s7.77-4.65,7.77-4.65c0,0-6.21,6.2-3.95,7.69.83.55,3.74-.22,7.1-1.41-3.89,8.57-9.37,20.64-10.35,22.93-1.55,3.61-15.25,12.93-11.51,14.64,3.74,1.71,14.05-5.96,14.05-5.96,0,0-2.12,4.76,0,5.29,2.12.53,10.8-4.7,10.8-4.7,0,0-3.31,6.2-.58,7.04,2.73.84,12.38-9.84,12.38-9.84,0,0-2.9,5.11-1.27,7.49,1.63,2.38,6.64-4.07,6.64-4.07,0,0-1.98,8.27,0,7.93,1.91-.33,8.77-8.53,9.24-9.1v39.71h11.7v-36.58c3.4,2.93,7.36,5.97,9.24,5.96,2,0,0-7.93,0-7.93,0,0,5.01,6.45,6.64,4.07,1.63-2.38-1.27-7.49-1.27-7.49,0,0,9.64,10.68,12.38,9.84,2.73-.84-.58-7.04-.58-7.04,0,0,8.68,5.22,10.8,4.7,2.12-.53,0-5.29,0-5.29,0,0,10.31,7.67,14.05,5.96,3.74-1.71-9.96-11.03-11.51-14.64-.37-.86-1.37-3.1-2.69-6.02,2.7-1.71,4.61-3.13,4.61-3.13,0,0-3.07,6.9,0,7.66,3.07.76,15.64-6.8,15.64-6.8,0,0-4.8,8.98-.84,10.2,3.96,1.22,17.93-14.24,17.93-14.24,0,0-4.2,7.4-1.84,10.85,2.35,3.45,9.61-5.9,9.61-5.9,0,0-2.86,11.98,0,11.49,2.74-.47,12.53-12.15,13.38-13.17v57.51h16.94v-44.35c2.29-1.14,4.52-2.52,6.21-3.63.63.46,1.25.89,1.85,1.28-.29,1.52-.24,3.05,1.04,3.37.81.2,2.38-.27,4.17-1.01.03,0,.08,0,.11,0,.31,0,.55-.14.74-.38,3.95-1.76,8.55-4.52,8.55-4.52,0,0-4.16,7.79-.73,8.85,2.2.68,7.97-4.59,11.83-8.46.61.45,1.19.85,1.75,1.19-.35,1.58-.39,3.2.39,4.33,2.04,2.99,8.34-5.12,8.34-5.12,0,0-2.49,10.4,0,9.97,2.37-.41,10.87-10.54,11.61-11.43v49.91h14.7v-45.97c4.27,3.69,9.26,7.5,11.61,7.5,2.51,0,0-9.97,0-9.97,0,0,6.3,8.11,8.34,5.12,2.04-2.99-1.6-9.41-1.6-9.41,0,0,4.84,5.35,9.26,9.03-2.86,2.84-4.76,5.3-2.94,6.13,4.16,1.9,15.63-6.63,15.63-6.63,0,0-2.36,5.3,0,5.88,2.36.59,12.01-5.22,12.01-5.22,0,0-3.68,6.89-.64,7.83,1.79.55,6.22-3.32,9.58-6.6.91.18,1.75.22,2.46.07-.33,1.43-.38,2.9.32,3.93,1.81,2.65,7.38-4.53,7.38-4.53,0,0-2.2,9.2,0,8.82,2.12-.36,9.75-9.49,10.27-10.12v44.16h13.01v-40.68c3.78,3.26,8.19,6.64,10.27,6.63,2.22,0,0-8.82,0-8.82,0,0,5.57,7.18,7.38,4.53,1.81-2.65-1.41-8.33-1.41-8.33,0,0,10.72,11.88,13.76,10.94,3.04-.94-.64-7.83-.64-7.83,0,0,9.65,5.81,12.01,5.22,2.36-.58,0-5.88,0-5.88,0,0,11.46,8.53,15.63,6.63,4.16-1.9-11.07-12.26-12.8-16.28-.41-.95-1.53-3.45-2.99-6.69,3-1.9,5.13-3.48,5.13-3.48,0,0-3.41,7.67,0,8.52,3.41.85,17.39-7.57,17.39-7.57,0,0-5.33,9.98-.93,11.34,4.4,1.36,19.93-15.84,19.93-15.84,0,0-4.66,8.23-2.04,12.06,2.62,3.84,10.69-6.56,10.69-6.56,0,0-3.18,13.32,0,12.78,3.04-.52,13.93-13.51,14.88-14.65v63.95h18.84v-43.31c4.37-2.13,8.65-5.25,9.14-5.61,0,.01.01.02.02.03-.28.66-2.41,5.83.03,6.44,2.61.65,13.3-5.78,13.3-5.78,0,0-4.08,7.63-.71,8.67,3.37,1.04,15.24-12.11,15.24-12.11,0,0-3.57,6.29-1.56,9.22,2,2.93,8.17-5.01,8.17-5.01,0,0-2.43,10.18,0,9.77,1.15-.2,3.76-2.72,6.2-5.33,1.23-.64,3.18-2.46,5.18-4.51v47.54h23.46v-38.41c.91.45,1.71.72,2.32.72,2.46,0,0-9.77,0-9.77,0,0,6.17,7.95,8.17,5.01.18-.26.3-.56.4-.87.78.34,1.47.53,2.02.53,1.05,0,1.31-1.57,1.23-3.53,3.63,3.5,8.15,7.33,10.03,6.75,3.37-1.04-.71-8.67-.71-8.67,0,0,10.68,6.43,13.29,5.78,1.03-.26,1.24-1.34,1.12-2.54.92-.37,1.29-1.21,1.33-2.26,3.92,2.62,11.5,7.15,14.84,5.63,1.97-.9.01-3.51-3.02-6.55.38.05.71.05.96-.02,2.96-.74,0-7.39,0-7.39,0,0,14.41,10.72,19.64,8.33,3.01-1.37-2.04-6.26-7.3-11.13,6.87-3.92,18.2-16.46,18.2-16.46,0,0-5.16,9.11-2.26,13.36,2.9,4.25,11.83-7.26,11.83-7.26,0,0-3.53,14.75,0,14.15,3.37-.58,15.42-14.96,16.47-16.22v70.81h20.86v-54.61c2.81-1.4,5.57-3.1,7.65-4.47.78.57,1.54,1.09,2.28,1.58-.36,1.87-.29,3.76,1.27,4.15,1,.25,2.93-.33,5.14-1.25.04,0,.09.01.13.01.38,0,.67-.17.91-.46,4.87-2.17,10.53-5.57,10.53-5.57,0,0-5.12,9.59-.9,10.9,2.71.84,9.81-5.65,14.56-10.42.75.55,1.47,1.04,2.15,1.46-.43,1.94-.48,3.94.47,5.33,2.52,3.69,10.27-6.3,10.27-6.3,0,0-3.06,12.8,0,12.28,2.93-.5,13.38-12.98,14.29-14.07v61.45h18.1v-56.6c5.26,4.54,11.4,9.24,14.3,9.23,2.36,0,1.12-7.15.4-10.53.29-.06.59-.12.89-.2,2.31,2.65,7.1,7.51,8.98,4.75,1.47-2.15.55-5.73-.46-8.35.34-.19.68-.37,1.01-.56,4.44,4.62,13.49,13.51,16.64,12.54,4.23-1.31-.9-10.9-.9-10.9,0,0,13.43,8.08,16.71,7.27,1.76-.44,1.63-2.77,1.13-4.83.57-.42,1.14-.88,1.73-1.36,4.86,3.26,14.62,9.18,18.89,7.23,2.32-1.06.31-4-3.08-7.5,3.15-2.28,6.4-6.46,6.4-6.46,0,0-3.4,14.22,0,13.64,3.25-.55,14.87-14.42,15.88-15.64v68.27h20.11v-62.88c5.84,5.04,12.66,10.26,15.88,10.25,3.43,0,0-13.64,0-13.64,0,0,8.61,11.1,11.41,7,2.8-4.1-2.18-12.88-2.18-12.88,0,0,16.58,18.36,21.28,16.91,4.7-1.45-1-12.11-1-12.11,0,0,14.92,8.98,18.56,8.08,2.68-.67,1.41-5.29.56-7.67.3-.09.61-.21.94-.35,4.4,3.08,17.36,11.6,22.66,9.18,4.34-1.98-4.95-9.9-12.28-16.76,6.37-5.74,12.39-12.39,12.39-12.39,0,0-6.02,10.62-2.64,15.58,3.38,4.95,13.8-8.46,13.8-8.46,0,0-4.11,17.2,0,16.5,3.93-.67,17.98-17.44,19.21-18.91v82.57h24.32v-63.68c3.28-1.64,6.5-3.62,8.92-5.21.91.66,1.79,1.28,2.65,1.84-.42,2.18-.34,4.38,1.49,4.83,1.16.29,3.42-.38,6-1.46.05,0,.11.01.15.01.44,0,.79-.2,1.06-.53,5.68-2.53,12.28-6.5,12.28-6.5,0,0-5.98,11.18-1.04,12.71,3.16.98,11.44-6.59,16.98-12.15.87.64,1.71,1.21,2.51,1.7-.5,2.27-.56,4.59.55,6.22,2.94,4.3,11.97-7.35,11.97-7.35,0,0-3.57,14.93,0,14.32,3.41-.58,15.61-15.14,16.67-16.41v71.66h21.11v-66.01c4.39,3.79,9.3,7.67,12.98,9.56-5.44,5.32-14.31,12.34-10.77,13.96,4.7,2.15,17.66-7.5,17.66-7.5,0,0-2.66,5.99,0,6.65,2.66.66,13.57-5.9,13.57-5.9,0,0-4.16,7.79-.73,8.85,3.44,1.06,15.56-12.36,15.56-12.36,0,0-3.64,6.42-1.6,9.41,2.04,2.99,8.34-5.12,8.34-5.12,0,0-2.51,9.96,0,9.97,2.35,0,7.34-3.81,11.61-7.5v45.97h14.7v-49.91c.73.88,9.23,11.03,11.61,11.43,2.48.42,0-9.97,0-9.97,0,0,6.3,8.11,8.34,5.12.77-1.13.73-2.75.39-4.33.56-.34,1.14-.74,1.75-1.19,3.86,3.87,9.63,9.14,11.83,8.46,3.43-1.06-.73-8.85-.73-8.85,0,0,4.59,2.76,8.55,4.52.19.24.43.38.74.38.03,0,.07,0,.11,0,1.79.75,3.37,1.22,4.17,1.01,1.27-.32,1.32-1.85,1.04-3.37.6-.39,1.22-.82,1.85-1.28,1.69,1.11,3.92,2.49,6.21,3.63v44.35h16.94v-57.51c.86,1.04,10.64,12.7,13.38,13.17,2.86.49,0-11.49,0-11.49,0,0,7.26,9.35,9.61,5.9,2.35-3.45-1.84-10.85-1.84-10.85,0,0,13.97,15.47,17.93,14.24,3.96-1.22-.84-10.2-.84-10.2,0,0,6.6,3.97,11.4,5.87-1.17,1.7-1.43,3.01-.09,3.62,1.42.65,3.53.32,5.84-.49-2.73,4-14.62,12.32-11.1,13.93,3.74,1.71,14.05-5.96,14.05-5.96,0,0-2.12,4.76,0,5.29,2.12.53,10.8-4.7,10.8-4.7,0,0-3.31,6.2-.58,7.04,2.73.84,12.38-9.84,12.38-9.84,0,0-2.9,5.11-1.27,7.49,1.63,2.38,6.64-4.07,6.64-4.07,0,0-2,7.93,0,7.93,1.87,0,5.84-3.03,9.24-5.96v36.58h11.7v-39.71c.47.57,7.33,8.77,9.24,9.1,1.98.34,0-7.93,0-7.93,0,0,2.63,3.39,4.7,4.34v34.21h16.35v-37c2.6,1.36,5.75,2.81,6.91,2.52,2.12-.53,0-5.29,0-5.29,0,0,10.31,7.67,14.05,5.96,2.51-1.15-2.83-5.71-7.08-9.69.92-2.45-.97-10.38-.97-10.38,0,0,7,9.02,9.27,5.69.86-1.26.81-3.06.43-4.81.62-.38,1.27-.82,1.94-1.32,4.29,4.31,10.71,10.16,13.15,9.41,3.82-1.18-.81-9.84-.81-9.84,0,0,5.11,3.08,9.51,5.03.21.26.47.41.82.41.04,0,.08,0,.12-.01,2,.83,3.74,1.35,4.64,1.13,1.42-.35,1.47-2.06,1.15-3.74.67-.44,1.35-.92,2.06-1.43,1.88,1.23,4.36,2.77,6.91,4.04v49.32h18.84v-63.95c.95,1.14,11.83,14.13,14.88,14.65,3.18.54,0-12.78,0-12.78,0,0,8.07,10.4,10.69,6.56,2.62-3.84-2.04-12.06-2.04-12.06,0,0,15.53,17.2,19.93,15.84,4.4-1.36-.93-11.34-.93-11.34,0,0,13.98,8.41,17.39,7.57,3.41-.85,0-8.52,0-8.52,0,0,2.13,1.58,5.13,3.48-1.46,3.24-2.58,5.74-2.99,6.69-1.73,4.02-16.96,14.38-12.8,16.28,4.16,1.9,15.63-6.63,15.63-6.63,0,0-2.36,5.3,0,5.88,2.36.59,12.01-5.22,12.01-5.22,0,0-3.68,6.89-.64,7.83,3.04.94,13.77-10.94,13.77-10.94,0,0-3.22,5.68-1.41,8.33,1.81,2.65,7.38-4.53,7.38-4.53,0,0-2.22,8.82,0,8.82,2.08,0,6.5-3.37,10.27-6.63v40.68h13.01v-44.16c.52.63,8.15,9.75,10.27,10.12,2.2.37,0-8.82,0-8.82,0,0,5.57,7.18,7.38,4.53.7-1.02.64-2.5.32-3.93.71.15,1.54.11,2.46-.07,3.36,3.29,7.79,7.16,9.58,6.6,3.04-.94-.64-7.83-.64-7.83,0,0,9.65,5.81,12.01,5.22,2.36-.58,0-5.88,0-5.88,0,0,11.46,8.53,15.63,6.63,1.82-.83-.08-3.29-2.94-6.13,4.43-3.68,9.26-9.03,9.26-9.03,0,0-3.64,6.42-1.6,9.41,2.04,2.99,8.34-5.12,8.34-5.12,0,0-2.51,9.96,0,9.97,2.35,0,7.34-3.81,11.61-7.5v45.97h14.7v-49.91c.73.88,9.23,11.03,11.61,11.43,2.48.42,0-9.97,0-9.97,0,0,6.3,8.11,8.34,5.12.77-1.13.73-2.75.39-4.33.56-.34,1.14-.74,1.75-1.19,3.86,3.87,9.63,9.14,11.83,8.46,3.43-1.06-.73-8.85-.73-8.85,0,0,4.59,2.76,8.55,4.52.19.24.43.38.74.38.03,0,.07,0,.11,0,1.79.75,3.37,1.22,4.17,1.01,1.27-.32,1.32-1.85,1.04-3.37.6-.39,1.22-.82,1.85-1.28,1.69,1.11,3.92,2.49,6.21,3.63v44.35h16.94v-57.51c.85,1.02,10.64,12.71,13.38,13.17,2.86.49,0-11.49,0-11.49,0,0,7.26,9.35,9.61,5.9,2.36-3.45-1.84-10.85-1.84-10.85,0,0,13.97,15.47,17.93,14.24,3.96-1.22-.84-10.2-.84-10.2,0,0,12.57,7.57,15.64,6.8,3.07-.76,0-7.66,0-7.66,0,0,1.91,1.42,4.61,3.13-1.31,2.91-2.32,5.16-2.69,6.02-1.55,3.61-15.25,12.93-11.51,14.64,3.74,1.71,14.05-5.96,14.05-5.96,0,0-2.12,4.76,0,5.29,2.12.53,10.8-4.7,10.8-4.7,0,0-3.31,6.2-.58,7.04,2.73.84,12.38-9.84,12.38-9.84,0,0-2.9,5.11-1.27,7.49,1.63,2.38,6.64-4.07,6.64-4.07,0,0-2,7.93,0,7.93,1.87,0,5.84-3.03,9.24-5.96v36.58h11.7v-39.71c.47.57,7.33,8.77,9.24,9.1,1.98.34,0-7.93,0-7.93,0,0,5.01,6.45,6.64,4.07,1.63-2.38-1.27-7.49-1.27-7.49,0,0,9.64,10.68,12.38,9.84,2.73-.84-.58-7.04-.58-7.04,0,0,8.68,5.22,10.8,4.7,2.12-.53,0-5.29,0-5.29,0,0,10.31,7.67,14.05,5.96,3.74-1.71-9.96-11.03-11.51-14.64Zm-99.86-64.01s9.41,6.74,11.25,6.74,0-5.43,0-5.43c0,0,2.85,2.33,6.06,4.08-2.84,2.85-10.87,7.81-8.27,8.83,2.96,1.15,11.13-4.03,11.13-4.03,0,0-1.68,3.22,0,3.57.29.06.74,0,1.27-.13-1.43,2.28-2.69,4.23-3.55,5.46-2,2.83-7.85,7.46-12.65,11.61-3-6.65-6.73-14.86-9.79-21.6,4.86,1.73,9.08,2.84,10.28,2.05,3.27-2.17-5.73-11.14-5.73-11.14Zm7.87,36.53c-.07-.16-.14-.31-.21-.47.28-.21.45-.36.45-.36,0,0-.12.35-.24.82Zm-114.74-143.41c.2.17.41.34.63.52-.06.08-.11.16-.16.24-.16-.26-.31-.51-.47-.76Zm-68.81,138.71c-1.26-2.56-4.43-5.72-4.43-5.72,0,0,2.91,2.08,5.39,3.6-.32.7-.64,1.41-.96,2.12Zm-.1-16.69s-.04-.03-.05-.05c.2-.14.32-.23.32-.23,0,0-.11.11-.27.28Zm-7.83,17.95c2.66.95,5.07,1.65,6.56,1.75-1,2.21-1.98,4.36-2.88,6.37-1.27-2.8-2.54-5.59-3.68-8.12Zm94.43-145.53c-3.32,4.26-7.37,7.16-5.59,8.71,1.07.93,5.08-1.12,8.14-2.92-3.54,5.88-7.6,12.49-9.99,16.04-1.8-2.6-5.3-8.2-8.59-13.54.41-.05.88-.16,1.39-.32,1.51,1.07,2.9,1.84,3.51,1.55.67-.31.32-1.53-.31-2.85,1.61-.77,3.34-1.71,4.96-2.65.46-.03.81-.12.97-.3.07-.08.09-.19.08-.32,3.03-1.8,5.42-3.4,5.42-3.4Zm-94.93,101.43c3.73,1.45,13.99-5.06,13.99-5.06,0,0-2.11,4.04,0,4.49.36.08.93,0,1.6-.16-1.8,2.87-3.38,5.32-4.47,6.86-.65.92-1.63,1.99-2.82,3.16-2.78-2.25-6.16-4.69-6.84-6.05-.27-.53-.92-1.77-1.78-3.41.09.06.19.12.32.17Zm-.78,13.72c1.87-.4,0-3.97,0-3.97,0,0,2.53,1.6,5.4,2.93-1.51,1.33-3.14,2.71-4.78,4.1-.62-.96-1.31-2.04-2.03-3.2.59.14,1.09.21,1.41.14Zm-98.26-15.3s10.46,7.49,12.51,7.49,0-6.04,0-6.04c0,0,3.17,2.59,6.74,4.53-3.16,3.17-12.08,8.69-9.19,9.81,3.3,1.28,12.38-4.48,12.38-4.48,0,0-1.87,3.58,0,3.97.32.07.82,0,1.41-.14-1.59,2.54-2.99,4.71-3.95,6.07-2.22,3.15-8.73,8.29-14.07,12.91-3.34-7.39-7.48-16.53-10.89-24.02,5.41,1.92,10.1,3.16,11.43,2.28,3.63-2.41-6.37-12.39-6.37-12.39Zm8.74,40.62c-.08-.17-.15-.34-.23-.52.31-.24.51-.4.51-.4,0,0-.13.38-.27.92Zm-225.75,26.83s.45.33,1.21.87c-.22.2-.43.41-.64.61-.3-.87-.57-1.48-.57-1.48Zm5.17-12.37c.83.55,3.74-.22,7.1-1.41-1.03,2.27-2.17,4.78-3.31,7.29,0,0-.01.01-.02.02-2.53-2.4-4.62-4.59-5.27-6.09-.26-.61-.75-1.71-1.39-3.15,2.2-1.03,6.84-4.34,6.84-4.34,0,0-6.21,6.2-3.95,7.69Zm92.98-173.94c.22.19.46.38.7.58-.06.09-.12.18-.18.27-.17-.29-.35-.57-.52-.85Zm-97.04,167.98c-.07-.16-.14-.31-.21-.47.28-.21.45-.35.45-.35,0,0-.12.34-.24.82Zm116.72-174.16c-3.69,4.74-8.2,7.97-6.21,9.69,1.18,1.03,5.65-1.25,9.05-3.25-3.94,6.53-8.45,13.88-11.11,17.83-2.01-2.89-5.89-9.11-9.55-15.06.46-.06.98-.17,1.55-.35,1.68,1.19,3.23,2.04,3.9,1.73.74-.35.35-1.7-.35-3.17,1.79-.85,3.72-1.9,5.52-2.95.51-.03.9-.13,1.08-.33.08-.09.1-.22.09-.35,3.37-2,6.03-3.78,6.03-3.78Zm-117.74,142.21c-.62.67-1.17,1.3-1.61,1.88-1.86-3.1-5.23-6.47-5.23-6.47,0,0,3.65,2.61,6.84,4.58Zm-1.12,6.56c.1-.06.18-.13.25-.21,3.14.35,8.26-3.12,10.56-4.83-3.28,2.9-9.89,7.17-7.49,8.11,2.96,1.15,11.13-4.03,11.13-4.03,0,0-1.68,3.22,0,3.57.29.06.74,0,1.27-.13-1.43,2.28-2.69,4.23-3.55,5.45-2,2.83-7.85,7.46-12.65,11.61-3-6.65-6.73-14.86-9.79-21.6,4.86,1.73,9.08,2.84,10.28,2.05Zm-531.8-95.3s7.96,5.7,9.52,5.7,0-4.59,0-4.59c0,0,1.23,1,2.92,2.11-1.93,3.64-3.41,6.47-3.94,7.52-.72,1.43-3.35,3.62-6.31,5.97-1.48-2.79-3.04-5.73-4.51-8.48,3.44,1.15,6.28,1.79,7.17,1.21,2.77-1.83-4.85-9.43-4.85-9.43Zm122.84-21.82s1.66,1.19,3.68,2.54c-.28.22-.55.44-.83.66-1.45-1.79-2.86-3.19-2.86-3.19Zm-110.88,48.77c.5.11,1.26,0,2.18-.22-1.13,1.81-2.2,3.5-3.17,4.99-1.03-.94-1.81-1.77-2.14-2.42-.4-.78-1.39-2.69-2.71-5.19,3.31-1.7,5.85-3.31,5.85-3.31,0,0-2.88,5.53,0,6.14Zm-6.09,11.75c-.09-.2-.16-.33-.16-.33,0,0,.1.07.29.18-.04.05-.09.1-.13.15Zm413.33-61.42c.2.17.41.35.63.52-.06.08-.11.16-.16.24-.16-.26-.31-.51-.47-.77Zm-47.07,1.17c-.61,1.3-.94,2.48-.29,2.79,1.02.48,4.31-2.04,6.57-3.96-2.06,3.37-4.36,7.09-6.35,10.25-1.84-3.47-3.8-7.16-5.64-10.61,2.2.73,4.19,1.29,5.7,1.53Zm-87.81-95.64c-.07-.11-.15-.23-.23-.35.31-.26.61-.51.9-.75-.22.36-.45.73-.67,1.1Zm-148.59,119.67c-1.07,1.52-2.69,3.29-4.66,5.23-1.9-3.61-5.05-9.56-8.2-15.48,7.45-1.81,17.6-8.25,17.6-8.25,0,0-3.49,6.69,0,7.43.6.13,1.52.01,2.63-.26-2.97,4.74-5.59,8.8-7.38,11.33Zm-208.46-74.97c-.06-.1-.13-.2-.2-.3.26-.22.52-.43.77-.64-.19.31-.38.62-.58.94Zm-134.61,162.15c-.85-.95-1.48-1.57-1.48-1.57,0,0,.67.48,1.66,1.16-.06.14-.12.27-.19.41Zm1.13-17.87c2.24-.48,5.06-1.36,8.08-2.44-.98,2.17-2.02,4.46-3.09,6.8-1.77-1.5-3.46-2.98-4.99-4.37Zm1.83-12.96c-1.41,1.48-4.78,5.19-6.39,8.37-.31-.37-.61-.74-.85-1.08-.37-.53-.8-1.16-1.27-1.87,3.07-1.85,6.7-4.36,8.31-5.49.07.02.14.04.2.07Zm-81.28-105.27c-.05-.09-.11-.18-.18-.27.24-.2.47-.39.7-.58-.17.28-.35.57-.52.85Zm92.87,173.2s-1.71,3.21-2.53,6.41c-1.23-1.24-2.25-2.37-2.89-3.33,3.08-1.67,5.43-3.08,5.43-3.08Zm228.21-2.3s-1.95,3.44-2.72,7.02c-.71-.66-1.41-1.31-2.1-1.95,2.82-2.84,4.83-5.07,4.83-5.07Zm306.08,2.59s1.05,1.36,2.56,2.97c-.52,1.15-.97,2.17-1.36,3.04-.47-3.16-1.19-6.01-1.19-6.01Zm95.4-155.33c-3.32,4.26-7.37,7.16-5.59,8.71,1.07.93,5.08-1.13,8.14-2.92-3.54,5.88-7.6,12.49-9.99,16.04-1.81-2.6-5.3-8.2-8.59-13.54.41-.05.88-.16,1.39-.32,1.51,1.07,2.9,1.84,3.51,1.55.67-.31.32-1.53-.31-2.85,1.61-.77,3.34-1.71,4.96-2.65.46-.03.81-.12.97-.3.07-.08.09-.19.08-.32,3.03-1.8,5.42-3.4,5.42-3.4Zm-65.33-2.69c-.15.15-.3.3-.45.45-1.1-1.27-1.98-2.15-1.98-2.15,0,0,1.02.73,2.44,1.7Zm-104.2-90.42c0,.17.02.33.12.45.22.27.73.39,1.39.43,2.32,1.35,4.81,2.7,7.12,3.8-.91,1.89-1.41,3.64-.45,4.09.87.41,2.87-.69,5.04-2.23.74.23,1.41.38,2,.45-4.72,7.68-9.74,15.71-12.33,19.44-3.44-5.1-9.26-14.58-14.34-23.02,4.39,2.58,10.16,5.52,11.69,4.19,2.56-2.22-3.26-6.39-8.02-12.51,0,0,3.43,2.3,7.78,4.89Zm-146.95,57.1c-1.22,1.69-1.68,3.02-1.03,3.85,1.59,2,4.95,1.09,8.18-.54,1.55.5,2.79.67,3.45.27.63-.38.5-1.15-.14-2.17,2.56-1.64,4.5-3.21,4.5-3.21,0,0-2.09,6.17,0,6.17s12.79-7.66,12.79-7.66c0,0-10.23,10.2-6.51,12.67,1.19.79,5.01-.08,9.63-1.62-6.09,11.44-13.42,25.24-14.94,28.25-6.33-5.42-13.65-11.29-16.23-14.95-2.65-3.75-8.04-12.54-12.69-20.25,3.63,2.13,8.4,4.57,9.66,3.47,2.11-1.84-2.69-5.29-6.63-10.34,0,0,4.9,3.29,9.98,6.07Zm-112.69,48.79c1.73,0,10.58-6.33,10.58-6.33,0,0-8.46,8.44-5.39,10.47.99.65,4.14-.07,7.97-1.34-1.72,3.22-3.55,6.67-5.27,9.92-4.71-4.26-11.1-9.29-15.13-13.22,3.58-1.62,7.25-4.61,7.25-4.61,0,0-1.73,5.1,0,5.1Zm-94.99-60.59c0,.15.01.28.1.39.19.23.62.34,1.19.37,1.99,1.15,4.13,2.32,6.11,3.26-.78,1.62-1.21,3.12-.39,3.51.75.35,2.46-.59,4.32-1.91.64.2,1.21.33,1.72.39-4.05,6.58-8.35,13.47-10.57,16.67-2.95-4.37-7.94-12.51-12.3-19.74,3.77,2.21,8.71,4.74,10.02,3.6,2.19-1.91-2.79-5.48-6.88-10.73,0,0,2.95,1.98,6.67,4.19Zm-124.11,100.26c.89,0,.65-1.66.36-2.88.32-.08.64-.17.97-.27,2.45,1.77,7.61,5.06,9.41,2.79.75-.95-.68-2.9-3.13-5.32,4.19-2.02,7.69-4.24,7.69-4.24,0,0-2.99,5.73,0,6.37.51.11,1.31,0,2.26-.22-2.55,4.07-4.8,7.54-6.33,9.72-2.31,3.27-7.51,7.89-13.21,12.75-1.99-3.79-5.59-10.57-8.71-16.43,3.11,1.03,5.67,1.62,6.47,1.09,2.5-1.65-4.38-8.51-4.38-8.51,0,0,7.19,5.15,8.6,5.15Zm-87.41-73.87c0,.14.01.26.09.35.17.21.56.3,1.08.33,1.8,1.04,3.73,2.09,5.52,2.95-.7,1.47-1.09,2.82-.35,3.17.67.32,2.23-.54,3.9-1.73.57.18,1.09.3,1.55.35-3.65,5.95-7.54,12.16-9.55,15.06-2.66-3.95-7.17-11.3-11.11-17.83,3.4,2,7.87,4.28,9.05,3.25,1.98-1.72-2.52-4.95-6.22-9.69,0,0,2.66,1.78,6.03,3.79Zm-117.71,128.74c2.05,0,12.51-7.49,12.51-7.49,0,0-10,9.98-6.37,12.39,1.33.88,6.03-.36,11.43-2.28-3.4,7.49-7.55,16.63-10.89,24.02-5.34-4.62-11.85-9.76-14.07-12.91-.96-1.36-2.36-3.53-3.95-6.07.59.14,1.09.21,1.41.14,1.87-.4,0-3.97,0-3.97,0,0,9.08,5.76,12.38,4.48,2.89-1.12-6.03-6.64-9.19-9.81,3.57-1.95,6.74-4.53,6.74-4.53,0,0-2.05,6.04,0,6.04Zm3.49,32.21s.19.16.51.4c-.08.18-.16.35-.23.52-.14-.53-.27-.92-.27-.92Zm-98.61-12.25s.12.09.32.23c-.02.02-.04.03-.05.05-.16-.17-.27-.28-.27-.28Zm-.8,14.84c2.49-1.52,5.39-3.6,5.39-3.6,0,0-3.17,3.16-4.43,5.72-.32-.71-.64-1.42-.96-2.12Zm-68.31-135.82c-.05-.08-.1-.16-.16-.24.22-.18.43-.35.63-.52-.15.25-.31.51-.47.77Zm70.64,140.96c1.5-.11,3.9-.81,6.56-1.75-1.15,2.53-2.42,5.32-3.68,8.12-.9-2-1.88-4.16-2.88-6.37Zm7.84-32.14c.32.07.82,0,1.41-.14-.73,1.16-1.41,2.24-2.03,3.2-1.64-1.39-3.27-2.77-4.78-4.1,2.87-1.33,5.4-2.93,5.4-2.93,0,0-1.87,3.58,0,3.97Zm-14.77-14.29c2.11-.45,0-4.49,0-4.49,0,0,10.26,6.51,13.99,5.06.13-.05.23-.11.32-.17-.86,1.64-1.51,2.87-1.78,3.4-.69,1.36-4.06,3.8-6.84,6.05-1.19-1.17-2.17-2.24-2.82-3.16-1.08-1.53-2.67-3.99-4.47-6.86.67.16,1.23.24,1.6.16Zm-75.52-97.45c0,.12.01.23.08.32.16.18.51.27.97.3,1.62.94,3.35,1.88,4.96,2.65-.63,1.32-.98,2.54-.31,2.85.61.28,2-.48,3.51-1.55.52.16.98.27,1.39.32-3.29,5.35-6.78,10.94-8.59,13.54-2.4-3.55-6.45-10.16-9.99-16.04,3.06,1.8,7.08,3.85,8.14,2.92,1.78-1.55-2.27-4.45-5.59-8.71,0,0,2.39,1.6,5.42,3.4Zm-105.85,115.77c1.84,0,11.25-6.74,11.25-6.74,0,0-8.99,8.97-5.73,11.14,1.2.79,5.42-.32,10.28-2.05-3.06,6.74-6.79,14.95-9.79,21.6-4.8-4.15-10.65-8.78-12.65-11.61-.86-1.22-2.12-3.17-3.55-5.46.53.13.98.19,1.27.13,1.68-.35,0-3.57,0-3.57,0,0,8.16,5.18,11.13,4.03,2.6-1.01-5.42-5.98-8.27-8.83,3.21-1.75,6.06-4.08,6.06-4.08,0,0-1.84,5.43,0,5.43Zm3.14,28.97s.17.14.45.36c-.07.16-.14.31-.21.47-.13-.48-.24-.82-.24-.82Zm-7.6,12.68c-1.14-2.52-2.28-5.04-3.32-7.31,3.36,1.19,6.27,1.96,7.1,1.41,2.26-1.5-3.95-7.69-3.95-7.69,0,0,4.64,3.32,6.84,4.34-.64,1.44-1.13,2.54-1.39,3.15-.65,1.5-2.74,3.69-5.27,6.09Zm183.51,14.82s.07.04.18.11c-.03.03-.06.05-.09.08-.06-.11-.1-.19-.1-.19Zm31.51,4.07c-.08-.14-.17-.28-.26-.43.63-.67,1-1.08,1-1.08,0,0-.34.61-.74,1.51Zm66.36-26.07c-1.27-2.8-2.54-5.6-3.69-8.13,3.73,1.33,6.97,2.18,7.9,1.57,2.51-1.66-4.4-8.55-4.4-8.55,0,0,5.15,3.69,7.6,4.83-.72,1.61-1.26,2.83-1.55,3.5-.72,1.67-3.05,4.1-5.86,6.78Zm1182.88-6.78c-.29-.68-.83-1.89-1.55-3.5,2.45-1.14,7.6-4.83,7.6-4.83,0,0-6.91,6.89-4.4,8.55.92.61,4.16-.25,7.9-1.57-1.15,2.53-2.42,5.33-3.69,8.13-2.81-2.68-5.15-5.1-5.86-6.78Zm71.49,31.34s.37.41,1,1.08c-.1.15-.18.29-.26.43-.4-.9-.74-1.51-.74-1.51Zm32.07-2.46c.11-.06.18-.11.18-.11,0,0-.04.08-.1.19-.03-.03-.06-.05-.09-.08Zm178.42-21.02c-.26-.61-.75-1.71-1.39-3.15,2.2-1.03,6.84-4.34,6.84-4.34,0,0-6.21,6.2-3.95,7.69.83.55,3.74-.22,7.1-1.41-1.03,2.27-2.18,4.79-3.32,7.31-2.53-2.41-4.63-4.59-5.27-6.09Z"/>
    <rect class="cls-1" x="10.91" y="341.27" width="1921.85" height="531.87"/>
  </g>
</svg>