<svg xmlns="http://www.w3.org/2000/svg" viewBox="0 0 666.09 91.05"><defs><style>.cls-1{fill:#1a1a1a;}.cls-2{fill:#fbb03b;}</style></defs><g id="Layer_2" data-name="Layer 2"><g id="Layer_1-2" data-name="Layer 1"><path class="cls-1" d="M0,76.75a4.36,4.36,0,0,0,.38-2.56c.26-2.67,1.28-3.57,4-3.7,1.15,0,2.3.39,3.44-.12a2.09,2.09,0,0,0,.77-1.66,94,94,0,0,0,.26-10.34c-.39-4.59.76-9.31-.26-13.91,0-.38.13-.77.13-1.15a11.27,11.27,0,0,0,0-4.59,12.63,12.63,0,0,1,.13-3.83,14.2,14.2,0,0,0,0-4,25.58,25.58,0,0,1-.13-4.46c0-1.79.25-3.7-.77-5.49a28.68,28.68,0,0,0-3.19-.26A4.62,4.62,0,0,1,0,18.05V16.64c.77-.89.51-1.91.51-2.93,0-2.17,0-4.22-.13-6.38-.12-2.56.9-4.22,3.45-4.85H8a1.78,1.78,0,0,0,2.42,0h3.71c.38.51.63.12,1,0h6.12c.77.51,1.66.25,2.55.25,4,.13,8,.13,12,.13C38,3,39.3,4,39.3,5.92V17.53a3.13,3.13,0,0,1-2.17,3.07,4.64,4.64,0,0,1-2.93.25,4.22,4.22,0,0,0-2.81.26,3,3,0,0,0-.64,2v4.47c.13,4.72.13,9.57,0,14.29,0,.76-.25,1.66.64,2.17.39,0,.64-.39,1-.64a22,22,0,0,1,6-3.57c3.32-1.15,6.64-1.92,10.21-1.28,2.17.51,2.94-.25,3.06-2.55.26-2.81.26-5.49.26-8.3a35.13,35.13,0,0,0,0-3.7,3.4,3.4,0,0,0-1-2.81,19.7,19.7,0,0,0-3.7-.38c-2.43-.13-3.58-1.15-3.58-3.44-.12-3.45,0-6.89-.12-10.34-.13-2.3.76-3.83,2.8-4.59h1.92a3.79,3.79,0,0,0,3.32,0H54a1.74,1.74,0,0,0,1.91,0H62c.64.63,1.28.38,1.91,0H79.5c2.3.89,3.06,2.55,2.94,5-.13,3.19-.39,6.38-.26,9.7.26,1.92-1,3.19-2.93,3.45a12.7,12.7,0,0,1-3.07.25,2.67,2.67,0,0,0-1.91.9c0,3.06-.13,6.38-.13,9.69-.13,5.87.26,11.87-.25,17.87s.38,12.38,0,18.63a2.51,2.51,0,0,0,.89,2.55c1.28.39,2.55,0,3.7.13,2.43.13,3.57,1,3.7,3.45.13,3.83.13,7.53.13,11.36,0,2-.64,2.67-2.68,3.19a7.18,7.18,0,0,0-1,.38H78.1a2.77,2.77,0,0,0-2.81,0H72A3,3,0,0,0,69,89H56.28A1.92,1.92,0,0,0,54,89H50.66c-.51-.38-1-.51-1.4,0H46.32a5,5,0,0,1-2.8-5.36,46,46,0,0,0,0-8.3c-.26-3.44,1.14-4.46,4.33-4.72a12.74,12.74,0,0,0,3.07-.25,3,3,0,0,0,1-2.81,48.26,48.26,0,0,1,.13-6.13,24.1,24.1,0,0,0-.13-3.06c-.13-2.3-1.79-4.46-3.7-4.72C44,53,39.94,52.76,35.6,54c-3.06.9-4.33,3.07-4.72,5.75A73.65,73.65,0,0,0,30.75,69c0,1.41.64,1.92,2.17,1.92a30.61,30.61,0,0,0,3.32,0c2.17.12,2.43.51,2.68,2.68.38,3.44.13,6.76.26,10.21,0,2.29-.51,4-2.3,5.23H31.65A9.37,9.37,0,0,0,26,89H18.5a2.1,2.1,0,0,0-2.42,0H12.76a18.72,18.72,0,0,0-7.53,0H2.81C1,88,.51,86.32.38,84.4.38,83.25.64,82,0,81ZM13.53,53.91,13.4,54h.13Zm.64-2.17c-.39.25-.9.51-.52,1.14.64-.38.39-.89.52-1.27h.12ZM14.29,41,14,40.89V41Zm.13,8.55c-.13-.13-.25,0-.25.12v0C14.29,49.69,14.42,49.69,14.42,49.57Zm.26-2.94V46c.51-.12.51-.38.12-.76a.59.59,0,0,0-.12.76C14.42,46.12,14.17,46.25,14.68,46.63ZM14.42,57c.13-.26.13-.39.26-.51a.47.47,0,0,1,.12-.26v.26C14.68,56.71,14.29,56.58,14.42,57Zm.13,4a.57.57,0,0,0,.64,0A.61.61,0,0,0,14.55,60.92Zm.51-22.33.13.13c.12.13.25,0,.25-.13a.13.13,0,0,0-.13-.13C15.19,38.46,15.19,38.59,15.06,38.59ZM16,44.33c-.13-.25-.25-.12-.51,0C15.57,44.46,15.82,44.59,16,44.33Zm-.51,3.32c.51.13.64,0,.51-.51C15.57,47,15.44,47.27,15.44,47.65ZM16,50h-.51C15.57,50.33,15.7,50.33,16,50Zm.89-22.84c-.25.12-.63.25-.89.38.13.13,0,.13,0,0s-.13.13.13-.13C16.33,27.36,16.59,27.62,16.84,27.11ZM16,45.23c0,.64.38.89,1.15.76l-.51-1c.38-.25.64-.51.13-1-.26.38,0,.77-.13,1.15C16.33,45,16.08,45,16,45.23Zm0,14.55c.26.38.51.38.89-.13C16.33,59.26,16.08,59.26,16,59.78Zm.38-26.42v0Zm1,6.63c0-.38-.12-.51-.89-.38C17,39.87,17,40.25,17.35,40Zm-.12,8.43a.47.47,0,0,0,.12-.26c0-.25-.12-.38-.51-.38C16.72,48.16,16.84,48.42,17.23,48.42Zm0-16.21H17.1c0,.13.13.13.13.25S17.35,32.34,17.23,32.21Zm.51,13.27c1.15-.13,1.15-.76,1.15-1.79C18,44.08,17.23,44.46,17.74,45.48Zm1.4,8.3c.51,0,.51-.13.51-.51-.25-.26-.51-.13-.76-.13-.13-.77.51-1.4.12-2.17-.89.25-1.27.64-1.4,1.4.38.51.89.51,1.28.64A1.93,1.93,0,0,1,19.14,53.78Zm-.89-12-.13.26h.13Zm0,19.65a1,1,0,0,0,.51-.12C18.5,61.31,18.38,61.05,18.25,61.43ZM18.76,56c-.13-.13-.13-.13-.13.12h.13Zm.64-28.33a.13.13,0,0,0-.13-.13.45.45,0,0,0-.13-.38c-.13.12-.13.25-.25.38s0,.13-.13,0a.13.13,0,0,0,.13-.13c.25,0,.38,0,.51.13S19.52,27.49,19.4,27.62Zm.25,8.16c0-.38-.25-.51-.51-.76C18.89,35.53,18.89,35.91,19.65,35.78Zm-.38,22.85s-.13,0-.13.12.13.13.13.26a.27.27,0,0,0,.25-.26A.42.42,0,0,0,19.27,58.63Zm.25-19v-.13H19.4l-.13.13ZM19.78,38c-.13.13-.26.13-.13.13S19.91,38.46,19.78,38Zm1.4,9.45c0-.51-.38-.9-1.27-1.28C20.42,46.89,20.55,47.52,21.18,47.4Zm-1,7.91c1.15.13.77-.51.77-1.4C20.16,54.41,19.78,54.8,20.16,55.31ZM20,63l.12.12V63Zm1.78-21.19v-.13l-.38-.76c-.89,0-1.28.25-.89,1.15.63.25.89-.26,1.27-.52Zm-.76-7.27a.41.41,0,0,1,.25-.13c-.13-.13-.38-.26-.51,0C20.93,34.38,20.93,34.51,21.06,34.51Zm.63,14.55c-.12,0-.25.25-.25.38.13.38.38.38.76.13C22.2,49.18,22.08,48.93,21.69,49.06Zm.77-11.36c.51-.26.64-.64.51-1.28C22.2,36.8,22.08,37.19,22.46,37.7Zm0,13-.13.26h.26ZM23,60.54c-.13,0-.26.13-.13.26S23.1,60.67,23,60.54Zm0-27.82c.13-.13,0-.13,0-.13s-.13.13-.13.39A.4.4,0,0,0,23,32.72Zm.13-6.51c.38.13.64,0,.76-.51C23.61,25.83,23,25.57,23.1,26.21Zm.38,12.38H23.1C23.23,38.72,23.35,38.85,23.48,38.59Zm-.25,14.17c.51.25.89,0,1.4-.39C23.74,52.25,23.74,52.25,23.23,52.76ZM23.35,45c.13.51.9.77,1.15,1.28C24.37,44.84,24.37,44.84,23.35,45Zm.39,10c-.64.38-.39.76.12,1C24.12,55.56,24,55.31,23.74,54.93Zm0-3.32c.63-.13,1-.39,1.27-1.41C24.25,50.59,23.48,50.33,23.74,51.61Zm0-11.11.12.13A.13.13,0,0,0,24,40.5l-.13-.12ZM24.5,36c-.13-.13-.13-.13-.25.13a.12.12,0,0,0,.12.12h.13ZM24.63,32c.13.26.38.26.64,0A.6.6,0,0,0,24.63,32ZM25,58.75c.26,0,.26.13.13.13-.38,0,0,.13-.13-.13v0Zm.39-4.46-.13.12c.13.13.13.26.25.26s.13-.13.26-.13C25.65,54.41,25.52,54.41,25.4,54.29Zm0-12.89.12.12h.13C25.78,41.4,25.65,41.4,25.4,41.4Zm.38,8.17c.38-.26.25-.51.13-.77H26C25.65,49.06,25.4,49.18,25.78,49.57Zm.51,3.31v-.12h-.13Zm3.19-4c-.38-.51-.51-.26-.77.13C29,49.31,29.22,49.31,29.48,48.93Zm10-3.32a1,1,0,0,0,0,1C39.81,46.37,39.81,46,39.43,45.61Zm1.66.26.13.12c.25.13.25,0,.25-.25h-.25A.13.13,0,0,0,41.09,45.87Zm.64-1.54c.13.13.25.13.25-.12l-.12-.13c-.13,0-.13.13-.26.13A.12.12,0,0,0,41.73,44.33ZM43.13,47c-.13.26-.13.51.26.64C43.52,47.4,43.64,47.27,43.13,47Zm.77-1.4c-.26-.13-.51-.13-.64.26.26.5.51.63,1.28.38C44.28,46,44.15,45.74,43.9,45.61Zm.25-1.79h.13v-.13ZM47,45.23c-.25-.39-.51-.51-.89-.39a5.38,5.38,0,0,0-.9,1.92C45.69,46.12,46.71,46,47,45.23Zm0,3.31a.24.24,0,0,0,.13-.38.52.52,0,0,0-.64-.12C46.58,48.42,46.71,48.54,47,48.54Zm1.15-2.8c-.38.63-.13.89.38,1.27C48.87,46.25,48.75,45.87,48.11,45.74Zm1.53-.39c-.13,0,0,0,.13.13v.13l-.13-.13S49.51,45.35,49.64,45.35Zm3.45,3.19c-.9-1-2.05-.63-3.07-.76.26.89,1,.89,1.54,1.53C52.07,48.8,52.7,49.06,53.09,48.54ZM51.43,44c.76.64,1.15.77,1.4-.13C52.32,43.44,51.94,43.57,51.43,44Zm3.7,2.17c-.26-.13-.38-.13-.51.13C54.87,46.5,55,46.37,55.13,46.12Zm.38-4.21c-.13,0-.13,0-.25-.13s-.26.13-.51.13a.73.73,0,0,0,.38,1A.8.8,0,0,0,55.51,41.91Zm.13,11,.13-.12h-.26Zm.51-2.29c-.26,0-.26.25-.26.38.26.25.39.25.64,0C56.53,50.59,56.4,50.46,56.15,50.59Zm.38-10.34.13-.26H56.4Zm0,2.93v0ZM57,38.85c0-.13-.12,0-.12.12a.12.12,0,0,0,.12.13C57,39,57.17,39,57,38.85Zm.77,7.4c-.26.38-.64.51-.26,1.15C57.81,47,58.45,47,57.81,46.25Zm-.26,9.31v.13h.39C57.81,55.69,57.68,55.56,57.55,55.56Zm.13-15.44c.13.51.26.64.77.38C58.32,40.38,58.19,40,57.68,40.12Zm.13,17.1a.12.12,0,0,0,.13-.12.13.13,0,0,1-.13-.13.13.13,0,0,0-.13.13A.12.12,0,0,1,57.81,57.22Zm.89,6c-.13-.25-.25-.51-.51-.25C58.19,63.22,58.32,63.35,58.7,63.22Zm-.25-25c.76-.39,1.78-.26,2.29-.77.26-.51.26-.76-.38-1.27C60,37.06,59,37.31,58.45,38.21Zm.12,4.21c.39.25.64.25.9-.38C59,42,58.7,42.16,58.57,42.42Zm.39,5a.67.67,0,0,0,.12,1C59.08,48,59.85,47.78,59,47.4Zm.38-12.77a2.34,2.34,0,0,0-.51.64C59.47,35.53,59.59,35.27,59.34,34.63Zm-.51,12v.13l.13-.13Zm.64,4.72h-.13v.13Zm.76,9.7c0,.51.13.77.51.89.26-.38.51-.63,0-1-.12.13-.38.13-.64.26-.12-.26-.38-.38-.51-.51a.37.37,0,0,0-.25-.13h.25A2.34,2.34,0,0,0,60.23,61.05ZM60.1,45a.25.25,0,0,0,0,.38c.13.26.39.13.64-.12C60.62,45,60.36,45,60.1,45Zm.13,2.68c.26.26.39.13.51,0C60.62,47.4,60.49,47.4,60.23,47.65Zm.51-3.7c.26-.26.26-.51-.12-1C60.62,43.44,60.23,43.69,60.74,44Zm.13-11.87c0,.13,0,.13-.13.26C60.87,32.21,60.87,32.21,60.87,32.08Zm1,21.06a2.08,2.08,0,0,1-.25-.64,5.51,5.51,0,0,0-.9-.76c0,.89.51.76.9.76C61.64,52.63,61.38,52.88,61.89,53.14ZM61.13,27c0-.13.25-.13,0-.26v.39H61Zm.51,8.42c.38.26.51.77,1.15.26C62.53,34.89,62.15,35,61.64,35.4Zm.63-6.12a.42.42,0,0,0-.12.25A.42.42,0,0,1,62.27,29.28Zm.26-1H62.4l.13.13Zm.26,15.44a.83.83,0,0,0-.13-.89C62.4,43.18,62.4,43.44,62.79,43.69Zm.51,4.73c0-.38-.26-.51-.77-.38C62.66,48.54,62.91,48.8,63.3,48.42Zm-.64,7.27v.64C62.66,56,63,55.82,62.66,55.69Zm.51,2.94c0-.13-.13-.26-.26-.13s-.12.25-.25.38c.13,0,.25.13.38.13S63.3,58.75,63.17,58.63ZM63.68,40c.38-.38.25-.76.13-1.14a.45.45,0,0,1,.38-.13c.13-.13,0-.26-.13-.26s-.13.26-.25.39C63.42,39.1,63.3,39.48,63.68,40Zm0,11c.25.25.38.13.51-.13C63.93,50.59,63.68,50.71,63.68,51Zm.51-9.06c-.13-.26-.26-.13-.38,0C63.93,42.16,64.06,42.16,64.19,41.91Zm0,22.2a.45.45,0,0,1-.26.13h.39A.13.13,0,0,0,64.19,64.11ZM66.1,48.54c.13-.5.26-.89-.12-1.14a1,1,0,0,0-1.15.12C65.21,47.91,65.72,48.16,66.1,48.54Zm-1-12.76c.13-.12.13-.25,0-.51C64.83,35.53,64.83,35.66,65.08,35.78Zm.51,4.6c.39-.26.64-.39.39-.77C65.85,39.87,65.46,40,65.59,40.38ZM66,27.62l.12-.13H66Zm.51,7.14c-.39,0-.51,0-.51.64C66.49,35.27,66.61,35.27,66.49,34.76Zm.12-5.1c-.25.51,0,.64.39.89C67.25,30,67.25,29.66,66.61,29.66ZM67,42.29a.26.26,0,0,0,0,.51C67.12,42.67,67.25,42.42,67,42.29ZM67,32c0,.13-.13.26-.13.39C66.87,32.21,67,32.08,67,32Zm.76,13.92c0,.38,0,.63.38.5.13.26-.12.64.26.77.13-.38,0-.64-.26-.64C68.14,46.25,68.14,46,67.76,45.87Zm.13-15.06v-.64C67.89,30.42,67.63,30.68,67.89,30.81Zm.25,30.88-.25.13.25.12Zm.13-21.06.13-.13h-.13Zm.26,14.68c-.13,0-.13.13-.26.25a.47.47,0,0,0,.38.13l.13-.25C68.65,55.31,68.53,55.18,68.53,55.31Zm.38-1.4c0-.13-.26-.26,0-.26C68.65,53.78,68.65,54.29,68.91,53.91Z"/><path class="cls-1" d="M169.47,42.67a56.15,56.15,0,0,0-.64-8.16c-1-5.49-3.44-10.59-6.12-15.44a28.37,28.37,0,0,0-6.38-7.66,13.34,13.34,0,0,1-2-1.92C152,6.82,148.67,5.67,145.61,4c-1.53-1-3.57-1.28-5.36-1.79A44.75,44.75,0,0,0,119.32.56l-2,.39A31.17,31.17,0,0,0,106.43,4a45.19,45.19,0,0,0-12.12,8.55c-5.74,5.61-8.68,12.63-10.59,20.16a24.65,24.65,0,0,0-1,10.08,39.49,39.49,0,0,0,.51,13.53C85,64.11,87.8,71.39,93.42,77.39c5.36,5.61,11.35,9.82,19,11.61a77,77,0,0,0,10.85,1.78,45.78,45.78,0,0,0,13.91-1c7.53-2,14.55-5.36,20.16-11.1a42.52,42.52,0,0,0,8.42-12.38,43.29,43.29,0,0,0,3.45-14.42A74.18,74.18,0,0,0,169.47,42.67ZM162.84,48c.38,0,.51.12.51.38s-.26.25-.39.25S162.71,48.42,162.84,48ZM160.92,35.4a.13.13,0,0,1,.13.13.45.45,0,0,0-.13.25Zm-1.4-6.12.13.12h-.13ZM158.81,31c-.35.72,1,1.44-.44,2.28.64-1.15-.38-1.28-.64-1.79C158.09,31,158.45,31,158.81,31Zm.2,8.15v.38C158.75,39.36,158.88,39.23,159,39.1Zm-.64,5.23c-.13,0-.25.13-.38.13l-.13-.13C158,44.08,158.12,44.21,158.37,44.33ZM158,38.59c0,.51-.38.51-.9.13C157.48,38.34,158.12,38.46,158,38.59Zm-1-4.34v.13h-.26Zm0,1v.13h-.13l-.13-.13Zm-.39,4.47h-.51C156.2,39.36,156.33,39.36,156.58,39.74Zm-.89,5.49a.48.48,0,0,0,.26-.14v.31A1.28,1.28,0,0,1,155.69,45.23Zm-.25-4.91v.06C155.35,40.38,155.36,40.36,155.44,40.32Zm-.9,6v.13C154.29,46.5,154.41,46.5,154.54,46.37Zm.51,2.17c.26.52-.25.77-.76,1.15C154.16,48.8,154.41,48.54,155.05,48.54Zm-1.4-11.86a1.23,1.23,0,0,1,.25,1.4C153,37.82,153.27,37.44,153.65,36.68Zm-1,20.92c.51-.25.76-.38,1.15,0C153.39,58.37,153.14,58.12,152.63,57.6Zm.25-3.57c-.12-.51-.38-1,.51-1.4A1.71,1.71,0,0,1,152.88,54Zm.26,1.15c-.13,0-.13,0-.26.13a.12.12,0,0,0-.12-.13.42.42,0,0,1,.12-.25C153,54.93,153,55.05,153.14,55.18ZM153,40.63v.26h-.13c-.12,0-.12-.13-.12-.13C152.88,40.5,152.88,40.5,153,40.63Zm-2.3,18.25c.64.38.51.77,0,1.4C150.33,59.65,150.2,59.26,150.71,58.88ZM98.14,33.36l.13-.13s0,.13.12.13c-.12.13-.12.13-.25.13ZM99,35.91c-.89.51-1.15.26-1.15-.38C98.39,35.27,98.65,35.66,99,35.91Zm-.51,4.59c-.25.26-.38.26-.51,0-.13,0,0-.38.13-.38A.34.34,0,0,1,98.52,40.5ZM97.5,50h.13l-.13.13Zm-.38-5c-.39-.13-.26-.51-.39-.89s-.25-.51.26-.9A3,3,0,0,1,97.12,45Zm0,1.15v.13L97,46.12Zm-.51-7c.25.13.25.26,0,.38C96.48,39.36,96.35,39.23,96.61,39.1Zm-1,7v-.38C96,45.74,95.71,46,95.59,46.12Zm.12-2.68c0,.13-.12.25-.12.38a.13.13,0,0,0-.13-.13C95.46,43.44,95.46,43.44,95.71,43.44ZM95,48.54v.13l-.13-.13Zm.25,3.32c-.12.51-.25.9-1,.39C94.31,51.74,94.57,51.35,95.2,51.86Zm-1-5.61v-.13l.13.13Zm0-4.85c-.25,0-.51-.13-.51-.38s.26-.39.64-.39C94.44,41,94.44,41.27,94.18,41.4Zm-1.4-9.32c.13.26.13.38-.13.38C92.4,32.21,92.65,32.21,92.78,32.08Zm-.51,4.34c.13,0,.13,0,.13.13v.13a.13.13,0,0,1-.13-.13Zm-.39,9.7v.13h-.12Zm-2.42,7.66.13-.13v.13Zm1.28-24.63a.12.12,0,0,0,.12.13c0,.25,0,.38-.25.25h-.13C90.48,29.28,90.48,29.15,90.74,29.15Zm-.26,3.57c.38.13.64.26.26.64C90.35,33.36,90.35,33.1,90.48,32.72Zm.89,11.61c-.12.77-.25,1.54-.38,2.17-.64.26-1,.26-1.27-.38.25-.77,1.14-1.15,1.14-2C91.12,44.21,91.25,44.21,91.37,44.33ZM90.48,41a.37.37,0,0,1,0,.5C89.84,41.4,90.1,41.14,90.48,41Zm-2.42-2.94v.13h-.13Zm0,4.47c-.26,0-.51-.13-.39-.51a1.31,1.31,0,0,1,.39-.13C88.18,42.16,88.31,42.29,88.06,42.55Zm.51,2,.13-.13v.26h-.13Zm.25,13.53L88.7,58h.12ZM89,49.57v-.13l.13.13Zm1.28-14.94c-.13.64-.51.13-1.15.39C89.84,34.25,90.1,34.25,90.23,34.63ZM89.84,56.2a.13.13,0,0,1,.26,0l-.13.13A.13.13,0,0,0,89.84,56.2Zm.26,5.62a.76.76,0,0,1,1,0C90.86,62.2,90.48,62.33,90.1,61.82Zm1.27-.9a.25.25,0,0,1,0-.38A.23.23,0,0,1,91.37,60.92Zm-1-9.7a.83.83,0,0,1,.13-.89c.77,0,1.15.38,1.53,1.15C91.37,51.61,90.86,51.74,90.35,51.22Zm2.05,14-.13-.13h.13ZM92.27,54.8c.38.13.25.25.13.51C92.14,55.18,92.14,55.05,92.27,54.8Zm0-1.92c.51-.12.64,0,.64.39C92.52,53.52,92.4,53.27,92.27,52.88Zm.51-1.4v-.13h.13Zm.76-21.06a.38.38,0,0,1-.51,0Zm-.25,5.49c.64.38.76.77.51,1.28C92.91,37.06,93.16,36.55,93.29,35.91Zm.51,28.33c-.38,0-.51-.25-.38-.38s.25-.26.25-.26C93.93,63.86,93.93,64,93.8,64.24Zm.25-6.51c.39,0,.9-.13,1.28.26.13.38,0,.64-.38.89C94.44,58.75,94.18,58.37,94.05,57.73Zm.9,9.06c-.13.13-.26.39-.51.26a.51.51,0,0,1,.51-.26c0-.25.25-.38.51-.51A1,1,0,0,1,95,66.79Zm.76-11.1c-.38-.13-.25-.38-.12-.64C95.84,55.31,95.84,55.56,95.71,55.69Zm.39-8.55c.12-.25.25-.13.51,0C96.35,47.4,96.22,47.27,96.1,47.14Zm.51,3.19v.26l-.13-.13Zm-.13,9.06c-.26-.51-.13-.64.13-.76C97,58.88,96.86,59.14,96.48,59.39ZM97,57.22l-.13-.12c.13,0,.13-.13.26-.13s0,.13.12.13C97.12,57.22,97.12,57.22,97,57.22Zm.51,3.32-.13-.13.13-.13a.13.13,0,0,1,.13.13Zm-.26-7.78c.39-.39.64-.26,1,.12C97.76,53.39,97.5,53.52,97.24,52.76Zm.9,2.93-.13.13-.13-.13a.13.13,0,0,1,.13-.13Zm-.38,2.68c1,.51.76,1.28.89,1.91C98.39,59.65,97.5,59.52,97.76,58.37Zm.63,11.87v-.38C98.65,70,98.65,70.11,98.39,70.24Zm.13-5c-.13,0-.13-.13,0-.25h.13l.13.12C98.65,65.26,98.65,65.26,98.52,65.26Zm.64,7H99l.13-.13ZM99,48.42c-.25-.26-.25-.38-.13-.64C99.29,47.91,99.16,48.16,99,48.42Zm.26,5.36c.51.13.64.25.64.51C99.67,54.41,99.41,54.41,99.29,53.78ZM99.93,57v.13H99.8Zm0,1.91a.31.31,0,0,1,.51.13A.31.31,0,0,1,99.93,58.88Zm.51-25c-.26-.13-.39-.26-.39-.51.26-.13.39,0,.39.25ZM101,60.8c.12.25.12.38-.13.51C100.69,61.18,100.69,61.05,101,60.8Zm-.13,2.42.13.13c.12.25,0,.38-.13.25Zm.13,1.66c.25-.51.51-.64.76.13C101.46,65.26,101.2,65.26,101,64.88Zm.76-1.66h.13l-.13.13Zm.38,13.91a.45.45,0,0,1,.13-.38C102.35,77,102.09,77,102.09,77.13ZM103.37,75c-.51-.38-1,.25-1.53-.13.51-.51,1-.64,1.53.13.26,0,.38-.38.77-.13C103.88,75.21,103.63,74.83,103.37,75Zm.26-5.62a5.59,5.59,0,0,0-.13-.63c0-.13-.13-.26-.13-.39l0,0a1,1,0,0,1,.09.42c.22,0,.34-.2.45-.41C104.26,68.76,104.34,69.11,103.63,69.34Zm.25-1.14h-.38c.25-.64-.51-1.53.25-2,.51.13.13,1,1,.64C104.39,67.43,104.14,67.81,103.88,68.2Zm1.28,3.19c.12-.39.25-.13.89-.13A4.06,4.06,0,0,1,105.16,71.39Zm.51-1.53c-.26-.52-.26-.77.25-1C106.31,69.22,106.18,69.6,105.67,69.86Zm-.13-2.3v-.13l.13.13Zm2.55,7.15a1.38,1.38,0,0,1-.64-.13c-.12-.13,0-.26.13-.26s.38.13.64.13C108.22,74.58,108.09,74.58,108.09,74.71Zm-.25-4.47c0-.13.12-.13.12-.26v.39Zm1.78,5.36a.12.12,0,0,1-.12-.13C109.75,75.47,109.75,75.47,109.62,75.6Zm0-3.83c-.12-.25,0-.51.26-.77C110,71.39,110.13,71.64,109.62,71.77Zm3.58,6.51-.13-.13.13-.13Zm-.14-3.55c0-.3,0-.56.39-.66C113.66,74.49,113.28,74.57,113.06,74.73Zm1.67,1.38c-.13-.38.13-.26.25-.38C115.11,76,115,76.11,114.73,76.11Zm2.68,1.66v-.26l.12.26Zm5,.64c-.12-.26,0-.39.13-.39C122.89,78.28,122.38,78.28,122.38,78.41Zm5.24,2c.12-.13.12-.64.51-.64C128.25,80.32,127.74,80.19,127.62,80.45Zm9.95-3.58c-.51,0-.38-.25-.26-.63C137.57,76.36,137.83,76.62,137.57,76.87Zm-6.89-6.25c-1.28.26-2.68.26-4.08.64a6.21,6.21,0,0,1-2.68,0c-3.58-.64-7.28-1.79-10.09-4.08a23.37,23.37,0,0,1-7.4-9.45,28.22,28.22,0,0,1-2-9.19,34.16,34.16,0,0,1,1.28-12.37,27.14,27.14,0,0,1,5.1-9.45A20.4,20.4,0,0,1,122.38,20a24.9,24.9,0,0,1,8.17.13,16.94,16.94,0,0,1,6,2.68A24.74,24.74,0,0,1,147.4,40.12v2.3a17,17,0,0,0,.25,2.42,23.21,23.21,0,0,1-1,8.3,34.35,34.35,0,0,1-4,9.19A18.75,18.75,0,0,1,130.68,70.62Zm16.84-5.87c-.38-.38-.12-.51.13-.64C147.78,64.37,147.78,64.62,147.52,64.75Zm-1.14,10V75h-.13Zm-2.94-.9c.89-.25.89.13.38.77Zm.89,3.58a.25.25,0,0,1-.38,0,1.87,1.87,0,0,0,.26-.39C144.46,77,144.46,77.26,144.33,77.39Zm2.3,1c-.13-.13-.25-.13-.38-.26a.27.27,0,0,0,.25-.25c.13.12.13.25.26.38Zm.51-9.83c-.89-.38-.38-1.28-.76-1.79a2.08,2.08,0,0,1,1.4,1C147.78,68.32,147.52,68.45,147.14,68.58Zm2.17,7.15c-.47.23-.52-.37-.92-.48l0,0a2.47,2.47,0,0,1,1-.25c0,.13.13.13.13.25S149.57,75.6,149.31,75.73Zm.77-4a.23.23,0,0,1,0-.38A.25.25,0,0,1,150.08,71.77ZM149.57,70c-.13-1.14.25-1.91,1.78-2.17C150.59,68.71,150.08,69.34,149.57,70Zm1.53-7.27c-.39-.51,0-.89.51-1.4C151.86,62.07,151.48,62.33,151.1,62.71Zm.12-4.59c.26-.9.52-.64.77-.13A.62.62,0,0,1,151.22,58.12ZM151.61,30c.64-.89.64-.89,1.15,0A1.74,1.74,0,0,1,151.61,30Zm1.4,40.2c-.51-.13-.64-.38-.64-.9C153.27,69.34,153.39,69.6,153,70.24ZM153,65c.64.12.38.38.51.64C153,65.65,153.14,65.26,153,65Zm.38,8.67a.12.12,0,0,0,.13-.12s.13,0,.13.12Zm-.25-12.12c-.13-.89.64-.89,1.15-1.15a1.37,1.37,0,0,1,.63,1.41c-.12.63-.51-.13-.63,0s-.13.51-.51.51A3.63,3.63,0,0,0,153.14,61.56Zm1.66-2.68a.28.28,0,0,1,.25.26.12.12,0,0,1-.13.12c-.12.13-.25.13-.25-.12S154.67,58.88,154.8,58.88Zm.12,6.64-.12.13v-.13Zm-.76,2.55c-.26,0-.38-.26-.26-.51s.26-.13.39-.13l.12.26C154.41,67.81,154.29,68.07,154.16,68.07Zm1,4.34c-.38.13-.51-.13-.51-.77C155.05,71.9,155.44,72,155.18,72.41Zm.13-17.61c-.26-.51-.77-.89-.64-1.79C155.82,53.52,155.31,54.16,155.31,54.8Zm-.26-13c.39.13.51.38.64.77C154.92,42.67,155.31,41.91,155.05,41.78ZM155.82,65c-.26-.26-.13-.51,0-.77Zm.25-19.53h.39c.11-.34-.09-.47-.4-.5h0c1-.38,1.41.26,1.79,1-.64.13-.89-.64-1.4-.51,0,.39.25,1-.39,1.15C155.56,46.25,156.2,45.87,156.07,45.48Zm1.79,9.06c.13.64-.38.39-.89,1C157.09,54.41,157.48,54.41,157.86,54.54Zm-1.79,13.53c.39,0,.51.13.39.51C156.07,68.45,156.07,68.32,156.07,68.07ZM156.71,52c.13.26.26.38-.13.51C156.33,52.25,156.58,52.12,156.71,52Zm0,4.47v.12h-.13Zm.13,9.31c-.26-.12-.38-.38-.26-.38C157.09,65.39,156.71,65.65,156.84,65.77Zm-.13-5.87a1.33,1.33,0,0,1,.13-.38c.38-.13.38.13.38.38S156.84,60,156.71,59.9Zm1,4.47a.47.47,0,0,1-.64-.26.66.66,0,0,1,.77-.51C158.24,64.11,158,64.24,157.73,64.37Zm.39-14c-.23-.34-.14-.48.14-.59C158.38,50,158.48,50.21,158.12,50.33Zm.22-.62,0,0a.73.73,0,0,1,.77-.25C158.91,49.89,158.59,49.75,158.34,49.71Zm1.31,15.42h-.13l.13-.12Zm-.13-8a.47.47,0,0,0,.13.38C159.26,57.35,159.52,57.22,159.52,57.1Zm.51,4.84-.13-.12H160Zm-.51-8c-.13-.39,0-.52.25-.64,0,0,.26.12.26.25S159.9,53.91,159.52,53.91Zm.89,10.84v-.13h.13Zm-.51-14.93c.38-.38.51-.13.64.13C160.28,50.08,160,50.08,159.9,49.82Zm.64-2c-.13,0-.13-.13-.26-.13.13-.13.13-.13.26-.13l.13.13A.13.13,0,0,0,160.54,47.78Zm.38,3.32s0-.13-.12-.13c.12,0,.12-.13.12-.13a.13.13,0,0,1,0,.26Zm.51,7h-.12l.12-.13Zm-.25-3.19a.4.4,0,0,0,.13-.26c.12,0,.12.13.12.13A.41.41,0,0,1,161.18,54.93Zm-.26-15.83c.26.26.39.38.51.51C161.05,39.74,160.92,39.61,160.92,39.1Zm1,21.7c-.12-.13-.25-.26-.25-.39s.38-.13.38,0S161.94,60.67,161.94,60.8Zm0-18.51c.51.13.64.38.39.64S161.94,42.67,161.94,42.29Zm.39,10.47c1.15-.39,1.27.25,1.53,1C163.09,53.65,163,53,162.33,52.76Zm1.53-2.17c-.26-.26-.38-.51,0-.77a.51.51,0,0,1,.51.26A.47.47,0,0,1,163.86,50.59Z"/><path class="cls-2" d="M127.49,36.55a2.43,2.43,0,0,0-2.81.76c-2,2-4.21,4.09-6.38,6.26-1.66,1.66-1.53,2.68.26,4.34s4.21,3.44,5.74,5.74a2.33,2.33,0,0,0,3.83.13c2.29-2.56,4.85-4.72,7-7.66C135.15,44.08,133.87,42.55,127.49,36.55Zm-2.81,9.19a.48.48,0,0,1,.77,0C125.19,46.12,124.94,46,124.68,45.74Zm2.43-2.17c0,.12.12.12.25.12C127.23,43.82,127.23,43.82,127.11,43.57Zm.51,1.91a.48.48,0,0,0,.12-.38C128,45.48,127.74,45.35,127.62,45.48Z"/><path class="cls-1" d="M207,70.37a3.59,3.59,0,0,1,4.08,3.44V85.55a3.15,3.15,0,0,1-1.15,2.55c-2.68.9-5.74.77-8.8.64a21.3,21.3,0,0,0-4-.12,78.32,78.32,0,0,1-9.32,0c-3.7-.26-7.53.12-11.23.12S172,87.34,172,83.89c0-3.19.51-6.38.13-9.57-.26-2.17,1.27-3.57,3.44-3.7,1.28-.13,2.56.26,3.7-.13,1.28-.63,1.15-1.78,1.15-2.93,0-7,0-14,.13-21.06,0-3.19.13-6.51.13-9.82-.13-4.47.38-8.94,0-13.4-.13-1-.26-2.05-1.41-2.56a14.59,14.59,0,0,0-2.29,0c-3.58.26-5.24-1.53-4.85-4.84a5.81,5.81,0,0,0,0-2.56,7.14,7.14,0,0,1,.13-3.31,10,10,0,0,0,0-3.32c-.26-2.55.89-4.09,3.57-4.09,6,.13,12-.51,18-.12,3.06.25,6.25,0,9.44,0,13.15,0,30.63,1,36.63,15.18a26.87,26.87,0,0,1,2,12.64c-.51,14-14.55,21.31-25.9,26.16a53.11,53.11,0,0,0-11.49,7c-1.91,1.41-2.17,4.85-.76,7A6.63,6.63,0,0,0,207,70.37Zm-26.93,9.57h.51C180.32,79.81,180.2,79.68,180.07,79.94ZM184,77c.51-.13.76-.38.38-.89C183.9,76.24,183.77,76.49,184,77Zm-.13-3.44a2.24,2.24,0,0,0,1.53.38C184.66,73.68,184.66,73.05,183.9,73.56Zm.76,6.76c.13,0,.39-.26,0-.38-.12,0-.25.25-.51.38C184.41,80.32,184.54,80.45,184.66,80.32Zm.9-26.29c0-.12-.13-.25-.26,0s.13.26.13.38C185.56,54.29,185.68,54.16,185.56,54Zm1.53,18.63a1.21,1.21,0,0,0-1.66-.25C186.07,73.05,186.45,72.79,187.09,72.66ZM185.81,51.1l.13.12.13-.12a.13.13,0,0,0-.26,0Zm.13,13.4c0,.12-.26.63.25.89a2.07,2.07,0,0,0,.9-1.28C186.58,64.37,186.19,64,185.94,64.5Zm0,12.37c0,.13.13.26.38.13,0-.25-.13-.25-.13-.38C186.07,76.75,185.94,76.75,185.94,76.87Zm2.17-16.71c-1.15,0-1.79.38-2,1.27A2.3,2.3,0,0,0,188.11,60.16ZM187.73,42c-.39-.39-.39-1-1.41-1C186.7,41.65,187,42.16,187.73,42Zm-1,5.61c-.25-.13-.38,0-.38.39,0,0,.13.25.26.25a.34.34,0,0,0,.38-.38C186.83,47.78,186.83,47.65,186.7,47.65Zm-.25,20.93c0,.13-.13.26-.13.38C186.32,68.84,186.45,68.71,186.45,68.58Zm.25-13.27c0,.13.13.13.13.25.13-.12.13-.12.13-.25Zm.52-20a.4.4,0,0,1-.26-.13A.4.4,0,0,1,187.22,35.27ZM187,45.87a.25.25,0,0,0,.38,0C187.22,45.61,187.09,45.74,187,45.87Zm.38,22.2c0-.13-.12-.26-.25-.13v-.13Zm-.25,3.06.13-.13-.13.13v0Zm.25-4.85s0-.13-.12-.13S187.22,66.28,187.34,66.28Zm0-22.84c.13.25.39.25.64,0C187.73,42.93,187.47,42.93,187.34,43.44Zm.26,30.75a1.66,1.66,0,0,1,.38.26v-.51h.13A.94.94,0,0,1,187.6,74.19Zm.25-29.35a.12.12,0,0,0-.12.13Zm.77-4.72c.13.13,0,0,0-.25s.25-.39.38-.64c-.25-.26-.38-.38-.76-.26-.13.39-.13.77.38.9C188.62,40,188.75,40.25,188.62,40.12Zm.25,22.59c-.63.26-.89.51-.38,1.15.77,0,.77-.39.9-.89C189.26,62.84,189.13,62.84,188.87,62.71Zm-.63-13h.12v-.12Zm.51-3.7c-.13-.25-.13-.25-.39-.25C188.49,45.87,188.62,45.87,188.75,46Zm0,10.34v0Zm.64-6.25h-.13v.12Zm.38-12.77c0,.13.13.13.25.13S189.9,37.31,189.77,37.31Zm0,24.25a.46.46,0,0,1,.38-.13C190,61.31,189.9,61.31,189.77,61.56ZM190,75c-.25,0-.25.13-.12.13S189.9,75,190,75Zm.26-22.46c0-.13-.26-.13-.26,0s.13.26.13.38C190.28,52.76,190.41,52.63,190.28,52.5Zm.89,13.91c-.13-.64-.25-1-1.15-1C190.15,66,190.41,66.54,191.17,66.41Zm-.89-30.63c0-.12,0-.12-.13-.25C190,35.66,190,35.78,190.28,35.78Zm0,10.09s-.13,0-.13.12l.13.13c.13,0,.13,0,.13-.13Zm.76-3.45h-.76C190.53,42.67,190.79,42.8,191,42.42Zm-.51,35.22c.13,0,.26-.13.51-.13C190.79,77.51,190.66,77.51,190.53,77.64ZM191,54c0,.26.13.26.26.13s-.13-.25-.13-.38A.39.39,0,0,0,191,54Zm.39,17.61c.38,0,.63.51,1.27.13-.25-.64-.64-1.15-1.27-1-.39.38,0,.64,0,.89h0Zm.63-33.3a.27.27,0,0,0,0-.52c-.25-.12-.38,0-.63.26C191.68,38.46,191.94,38.46,192.06,38.34Zm-.51,25.9.13.13v-.13Zm.64-28.07a5.85,5.85,0,0,1-.13-.64C191.55,35.91,191.43,36,192.19,36.17Zm-.51,19.9v0Zm.26-7.78c.38.64.76.64,1.4-.13C192.7,47.78,192.32,47.52,191.94,48.29Zm.38,9.06.13.13c-.13.38-.77.89.25,1.15,0-.39.13-.9-.38-1.15Zm1-2.55c-.51-.26-.76,0-.89.51C193.09,55.56,193.34,55.31,193.34,54.8ZM192.58,53c.12,0,.12,0,.12-.13Zm0,25.4v0Zm1.4-19a.66.66,0,0,0-.89.26c.25.76.76.76,1.4.38A8.1,8.1,0,0,1,194,59.39Zm-.26-1.4c0-.26,0-.51-.38-.39C193.47,57.86,193.6,58,193.72,58Zm-.25-6.51c.13.13.13.26.25.26.26.25.39.63.9.12h-.9C193.72,51.61,193.85,51.48,193.47,51.48Zm.13-10.72a.45.45,0,0,1,.38-.13C193.85,40.5,193.72,40.5,193.6,40.76Zm0,21.18c.12,0,.12,0,.25-.12A.39.39,0,0,0,193.6,61.94Zm2.29-17.1c-1,0-1.4-.63-2.17-.38C194.23,45.23,194.75,45.1,195.89,44.84ZM194,65.77v0ZM195.51,33c-.89-.39-1.15.12-1.4.51C194.75,33.87,194.87,33.23,195.51,33Zm-1.4,15.18v.13l.25-.13Zm.38-6-.13.13a.4.4,0,0,0,.13.26Q194.69,42.55,194.49,42.16Zm.38,28.59v0Zm.51-31.52a.61.61,0,0,0,.13.76C196.15,39.74,196.15,39.48,195.38,39.23Zm.51,18.89c-.38.12-.51.25-.51.51C196,58.88,196.15,58.75,195.89,58.12Zm-.25-22.34v.13h.13Zm0,28.59.13-.13h-.13Zm.25-9.7-.12.13s0,.13.12.13l.13-.13Zm.39,1.15c-.13-.13-.39-.26-.51,0C195.89,56.07,196,56,196.28,55.82Zm-.39-6c.26.13.39.13.51-.25C196.15,49.44,195.89,49.31,195.89,49.82Zm.77,23.35c-.13-.38-.13-.76-.26-1.14-.38.51,0,.76.13,1Zm0-43.51-.13.13h.13Zm.25,24.63c.39,0,.51-.26.39-.9C196.91,53.65,196.4,53.78,196.91,54.29Zm0,13.52-.12-.12v.12Zm.39-20c.25.26.38.13.63-.13C197.68,47.52,197.42,47.4,197.3,47.78Zm3.44,9.82c-.76-.12-1,.26-1.27.77a1.12,1.12,0,0,0-.64.13c0-.38.25-.77-.13-1-.25.38-.89.51-.89,1.27.51.13.76-.38,1.15-.38,0,.13.12.13.25.26a.28.28,0,0,1,.26-.26C200.1,58.63,200.74,58.75,200.74,57.6Zm-2.81-12.12c.13.26.26.51.64.26C198.57,45.35,198.32,45,197.93,45.48Zm.39,27.31v.13c.13,0,.13-.13.25-.13S198.45,72.66,198.32,72.79Zm.51-18.12c.89-.26.89-.76.76-1.4C198.83,53.52,198.7,53.91,198.83,54.67Zm.38-5.36c-.13,0-.13,0-.13.13A.13.13,0,0,0,199.21,49.31Zm0,13.4h.13l-.13-.26Zm.64-3.19c-.13.26.13.51.38.51s.26-.25.38-.51C200.1,59.26,199.85,59.39,199.85,59.52ZM201,51.61c.38-.39.38-.64.13-1C200.74,50.84,200.87,51.22,201,51.61Zm.89,6c.64.39,1.28.52,1.79-.12.38-.13.64-.26.51-.77-.51,0-.38.51-.51.77C203.17,57.35,202.53,56.33,201.89,57.6Zm2.68-15.31a104.42,104.42,0,0,0,9.83-6.89c2.55-2,4.59-4.47,5.23-7.91A7.73,7.73,0,0,0,214,21.62a23,23,0,0,0-9.31-1c-1.79,1-2.43,2.29-2,4.08.12.51,0,1,.12,1.66.26,1.91-.38,3.7-.38,5.61.13,3.07.64,6.13.26,9.19a1.76,1.76,0,0,0,.38,1.53C203.68,42.93,204.06,42.55,204.57,42.29Zm-1.91,13.53-.13-.13-.13.13a.13.13,0,0,0,.13.13Zm.76-.51c-.13.51.13.64.9.64C203.93,55.56,203.81,55.31,203.42,55.31Zm.64-1c-.25-.26-.51-.13-.64.12C203.68,54.54,203.93,54.67,204.06,54.29ZM203.81,53h.25a.13.13,0,0,0-.13-.13A.12.12,0,0,0,203.81,53Zm.89-1.91h0Zm.64,3.95c0,.13-.13.13-.13.26l.13.13c.12,0,.12-.13.12-.13S205.46,55.18,205.34,55.05Zm.38-2.93.13-.13h-.13Zm1,3.83c-.26,0-.38.12-.64.12C206.36,56.2,206.74,56.46,206.74,56Zm1.15-7c-.51.51-.38.89,0,1.4C208.78,49.82,208.65,49.44,207.89,48.93Zm2.93-.89c-.38,0-.89-.13-1.27.25.64.51,1,.51,1.15-.38h.12Zm-.12,4a14,14,0,0,1-1-1.53C209.8,51.74,209.8,51.74,210.7,52Zm.76.89h-.25C211.21,53,211.33,53.14,211.46,52.88Zm2.43-2.42c-.51-.26-.9-.26-1,.38C213.5,51.1,213.5,51.1,213.89,50.46Zm-.77-4.34c.13,0,.13,0,0,.13s.13.12,0-.13v0Zm.64-3.45c0,.77.13,1.28.64,1.41.89.13.89-.51,1.4-1.28A1.54,1.54,0,0,1,213.76,42.67Zm.76,2.56c-.12,0-.12.12-.12.25S214.52,45.48,214.52,45.23Zm-.12,2.55c0,.13.12.13.25.13s.26.25.13.13c.13.12,0,0-.26,0C214.52,47.91,214.4,47.91,214.4,47.78ZM216.31,50c-.13,0-.13.13-.13.25S216.31,50.08,216.31,50Zm.38-9.7v.51C216.82,40.5,217,40.38,216.69,40.25Zm.51,4.21c-.12.13-.51.13-.25.51C217.2,44.84,217.33,44.72,217.2,44.46Zm1.79,2.3c-.64-.64-.77-.26-.89.25C218.48,47.27,218.74,47,219,46.76Zm.13-8.3a.4.4,0,0,0-.26.13.45.45,0,0,0,.26.13Zm1.15,7c.25,0-.13-.13.12.13,0,.38-.25.76.13,1.15a1,1,0,0,0,.9-1c-.39,0-.77-.13-1.15-.13C220.14,45.61,220.14,45.48,220.27,45.48Zm0-4.46c-.13.12-.13.12.12.12A.12.12,0,0,0,220.27,41ZM221,45v-.13h-.12Zm.39,2.81c.38.13.76.38,1.14,0-.12-.26-.38-.51-.51-.77a1.13,1.13,0,0,0,1-.51c.26,0,.51.39.77,0a1.11,1.11,0,0,0-.64-1.27v1.4l-1.15.38C221.8,47.27,221.29,47.27,221.42,47.78Zm3.31-4.85c-.51.13-.63.64-.76,1.28C225.12,44.08,225,43.57,224.73,42.93Zm2.43,1.91a.79.79,0,0,0,0-.76C226.39,44.46,226.39,44.59,227.16,44.84Zm.64-9.7c.12.26.12.52.25.64.26-.38,0-.38-.25-.51Zm.25,6.77-.13.25h.13Zm.64-8.3a2.45,2.45,0,0,0,1-.51C229.33,33.1,228.82,32.72,228.69,33.61Zm.89,4.09a.12.12,0,0,1-.13.12C229.58,37.82,229.58,37.82,229.58,37.7Zm1.28,2.93c0,.26.13.26.25.26.13.38.26.63.64.13-.25,0-.38-.13-.64-.13C231.11,40.76,231.11,40.63,230.86,40.63Zm.76-11.23v.13h-.12Zm.77,3.32v0Zm.13,2.55a1.61,1.61,0,0,0,.51,1.41c.13.38-.38.76-.26,1.27.51-.64,1.41-1,.9-2.17-.13.39-.26.77-.64.9C232.9,36.29,233,35.78,232.52,35.27Zm1.15-5c-.13-.13-.26-.13-.26.12C233.67,30.42,233.67,30.3,233.67,30.3Zm1-2.05c0-.25,0-.25-.26-.12v.12c-.13,0,0,0,.13.13A.13.13,0,0,1,234.69,28.25Zm1.66,2.17v0h0Z"/><path class="cls-1" d="M301.05,41.52c1,2.17,1.66,4.47.76,6.9-.25.64-.38,1.53-.63,2.17-1.41,3.82-4.47,5.61-8.55,5.48-3.45,0-6.39-1.27-9.19-2.68a6.94,6.94,0,0,0-2.68-.63c-3.7,0-5.49,4.46-5.49,7.65.13,1.92,0,3.83,0,5.74a4.3,4.3,0,0,0,4,4.22c6.12.12,12.25.63,18.37-.39.13,0,.26-.12.51-.25a3.49,3.49,0,0,0,.77-3.19,20.52,20.52,0,0,1,.51-5.62,3,3,0,0,1,2.93-2.8c4-.26,7.92.25,11.87.25a3.14,3.14,0,0,1,3.06,3.7c-.51,3.32.13,6.64,0,10-.12,4-.25,8-.12,12.12.12,2.93-1.41,4.59-4.34,4.47-8.3-.13-16.59,0-24.76-.13-7.78,0-15.44-.13-23.22.13-4.47,0-8.94.25-13.4-.13a16.89,16.89,0,0,0-2.56.13c-2.55,0-3.7-1.15-3.82-3.58,0-3.7-.13-7.4-.13-11.1,0-2.3.64-2.94,3.57-4,.64-.12,1.15.26,1.66.39,2.17.51,3.19-.26,3.32-2.43a48.07,48.07,0,0,0,0-6.12,22.19,22.19,0,0,1,0-6.51,32.68,32.68,0,0,0,0-3.57c-.13-5.49-.38-11-.13-16.47.26-4.08.26-8,.13-12.12,0-1.79-.64-2.43-2.55-2.68a24.26,24.26,0,0,1-3.07-.13c-1.78-.25-2.68-.89-2.68-2.68-.12-4.21-.38-8.29-.12-12.5a3,3,0,0,1,2.68-2.81h1.53c9.06,0,18.12,0,27.18.13,3.57,0,7.15-.39,10.85-.26,4,.13,8,0,12,.13,3.57.13,7,0,10.59,0a37.7,37.7,0,0,1,3.83.13c2.3.12,3.06.89,3.32,3.31.38,2.68-.26,5.49,0,8.17.38,4-.13,7.91.25,11.74a25.13,25.13,0,0,1-.25,4.47,2.77,2.77,0,0,1-2.68,2.55,26.31,26.31,0,0,1-5.49.13,36.88,36.88,0,0,0-5.36-.13c-3.57-.13-4.46-1-4.46-4.59a30.7,30.7,0,0,1,.12-3.32c.13-2.68-1.14-4.21-3.82-4.34a58.84,58.84,0,0,0-6.77.13c-1.53.12-3.19-.13-4.72-.13s-2.68,0-4.08,0c-2.81.25-4,1.66-4.21,4.47a9.39,9.39,0,0,0-.13,1.91c.13,3.19.25,6.38.13,9.57A3.57,3.57,0,0,0,276,39a1.94,1.94,0,0,0,2.17.26,16.6,16.6,0,0,1,3.57-.38,23.89,23.89,0,0,1,9.31,2.42,5.94,5.94,0,0,0,2.05.38,6.23,6.23,0,0,0,3.57-1.15,5.82,5.82,0,0,1,2.17-1C300.15,39.61,300.66,40.5,301.05,41.52ZM253.83,78.15c.13-.38-.13-.25-.25-.25S253.7,78,253.83,78.15Zm4.85-37.9V40a.39.39,0,0,1-.25.13A.41.41,0,0,0,258.68,40.25Zm.26,20.55c-.26.12-.39.25-.39.76C259.32,61.43,259.32,61.18,258.94,60.8Zm-.26-11.74.51-.52C258.81,48.54,258.43,48.42,258.68,49.06Zm.89,15.56c-.25-.38-.38-.63-.89-.51C258.81,65,258.81,65,259.57,64.62Zm-.63,6.64c.38,0,.51-.26.63-.64C259.06,70.75,258.68,70.62,258.94,71.26ZM259.06,38l-.12.13h.12Zm.51,37.39v-.13l-.12.13Zm.13-19.27c0,.13.13.13.26.13C259.83,56.07,259.83,56.07,259.7,56.07Zm.77-13.65c-.26-.26-.51-.26-.64.64C260.21,42.67,260.34,42.55,260.47,42.42ZM260.08,46a.47.47,0,0,0,.64.26c.26-.26-.13-.51-.13-.77.26-.13.52,0,.64-.38-.38,0-.38.25-.51.38S260,45.61,260.08,46Zm1.28,4c.26-.38.38-.89-.25-1.15-.9,0-1,.38-.77,1.28C260.72,50.08,261.11,50.33,261.36,50Zm-.77,4.72h0Zm-.12,7.27c.25.13.38,0,.51-.25C260.72,61.43,260.59,61.56,260.47,61.94Zm.38,4.6a.67.67,0,0,0,.89.51C261.62,66.41,261.36,66.28,260.85,66.54ZM261,51.86c.38.39.51.13.64-.25h.12C261.49,51.74,261.23,51.74,261,51.86Zm.25,6.77a1.18,1.18,0,0,0-.12.63,3.43,3.43,0,0,1,.51.9c.12.12,0,.38.38.12a.47.47,0,0,1-.38-.12c-.13-.26-.13-.64-.51-.9A1.18,1.18,0,0,1,261.23,58.63Zm.26-18a1.64,1.64,0,0,0-.13,1.53A2.49,2.49,0,0,0,263,41C262.51,40.25,262,40.25,261.49,40.63ZM261.62,77h.12l-.12-.13Zm.76-15.18c0-.13-.25-.26-.64,0C262,62.07,262.25,62.07,262.38,61.82Zm-.51,18.37h1.79C263,79.68,262.64,79.68,261.87,80.19ZM263,53.27l-.13-.13a.24.24,0,0,0-.38.13A.27.27,0,0,0,263,53.27Zm.38,2.93c.51-.13.64-.51.39-.89s-.77-.51-1.28.25C262.76,55.82,262.76,56.33,263.4,56.2ZM262.89,65c-.25.25-.25.38,0,.51C263,65.39,263.15,65.26,262.89,65Zm0-22c-.13,0-.25.12-.13.25A.39.39,0,0,0,262.89,43.06Zm.39,32v.25h.12Zm.51-42.5c-.26.13-.13.39-.26.64C263.66,33,263.91,33,263.79,32.59Zm.51,33.06c-.26-.26-.39-.26-.64,0C263.91,65.9,264,65.9,264.3,65.65Zm-.51-7.53c.25.25.38.25.51-.13C264,57.73,263.91,57.73,263.79,58.12Zm.38,3.31c1.4.13.89-1.15,1.66-1.91C264.3,59.9,263.79,60.41,264.17,61.43ZM264.42,44c-.12,0-.12.13-.25.38C264.3,44.21,264.3,44.08,264.42,44Zm0-15.7c-.25.39-.12.51.26.77C264.81,28.64,264.93,28.38,264.42,28.25Zm.13,24.12h.26v-.12Zm.51-4.85c-.13,0-.13,0-.25.13C264.93,47.65,264.93,47.65,265.06,47.52Zm-.25,16.72h.25l-.25-.13Zm.89-29.1a.13.13,0,0,0-.13.13c0,.39-.76.39-.64,1.28.39-.64.9-.64.9-1.28Zm-.64-4.21a.4.4,0,0,1,.13.26C265.06,31.19,265.44,30.93,265.06,30.93Zm1.15,18.76c.13-.25.26-.51,0-.76s-.64-.26-1.15,0C265.44,49.18,265.57,49.82,266.21,49.69Zm-.51,1.66c.13-.13.13-.38-.13-.38S265.32,51.35,265.7,51.35Zm0-5.74-.13.13h.13Zm-.13,10.46c.64.39,1.15.39,1.53-.51A2.79,2.79,0,0,0,265.57,56.07ZM266,38v0h0Zm.39,16.21c-.26-.13-.51-.13-.39.38C266.21,54.54,266.34,54.54,266.34,54.16Zm-.26-14.55a.6.6,0,0,0,.13.77A.6.6,0,0,0,266.08,39.61Zm.39,33.69a.37.37,0,0,0-.13-.25C266.34,73.17,266.34,73.3,266.47,73.3ZM267,60.92a.27.27,0,0,0-.51,0C266.59,61.18,266.72,61.05,267,60.92Zm-.39,6.13.13-.13h-.13Zm.26-14.42h-.13V52.5Zm1,5.49c.13-.26.25-.52-.26-.64a.8.8,0,0,0-.76.64,1,1,0,0,0,.64.89A5.15,5.15,0,0,1,267.87,58.12ZM267,44.72c1.14-.13,1.78,1.15,3.19,1.53C269,44.21,268.63,44.08,267,44.72Zm.12,18-.12.13h.12Zm.51,11.36a.47.47,0,0,0-.51.51C267.61,74.71,267.74,74.71,267.61,74.07Zm.26,2.29h-.51C267.49,76.49,267.74,76.62,267.87,76.36Zm-.38-41c.76-.13,1,.51,1.65,0C268.63,35.4,268.51,34.63,267.49,35.4Zm.63,18.89v-.38C268,54,267.74,54.16,268.12,54.29Zm.51-4.34h-.25c0,.13,0,.13.13.13A.12.12,0,0,0,268.63,50Zm.13,13a.13.13,0,0,0,.13-.13v.25h-.26Zm.64-15.7c0-.13-.13-.13-.38-.26C269.14,47.14,269.27,47.27,269.4,47.27Zm-.26,13.65c-.12.64,0,1,.9,1C269.91,61.31,269.78,60.92,269.14,60.92Zm.52-30.11c.12-.13.12-.26.12-.13v.13c-.25.12-.38.25-.64.38v.13A1.77,1.77,0,0,1,269.66,30.81Zm-.26,6c-.26.26-.26.39-.13.64.13,0-.25.26,0,0S269.78,37.19,269.4,36.8ZM269.91,57a1,1,0,0,0-.51.13C269.66,57.1,269.78,57.35,269.91,57Zm-.51,11.48c.13.26.26.39.51.26C269.78,68.32,269.66,68.32,269.4,68.45Zm.26-2.17c.51-.38.89-.76.12-1.53C269.4,65.39,269.27,65.77,269.66,66.28Zm.51-3.57c0-.13-.26-.13-.39,0C269.91,62.84,270.17,63.09,270.17,62.71Zm.12,14.93c-.12,0-.38.13-.51.13C270,77.9,270.29,77.9,270.29,77.64Zm-.38-22.84.13-.13h-.13Zm.26-6.13c.51,0,.51-.25.25-.63C270.17,48.16,269.91,48.29,270.17,48.67Zm.38,4.85c-.13-.25-.13-.25-.26,0s-.12.26.13.39S270.68,53.78,270.55,53.52Zm-.26-12.89v.64C270.8,41,270.93,40.76,270.29,40.63Zm1.92,8.68a1.36,1.36,0,0,0-1.28-.77c.77.64.64,1.54,1.53,1.66C272.85,49.69,272.46,49.44,272.21,49.31ZM272,45.1v.13h.26Zm.77,1.27c.13,0,.13-.12.13-.25S272.72,46.12,272.72,46.37Zm1.4,29.74-.13.13h-.12Zm2.94-30.63c-1,.39-1.15,1-1.15,2.3C276.29,46.89,276.67,46.25,277.06,45.48Zm3.44-.76a.12.12,0,0,0,.13.12s.13,0,.13-.12S280.76,44.59,280.5,44.72Zm2.68-.39a.46.46,0,0,0-.25-.12c-.51.63-.9,1.27-1.41,1.91.39.64.64.64,1.28.51C282.93,45.87,283.05,45.1,283.18,44.33Zm-.38,32.8c-.26-.38.77-.51.13-1.28A1,1,0,0,0,282.8,77.13Zm.77-30.88h.76C283.82,46.12,283.69,45.87,283.57,46.25Zm1.65,31.65.13.12V77.9Zm1.54-29.23v-.13h-.13Zm.76-3.06a.13.13,0,0,0-.13.13c-.12.25,0,.38.13.25s.13-.12.13-.25A.13.13,0,0,1,287.52,45.61Zm.38,1.53c.13.13.39.26.51,0A.27.27,0,0,0,287.9,47.14Zm1.15,29.35c-.12,0-.25.13-.12.13a.42.42,0,0,0,.12.25c.13,0,.13-.12.26-.25S289.18,76.36,289.05,76.49Zm.26-26.67V50l.13.13Zm1.4-2.42c-.25.89-.13,1.27,1.15,1.4A16.72,16.72,0,0,0,290.71,47.4Zm.38,2,.13.13v-.13Zm1,29.6.13.13-.13-.25Zm1.79-1.91v.13h-.13ZM294,48.67c-.26.13-.26.26,0,.51C294.41,48.93,294.28,48.8,294,48.67Zm1.15,29.23h0Zm6.12-2.43.13.13C301.43,75.47,301.43,75.47,301.3,75.47Zm3.83-1.4c-.38.25-.38.51-.25.89h-.26c-.13,0,0,0,.13-.13S305.51,74.58,305.13,74.07Zm-.51,4.21c0,.13.13.25.26,0v-.13C304.75,78.15,304.62,78.15,304.62,78.28Zm1.28-11a.27.27,0,0,0,.25.26c.26,0,.38-.26.26-.51s-.13-.13-.26-.13S305.77,67.18,305.9,67.3Zm.89,8.43c0,.12-.13.12-.26.25C306.79,76.11,306.92,76.11,306.79,75.73Zm.26-6.89.12.12v-.12Zm.25,2.8a.57.57,0,0,0,0-.64C307.05,71.26,307.17,71.39,307.3,71.64Zm1.92,6.13v0Zm.89-7.91c.13-.26-.13-.39-.51-.52C309.6,69.86,309.6,70.24,310.11,69.86Zm0-5.36c-.13,0-.64,0-.26.25.13.26.39.13.64-.13C310.36,64.62,310.24,64.37,310.11,64.5Zm.13,2c-.39.51-.13.76.38.89C310.75,67.05,311,66.54,310.24,66.54Zm.63,6.63h0Zm.51-1.27c.51-.26.39-.51.39-.9.25-.12.51-.25.12-.63v.76C311.38,71.13,311.38,71.39,311.38,71.9Z"/><path class="cls-1" d="M348.27,22.77c3.7-7,8.68-12.89,15.82-16.59,3.19-1.66,6.13-3.7,9.7-4.21,2-.39,4-1.28,6-1.41A76.7,76.7,0,0,1,390.51.43,37.59,37.59,0,0,1,402.89,4c1.91.76,3.31,2.17,4.84,3.32a51.83,51.83,0,0,1,4.73,4.33c1.53,1.66,1.66,4,2.17,6.13.51,2.68-.26,5.36,0,8,.38,4.21-.13,8.42-.13,12.76,0,2.81-1,3.83-3.83,3.83-3.45,0-6.89,0-10.34-.13-2.42,0-3.19-.89-3.57-3.19a29.5,29.5,0,0,1-.13-6.64,29.88,29.88,0,0,0-.63-7.52,7,7,0,0,0-5-5.24c-4.34-1.4-8.55-.38-12.51,1.41a21.34,21.34,0,0,0-8.16,7c-2.05,2.93-2.81,6.25-4.47,9.31a4.6,4.6,0,0,0-.51,2.3c-.26,3.95-.77,8,0,12a26.86,26.86,0,0,0,6,12.63,24.18,24.18,0,0,0,6.38,5.1c1.78,1.15,3.95,1.41,6.12,1.66,3.83.77,7.4-.51,11-2,3.95-1.66,6.89-4.72,10.33-7.4,1.92-1.53,4.21-1.66,5.75.25,1.91,2.3,4.21,4.09,6,6.38,1.41,2.05,1.79,4.47,0,6.26-3.06,2.93-5.74,6.25-9.44,8.55-2.17,1.27-4.34,2.68-6.51,3.7a41.25,41.25,0,0,1-12.89,3.7c-3.82.38-7.53.89-11.35.13a50.5,50.5,0,0,1-14-5.23,42.72,42.72,0,0,1-9.19-8A39.58,39.58,0,0,1,346,63.86a58.56,58.56,0,0,1-2.68-12.51,64.33,64.33,0,0,1-.25-6.89A41.89,41.89,0,0,1,348.27,22.77Zm-.13,25.65h.26a3.78,3.78,0,0,0,1.78,2,3.36,3.36,0,0,0-1.91-2Zm1.28-3.32-.13.13h.13Zm.51-4.85h-.13v.13l.13.12Zm.38,12.63c-.25-.12-.38-.12-.51.26C349.93,52.88,350.31,53.39,350.31,52.88Zm-.51,1,.13.12v-.25Zm.64,3.82c-.26-.38-.38-.25-.64,0C350.06,58,350.18,58,350.44,57.73Zm.12-11.61c-.25.13-.76-.13-.63.51.38-.13.63-.26.63-.51l.13-.13Zm.9-11.23c.38.13.38-.13.51-.26h0A.67.67,0,0,1,351.46,34.89Zm.13,22.59a1.42,1.42,0,0,0,2,.38C352.86,57,352.35,56.71,351.59,57.48ZM351.71,42l.13.12V42Zm.26,7.4h.13c-.13-.13,0-.26,0,0s.12-.13,0,0Zm0,12.76h0v0Zm.76-2.55c-.25-.26-.38-.26-.63,0C352.35,59.9,352.48,59.78,352.73,59.65Zm-.51-14.3v.13l.13-.13Zm.77,5.49a12.71,12.71,0,0,0-.38,1.28,5.17,5.17,0,0,1,1.27.13C353.5,51.61,353.63,51.1,353,50.84Zm-.38,4c0,.13,0,.13.12.13a.13.13,0,0,0,.13-.13.13.13,0,0,1-.13-.13A.12.12,0,0,1,352.61,54.8Zm.89-21.7.13-.12c0-.13-.13-.26-.26-.39s-.25.13-.13.26A.27.27,0,0,0,353.5,33.1Zm1.15,12.51c-1.41.38-1.15,1.15-1.15,1.91-.26,0-.38,0-.26.26l.26-.26A10.6,10.6,0,0,1,354.65,45.61Zm-.9-2.55-.12-.13v.38C353.63,43.18,353.75,43.18,353.75,43.06Zm0,20.67-.12.13h.12ZM354,28.25a.4.4,0,0,1-.13.26c0,.13-.25.25-.13.51,0-.26.13-.38.13-.51A.45.45,0,0,1,354,28.25Zm.13,40.46v.38C354.27,68.84,354.39,68.71,354.14,68.71Zm.38-7.79h-.25C354.39,61.05,354.52,61.18,354.52,60.92Zm-.13-20.67h.26C354.52,40.12,354.39,40,354.39,40.25Zm.64-4.72c-.25.38-.64.38-.38.76C354.9,36.29,355,36.17,355,35.53Zm.13,29.6c-.13,0-.64-.12-.26.26.13.13.39,0,.64-.13C355.41,65.26,355.29,65.13,355.16,65.13Zm0,2.05h.51C355.41,67.05,355.29,66.92,355.16,67.18Zm.25-12.13c0,.26-.12.64.26.64.26-.25.64-.51.26-.89C355.67,54.8,355.41,54.8,355.41,55.05Zm0-3.95a.5.5,0,0,0,.9,0C356.05,50.84,355.8,50.71,355.41,51.1Zm.52-16.59c0-.13.12-.26.12-.39a1.29,1.29,0,0,0-.38-.12c0,.12-.13.25-.13.38S355.8,34.51,355.93,34.51Zm-.39,15.69.13-.12h-.13Zm1.79-11.86c-.64-.39-1-.52-1.53.12-.13.13-.26.26,0,.13v-.13A1.64,1.64,0,0,0,357.33,38.34Zm.13,3.82c-.51-.25-.9-.38-1.41.26C357,42.93,357,42.93,357.46,42.16Zm-.77,16.47-.13-.13v.25Zm.13-10.21c-.13.12-.13.25,0,.25s.38-.13.13-.38A.13.13,0,0,1,356.82,48.42Zm.25,19.14a.12.12,0,0,0-.12.13l.12.12a.12.12,0,0,1,.13-.12A.13.13,0,0,1,357.07,67.56Zm.64-35.1v-.12c-.13-.13-.25-.39-.51-.13.26,0,.38,0,.51.13Zm.13,2.94c-.38-.13-.51,0-.38.51C357.71,35.78,357.84,35.66,357.84,35.4Zm.25,22.72L358,58c-.13,0-.13.13-.26.13l.26.25C358,58.24,358,58.24,358.09,58.12ZM358,45v-.51C357.84,44.72,357.71,44.84,358,45Zm.89,14.68c-.38-.26-.51,0-.64.13s-.25.12-.38.25c.38.25.25-.13.25-.25C358.35,59.78,358.6,59.9,358.86,59.65Zm-.51-10h0ZM358.6,70h-.12l-.13.13Zm.26-16.2a.13.13,0,0,0-.13.13l.13.12.13-.12C359,53.78,359,53.78,358.86,53.78ZM359,34.51a1.22,1.22,0,0,0-.13.38c.13,0,.26.13.38.13a.25.25,0,0,0,.13-.39C359.24,34.63,359.12,34.51,359,34.51Zm.76,11.23c-.25-.26-.51-.13-.76.13s0,.63.51.89C359.88,46.5,360.14,46.12,359.75,45.74Zm-.25,10.59-.13-.13h-.25c.12.13.12.13.12.26C359.37,56.33,359.37,56.33,359.5,56.33ZM359.37,63l1.15-1.15C359.12,61.56,359.12,62.07,359.37,63Zm.51-21.45c0-.12,0-.38-.13-.38s-.38,0-.38.26a.45.45,0,0,0,.13.25C359.62,41.65,359.88,41.65,359.88,41.52Zm-.13,26.17c.13-.39-.13-.39-.38-.26A1.91,1.91,0,0,0,359.75,67.69ZM359.5,69a.41.41,0,0,0,.25.13c.26-.13.26-.25.13-.51A.33.33,0,0,0,359.5,69Zm.25-18.37c-.38.63-.13.89.64,1C360.39,51,360.39,50.46,359.75,50.59Zm.39-17a.42.42,0,0,0,.12-.25.27.27,0,0,0-.25-.26.28.28,0,0,0-.26.26C359.88,33.49,360,33.49,360.14,33.61Zm.25,31.14c-.38-.13-.51.13-.64.64C360.39,65.26,360.52,65.13,360.39,64.75Zm-.51-35.35c-.13.13,0,.26.13.39l.13-.13c0-.13,0-.13-.13-.26Zm.64,47.09c.13,0,.13-.13.25-.13,0-.38-.25-.63-.38-1-.38.39-.64.64-.25,1.15Zm.13-15.69.12.12V60.8Zm1,4.33v.13l.13.13Zm.76-34.71.13.13h-.13l-.13-.25Zm.26,33.31c-.13.38-.26.51.25.64C363.2,64,363.07,63.86,362.69,63.73Zm0,7.79v.38C362.82,71.77,363.07,71.64,362.69,71.52Zm.89-4.34c.77,0,.89-.51,1.28-.64,0-.13,0-.26.13-.26-.13,0-.13.13-.13.26A1.42,1.42,0,0,0,363.58,67.18Zm.26,6.76c.12,0,.25-.13.12,0,.13-.13,0,0-.12,0l-.13.13Zm2.93,2.68c-.38-.13-.38,0-.25.38C366.77,77,366.77,76.87,366.77,76.62Zm4.09.64h0v0Zm2.55-2.43V75h-.64c-.51-.51-1-.51-1.79.25a5.11,5.11,0,0,1,1.79-.25c.25.13.38.13.51,0Zm5.36.77a.47.47,0,0,1,.38.13A.47.47,0,0,0,378.77,75.6Zm7.78,2.17.13.13-.13-.13-.13-.13Zm5,.51a.39.39,0,0,0,.25.13.24.24,0,0,0,0-.39.41.41,0,0,1-.25.13Zm1.53-.77.13.13.13-.13Zm4.34,2.17c-.38,0-.26.38-.13.64C397.65,79.94,397.65,79.68,397.4,79.68Zm0-4.47c.25.13.38-.12.25-.25S397.27,75,397.4,75.21Zm3.06.26c.13-.51.26-.89-.25-1.15C399.82,74.83,400.21,75.09,400.46,75.47Zm1.41-39.56a.49.49,0,0,1,.12.38C402.12,36.17,402.12,36,401.87,35.91Zm2,33.56h0Zm1.78-.89-.12-.13-.13.13Zm.64,1.15h-.13l-.12.13h.12A.13.13,0,0,0,406.33,69.73Zm0-34.59L406.2,35v.38C406.2,35.27,406.33,35.27,406.33,35.14Zm.26,37.27c.76,0,1.14-.26,1-1.15C406.71,71.26,406.33,71.39,406.59,72.41Zm.12,4.34h-.12V77c.12-.13.12-.13.25-.13A.12.12,0,0,1,406.71,76.75ZM408.37,29a5.6,5.6,0,0,1-1.53.13c.64.38,1.15.25,1.41-.13l.25-.13Zm0,7.53c.26-.13.51-.26.13-.64a.87.87,0,0,0-.13.77h-.12Z"/><path class="cls-1" d="M425.22,70.75a15.17,15.17,0,0,0,2.43,0,2,2,0,0,0,1.15-1.53c1-3.83,2.29-7.66,3.44-11.49,1.28-4.59,2.55-9.19,4.21-13.78,1.28-3.83,2.3-7.78,3.45-11.74a59.24,59.24,0,0,0,2.55-9.32,3.07,3.07,0,0,0-3.7-2.17,4.59,4.59,0,0,1-2.3,0,3.45,3.45,0,0,1-3.06-3.57c.38-3.44,0-6.76.13-10.21.13-3.06,1.27-4.08,4.34-4.21,6.5-.38,12.88.13,19.39,0,8.42-.13,16.85.13,25.27-.13a4.93,4.93,0,0,1,1.91.13,3.25,3.25,0,0,1,2.81,2.94,16.69,16.69,0,0,1,.13,3.57c-.13,2.42-.13,4.85-.13,7.4,0,3.19-.64,3.83-3.83,4.08-1.53,0-3.19-.12-4.46.77a2.73,2.73,0,0,0-.26,2.94c1.66,4.59,2.94,9.44,4.21,14.16,1.53,5.1,3.07,10.34,4.6,15.44,1,3.45,2,6.89,2.93,10.47.51,1.91,1.28,3.82,1.91,5.61,1.41.77,2.69.38,3.83.38,2.94.13,3.7.9,4.09,3.83a19.37,19.37,0,0,1,0,7.66,8.11,8.11,0,0,0,.25,2.55c.39,2.17-.64,3.7-2.68,4a14.8,14.8,0,0,1-4.72.38c-6.64,0-13.4-.38-20,.13a63.38,63.38,0,0,1-6.89-.26c-2.05-.12-2.94-.89-3.07-3.06-.13-3.83-.25-7.78-.13-11.61,0-2.55.9-3.19,3.58-3.19,1.4-.13,2.81.25,4.08-.51.89-5.24-1-6.64-4.59-7.66a18.42,18.42,0,0,0-5.87-.26c-1.92.13-4,.39-5.87.52a4.22,4.22,0,0,0-4.09,3.31c-.25,1.28-1,2.3-.63,3.83,1.4.64,3.06.51,4.59.64,3.06.13,3.45.64,3.57,3.7.13,3.45-.25,6.89.26,10.34.38,2-1.53,3.83-4,4.08a12.08,12.08,0,0,1-3.7,0,30.29,30.29,0,0,0-5.87,0c-3.7.13-7.4,0-11.1-.13-2.68-.25-5.23.13-7.78.13A6.25,6.25,0,0,1,420.25,87V78a2.1,2.1,0,0,0,0-2.42V73.17A4.69,4.69,0,0,1,425.22,70.75Zm7.4,4.34a1.88,1.88,0,0,0,.39-.51c.25,0,.25-.13.12-.13s0-.13-.12.26c-.26,0-.39.25-.39.5h-.12Zm2.43-3.83c-.13.26-.13.51.13.64C435.3,71.77,435.3,71.52,435.05,71.26Zm2.29,6.89a3,3,0,0,0-.25-.25C437,78.15,437.09,78.15,437.34,78.15Zm.13-16,.13-.13h-.13Zm.13,7.53c0,.13-.13.25-.13.38s.26.13.39.13.25-.13.12-.38C437.86,69.86,437.73,69.73,437.6,69.73Zm0-4.72c.26.12.51.25.77-.13C438,64.88,437.73,64.5,437.6,65Zm.89,2.8c.13-.51.26-.89-.38-1C437.73,67.3,438,67.56,438.49,67.81Zm.13-14.16c-.13.13,0,.26.13.26H439c0-.26,0-.39-.25-.39A.13.13,0,0,0,438.62,53.65Zm.13,19.91c.13-.13.13-.13-.13-.13C438.62,73.56,438.62,73.56,438.75,73.56Zm3.06-3.45a11.54,11.54,0,0,0-2.17.64c-.12.38-.38.89-.64,1.53C440.41,71.9,440.79,71.13,441.81,70.11Zm-1.27-3.32c-.39.26-.39.51-.26.77a.55.55,0,0,0,.89.13C441.43,67.05,441.17,66.67,440.54,66.79Zm-.13-6.51c.38.13.51-.12.76-.63C440.41,59.52,440,59.52,440.41,60.28Zm.51-10.84a2.24,2.24,0,0,0-.64.89,15.88,15.88,0,0,0,2.43.64C442.07,50.08,441.68,49.57,440.92,49.44Zm-.64,6.63.13-.12h-.13Zm.13,8.43-.13-.13v.13Zm.25-7.15s-.25.13-.25.25C440.66,57.6,440.92,57.6,440.66,57.35Zm.13,18.5-.25-.12V76ZM443,65c.13-.51-.13-.64-.51-.77a1.11,1.11,0,0,0-1.66-.64c.64.26,1,.9,1.79.51C442.45,64.5,442.45,64.88,443,65Zm-1.79,9.31c-.12,0-.12,0-.25.13C441.05,74.45,441.05,74.45,441.17,74.32Zm0-18.76c.9.26,1-.38,1.28-.76h0C441.94,54.8,441.05,54.29,441.17,55.56ZM441.81,45l-.13.13h.13Zm.38,33.31c0,.13-.12.25-.25.38C442.32,78.66,442.32,78.53,442.19,78.28Zm.77-3.45a3.3,3.3,0,0,1-.77-.64C442.19,75,442.45,75.09,443,74.83ZM442.45,44c.26.26.51.51.64.13s-.13-.64-.64-.51Zm.89,26.8a.37.37,0,0,0-.25.13C443.21,70.88,443.34,70.88,443.34,70.75Zm.26-29.1c-.13,0-.26.13-.39.13C443.34,41.78,443.47,42,443.6,41.65Zm-.26,18c0,.13.13.13.26.13A.45.45,0,0,1,443.34,59.65Zm.26-1.41c.38-.25.76-.38,1.15-.64-.13-.63-.64-.5-1-.63C443.6,57.48,443.21,57.86,443.6,58.24Zm.13,8.55a.45.45,0,0,1-.26.13C443.6,66.92,443.73,66.92,443.73,66.79Zm0-17.1c.51,0,.63-.12.51-.76C443.73,49.06,443.34,49.31,443.73,49.69Zm0,4a.13.13,0,0,0-.13-.13C443.6,53.65,443.6,53.65,443.73,53.65ZM443.85,41c1-.39,1.54-.52,2.17-.77A1.8,1.8,0,0,0,443.85,41Zm.64-4.34-.25.25C444.36,36.93,444.36,36.8,444.49,36.68ZM445,62.07c.13-.13-.13-.51-.25-.51-.39,0-.51.13-.51.51A.47.47,0,0,0,445,62.07Zm-.51,11c-.25.12,0-.13-.13.25h-.12a.12.12,0,0,0,.12-.13C444.62,73.17,444.62,73.05,444.49,73.05Zm.64-26.93c-.26-.38-.38-.38-.64-.13C444.75,46.25,444.87,46.25,445.13,46.12Zm-.26,5.74V52c-.12,0-.51,0-.12.38v-.51Zm0,3.58.26.12v-.12Zm1.15-6c-.25.13-.63.25-.89.38.26.26.51.51.51.77a.13.13,0,0,0,.13-.13C446.41,50.2,446.28,49.82,446,49.44Zm.39,3.57h-.26c.13-.25.13-.51-.26-.38.13.13.26.13.39.25ZM446,60.8c.13,0,.13-.13.13-.26S446,60.67,446,60.8Zm.13-17.49.13.13a2.47,2.47,0,0,0,2.17,1.28c-.77-1.41-.77-1.41-2.3-1.15Zm.51-9.57c-.13,0-.25.26-.13.26s.26.25.26.25.13-.25.25-.38A.6.6,0,0,0,446.66,33.74Zm.77,20.93a.41.41,0,0,0-.39.38,1.38,1.38,0,0,0,.64.13,4.51,4.51,0,0,0,.26,2.3,2.51,2.51,0,0,1,1.66.76c-.64-.89-1.28-1.91-1.92-2.93C447.55,55.05,447.55,54.8,447.43,54.67Zm0-3.32c-.26.26-.26.39,0,.64C447.81,51.86,447.68,51.61,447.43,51.35Zm.12-5.74-.12-.13v.13Zm-.12,3.32c.38.25.63.25.76-.13C447.94,48.67,447.55,48.29,447.43,48.93Zm.12,4.72a.48.48,0,0,0,.39-.13C447.68,53.52,447.55,53.27,447.55,53.65Zm.13-11.74c.38.38.64.13.77-.26C448.06,41.4,447.81,41.4,447.68,41.91Zm.77,8.8a.42.42,0,0,0-.26-.12c-.13-.26,0-.51-.38-.26.13,0,.25.13.38.13S448.06,51,448.45,50.71Zm-.51,29.61h0C447.81,80.06,447.94,80.19,447.94,80.32Zm0-49.26c.51,0,.76-.25,1.14-.64C448.45,30.3,448.06,30.42,447.94,31.06ZM449.47,51c-.13-.13-.26-.13-.26.13A.4.4,0,0,0,449.47,51Zm-.26,2.55c0,.39,0,.77.77.51C449.85,53.65,449.72,53.27,449.21,53.52Zm.13-16.46v0Zm.51,2.81h0Zm.38-10.08h.13v-.13Zm.64,24.88.13.13c.26.38-.51.64-.13.89.39-.25.64-.51.13-.76Zm.39-22,.25.13v-.13Zm.63.89c-.25,0-.25.13-.51.51,0-.12,0-.12.13-.25S452,34,451.89,33.61Zm-.38,4.6-.13-.13h.13Zm2,19.27h.13c.25-.26.38-.51-.13-.77C453.55,57,453.3,57.1,453.55,57.48Zm3.32-5.74c1.28-.26,2.81-.26,4.21-.39A24.9,24.9,0,0,0,464,51,2.29,2.29,0,0,0,465.8,48c-.63-2.94-1.4-5.88-2-8.81a29.15,29.15,0,0,1-1-5.62,2.77,2.77,0,0,0-1-2.29c-2.55-.64-3.32-.13-3.57,2.29-.13.51-.13,1-.26,1.41-1.79,4.85-2.17,10.08-3.57,15.06a3.36,3.36,0,0,0,0,1.14A2.48,2.48,0,0,0,456.87,51.74Zm-.38,5.1-.13.13h.13Zm1.78,0h-.12c-.26,0-.13.13,0,.26S458.27,57,458.27,56.84Zm.9,0,.12.13v-.13Zm3.57-.89c-.26.25-.64.12-.64.51C462.36,56.46,462.61,56.71,462.74,56Zm2.68-.51h0Zm2,.25c-.51.38-1.15.26-1.27,1.41C466.7,56.46,467.33,56.71,467.46,55.69Zm1.28,1-.13.13a.13.13,0,0,0,.13.13.12.12,0,0,0,.12-.13S468.86,56.71,468.74,56.71Zm.38-2c.38-.13.51-.26.51-1.28C469.12,54,468.74,54.16,469.12,54.67Zm2.68-15.31c-.51-.64-.89-.64-1.4.12A2.69,2.69,0,0,0,471.8,39.36ZM473,41.52c.13-.25-.13-.38-.13-.5-.38-.52-.76-.52-1.28-.13-.25.13-.63.25-1.14.51,1,.25,1.66-.26,2.42-.38C472.82,41.14,472.69,41.4,473,41.52Zm-2.17-5.1c.13-.25.13-.38-.13-.51C470.65,36.17,470.65,36.29,470.78,36.42Zm.51,15.7c.13-.38.25-.64-.13-.9C470.91,51.48,470.78,51.86,471.29,52.12Zm-.13,5.74c-.12.13-.25.38-.12.51s.38.13.63,0A.47.47,0,0,0,471.16,57.86Zm.26-3.83a.25.25,0,0,0-.38,0C471.16,54.29,471.29,54.29,471.42,54Zm-.26-4.59.51.51C471.8,49.31,471.8,49.06,471.16,49.44ZM472.44,30c-.38-.51-.77-.38-1.15.13C471.67,30.3,472.18,30.68,472.44,30Zm-.9,18.12v.26a.42.42,0,0,0,.52,0C471.93,48.16,471.8,48,471.54,48.16Zm.77,10.21c.64,0,1,.13,1.28-.64C473.08,57.73,472.69,57.48,472.31,58.37Zm.13-2.93c.25.25.38.12.51,0C472.82,55.31,472.69,55.05,472.44,55.44Zm.89-2.3c-.25-.26-.51-.26-.51.25-.25,0-.25,0-.25.26.12,0,.25-.13.12-.38C473,53.39,473.2,53.39,473.33,53.14Zm-.13-15.06c0,.13.26.26.26.26.38-.26.25-.64.13-1.15C473.08,37.44,472.82,37.7,473.2,38.08Zm1.53,23.86-.12-.12a1,1,0,0,0-.64-1c-.38.12-.77.12-.51.76a2.06,2.06,0,0,0,1.27.26Zm-.89-29.09-.13.13v0Zm.39,16.84c.5,0,.63-.38.76-1C474.35,48.93,473.71,48.8,474.23,49.69Zm0-2.68c.25,0,.25-.25.12-.25s-.25-.13-.25.13S474.23,47,474.23,47Zm.12,6.64a13.08,13.08,0,0,0,.64,1.53C475.12,53.78,475.12,53.78,474.35,53.65Zm.64,5.61c-.38-.12-.64-.25-.64.39A.6.6,0,0,0,475,59.26Zm-.38-17.35V42c.25.25.12.89.76.76,0-.51-.38-.51-.76-.64Zm.38,9.83-.13-.13v.13Zm.26-6.26.12.13v-.13Zm.89.89c-.26-.12-.38,0-.38.26s0,.26.12.26.39,0,.51-.26C476.27,46.5,476.27,46.37,476.14,46.37Zm.13-6.63a.48.48,0,0,1-.39.13C476,40,476.14,40.12,476.27,39.74Zm.12,12.76a.45.45,0,0,0-.25.13.13.13,0,0,0,.13.13C476.39,52.76,476.39,52.76,476.39,52.5Zm.13,13.27c-.38,0-.38.26-.25.38S476.78,66,476.52,65.77Zm-.25-8.93.12.13v-.13Zm.12-11.61h.26c0,.64.26,1,1,1.27C477.54,45.61,477,45.48,476.39,45.23Zm.13,35.6h0l-.13-.13Zm.13-39.69s-.13,0-.13-.12A.12.12,0,0,1,476.65,41.14Zm.13,18.64c-.26.25-.26.38,0,.5C477.16,60.16,476.91,60,476.78,59.78ZM476.91,39c.25.51.5.39.76,0C477.41,38.72,477.16,38.59,476.91,39Zm0,16.21c.38.26.63.13.76-.25C477.29,54.54,477,54.67,476.91,55.18Zm.76,8.42c-.26.26-.64.39-.76,1C477.8,64.62,478.05,64.37,477.67,63.6Zm.38-19c-.12-.13-.25,0-.51,0C477.67,44.84,477.93,44.72,478.05,44.59Zm-.25,6.12c.25-.25.38-.51.64-.63s.51,0,.51-.39c-.39-.12-.51,0-.51.39C478.18,50.08,477.54,50,477.8,50.71Zm1.27,19.4c-.25-.13-.51-.13-.51.51C479.07,70.49,479.33,70.49,479.07,70.11Zm0-12.63c0,.12,0,.12.13.25Zm.64-3.45c.13-.12.13-.38-.13-.38s-.38.13-.38.38S479.58,54.29,479.71,54Zm.39,11c-.26-.13-.52.12-.64.38C479.84,65.52,480.1,65.52,480.1,65Zm-.52-2.68c0,.12.13.12.13-.13A.13.13,0,0,0,479.58,62.33ZM480,50.2c0,.13,0,.13.13.13Zm.25-2.29h-.12V48Zm0,20.41-.12-.12v.12Zm.26-17.1.12.13c.26.13.26,0,.26-.13A.25.25,0,0,0,480.48,51.22Zm.51,4.22c.25-.26.38-.39,0-.64C480.73,55.05,480.73,55.18,481,55.44Zm0,22.2.13-.13H481Zm1-16.84c-.13-.39-.38-.26-.64-.13C481.5,61.31,481.75,61.31,482,60.8Zm.25,17.86c.26.13.52,0,.52-.51C482.39,78.15,482.26,78.28,482.26,78.66Zm.26-13.14c.13-1,1-1.28,1-1.92s-.38-.89-1-1C483.54,63.47,481.63,64.37,482.52,65.52Zm1.66,5a1.84,1.84,0,0,0-.89.13c.38.51.63.26.89-.25Zm.51,8c-.13.13-.38.13-.26.39.13-.13.13-.26.13-.51h.13Zm.13-5.61c.38.13.38-.13.51-.38C484.94,72.41,484.82,72.54,484.82,72.92Zm2.8,1c.13.38.13.77.77.64,0-.51.13-1-.26-1.41C487.62,73.43,487.62,73.68,487.62,73.94Z"/><path class="cls-1" d="M631.07,70.37a3.59,3.59,0,0,1,4.08,3.44V85.55A3.15,3.15,0,0,1,634,88.1c-2.68.9-5.74.77-8.8.64a21.3,21.3,0,0,0-4-.12,78.16,78.16,0,0,1-9.31,0c-3.7-.26-7.53.12-11.23.12s-4.6-1.4-4.6-4.85c0-3.19.51-6.38.13-9.57-.26-2.17,1.28-3.57,3.44-3.7,1.28-.13,2.56.26,3.71-.13,1.27-.63,1.14-1.78,1.14-2.93,0-7,0-14,.13-21.06,0-3.19.13-6.51.13-9.82-.13-4.47.38-8.94,0-13.4-.13-1-.26-2.05-1.4-2.56a14.72,14.72,0,0,0-2.3,0c-3.57.26-5.23-1.53-4.85-4.84a5.81,5.81,0,0,0,0-2.56,7.14,7.14,0,0,1,.13-3.31,10,10,0,0,0,0-3.32c-.26-2.55.89-4.09,3.57-4.09,6,.13,12-.51,18-.12,3.07.25,6.26,0,9.45,0,13.14,0,30.62,1,36.62,15.18a26.87,26.87,0,0,1,2,12.64c-.51,14-14.54,21.31-25.9,26.16a53.35,53.35,0,0,0-11.49,7c-1.91,1.41-2.17,4.85-.76,7A6.62,6.62,0,0,0,631.07,70.37Zm-26.93,9.57h.51C604.4,79.81,604.27,79.68,604.14,79.94ZM608,73.56a2.24,2.24,0,0,0,1.53.38C608.73,73.68,608.73,73.05,608,73.56ZM608.1,77c.51-.13.76-.38.38-.89C608,76.24,607.84,76.49,608.1,77Zm.63,3.32c.13,0,.39-.26,0-.38-.12,0-.25.25-.5.38C608.48,80.32,608.61,80.45,608.73,80.32Zm.9-26.29c0-.12-.13-.25-.26,0s.13.26.13.38C609.63,54.29,609.76,54.16,609.63,54Zm1.53,18.63a1.21,1.21,0,0,0-1.66-.25C610.14,73.05,610.52,72.79,611.16,72.66ZM609.88,51.1l.13.12.13-.12a.13.13,0,0,0-.26,0ZM610,64.5c0,.12-.25.63.26.89a2.06,2.06,0,0,0,.89-1.28C610.65,64.37,610.27,64,610,64.5Zm0,12.37c0,.13.13.26.38.13,0-.25-.12-.25-.12-.38C610.14,76.75,610,76.75,610,76.87Zm2.17-16.71c-1.15,0-1.79.38-2,1.27A2.29,2.29,0,0,0,612.18,60.16ZM611.8,42c-.38-.39-.38-1-1.41-1C610.78,41.65,611,42.16,611.8,42Zm-1,5.61q-.39-.19-.39.39s.13.25.26.25a.33.33,0,0,0,.38-.38C610.91,47.78,610.91,47.65,610.78,47.65Zm-.26,20.93c0,.13-.13.26-.13.38C610.39,68.84,610.52,68.71,610.52,68.58Zm.26-13.27c0,.13.13.13.13.25.12-.12.12-.12.12-.25Zm.51-20a.4.4,0,0,1-.26-.13A.4.4,0,0,1,611.29,35.27ZM611,45.87a.26.26,0,0,0,.39,0C611.29,45.61,611.16,45.74,611,45.87Zm.39,22.2c0-.13-.13-.26-.26-.13v-.13Zm-.26,3.06.13-.13-.13.13v0Zm.26-4.85a.13.13,0,0,0-.13-.13C611.29,66.28,611.29,66.28,611.42,66.28Zm0-22.84c.12.25.38.25.63,0C611.8,42.93,611.54,42.93,611.42,43.44Zm.25,30.75a1.41,1.41,0,0,1,.38.26v-.51h.13A.94.94,0,0,1,611.67,74.19Zm.26-29.35a.13.13,0,0,0-.13.13Zm.76-4.72c.13.13,0,0,0-.25s.26-.39.38-.64c-.25-.26-.38-.38-.76-.26-.13.39-.13.77.38.9C612.69,40,612.82,40.25,612.69,40.12ZM613,62.71c-.64.26-.9.51-.39,1.15.77,0,.77-.39.9-.89C613.33,62.84,613.2,62.84,613,62.71Zm-.64-13h.13v-.12Zm.51-3.7c-.13-.25-.13-.25-.38-.25C612.56,45.87,612.69,45.87,612.82,46Zm0,10.34v0Zm.64-6.25h-.13v.12Zm.38-12.77c0,.13.13.13.26.13S614,37.31,613.84,37.31Zm0,24.25a.47.47,0,0,1,.38-.13C614.1,61.31,614,61.31,613.84,61.56ZM614.1,75c-.26,0-.26.13-.13.13A.13.13,0,0,1,614.1,75Zm.25-22.46c0-.13-.25-.13-.25,0s.12.26.12.38C614.35,52.76,614.48,52.63,614.35,52.5Zm.89,13.91c-.12-.64-.25-1-1.14-1C614.22,66,614.48,66.54,615.24,66.41Zm-.89-30.63c0-.12,0-.12-.13-.25C614.1,35.66,614.1,35.78,614.35,35.78Zm0,10.09s-.13,0-.13.12l.13.13c.13,0,.13,0,.13-.13Zm.77-3.45h-.77C614.6,42.67,614.86,42.8,615.12,42.42Zm-.52,35.22c.13,0,.26-.13.52-.13C614.86,77.51,614.73,77.51,614.6,77.64ZM615.12,54c0,.26.12.26.25.13s-.13-.25-.13-.38A.41.41,0,0,0,615.12,54Zm.38,17.61c.38,0,.64.51,1.28.13-.26-.64-.64-1.15-1.28-1-.38.38,0,.64,0,.89h0Zm.64-33.3a.27.27,0,0,0,0-.52c-.26-.12-.39,0-.64.26C615.75,38.46,616,38.46,616.14,38.34Zm-.51,25.9.12.13v-.13Zm.63-28.07a6.28,6.28,0,0,1-.12-.64C615.63,35.91,615.5,36,616.26,36.17Zm-.51,19.9v0Zm.26-7.78c.38.64.77.64,1.4-.13C616.78,47.78,616.39,47.52,616,48.29Zm.38,9.06.13.13c-.13.38-.77.89.26,1.15,0-.39.12-.9-.39-1.15Zm1-2.55c-.51-.26-.76,0-.89.51C617.16,55.56,617.41,55.31,617.41,54.8ZM616.65,53c.13,0,.13,0,.13-.13Zm0,25.4v0Zm1.4-19a.66.66,0,0,0-.89.26c.25.76.76.76,1.4.38C618.31,59.78,618.18,59.52,618.05,59.39ZM617.8,58c0-.26,0-.51-.39-.39Q617.61,58,617.8,58Zm-.26-6.51c.13.13.13.26.26.26.25.25.38.63.89.12h-.89C617.8,51.61,617.92,51.48,617.54,51.48Zm.13-10.72a.46.46,0,0,1,.38-.13C617.92,40.5,617.8,40.5,617.67,40.76Zm0,21.18c.13,0,.13,0,.25-.12A.41.41,0,0,0,617.67,61.94Zm2.3-17.1c-1,0-1.41-.63-2.17-.38C618.31,45.23,618.82,45.1,620,44.84Zm-1.92,20.93v0ZM619.58,33c-.89-.39-1.15.12-1.4.51C618.82,33.87,618.94,33.23,619.58,33Zm-1.4,15.18v.13l.25-.13Zm.38-6-.13.13a.4.4,0,0,0,.13.26Q618.76,42.55,618.56,42.16Zm.38,28.59v0Zm.51-31.52a.61.61,0,0,0,.13.76C620.22,39.74,620.22,39.48,619.45,39.23ZM620,58.12c-.39.12-.52.25-.52.51C620.09,58.88,620.22,58.75,620,58.12Zm-.26-22.34v.13h.13Zm0,28.59.13-.13h-.13Zm.26-9.7-.13.13a.13.13,0,0,0,.13.13l.12-.13Zm.38,1.15c-.13-.13-.38-.26-.51,0C620,56.07,620.09,56,620.35,55.82Zm-.38-6c.25.13.38.13.51-.25C620.22,49.44,620,49.31,620,49.82Zm.76,23.35c-.13-.38-.13-.76-.25-1.14-.39.51,0,.76.12,1Zm0-43.51-.13.13h.13ZM621,54.29c.38,0,.51-.26.38-.9C621,53.65,620.48,53.78,621,54.29Zm0,13.52-.13-.12v.12Zm.38-20c.25.26.38.13.64-.13C621.75,47.52,621.5,47.4,621.37,47.78Zm3.45,9.82c-.77-.12-1,.26-1.28.77a1.14,1.14,0,0,0-.64.13c0-.38.26-.77-.13-1-.25.38-.89.51-.89,1.27.51.13.76-.38,1.15-.38,0,.13.13.13.25.26a.28.28,0,0,1,.26-.26C624.18,58.63,624.82,58.75,624.82,57.6ZM622,45.48c.12.26.25.51.63.26C622.64,45.35,622.39,45,622,45.48Zm.38,27.31v.13c.13,0,.13-.13.25-.13S622.52,72.66,622.39,72.79Zm.51-18.12c.89-.26.89-.76.77-1.4C622.9,53.52,622.77,53.91,622.9,54.67Zm.38-5.36c-.12,0-.12,0-.12.13A.12.12,0,0,0,623.28,49.31Zm0,13.4h.13l-.13-.26Zm.64-3.19c-.13.26.13.51.38.51s.26-.25.39-.51C624.18,59.26,623.92,59.39,623.92,59.52Zm1.15-7.91c.38-.39.38-.64.13-1C624.82,50.84,624.94,51.22,625.07,51.61Zm.89,6c.64.39,1.28.52,1.79-.12.38-.13.64-.26.51-.77-.51,0-.38.51-.51.77C627.24,57.35,626.6,56.33,626,57.6Zm2.68-15.31a104.42,104.42,0,0,0,9.83-6.89c2.55-2,4.59-4.47,5.23-7.91a7.71,7.71,0,0,0-5.61-5.87,23.11,23.11,0,0,0-9.32-1c-1.79,1-2.42,2.29-2,4.08.13.51,0,1,.13,1.66.25,1.91-.39,3.7-.39,5.61.13,3.07.64,6.13.26,9.19a1.76,1.76,0,0,0,.38,1.53C627.75,42.93,628.13,42.55,628.64,42.29Zm-1.91,13.53-.13-.13-.13.13a.13.13,0,0,0,.13.13Zm.76-.51c-.12.51.13.64.9.64C628,55.56,627.88,55.31,627.49,55.31Zm.64-1c-.25-.26-.51-.13-.64.12C627.75,54.54,628,54.67,628.13,54.29ZM627.88,53h.25a.13.13,0,0,0-.13-.13A.12.12,0,0,0,627.88,53Zm.89-1.91h0Zm.64,3.95c0,.13-.13.13-.13.26l.13.13a.13.13,0,0,0,.13-.13C629.54,55.18,629.54,55.18,629.41,55.05Zm.38-2.93.13-.13h-.13Zm1,3.83c-.25,0-.38.12-.64.12C630.43,56.2,630.81,56.46,630.81,56Zm1.15-7c-.51.51-.38.89,0,1.4C632.85,49.82,632.73,49.44,632,48.93ZM634.9,48c-.39,0-.9-.13-1.28.25.64.51,1,.51,1.15-.38h.13Zm-.13,4a14,14,0,0,1-1-1.53C633.88,51.74,633.88,51.74,634.77,52Zm.76.89h-.25C635.28,53,635.41,53.14,635.53,52.88ZM638,50.46c-.51-.26-.9-.26-1,.38C637.58,51.1,637.58,51.1,638,50.46Zm-.77-4.34c.13,0,.13,0,0,.13s.13.12,0-.13v0Zm.64-3.45c0,.77.13,1.28.64,1.41.89.13.89-.51,1.4-1.28A1.54,1.54,0,0,1,637.83,42.67Zm.77,2.56c-.13,0-.13.12-.13.25S638.6,45.48,638.6,45.23Zm-.13,2.55c0,.13.13.13.25.13s.26.25.13.13c.13.12,0,0-.25,0C638.6,47.91,638.47,47.91,638.47,47.78ZM640.38,50c-.13,0-.13.13-.13.25S640.38,50.08,640.38,50Zm.39-9.7v.51C640.89,40.5,641,40.38,640.77,40.25Zm.51,4.21c-.13.13-.51.13-.26.51C641.28,44.84,641.4,44.72,641.28,44.46Zm1.78,2.3c-.63-.64-.76-.26-.89.25C642.55,47.27,642.81,47,643.06,46.76Zm.13-8.3a.37.37,0,0,0-.25.13.41.41,0,0,0,.25.13Zm1.15,7c.25,0-.13-.13.13.13,0,.38-.26.76.12,1.15a1,1,0,0,0,.9-1c-.39,0-.77-.13-1.15-.13C644.21,45.61,644.21,45.48,644.34,45.48Zm0-4.46c-.13.12-.13.12.13.12C644.47,41,644.34,41,644.34,41ZM645.1,45v-.13H645Zm.39,2.81c.38.13.76.38,1.15,0-.13-.26-.39-.51-.52-.77a1.16,1.16,0,0,0,1-.51c.25,0,.51.39.76,0a1.11,1.11,0,0,0-.64-1.27v1.4l-1.15.38C645.87,47.27,645.36,47.27,645.49,47.78Zm3.32-4.85c-.51.13-.64.64-.77,1.28C649.19,44.08,649.06,43.57,648.81,42.93Zm2.42,1.91a.79.79,0,0,0,0-.76C650.46,44.46,650.46,44.59,651.23,44.84Zm.64-9.7c.13.26.13.52.25.64.26-.38,0-.38-.25-.51Zm.25,6.77-.12.25h.12Zm.64-8.3a2.4,2.4,0,0,0,1-.51C653.4,33.1,652.89,32.72,652.76,33.61Zm.89,4.09a.12.12,0,0,1-.12.12C653.65,37.82,653.65,37.82,653.65,37.7Zm1.28,2.93c0,.26.13.26.26.26.12.38.25.63.63.13-.25,0-.38-.13-.63-.13C655.19,40.76,655.19,40.63,654.93,40.63Zm.77-11.23v.13h-.13Zm.76,3.32v0Zm.13,2.55a1.61,1.61,0,0,0,.51,1.41c.13.38-.38.76-.26,1.27.52-.64,1.41-1,.9-2.17-.13.39-.26.77-.64.9C657,36.29,657.1,35.78,656.59,35.27Zm1.15-5c-.13-.13-.26-.13-.26.12C657.74,30.42,657.74,30.3,657.74,30.3Zm1-2.05c0-.25,0-.25-.26-.12v.12c-.12,0,0,0,.13.13A.13.13,0,0,1,658.76,28.25Zm1.66,2.17v0h0Z"/><path class="cls-1" d="M579.25,49.82,573.72,31.4l-2.29,1.94-.82,5.92L566,51.91,560.71,46,552.23,26.7,545.61,3.41,544,.73,540.9,5.92,537,17.06l-1.83-.52L524.83,49.1l-6.74,12.11L503.57,88.47h16l5.22-9.37,7.44-23.46-12.14,10L540.5,37.07l1.69-2.39.56-1.84,1.07-3.53L533,44.18l7.49-15.81L544.54,6l3.23,10.64,7.4,26.64-6.26-12.7-2.49,5.72,3,10.61,2.35-1.07-2.09,2,2.54,8.93L560.71,76,566,81.91l4.62-12.65.69-5-7.16,6.83,8.34-10.68-1.27-9.7,2.27-7,.2-7.78,2.54,8.85.63,7.68-2.37,2.76L578,57.88l-4.19,4,5.4,18,3.14,8.65h10.85Z"/></g></g></svg>