<?xml version="1.0" encoding="UTF-8"?>
<svg id="Layer_2" data-name="Layer 2" xmlns="http://www.w3.org/2000/svg" viewBox="0 0 666.09 91.05">
  <defs>
    <style>
      .cls-1 {
        fill: #fff;
        stroke-width: 0px;
      }
    </style>
  </defs>
  <g id="Layer_1-2" data-name="Layer 1">
    <g>
      <path class="cls-1" d="m0,76.75c.51-.77.38-1.66.38-2.55.26-2.68,1.28-3.57,3.96-3.7,1.15,0,2.3.38,3.45-.13.51-.38.77-1.02.77-1.66.13-3.45.51-6.89.26-10.34-.38-4.59.77-9.32-.26-13.91,0-.38.13-.77.13-1.15.38-1.53.26-3.06,0-4.59-.13-1.28-.13-2.55.13-3.83.13-1.28.26-2.68,0-3.96-.26-1.53-.13-2.94-.13-4.47,0-1.79.26-3.7-.77-5.49-1.15-.13-2.17-.26-3.19-.26-2.17.13-3.7-.77-4.72-2.68v-1.4c.77-.89.51-1.91.51-2.94,0-2.17,0-4.21-.13-6.38-.13-2.55.89-4.21,3.45-4.85h4.21c.77.64,1.53.64,2.42,0h3.7c.38.51.64.13,1.02,0h6.13c.77.51,1.66.26,2.55.26,3.96.13,8.04.13,12,.13,2.17.13,3.45,1.15,3.45,3.06v11.61c0,1.53-.77,2.42-2.17,3.06-1.02.38-1.91.51-2.94.26-1.02-.13-1.91-.26-2.81.26-.51.64-.64,1.28-.64,2.04v4.47c.13,4.72.13,9.57,0,14.29,0,.77-.25,1.66.64,2.17.38,0,.64-.38,1.02-.64,1.79-1.4,3.83-2.81,6-3.57,3.32-1.15,6.64-1.92,10.21-1.28,2.17.51,2.94-.26,3.06-2.55.25-2.81.25-5.49.25-8.29.13-1.28,0-2.42,0-3.7,0-1.02-.13-2.04-1.02-2.81-1.28-.38-2.55-.25-3.7-.38-2.42-.13-3.57-1.15-3.57-3.45-.13-3.45,0-6.89-.13-10.34-.13-2.3.77-3.83,2.81-4.59h1.91c1.15.51,2.3.51,3.32,0h2.42c.64.38,1.28.38,1.91,0h6.13c.64.64,1.28.38,1.91,0h15.57c2.3.89,3.06,2.55,2.94,4.98-.13,3.19-.38,6.38-.26,9.7.26,1.91-1.02,3.19-2.94,3.45-1.02.26-2.04.26-3.06.26-.64.13-1.28.13-1.91.89,0,3.06-.13,6.38-.13,9.7-.13,5.87.26,11.87-.26,17.87-.38,6.12.38,12.38,0,18.63-.13.89,0,1.91.89,2.55,1.28.38,2.55,0,3.7.13,2.42.13,3.57,1.02,3.7,3.45.13,3.83.13,7.53.13,11.36,0,2.04-.64,2.68-2.68,3.19-.38.13-.77.26-1.02.38h-.51c-1.02-.51-1.91-.51-2.81,0h-3.32c-1.02-.51-1.91-.51-2.94,0h-12.76c-.77-.38-1.53-.64-2.3,0h-3.32c-.51-.38-1.02-.51-1.4,0h-2.94c-2.17-1.15-3.06-2.94-2.81-5.36.25-2.81.25-5.49,0-8.29-.26-3.45,1.15-4.47,4.34-4.72,1.02-.13,2.04.13,3.06-.25.89-.77,1.15-1.79,1.02-2.81-.13-2.04,0-4.08.13-6.13,0-1.02,0-2.04-.13-3.06-.13-2.3-1.79-4.47-3.7-4.72-4.21-.64-8.29-.89-12.63.38-3.06.89-4.34,3.06-4.72,5.74-.38,2.93-.13,6.12-.13,9.19,0,1.4.64,1.91,2.17,1.91,1.02.13,2.17,0,3.32,0,2.17.13,2.42.51,2.68,2.68.38,3.45.13,6.76.26,10.21,0,2.3-.51,3.96-2.3,5.23h-5.23c-1.79-.51-3.7-.64-5.62,0h-7.53c-.89-.51-1.66-.51-2.42,0h-3.32c-2.55-.51-4.98-.51-7.53,0h-2.42c-1.79-1.02-2.3-2.68-2.42-4.59,0-1.15.26-2.42-.38-3.45v-4.21Zm13.53-22.84l-.13.13h.13v-.13Zm.64-2.17c-.38.25-.89.51-.51,1.15.64-.38.38-.89.51-1.28h.13l-.13.13Zm.13-10.72l-.26-.13v.13h.26Zm.13,8.55c-.13-.13-.25,0-.25.13v.13-.13c.13,0,.25,0,.25-.13Zm.26-2.94v-.64c.51-.13.51-.38.13-.77-.26.26-.26.51-.13.77-.26.13-.51.26,0,.64Zm-.26,10.34c.13-.26.13-.38.26-.51,0-.13.13-.25.13-.25v.25c-.13.26-.51.13-.38.51Zm.13,3.96c.26.13.38.13.64,0-.25-.13-.38-.13-.64,0Zm.51-22.33l.13.13c.13.13.26,0,.26-.13s-.13-.13-.13-.13c-.13,0-.13.13-.26.13Zm.89,5.74c-.13-.26-.26-.13-.51,0,.13.13.38.26.51,0Zm-.51,3.32c.51.13.64,0,.51-.51-.38-.13-.51.13-.51.51Zm.51,2.3h-.51c.13.38.25.38.51,0Zm.89-22.84c-.25.13-.64.26-.89.38.13.13,0,.13,0,0-.13-.26-.13.13.13-.13.25,0,.51.25.77-.26Zm-.89,18.12c0,.64.38.89,1.15.77-.26-.51-.38-.77-.51-1.02.38-.25.64-.51.13-1.02-.25.38,0,.77-.13,1.15-.26-.13-.51-.13-.64.13Zm0,14.55c.25.38.51.38.89-.13-.51-.38-.77-.38-.89.13Zm.38-26.42v-.38.38Zm1.02,6.64c0-.38-.13-.51-.89-.38.51.26.51.64.89.38Zm-.13,8.42s.13-.13.13-.25c0-.26-.13-.38-.51-.38-.13.38,0,.64.38.64Zm0-16.21h-.13c0,.13.13.13.13.26.13,0,.13-.13,0-.26Zm.51,13.27c1.15-.13,1.15-.77,1.15-1.79-.89.38-1.66.77-1.15,1.79Zm1.4,8.3c.51,0,.51-.13.51-.51-.25-.26-.51-.13-.77-.13-.13-.77.51-1.4.13-2.17-.89.26-1.28.64-1.4,1.4.38.51.89.51,1.28.64.13.26.25.51.25.77Zm-.89-12l-.13.26h.13v-.26Zm0,19.65c.13,0,.25,0,.51-.13-.26,0-.38-.25-.51.13Zm.51-5.49q-.13-.13-.13.13h.13v-.13Zm.64-28.33s0-.13-.13-.13c0-.13,0-.26-.13-.38-.13.13-.13.26-.25.38q0,.13-.13,0s.13,0,.13-.13c.25,0,.38,0,.51.13q.13,0,0,.13Zm.25,8.17c0-.38-.25-.51-.51-.77-.25.51-.25.89.51.77Zm-.38,22.84s-.13,0-.13.13.13.13.13.26c.13,0,.26-.13.26-.26,0,0-.13-.13-.26-.13Zm.26-19.02v-.13h-.13l-.13.13h.26Zm.25-1.66c-.13.13-.25.13-.13.13,0,0,.26.38.13-.13Zm1.4,9.44c0-.51-.38-.89-1.28-1.28.51.77.64,1.4,1.28,1.28Zm-1.02,7.91c1.15.13.77-.51.77-1.4-.77.51-1.15.89-.77,1.4Zm-.13,7.66l.13.13v-.13h-.13Zm1.79-21.18v-.13c-.13-.26-.26-.51-.38-.77-.89,0-1.28.26-.89,1.15.64.26.89-.26,1.28-.51v.26Zm-.77-7.27s.13-.13.26-.13c-.13-.13-.38-.26-.51,0,.13,0,.13.13.26.13Zm.64,14.55c-.13,0-.26.26-.26.38.13.38.38.38.77.13,0-.38-.13-.64-.51-.51Zm.77-11.36c.51-.26.64-.64.51-1.28-.77.38-.89.77-.51,1.28Zm0,13.02l-.13.26h.25l-.13-.26Zm.51,9.83c-.13,0-.26.13-.13.26.26,0,.26-.13.13-.26Zm0-27.82c.13-.13,0-.13,0-.13,0,.13-.13.13-.13.38.13-.13.13-.25.13-.25Zm.13-6.51c.38.13.64,0,.77-.51-.25.13-.89-.13-.77.51Zm.38,12.38h-.38c.13.13.25.26.38,0Zm-.26,14.17c.51.25.89,0,1.4-.38q-.89-.13-1.4.38Zm.13-7.79c.13.51.89.77,1.15,1.28q-.13-1.4-1.15-1.28Zm.38,9.96c-.64.38-.38.77.13,1.02.26-.38.13-.64-.13-1.02Zm0-3.32c.64-.13,1.02-.38,1.28-1.4-.77.38-1.53.13-1.28,1.4Zm0-11.1l.13.13s.13,0,.13-.13l-.13-.13-.13.13Zm.77-4.47q-.13-.13-.25.13s0,.13.13.13h.13v-.25Zm.13-4.08c.13.25.38.25.64,0-.26-.13-.51-.13-.64,0Zm.38,26.8c.26,0,.26.13.13.13-.38,0,0,.13-.13-.13v-.13.13Zm.38-4.47l-.13.13c.13.13.13.26.25.26s.13-.13.26-.13c-.13-.13-.26-.13-.38-.26Zm0-12.89l.13.13h.13c.13-.13,0-.13-.25-.13Zm.38,8.17c.38-.25.25-.51.13-.77h.13c-.38.26-.64.38-.25.77Zm.51,3.32v-.13h-.13l.13.13Zm3.19-3.96c-.38-.51-.51-.26-.77.13.25.26.51.26.77-.13Zm9.95-3.32c-.26.38-.13.77,0,1.02.38-.26.38-.64,0-1.02Zm1.66.26l.13.13c.26.13.26,0,.26-.25h-.26s-.13,0-.13.13Zm.64-1.53c.13.13.25.13.25-.13l-.13-.13c-.13,0-.13.13-.25.13,0,0,0,.13.13.13Zm1.4,2.68c-.13.25-.13.51.26.64.13-.26.25-.38-.26-.64Zm.77-1.4c-.26-.13-.51-.13-.64.26.26.51.51.64,1.28.38-.26-.26-.38-.51-.64-.64Zm.25-1.79h.13v-.13l-.13.13Zm2.81,1.4c-.26-.38-.51-.51-.89-.38-.51.51-.64,1.28-.89,1.92.51-.64,1.53-.77,1.79-1.53Zm0,3.32c.13,0,.25-.26.13-.38-.13-.13-.25-.26-.64-.13.13.38.25.51.51.51Zm1.15-2.81c-.38.64-.13.89.38,1.28.38-.77.26-1.15-.38-1.28Zm1.53-.38c-.13,0,0,0,.13.13v.13l-.13-.13s-.13-.13,0-.13Zm3.45,3.19c-.89-1.02-2.04-.64-3.06-.77.26.89,1.02.89,1.53,1.53.51-.51,1.15-.26,1.53-.77Zm-1.66-4.59c.77.64,1.15.77,1.4-.13-.51-.38-.89-.26-1.4.13Zm3.7,2.17c-.26-.13-.38-.13-.51.13.25.26.38.13.51-.13Zm.38-4.21q-.13,0-.26-.13c-.13,0-.25.13-.51.13-.13.38-.13.77.38,1.02.38-.26.51-.51.38-1.02Zm.13,10.98l.13-.13h-.26l.13.13Zm.51-2.3c-.26,0-.26.26-.26.38.26.26.38.26.64,0,0-.38-.13-.51-.38-.38Zm.38-10.34l.13-.25h-.26l.13.25Zm0,2.94v-.26.26Zm.51-4.34c0-.13-.13,0-.13.13s.13.13.13.13c0-.13.13-.13,0-.25Zm.77,7.4c-.26.38-.64.51-.26,1.15.26-.38.89-.38.26-1.15Zm-.26,9.32v.13h.38c-.13,0-.26-.13-.38-.13Zm.13-15.44c.13.51.26.64.77.38-.13-.13-.26-.51-.77-.38Zm.13,17.1c.13,0,.13-.13.13-.13-.13,0-.13-.13-.13-.13-.13,0-.13.13-.13.13.13,0,.13.13.13.13Zm.89,6c-.13-.26-.25-.51-.51-.26,0,.26.13.38.51.26Zm-.25-25.01c.77-.38,1.79-.26,2.3-.77.26-.51.26-.77-.38-1.28-.38.89-1.4,1.15-1.91,2.04Zm.13,4.21c.38.26.64.26.89-.38-.51,0-.77.13-.89.38Zm.38,4.98c-.26.38-.26.64.13,1.02,0-.38.77-.64-.13-1.02Zm.38-12.76c-.25.26-.38.38-.51.64.64.26.77,0,.51-.64Zm-.51,12v.13l.13-.13h-.13Zm.64,4.72h-.13v.13l.13-.13Zm.77,9.7c0,.51.13.77.51.89.26-.38.51-.64,0-1.02-.13.13-.38.13-.64.25-.13-.25-.38-.38-.51-.51s-.26-.13-.26-.13h.26c.26.26.38.38.64.51Zm-.13-16.08c-.13.13-.13.26,0,.38.13.26.38.13.64-.13-.13-.26-.38-.26-.64-.26Zm.13,2.68c.25.26.38.13.51,0-.13-.26-.26-.26-.51,0Zm.51-3.7c.26-.26.26-.51-.13-1.02,0,.51-.38.77.13,1.02Zm.13-11.87q0,.13-.13.25.13-.13.13-.25Zm1.02,21.06c-.13-.25-.26-.51-.26-.64-.25-.26-.51-.51-.89-.77,0,.89.51.77.89.77,0,.13-.25.38.26.64Zm-.77-26.16c0-.13.26-.13,0-.25v.38h-.13l.13-.13Zm.51,8.42c.38.26.51.77,1.15.26-.26-.77-.64-.64-1.15-.26Zm.64-6.12s-.13.13-.13.25c0-.13.13-.25.13-.25Zm.26-1.02h-.13l.13.13v-.13Zm.26,15.44c.13-.25.13-.51-.13-.89-.26.38-.26.64.13.89Zm.51,4.72c0-.38-.26-.51-.77-.38.13.51.38.77.77.38Zm-.64,7.27v.64c0-.38.38-.51,0-.64Zm.51,2.94c0-.13-.13-.26-.26-.13-.13,0-.13.25-.25.38.13,0,.25.13.38.13.13-.13.26-.26.13-.38Zm.51-18.63c.38-.38.26-.77.13-1.15.13-.13.25-.13.38-.13.13-.13,0-.26-.13-.26-.13.13-.13.26-.25.38-.38.25-.51.64-.13,1.15Zm0,10.97c.26.26.38.13.51-.13-.25-.26-.51-.13-.51.13Zm.51-9.06c-.13-.26-.25-.13-.38,0,.13.26.25.26.38,0Zm0,22.21s-.13.13-.25.13h.38s0-.13-.13-.13Zm1.91-15.57c.13-.51.25-.89-.13-1.15-.38-.13-.64-.26-1.15.13.38.38.89.64,1.28,1.02Zm-1.02-12.76c.13-.13.13-.25,0-.51-.26.26-.26.38,0,.51Zm.51,4.59c.38-.26.64-.38.38-.77-.13.26-.51.38-.38.77Zm.38-12.76l.13-.13h-.13v.13Zm.51,7.15c-.38,0-.51,0-.51.64.51-.13.64-.13.51-.64Zm.13-5.1c-.26.51,0,.64.38.89.26-.51.26-.89-.38-.89Zm.38,12.63c-.25.13-.25.38,0,.51.13-.13.26-.38,0-.51Zm0-10.34c0,.13-.13.25-.13.38,0-.13.13-.25.13-.38Zm.77,13.91c0,.38,0,.64.38.51.13.26-.13.64.26.77.13-.38,0-.64-.26-.64,0-.26,0-.51-.38-.64Zm.13-15.06v-.64c0,.26-.26.51,0,.64Zm.25,30.88l-.25.13.25.13v-.26Zm.13-21.06l.13-.13h-.13v.13Zm.26,14.68c-.13,0-.13.13-.26.26.13.13.26.13.38.13l.13-.26c-.13-.13-.25-.25-.25-.13Zm.38-1.4c0-.13-.26-.26,0-.26-.26.13-.26.64,0,.26Z"/>
      <g>
        <path class="cls-1" d="m169.47,42.67c0-2.81-.25-5.49-.64-8.17-1.02-5.49-3.45-10.59-6.12-15.44-1.66-3.06-3.83-5.36-6.38-7.66-.64-.51-1.4-1.15-2.04-1.91-2.3-2.68-5.61-3.83-8.68-5.49-1.53-1.02-3.57-1.28-5.36-1.79-6.89-2.17-13.78-2.81-20.93-1.66-.64.13-1.4.25-2.04.38-3.83.38-7.53,1.4-10.85,3.06-4.59,2.17-8.55,5.1-12.12,8.55-5.74,5.62-8.68,12.63-10.59,20.16-.89,3.32-1.53,6.76-1.02,10.08-.64,4.72-.38,9.32.51,13.53,1.79,7.78,4.59,15.06,10.21,21.06,5.36,5.61,11.36,9.83,19.01,11.61,3.57.89,7.15,1.4,10.85,1.79,4.72.38,9.44,0,13.91-1.02,7.53-2.04,14.55-5.36,20.16-11.1,3.57-3.7,6.38-7.78,8.42-12.38,1.91-4.59,3.19-9.44,3.45-14.42.25-3.06.38-6.12.25-9.19Zm-6.64,5.36c.38,0,.51.13.51.38-.13.13-.26.26-.38.26-.25-.13-.25-.26-.13-.64Zm-1.91-12.63s.13,0,.13.13c0,0-.13.13-.13.25v-.38Zm-1.4-6.12l.13.13h-.13v-.13Zm-.71,1.67c-.35.72,1,1.44-.44,2.28.64-1.15-.38-1.28-.64-1.79.36-.48.72-.4,1.08-.5Zm.2,8.15v.38c-.25-.13-.13-.26,0-.38Zm-.64,5.23c-.13,0-.25.13-.38.13l-.13-.13c.13-.26.26-.13.51,0Zm-.38-5.74c0,.51-.38.51-.89.13.38-.38,1.02-.26.89-.13Zm-1.02-4.34v.13h-.26l.26-.13Zm0,1.02v.13h-.13l-.13-.13h.26Zm-.38,4.47h-.51c.13-.38.26-.38.51,0Zm-.89,5.49c.09,0,.17-.06.26-.14v.31c-.09-.05-.17-.09-.26-.17Zm-.26-4.91v.06c-.09,0-.08-.02,0-.06Zm-.89,6.06v.13c-.26,0-.13,0,0-.13Zm.51,2.17c.26.51-.26.77-.77,1.15-.13-.89.13-1.15.77-1.15Zm-1.4-11.87c.51.64.38,1.02.26,1.4-.89-.26-.64-.64-.26-1.4Zm-1.02,20.93c.51-.25.77-.38,1.15,0-.38.77-.64.51-1.15,0Zm.26-3.57c-.13-.51-.38-1.02.51-1.4,0,.64-.13,1.02-.51,1.4Zm.25,1.15q-.13,0-.25.13c0-.13-.13-.13-.13-.13,0-.13.13-.26.13-.26.13,0,.13.13.25.26Zm-.13-14.55v.26h-.13c-.13,0-.13-.13-.13-.13q.13-.26.26-.13Zm-2.3,18.25c.64.38.51.77,0,1.4-.38-.64-.51-1.02,0-1.4Zm-52.58-25.52l.13-.13s0,.13.13.13q-.13.13-.25.13v-.13Zm.89,2.55c-.89.51-1.15.26-1.15-.38.51-.26.77.13,1.15.38Zm-.51,4.59c-.26.26-.38.26-.51,0-.13,0,0-.38.13-.38.25,0,.38.13.38.38Zm-1.02,9.44h.13l-.13.13v-.13Zm-.38-4.98c-.38-.13-.25-.51-.38-.89-.13-.26-.26-.51.26-.89.25.64.25,1.15.13,1.79Zm0,1.15v.13l-.13-.13h.13Zm-.51-7.02c.26.13.26.26,0,.38-.13-.13-.25-.26,0-.38Zm-1.02,7.02v-.38c.38,0,.13.25,0,.38Zm.13-2.68c0,.13-.13.25-.13.38,0-.13-.13-.13-.13-.13q0-.25.26-.25Zm-.77,5.1v.13l-.13-.13h.13Zm.26,3.32c-.13.51-.26.89-1.02.38.13-.51.38-.89,1.02-.38Zm-1.02-5.62v-.13l.13.13h-.13Zm0-4.85c-.25,0-.51-.13-.51-.38s.26-.38.64-.38c.13.38.13.64-.13.77Zm-1.4-9.31c.13.25.13.38-.13.38-.26-.26,0-.26.13-.38Zm-.51,4.34q.13,0,.13.13v.13s-.13,0-.13-.13v-.13Zm-.38,9.7v.13h-.13l.13-.13Zm-2.42,7.66l.13-.13v.13h-.13Zm1.28-24.63c0,.13.13.13.13.13,0,.25,0,.38-.25.25h-.13c0-.25,0-.38.25-.38Zm-.25,3.57c.38.13.64.25.25.64-.38,0-.38-.25-.25-.64Zm.89,11.61c-.13.77-.25,1.53-.38,2.17-.64.26-1.02.26-1.28-.38.26-.77,1.15-1.15,1.15-2.04.26.13.38.13.51.26Zm-.89-3.32c.13.13.13.38,0,.51-.64-.13-.38-.38,0-.51Zm-2.42-2.94v.13h-.13l.13-.13Zm0,4.47c-.26,0-.51-.13-.38-.51,0,0,.25-.13.38-.13.13.26.25.38,0,.64Zm.51,2.04l.13-.13v.26h-.13v-.13Zm.26,13.53l-.13-.13h.13v.13Zm.13-8.55v-.13l.13.13h-.13Zm1.28-14.93c-.13.64-.51.13-1.15.38.77-.77,1.02-.77,1.15-.38Zm-.38,21.57c0-.13.13-.13.13-.13,0,0,.13,0,.13.13l-.13.13c0-.13-.13-.13-.13-.13Zm.25,5.61c.38-.26.64-.26,1.02,0-.26.38-.64.51-1.02,0Zm1.28-.89c-.13-.13-.13-.26,0-.38.13.13.13.26,0,.38Zm-1.02-9.7c-.13-.26-.13-.51.13-.89.77,0,1.15.38,1.53,1.15-.64.13-1.15.26-1.66-.26Zm2.04,14.04l-.13-.13h.13v.13Zm-.13-10.46c.38.13.25.26.13.51-.25-.13-.25-.25-.13-.51Zm0-1.91c.51-.13.64,0,.64.38-.38.26-.51,0-.64-.38Zm.51-1.4v-.13h.13l-.13.13Zm.77-21.06c-.13.13-.38.13-.51,0h.51Zm-.25,5.49c.64.38.77.77.51,1.28-.89-.13-.64-.64-.51-1.28Zm.51,28.33c-.38,0-.51-.26-.38-.38,0-.13.25-.26.25-.26.26.26.26.38.13.64Zm.26-6.51c.38,0,.89-.13,1.28.26.13.38,0,.64-.38.89-.51-.13-.77-.51-.89-1.15Zm.89,9.06c-.13.13-.26.38-.51.25.13-.25.38-.25.51-.25,0-.26.26-.38.51-.51-.13.26-.25.38-.51.51Zm.77-11.1c-.38-.13-.26-.38-.13-.64.26.25.26.51.13.64Zm.38-8.55c.13-.25.26-.13.51,0-.25.26-.38.13-.51,0Zm.51,3.19v.25l-.13-.13.13-.13Zm-.13,9.06c-.25-.51-.13-.64.13-.77.38.25.26.51-.13.77Zm.51-2.17l-.13-.13c.13,0,.13-.13.25-.13,0,0,0,.13.13.13q-.13.13-.25.13Zm.51,3.32l-.13-.13.13-.13c.13,0,.13.13.13.13l-.13.13Zm-.26-7.78c.38-.38.64-.26,1.02.13-.51.51-.77.64-1.02-.13Zm.89,2.93l-.13.13-.13-.13c0-.13.13-.13.13-.13l.13.13Zm-.38,2.68c1.02.51.77,1.28.89,1.91-.26-.64-1.15-.77-.89-1.91Zm.64,11.87v-.38c.26.13.26.26,0,.38Zm.13-4.98c-.13,0-.13-.13,0-.26h.13l.13.13q-.13.13-.26.13Zm.64,7.02h-.13l.13-.13v.13Zm-.13-23.86c-.25-.25-.25-.38-.13-.64.38.13.26.38.13.64Zm.26,5.36c.51.13.64.26.64.51-.26.13-.51.13-.64-.51Zm.64,3.19v.13h-.13l.13-.13Zm0,1.91c.13-.13.38-.13.51.13-.13.13-.38.13-.51-.13Zm.51-25.01c-.26-.13-.38-.26-.38-.51.26-.13.38,0,.38.26v.26Zm.51,26.93c.13.26.13.38-.13.51-.13-.13-.13-.25.13-.51Zm-.13,2.42l.13.13c.13.25,0,.38-.13.25v-.38Zm.13,1.66c.25-.51.51-.64.77.13-.25.26-.51.26-.77-.13Zm.77-1.66h.13l-.13.13v-.13Zm.38,13.91c0-.13,0-.26.13-.38.13.26-.13.26-.13.38Zm1.28-2.17c-.51-.38-1.02.25-1.53-.13.51-.51,1.02-.64,1.53.13.25,0,.38-.38.77-.13-.25.38-.51,0-.77.13Zm.25-5.62c0-.25-.13-.51-.13-.64s-.13-.26-.13-.38l.04-.04c.07.14.09.32.09.42.22,0,.34-.19.45-.41.32.46.39.81-.32,1.04Zm.26-1.15h-.38c.26-.64-.51-1.53.26-2.04.51.13.13,1.02,1.02.64-.38.64-.64,1.02-.89,1.4Zm1.28,3.19c.13-.38.25-.13.89-.13-.64.13-.77.13-.89.13Zm.51-1.53c-.26-.51-.26-.77.25-1.02.38.38.26.77-.25,1.02Zm-.13-2.3v-.13l.13.13h-.13Zm2.55,7.15c-.13,0-.38,0-.64-.13-.13-.13,0-.26.13-.26.26,0,.38.13.64.13,0,.13-.13.13-.13.26Zm-.26-4.47c0-.13.13-.13.13-.26v.38l-.13-.13Zm1.79,5.36s-.13,0-.13-.13q.26,0,.13.13Zm0-3.83c-.13-.25,0-.51.25-.77.13.38.26.64-.25.77Zm3.57,6.51l-.13-.13.13-.13v.26Zm-.14-3.55c-.02-.29-.01-.56.39-.66.21.42-.18.5-.39.66Zm1.67,1.38c-.13-.38.13-.26.26-.38.13.26,0,.38-.26.38Zm2.68,1.66v-.26l.13.26h-.13Zm4.98.64c-.13-.26,0-.38.13-.38.38.26-.13.26-.13.38Zm5.23,2.04c.13-.13.13-.64.51-.64.13.51-.38.38-.51.64Zm9.95-3.57c-.51,0-.38-.26-.26-.64.26.13.51.38.26.64Zm-6.89-6.25c-1.28.26-2.68.26-4.08.64-.89.26-1.79.13-2.68,0-3.57-.64-7.27-1.79-10.08-4.08-3.19-2.55-5.87-5.61-7.4-9.44-1.15-2.93-1.91-6-2.04-9.19-.26-4.08,0-8.3,1.28-12.38,1.02-3.45,2.81-6.64,5.1-9.44,2.94-3.57,7.02-5.74,11.61-6.76,2.68-.51,5.49-.25,8.17.13,2.17.38,4.21,1.53,6,2.68,6.12,4.21,9.7,9.95,10.85,17.35v2.3c0,.77.13,1.53.26,2.42.13,2.81-.13,5.49-1.02,8.3-1.02,3.19-2.04,6.38-3.96,9.19-2.81,4.34-6.89,7.15-12,8.29Zm16.84-5.87c-.38-.38-.13-.51.13-.64.13.26.13.51-.13.64Zm-1.15,9.95v.26h-.13l.13-.26Zm-2.94-.89c.89-.26.89.13.38.77-.13-.26-.25-.51-.38-.77Zm.89,3.57c-.13.13-.25.13-.38,0,.13-.13.26-.38.26-.38.25,0,.25.26.13.38Zm2.3,1.02c-.13-.13-.25-.13-.38-.26.13,0,.26-.13.26-.26.13.13.13.26.25.38l-.13.13Zm.51-9.83c-.89-.38-.38-1.28-.77-1.79.77.13,1.15.64,1.4,1.02,0,.51-.26.64-.64.77Zm2.17,7.15c-.47.23-.52-.37-.92-.47,0-.01.01-.03.03-.04.26-.13.64-.25,1.02-.25,0,.13.13.13.13.25,0,.26,0,.38-.25.51Zm.77-3.96c-.13-.13-.13-.25,0-.38.13.13.13.25,0,.38Zm-.51-1.79c-.13-1.15.26-1.91,1.79-2.17-.77.89-1.28,1.53-1.79,2.17Zm1.53-7.27c-.38-.51,0-.89.51-1.4.25.77-.13,1.02-.51,1.4Zm.13-4.59c.25-.89.51-.64.77-.13-.25.26-.51.26-.77.13Zm.38-28.08q.64-.89,1.15,0c-.38.13-.77.13-1.15,0Zm1.4,40.2c-.51-.13-.64-.38-.64-.89.89,0,1.02.26.64.89Zm0-5.23c.64.13.38.38.51.64-.51,0-.38-.38-.51-.64Zm.38,8.68c.13,0,.13-.13.13-.13,0,0,.13,0,.13.13h-.25Zm-.26-12.12c-.13-.89.64-.89,1.15-1.15.51.38.77.89.64,1.4-.13.64-.51-.13-.64,0-.13.13-.13.51-.51.51-.13-.25-.38-.51-.64-.77Zm1.66-2.68c.13,0,.26.13.26.26,0,0,0,.13-.13.13-.13.13-.25.13-.25-.13-.13-.13,0-.26.13-.26Zm.13,6.64l-.13.13v-.13h.13Zm-.77,2.55c-.26,0-.38-.26-.26-.51,0-.13.26-.13.38-.13l.13.26c0,.13-.13.38-.25.38Zm1.02,4.34c-.38.13-.51-.13-.51-.77.38.26.77.38.51.77Zm.13-17.61c-.26-.51-.77-.89-.64-1.79,1.15.51.64,1.15.64,1.79Zm-.26-13.02c.38.13.51.38.64.77-.77.13-.38-.64-.64-.77Zm.77,23.23c-.26-.26-.13-.51,0-.77v.77Zm.25-19.52h.38c.11-.34-.08-.47-.4-.5,0,0,0,0,.01-.01,1.02-.38,1.4.26,1.79,1.02-.64.13-.89-.64-1.4-.51,0,.38.25,1.02-.38,1.15-.51-.38.13-.77,0-1.15Zm1.79,9.06c.13.64-.38.38-.89,1.02.13-1.15.51-1.15.89-1.02Zm-1.79,13.53c.38,0,.51.13.38.51-.38-.13-.38-.26-.38-.51Zm.64-16.08c.13.26.26.38-.13.51-.25-.26,0-.38.13-.51Zm0,4.47v.13h-.13l.13-.13Zm.13,9.32c-.26-.13-.38-.38-.26-.38.51,0,.13.26.26.38Zm-.13-5.87c0-.13.13-.38.13-.38.38-.13.38.13.38.38-.13.26-.38.13-.51,0Zm1.02,4.47c-.25.13-.51,0-.64-.26.13-.51.51-.51.77-.51.38.51.13.64-.13.77Zm.38-14.04c-.23-.34-.14-.48.15-.59.12.24.21.47-.15.59Zm.22-.62s.02,0,.03-.01c.13-.13.38-.38.77-.26-.23.45-.55.31-.8.27Zm1.31,15.43h-.13l.13-.13v.13Zm-.13-8.04c0,.13,0,.26.13.38-.38-.13-.13-.26-.13-.38Zm.51,4.85l-.13-.13h.13v.13Zm-.51-8.04c-.13-.38,0-.51.26-.64,0,0,.25.13.25.26,0,.26-.13.38-.51.38Zm.89,10.85v-.13h.13l-.13.13Zm-.51-14.93c.38-.38.51-.13.64.13-.26.13-.51.13-.64-.13Zm.64-2.04c-.13,0-.13-.13-.26-.13q.13-.13.26-.13l.13.13c-.13,0-.13.13-.13.13Zm.38,3.32s0-.13-.13-.13c.13,0,.13-.13.13-.13.13,0,.13.13.13.13,0,0,0,.13-.13.13Zm.51,7.02h-.13l.13-.13v.13Zm-.25-3.19c.13-.13.13-.26.13-.26.13,0,.13.13.13.13,0,0-.13.13-.25.13Zm-.26-15.83c.26.26.38.38.51.51-.38.13-.51,0-.51-.51Zm1.02,21.7c-.13-.13-.25-.26-.25-.38.13-.13.38-.13.38,0s-.13.26-.13.38Zm0-18.5c.51.13.64.38.38.64-.13.13-.38-.26-.38-.64Zm.38,10.46c1.15-.38,1.28.25,1.53,1.02-.77-.13-.89-.77-1.53-1.02Zm1.53-2.17c-.26-.25-.38-.51,0-.77.13,0,.38,0,.51.26,0,.38-.25.51-.51.51Z"/>
        <path class="cls-1" d="m127.49,36.55c-1.02-.38-2.04-.13-2.81.77-2.04,2.04-4.21,4.08-6.38,6.25-1.66,1.66-1.53,2.68.26,4.34,1.91,1.79,4.21,3.45,5.74,5.74,1.02,1.4,2.68,1.4,3.83.13,2.3-2.55,4.85-4.72,7.02-7.66,0-2.04-1.28-3.57-7.66-9.57Zm-2.81,9.19c.26-.26.51-.26.77,0-.26.38-.51.25-.77,0Zm2.42-2.17c0,.13.13.13.25.13q-.13.13-.25-.13Zm.51,1.92c.13-.13.13-.26.13-.38.25.38,0,.26-.13.38Z"/>
      </g>
      <path class="cls-1" d="m207,70.37c2.17-.26,3.96,1.27,4.08,3.45v11.74c-.13.89-.13,1.79-1.15,2.55-2.68.89-5.74.77-8.8.64-1.4-.13-2.68-.26-3.96-.13-3.06.13-6.25.26-9.32,0-3.7-.26-7.53.13-11.23.13-3.57-.13-4.59-1.4-4.59-4.85,0-3.19.51-6.38.13-9.57-.25-2.17,1.28-3.57,3.45-3.7,1.28-.13,2.55.26,3.7-.13,1.28-.64,1.15-1.79,1.15-2.93,0-7.02,0-14.04.13-21.06,0-3.19.13-6.51.13-9.83-.13-4.47.38-8.93,0-13.4-.13-1.02-.26-2.04-1.4-2.55-.77,0-1.53-.13-2.3,0-3.57.26-5.23-1.53-4.85-4.85.13-.89.26-1.79,0-2.55-.13-1.15-.25-2.17.13-3.32.26-1.15.13-2.17,0-3.32-.26-2.55.89-4.08,3.57-4.08,6,.13,12-.51,17.99-.13,3.06.26,6.25,0,9.44,0,13.14,0,30.63,1.02,36.62,15.19,1.79,4.08,2.3,8.29,2.04,12.63-.51,14.04-14.55,21.31-25.91,26.16-4.08,1.79-7.91,4.21-11.48,7.02-1.91,1.4-2.17,4.85-.77,7.02,1.28.38,2.17,0,3.19-.13Zm-26.93,9.57h.51c-.26-.13-.38-.25-.51,0Zm3.96-2.93c.51-.13.77-.38.38-.89-.51.13-.64.38-.38.89Zm-.13-3.45c.38.26.64.38,1.53.38-.77-.25-.77-.89-1.53-.38Zm.77,6.76c.13,0,.38-.26,0-.38-.13,0-.26.26-.51.38.25,0,.38.13.51,0Zm.89-26.29c0-.13-.13-.26-.25,0,0,.13.13.25.13.38.13-.13.26-.26.13-.38Zm1.53,18.63c-.51-.51-1.02-.64-1.66-.26.64.64,1.02.38,1.66.26Zm-1.28-21.57l.13.13.13-.13s0-.13-.13-.13c0,0-.13,0-.13.13Zm.13,13.4c0,.13-.26.64.25.89.38-.26.64-.51.89-1.28-.51.26-.89-.13-1.15.38Zm0,12.38c0,.13.13.26.38.13,0-.26-.13-.26-.13-.38-.13.13-.25.13-.25.26Zm2.17-16.72c-1.15,0-1.79.38-2.04,1.28.77-.13,1.53-.26,2.04-1.28Zm-.38-18.12c-.38-.38-.38-1.02-1.4-1.02.38.64.64,1.15,1.4,1.02Zm-1.02,5.62c-.25-.13-.38,0-.38.38,0,0,.13.25.26.25.25,0,.38-.13.38-.38-.13-.13-.13-.26-.26-.26Zm-.25,20.93c0,.13-.13.26-.13.38,0-.13.13-.26.13-.38Zm.25-13.27c0,.13.13.13.13.26q.13-.13.13-.26h-.26Zm.51-20.04s-.13,0-.25-.13c0,0,.13,0,.25.13Zm-.25,10.59c.13.13.25.13.38,0-.13-.26-.25-.13-.38,0Zm.38,22.21c0-.13-.13-.26-.25-.13v-.13q.13.13.25.26Zm-.25,3.06l.13-.13-.13.13v.13-.13Zm.25-4.85s0-.13-.13-.13q0,.13.13.13Zm0-22.84c.13.25.38.25.64,0-.25-.51-.51-.51-.64,0Zm.26,30.75c.25.13.38.26.38.26v-.51h.13c-.13.13-.38.26-.51.26Zm.25-29.35s-.13,0-.13.13l.13-.13Zm.77-4.72c.13.13,0,0,0-.25-.13-.38.26-.38.38-.64-.25-.26-.38-.38-.77-.26-.13.38-.13.77.38.89,0,.13.13.38,0,.25Zm.26,22.59c-.64.26-.89.51-.38,1.15.77,0,.77-.38.89-.89-.13-.13-.26-.13-.51-.26Zm-.64-13.02h.13v-.13l-.13.13Zm.51-3.7q-.13-.25-.38-.25c.13.13.26.13.38.25Zm0,10.34v.25-.25Zm.64-6.25h-.13v.13l.13-.13Zm.38-12.76c0,.13.13.13.26.13,0-.13-.13-.13-.26-.13Zm0,24.25c.13-.13.26-.13.38-.13-.13-.13-.25-.13-.38.13Zm.26,13.4c-.26,0-.26.13-.13.13,0,0,0-.13.13-.13Zm.25-22.46c0-.13-.25-.13-.25,0s.13.26.13.38c.13-.13.26-.26.13-.38Zm.89,13.91c-.13-.64-.26-1.02-1.15-1.02.13.64.38,1.15,1.15,1.02Zm-.89-30.63q0-.13-.13-.25c-.13.13-.13.25.13.25Zm0,10.08s-.13,0-.13.13l.13.13q.13,0,.13-.13l-.13-.13Zm.77-3.45h-.77c.26.26.51.38.77,0Zm-.51,35.22c.13,0,.25-.13.51-.13-.26,0-.38,0-.51.13Zm.51-23.61c0,.25.13.25.25.13,0-.13-.13-.25-.13-.38-.13.13-.13.26-.13.26Zm.38,17.61c.38,0,.64.51,1.28.13-.26-.64-.64-1.15-1.28-1.02-.38.38,0,.64,0,.89h-.13.13Zm.64-33.31c.26-.13.26-.38,0-.51-.25-.13-.38,0-.64.26.26.38.51.38.64.26Zm-.51,25.91l.13.13v-.13h-.13Zm.64-28.08c0-.13-.13-.38-.13-.64-.51.38-.64.51.13.64Zm-.51,19.91v.26-.26Zm.25-7.79c.38.64.77.64,1.4-.13-.64-.38-1.02-.64-1.4.13Zm.38,9.06l.13.13c-.13.38-.77.89.26,1.15,0-.38.13-.89-.38-1.15v-.13Zm1.02-2.55c-.51-.26-.77,0-.89.51.64.26.89,0,.89-.51Zm-.77-1.79q.13,0,.13-.13l-.13.13Zm0,25.4v-.13.13Zm1.4-19.01c-.26-.13-.64-.13-.89.26.26.77.77.77,1.4.38-.26-.25-.38-.51-.51-.64Zm-.26-1.4c0-.26,0-.51-.38-.38.13.26.25.38.38.38Zm-.25-6.51c.13.13.13.26.25.26.26.25.38.64.89.13h-.89c0-.25.13-.38-.25-.38Zm.13-10.72c.13-.13.26-.13.38-.13-.13-.13-.26-.13-.38.13Zm0,21.18q.13,0,.26-.13s-.13,0-.26.13Zm2.3-17.1c-1.02,0-1.4-.64-2.17-.38.51.77,1.02.64,2.17.38Zm-1.91,20.93v-.13.13Zm1.53-32.8c-.89-.38-1.15.13-1.4.51.64.38.77-.25,1.4-.51Zm-1.4,15.19v.13l.25-.13h-.25Zm.38-6l-.13.13s0,.13.13.25c.13,0,.13-.13,0-.38Zm.38,28.58v-.26.26Zm.51-31.52c-.13.26-.13.51.13.77.64-.26.64-.51-.13-.77Zm.51,18.89c-.38.13-.51.26-.51.51.64.25.77.13.51-.51Zm-.26-22.33v.13h.13l-.13-.13Zm0,28.59l.13-.13h-.13v.13Zm.26-9.7l-.13.13s0,.13.13.13l.13-.13-.13-.13Zm.38,1.15c-.13-.13-.38-.26-.51,0,.13.26.25.13.51,0Zm-.38-6c.25.13.38.13.51-.26-.26-.13-.51-.25-.51.26Zm.77,23.35c-.13-.38-.13-.77-.25-1.15-.38.51,0,.77.13,1.02l.13.13Zm0-43.52l-.13.13h.13v-.13Zm.26,24.63c.38,0,.51-.25.38-.89-.38.26-.89.38-.38.89Zm0,13.53l-.13-.13v.13h.13Zm.38-20.04c.26.26.38.13.64-.13-.25-.13-.51-.26-.64.13Zm3.45,9.83c-.77-.13-1.02.26-1.28.77-.25,0-.38,0-.64.13,0-.38.25-.77-.13-1.02-.26.38-.89.51-.89,1.27.51.13.77-.38,1.15-.38,0,.13.13.13.26.26,0-.13.13-.26.25-.26.64.26,1.28.38,1.28-.77Zm-2.81-12.12c.13.26.26.51.64.26,0-.38-.26-.77-.64-.26Zm.38,27.31v.13c.13,0,.13-.13.26-.13,0-.13-.13-.13-.26,0Zm.51-18.12c.89-.26.89-.77.77-1.4-.77.26-.89.64-.77,1.4Zm.38-5.36q-.13,0-.13.13s.13,0,.13-.13Zm0,13.4h.13l-.13-.26v.26Zm.64-3.19c-.13.26.13.51.38.51.13,0,.26-.25.38-.51-.51-.26-.77-.13-.77,0Zm1.15-7.91c.38-.38.38-.64.13-1.02-.38.26-.26.64-.13,1.02Zm.89,6c.64.38,1.28.51,1.79-.13.38-.13.64-.26.51-.77-.51,0-.38.51-.51.77-.51-.13-1.15-1.15-1.79.13Zm2.68-15.31c3.45-2.04,6.64-4.47,9.83-6.89,2.55-2.04,4.59-4.47,5.23-7.91-.77-2.94-2.55-4.98-5.61-5.87-3.06-.89-6.25-1.4-9.32-1.02-1.79,1.02-2.42,2.3-2.04,4.08.13.51,0,1.02.13,1.66.25,1.91-.38,3.7-.38,5.61.13,3.06.64,6.12.26,9.19-.13.51,0,1.02.38,1.53.64.26,1.02-.13,1.53-.38Zm-1.91,13.53l-.13-.13-.13.13s0,.13.13.13l.13-.13Zm.77-.51c-.13.51.13.64.89.64-.38-.38-.51-.64-.89-.64Zm.64-1.02c-.26-.25-.51-.13-.64.13.25.13.51.26.64-.13Zm-.26-1.28h.26c0-.13-.13-.13-.13-.13,0,0-.13,0-.13.13Zm.89-1.91h.26-.26Zm.64,3.96c0,.13-.13.13-.13.25l.13.13c.13,0,.13-.13.13-.13q0-.13-.13-.25Zm.38-2.94l.13-.13h-.13v.13Zm1.02,3.83c-.26,0-.38.13-.64.13.26.13.64.38.64-.13Zm1.15-7.02c-.51.51-.38.89,0,1.4.89-.51.77-.89,0-1.4Zm2.94-.89c-.38,0-.89-.13-1.28.25.64.51,1.02.51,1.15-.38h.13v.13Zm-.13,3.95c-.38-.51-.64-.89-1.02-1.53q.13,1.28,1.02,1.53Zm.77.89h-.26c0,.13.13.25.26,0Zm2.42-2.42c-.51-.26-.89-.26-1.02.38q.64.26,1.02-.38Zm-.77-4.34q.13,0,0,.13c-.26,0,.13.13,0-.13v-.13.13Zm.64-3.45c0,.77.13,1.28.64,1.4.89.13.89-.51,1.4-1.28-.89.51-1.4.38-2.04-.13Zm.77,2.55c-.13,0-.13.13-.13.26,0,0,.13,0,.13-.26Zm-.13,2.55c0,.13.13.13.25.13.13.13.26.26.13.13.13.13,0,0-.25,0,0-.13-.13-.13-.13-.26Zm1.91,2.17c-.13,0-.13.13-.13.26.13,0,.13-.13.13-.26Zm.38-9.7v.51c.13-.26.25-.38,0-.51Zm.51,4.21c-.13.13-.51.13-.26.51.26-.13.38-.25.26-.51Zm1.79,2.3c-.64-.64-.77-.26-.89.26.38.25.64,0,.89-.26Zm.13-8.29s-.13,0-.26.13c0,0,.13.13.26.13v-.26Zm1.15,7.02c.25,0-.13-.13.13.13,0,.38-.26.77.13,1.15.51-.13.89-.38.89-1.02-.38,0-.77-.13-1.15-.13-.13,0-.13-.13,0-.13Zm0-4.47q-.13.13.13.13c0-.13-.13-.13-.13-.13Zm.77,3.95v-.13h-.13l.13.13Zm.38,2.81c.38.13.77.38,1.15,0-.13-.26-.38-.51-.51-.77.38,0,.77-.13,1.02-.51.26,0,.51.38.77,0,.13-.51-.13-1.02-.64-1.28v1.4c-.38.13-.77.26-1.15.38-.26.25-.77.25-.64.77Zm3.32-4.85c-.51.13-.64.64-.77,1.28,1.15-.13,1.02-.64.77-1.28Zm2.42,1.91c.13-.25.13-.51,0-.77-.77.38-.77.51,0,.77Zm.64-9.7c.13.26.13.51.25.64.26-.38,0-.38-.25-.51v-.13Zm.25,6.76l-.13.26h.13v-.26Zm.64-8.29c.38-.13.77-.26,1.02-.51-.38,0-.89-.38-1.02.51Zm.89,4.08s0,.13-.13.13q.13,0,.13-.13Zm1.28,2.93c0,.26.13.26.25.26.13.38.26.64.64.13-.25,0-.38-.13-.64-.13,0-.13,0-.26-.25-.26Zm.77-11.23v.13h-.13l.13-.13Zm.77,3.32v.25-.25Zm.13,2.55c0,.64.13,1.15.51,1.4.13.38-.38.77-.26,1.28.51-.64,1.4-1.02.89-2.17-.13.38-.26.77-.64.89-.13-.38,0-.89-.51-1.4Zm1.15-4.98c-.13-.13-.26-.13-.26.13.26,0,.26-.13.26-.13Zm1.02-2.04q0-.25-.26-.13v.13c-.13,0,0,0,.13.13,0-.13.13-.13.13-.13Zm1.66,2.17v.13-.13h-.13.13Z"/>
      <path class="cls-1" d="m301.05,41.52c1.02,2.17,1.66,4.47.77,6.89-.25.64-.38,1.53-.64,2.17-1.4,3.83-4.47,5.62-8.55,5.49-3.45,0-6.38-1.28-9.19-2.68-.89-.38-1.79-.64-2.68-.64-3.7,0-5.49,4.47-5.49,7.66.13,1.91,0,3.83,0,5.74,0,2.04,1.79,4.21,3.96,4.21,6.13.13,12.25.64,18.38-.38.13,0,.25-.13.51-.26.89-.77.89-2.04.77-3.19-.13-1.92.13-3.83.51-5.61.38-1.79,1.15-2.55,2.94-2.81,3.96-.26,7.91.26,11.87.26,1.91,0,3.32,1.66,3.06,3.7-.51,3.32.13,6.64,0,9.95-.13,3.96-.26,8.04-.13,12.12.13,2.93-1.4,4.59-4.34,4.47-8.29-.13-16.59,0-24.76-.13-7.78,0-15.44-.13-23.23.13-4.47,0-8.93.26-13.4-.13-.89-.13-1.66.13-2.55.13-2.55,0-3.7-1.15-3.83-3.57,0-3.7-.13-7.4-.13-11.1,0-2.3.64-2.93,3.57-3.95.64-.13,1.15.26,1.66.38,2.17.51,3.19-.26,3.32-2.42.13-2.04.13-4.08,0-6.13-.25-2.17-.38-4.34,0-6.51.13-1.27,0-2.42,0-3.57-.13-5.49-.38-10.98-.13-16.46.25-4.08.25-8.04.13-12.12,0-1.79-.64-2.42-2.55-2.68-1.02,0-2.04,0-3.06-.13-1.79-.26-2.68-.89-2.68-2.68-.13-4.21-.38-8.29-.13-12.51.25-1.66,1.15-2.55,2.68-2.81h1.53c9.06,0,18.12,0,27.18.13,3.57,0,7.15-.38,10.85-.25,3.96.13,8.04,0,12,.13,3.57.13,7.02,0,10.59,0,1.28,0,2.55,0,3.83.13,2.3.13,3.06.89,3.32,3.32.38,2.68-.25,5.49,0,8.17.38,3.96-.13,7.91.26,11.74.13,1.53-.13,3.06-.26,4.47-.25,1.53-1.15,2.42-2.68,2.55-1.79.13-3.57.38-5.49.13-1.79-.25-3.57-.13-5.36-.13-3.57-.13-4.47-1.02-4.47-4.59,0-1.15,0-2.17.13-3.32.13-2.68-1.15-4.21-3.83-4.34-2.3,0-4.47-.13-6.76.13-1.53.13-3.19-.13-4.72-.13-1.4-.13-2.68,0-4.08,0-2.81.25-3.96,1.66-4.21,4.47-.13.64-.13,1.28-.13,1.91.13,3.19.25,6.38.13,9.57-.13.89,0,1.79.51,2.55.64.64,1.4.51,2.17.26,1.15-.26,2.42-.38,3.57-.38,3.19,0,6.38,1.15,9.32,2.42.64.26,1.4.38,2.04.38,1.28,0,2.42-.38,3.57-1.15.64-.38,1.28-.89,2.17-1.02,1.28.13,1.79,1.02,2.17,2.04Zm-47.22,36.63c.13-.38-.13-.26-.26-.26,0,.13.13.13.26.26Zm4.85-37.9v-.25c-.13.13-.25.13-.25.13,0,0,.13.13.25.13Zm.26,20.55c-.26.13-.38.26-.38.77.77-.13.77-.38.38-.77Zm-.26-11.74l.51-.51c-.38,0-.77-.13-.51.51Zm.89,15.57c-.26-.38-.38-.64-.89-.51q.13.89.89.51Zm-.64,6.64c.38,0,.51-.26.64-.64-.51.13-.89,0-.64.64Zm.13-33.31l-.13.13h.13v-.13Zm.51,37.39v-.13l-.13.13h.13Zm.13-19.27c0,.13.13.13.25.13q-.13-.13-.25-.13Zm.77-13.66c-.25-.25-.51-.25-.64.64.38-.38.51-.51.64-.64Zm-.38,3.57c.13.26.38.38.64.26.25-.26-.13-.51-.13-.77.26-.13.51,0,.64-.38-.38,0-.38.26-.51.38-.26.26-.77.13-.64.51Zm1.28,3.96c.25-.38.38-.89-.26-1.15-.89,0-1.02.38-.77,1.28.38,0,.77.26,1.02-.13Zm-.77,4.72h-.25.25Zm-.13,7.27c.26.13.38,0,.51-.26-.25-.26-.38-.13-.51.26Zm.38,4.59c.13.38.38.64.89.51-.13-.64-.38-.77-.89-.51Zm.13-14.68c.38.38.51.13.64-.25h.13c-.25.13-.51.13-.77.25Zm.26,6.76c-.13.25-.13.38-.13.64.26.26.38.64.51.89.13.13,0,.38.38.13-.13,0-.26,0-.38-.13-.13-.26-.13-.64-.51-.89,0-.26,0-.38.13-.64Zm.26-17.99c-.26.51-.38,1.02-.13,1.53.64-.13,1.28-.51,1.66-1.15-.51-.77-1.02-.77-1.53-.38Zm.13,36.37h.13l-.13-.13v.13Zm.77-15.19c0-.13-.26-.26-.64,0,.26.26.51.26.64,0Zm-.51,18.38h1.79c-.64-.51-1.02-.51-1.79,0Zm1.15-26.93l-.13-.13c-.13-.13-.38,0-.38.13.13.26.38.26.51,0Zm.38,2.94c.51-.13.64-.51.38-.89-.38-.25-.77-.51-1.28.26.25.26.25.77.89.64Zm-.51,8.8c-.25.26-.25.38,0,.51.13-.13.26-.26,0-.51Zm0-21.95c-.13,0-.25.13-.13.26.13-.13.13-.26.13-.26Zm.38,32.03v.26h.13l-.13-.26Zm.51-42.49c-.26.13-.13.38-.26.64.13-.26.38-.26.26-.64Zm.51,33.05c-.26-.26-.38-.26-.64,0,.25.25.38.25.64,0Zm-.51-7.53c.25.26.38.26.51-.13-.26-.26-.38-.26-.51.13Zm.38,3.32c1.4.13.89-1.15,1.66-1.91-1.53.38-2.04.89-1.66,1.91Zm.26-17.48c-.13,0-.13.13-.26.38.13-.13.13-.26.26-.38Zm0-15.7c-.26.38-.13.51.25.77.13-.38.26-.64-.25-.77Zm.13,24.12h.26v-.13l-.26.13Zm.51-4.85q-.13,0-.25.13.13,0,.25-.13Zm-.25,16.72h.25l-.25-.13v.13Zm.89-29.1c-.13,0-.13.13-.13.13,0,.38-.77.38-.64,1.28.38-.64.89-.64.89-1.28l-.13-.13Zm-.64-4.21c.13.13.13.25.13.25-.13,0,.26-.25-.13-.25Zm1.15,18.76c.13-.26.25-.51,0-.77-.26-.38-.64-.26-1.15,0,.38.26.51.89,1.15.77Zm-.51,1.66c.13-.13.13-.38-.13-.38-.13.13-.26.38.13.38Zm0-5.74l-.13.13h.13v-.13Zm-.13,10.46c.64.38,1.15.38,1.53-.51q-.89.13-1.53.51Zm.38-18.12v-.13.13h-.13.13Zm.38,16.21c-.25-.13-.51-.13-.38.38.26,0,.38,0,.38-.38Zm-.25-14.55c-.13.26-.13.51.13.77.13-.26.13-.51-.13-.77Zm.38,33.69s0-.13-.13-.26c0,.13,0,.26.13.26Zm.51-12.38c-.13-.26-.38-.26-.51,0,.13.25.26.13.51,0Zm-.38,6.12l.13-.13h-.13v.13Zm.25-14.42h-.13v-.13l.13.13Zm1.02,5.49c.13-.26.25-.51-.26-.64-.38,0-.64.25-.77.64,0,.26.13.64.64.89.13-.38.26-.64.38-.89Zm-.89-13.4c1.15-.13,1.79,1.15,3.19,1.53-1.15-2.04-1.53-2.17-3.19-1.53Zm.13,17.99l-.13.13h.13v-.13Zm.51,11.36c-.38,0-.51.26-.51.51.51.13.64.13.51-.51Zm.26,2.3h-.51c.13.13.38.26.51,0Zm-.38-40.96c.77-.13,1.02.51,1.66,0-.51,0-.64-.77-1.66,0Zm.64,18.89v-.38c-.13.13-.38.25,0,.38Zm.51-4.34h-.25q0,.13.13.13s.13,0,.13-.13Zm.13,13.02c.13,0,.13-.13.13-.13v.26h-.26l.13-.13Zm.64-15.7c0-.13-.13-.13-.38-.25.13.13.25.25.38.25Zm-.26,13.66c-.13.64,0,1.02.89,1.02-.13-.64-.26-1.02-.89-1.02Zm.51-30.12c.13-.13.13-.26.13-.13,0-.13,0,0,0,.13-.25.13-.38.25-.64.38v.13c.13-.26.38-.38.51-.51Zm-.26,6c-.26.26-.26.38-.13.64.13,0-.25.26,0,0,.26-.13.51-.26.13-.64Zm.51,20.16c-.13,0-.25,0-.51.13.26,0,.38.26.51-.13Zm-.51,11.48c.13.26.26.38.51.26-.13-.38-.25-.38-.51-.26Zm.26-2.17c.51-.38.89-.77.13-1.53-.38.64-.51,1.02-.13,1.53Zm.51-3.57c0-.13-.26-.13-.38,0,.13.13.38.38.38,0Zm.13,14.93c-.13,0-.38.13-.51.13.26.13.51.13.51-.13Zm-.38-22.84l.13-.13h-.13v.13Zm.26-6.13c.51,0,.51-.26.25-.64-.25.13-.51.25-.25.64Zm.38,4.85q-.13-.26-.26,0c-.13.13-.13.26.13.38.13,0,.26-.13.13-.38Zm-.26-12.89v.64c.51-.25.64-.51,0-.64Zm1.91,8.68c-.25-.38-.51-.77-1.28-.77.77.64.64,1.53,1.53,1.66.38-.51,0-.77-.26-.89Zm-.25-4.21v.13h.25l-.25-.13Zm.77,1.28c.13,0,.13-.13.13-.26q-.13,0-.13.26Zm1.4,29.74l-.13.13h-.13l.26-.13Zm2.94-30.63c-1.02.38-1.15,1.02-1.15,2.3.38-.89.77-1.53,1.15-2.3Zm3.45-.77s0,.13.13.13c0,0,.13,0,.13-.13s0-.13-.26,0Zm2.68-.38s-.13-.13-.25-.13c-.51.64-.89,1.28-1.4,1.91.38.64.64.64,1.28.51.13-.77.26-1.53.38-2.3Zm-.38,32.8c-.25-.38.77-.51.13-1.28-.38.38-.38.89-.13,1.28Zm.77-30.88h.77c-.51-.13-.64-.38-.77,0Zm1.66,31.65l.13.13v-.13h-.13Zm1.53-29.22v-.13h-.13l.13.13Zm.77-3.06c-.13,0-.13.13-.13.13-.13.25,0,.38.13.25.13,0,.13-.13.13-.25-.13,0-.13-.13-.13-.13Zm.38,1.53c.13.13.38.26.51,0-.13-.25-.38-.25-.51,0Zm1.15,29.35c-.13,0-.25.13-.13.13,0,.13.13.26.13.26.13,0,.13-.13.26-.26,0-.13-.13-.26-.26-.13Zm.26-26.67v.13l.13.13-.13-.26Zm1.4-2.43c-.26.89-.13,1.28,1.15,1.4-.51-.64-.77-1.02-1.15-1.4Zm.38,2.04l.13.13v-.13h-.13Zm1.02,29.61l.13.13-.13-.26v.13Zm1.79-1.91c0-.26,0,0,0,.13h-.13l.13-.13Zm.13-28.46c-.26.13-.26.26,0,.51.38-.26.25-.38,0-.51Zm1.15,29.22h.25-.25Zm6.12-2.42l.13.13q0-.13-.13-.13Zm3.83-1.4c-.38.26-.38.51-.26.89-.25,0-.38,0-.25,0-.13,0,0,0,.13-.13.13-.26.77-.26.38-.77Zm-.51,4.21c0,.13.13.26.25,0v-.13c-.13,0-.25,0-.25.13Zm1.28-10.98c0,.13.13.26.26.26.26,0,.38-.26.26-.51,0-.13-.13-.13-.26-.13-.26,0-.38.26-.26.38Zm.89,8.42c0,.13-.13.13-.26.26.26.13.38.13.26-.26Zm.26-6.89l.13.13v-.13h-.13Zm.25,2.81c.13-.25.13-.38,0-.64-.25.26-.13.38,0,.64Zm1.91,6.13v-.13.13Zm.89-7.91c.13-.26-.13-.38-.51-.51,0,.51,0,.89.51.51Zm0-5.36c-.13,0-.64,0-.25.25.13.26.38.13.64-.13-.13,0-.26-.25-.38-.13Zm.13,2.04c-.38.51-.13.77.38.89.13-.38.38-.89-.38-.89Zm.64,6.64h-.26.26Zm.51-1.28c.51-.26.38-.51.38-.89.26-.13.51-.26.13-.64v.77c-.51,0-.51.26-.51.77Z"/>
      <path class="cls-1" d="m348.27,22.77c3.7-7.02,8.68-12.89,15.82-16.59,3.19-1.66,6.13-3.7,9.7-4.21,2.04-.38,3.95-1.28,6-1.4,3.57-.26,7.15-.38,10.72-.13,4.47.38,8.42,1.79,12.38,3.57,1.91.77,3.32,2.17,4.85,3.32,1.66,1.4,3.32,2.81,4.72,4.34,1.53,1.66,1.66,3.96,2.17,6.12.51,2.68-.26,5.36,0,8.04.38,4.21-.13,8.42-.13,12.76,0,2.81-1.02,3.83-3.83,3.83-3.45,0-6.89,0-10.34-.13-2.42,0-3.19-.89-3.57-3.19-.38-2.17-.26-4.47-.13-6.64.13-2.55-.13-4.98-.64-7.53-.64-2.68-2.3-4.34-4.98-5.23-4.34-1.4-8.55-.38-12.51,1.4-3.32,1.53-5.87,3.96-8.17,7.02-2.04,2.94-2.81,6.25-4.47,9.32-.38.64-.51,1.53-.51,2.3-.26,3.95-.77,8.04,0,12,.77,4.72,2.93,8.8,6,12.63,1.79,2.17,4.08,3.7,6.38,5.1,1.79,1.15,3.96,1.4,6.13,1.66,3.83.77,7.4-.51,10.98-2.04,3.95-1.66,6.89-4.72,10.34-7.4,1.91-1.53,4.21-1.66,5.74.26,1.91,2.3,4.21,4.08,6,6.38,1.4,2.04,1.79,4.47,0,6.25-3.06,2.93-5.74,6.25-9.44,8.55-2.17,1.28-4.34,2.68-6.51,3.7-4.08,1.79-8.42,3.32-12.89,3.7-3.83.38-7.53.89-11.36.13-4.85-1.15-9.7-2.68-14.04-5.23-3.45-2.17-6.51-4.98-9.19-8.04-3.57-4.08-5.87-8.68-7.53-13.53-1.28-4.08-2.3-8.17-2.68-12.51-.13-2.42-.38-4.85-.25-6.89-.26-7.91,1.66-15.06,5.23-21.69Zm-.13,25.65h.26c.26.77.77,1.4,1.79,2.04-.51-1.28-1.15-1.66-1.92-2.04h-.13Zm1.28-3.32l-.13.13h.13v-.13Zm.51-4.85h-.13v.13l.13.13v-.26Zm.38,12.64c-.25-.13-.38-.13-.51.25.13-.25.51.26.51-.25Zm-.51,1.02l.13.13v-.26l-.13.13Zm.64,3.83c-.25-.38-.38-.25-.64,0,.26.26.38.26.64,0Zm.13-11.61c-.26.13-.77-.13-.64.51.38-.13.64-.26.64-.51l.13-.13-.13.13Zm.89-11.23c.38.13.38-.13.51-.26h.13-.13c-.13.13-.26.26-.51.26Zm.13,22.59c.64.64,1.02.89,2.04.38-.77-.89-1.28-1.15-2.04-.38Zm.13-15.44l.13.13v-.13h-.13Zm.26,7.4h.13c-.13-.13,0-.25,0,0,.13.26.13-.13,0,0h-.13Zm0,12.76h.13-.13v-.13.13Zm.77-2.55c-.25-.26-.38-.26-.64,0,.26.25.38.13.64,0Zm-.51-14.29v.13l.13-.13h-.13Zm.77,5.49c-.13.38-.26.77-.38,1.28.38,0,.64,0,1.28.13-.38-.64-.25-1.15-.89-1.4Zm-.38,3.96q0,.13.13.13s.13,0,.13-.13c0,0-.13,0-.13-.13,0,.13-.13.13-.13.13Zm.89-21.69l.13-.13c0-.13-.13-.25-.26-.38-.13,0-.26.13-.13.25,0,.13.13.26.26.26Zm1.15,12.51c-1.4.38-1.15,1.15-1.15,1.91-.26,0-.38,0-.26.26l.26-.26c.25-.64.64-1.15,1.15-1.91Zm-.89-2.55l-.13-.13v.38c0-.13.13-.13.13-.26Zm0,20.67l-.13.13h.13v-.13Zm.26-35.48s0,.13-.13.26c0,.13-.25.25-.13.51,0-.26.13-.38.13-.51s.13-.26.13-.26Zm.13,40.45v.38c.13-.26.26-.38,0-.38Zm.38-7.78h-.26c.13.13.26.25.26,0Zm-.13-20.68h.26c-.13-.13-.26-.25-.26,0Zm.64-4.72c-.25.38-.64.38-.38.77.26,0,.38-.13.38-.77Zm.13,29.61c-.13,0-.64-.13-.25.26.13.13.38,0,.64-.13-.13,0-.26-.13-.38-.13Zm0,2.04h.51c-.26-.13-.38-.26-.51,0Zm.26-12.12c0,.25-.13.64.26.64.26-.26.64-.51.26-.89-.26,0-.51,0-.51.26Zm0-3.96c.26.38.64.38.89,0-.25-.26-.51-.38-.89,0Zm.51-16.59c0-.13.13-.26.13-.38,0,0-.26-.13-.38-.13,0,.13-.13.26-.13.38.13,0,.26.13.38.13Zm-.38,15.7l.13-.13h-.13v.13Zm1.79-11.87c-.64-.38-1.02-.51-1.53.13-.13.13-.26.26,0,.13v-.13c.51.13,1.02.26,1.53-.13Zm.13,3.83c-.51-.26-.89-.38-1.4.25q.89.51,1.4-.25Zm-.77,16.46l-.13-.13v.25l.13-.13Zm.13-10.21c-.13.13-.13.26,0,.26.26,0,.38-.13.13-.38,0,.13-.13.13-.13.13Zm.26,19.14s-.13,0-.13.13l.13.13s0-.13.13-.13c-.13,0-.13-.13-.13-.13Zm.64-35.09v-.13c-.13-.13-.26-.38-.51-.13.25,0,.38,0,.51.13v.13Zm.13,2.94c-.38-.13-.51,0-.38.51.26-.13.38-.25.38-.51Zm.26,22.72l-.13-.13c-.13,0-.13.13-.26.13l.26.26q0-.13.13-.26Zm-.13-13.15v-.51c-.13.26-.26.38,0,.51Zm.89,14.68c-.38-.26-.51,0-.64.13-.13.13-.26.13-.38.25.38.26.26-.13.26-.25.26,0,.51.13.77-.13Zm-.51-9.95h-.26.26Zm.25,20.29h-.13l-.13.13.25-.13Zm.26-16.21s-.13,0-.13.13l.13.13.13-.13q0-.13-.13-.13Zm.13-19.27s-.13.25-.13.38c.13,0,.26.13.38.13s.26-.26.13-.38c-.13,0-.26-.13-.38-.13Zm.77,11.23c-.25-.26-.51-.13-.77.13-.26.38,0,.64.51.89.38-.26.64-.64.25-1.02Zm-.25,10.59l-.13-.13h-.26q.13.13.13.25.13-.13.26-.13Zm-.13,6.64c.38-.38.64-.64,1.15-1.15-1.4-.26-1.4.26-1.15,1.15Zm.51-21.44c0-.13,0-.38-.13-.38-.25-.13-.38,0-.38.25,0,.13.13.26.13.26.13,0,.38,0,.38-.13Zm-.13,26.16c.13-.38-.13-.38-.38-.26.13.13.38.26.38.26Zm-.25,1.28s.13.13.25.13c.26-.13.26-.26.13-.51-.26,0-.38.13-.38.38Zm.25-18.38c-.38.64-.13.89.64,1.02,0-.64,0-1.15-.64-1.02Zm.38-16.97s.13-.13.13-.26-.13-.25-.26-.25-.26.13-.26.25c.13.13.26.13.38.26Zm.26,31.14c-.38-.13-.51.13-.64.64.64-.13.77-.26.64-.64Zm-.51-35.35c-.13.13,0,.26.13.38l.13-.13q0-.13-.13-.26h-.13Zm.64,47.09c.13,0,.13-.13.25-.13,0-.38-.25-.64-.38-1.02-.38.38-.64.64-.26,1.15h.38Zm.13-15.7l.13.13v-.13h-.13Zm1.02,4.34v.13l.13.13-.13-.26Zm.77-34.71l.13.13h-.13l-.13-.25.13.13Zm.26,33.31c-.13.38-.26.51.26.64.25-.38.13-.51-.26-.64Zm0,7.79v.38c.13-.13.38-.26,0-.38Zm.89-4.34c.77,0,.89-.51,1.28-.64,0-.13,0-.26.13-.26-.13,0-.13.13-.13.26-.51,0-.89.13-1.28.64Zm.26,6.76c.13,0,.26-.13.13,0,.13-.13,0,0-.13,0l-.13.13.13-.13Zm2.93,2.68c-.38-.13-.38,0-.25.38.25,0,.25-.13.25-.38Zm4.08.64h.13-.13v.13-.13Zm2.55-2.42v.13h-.64c-.51-.51-1.02-.51-1.79.25.77-.13,1.28-.38,1.79-.25.26.13.38.13.51,0l.13-.13Zm5.36.77c.13,0,.26,0,.38.13-.13-.13-.26-.13-.38-.13Zm7.79,2.17l.13.13-.13-.13-.13-.13.13.13Zm4.98.51c.13.13.26.13.26.13.13-.13.13-.26,0-.38,0,0-.13.13-.26.13v.13Zm1.53-.77l.13.13.13-.13h-.26Zm4.34,2.17c-.38,0-.25.38-.13.64.38-.38.38-.64.13-.64Zm0-4.47c.26.13.38-.13.26-.25-.13,0-.38,0-.26.25Zm3.06.26c.13-.51.25-.89-.26-1.15-.38.51,0,.77.26,1.15Zm1.4-39.56c.13.13.13.26.13.38.13-.13.13-.25-.13-.38Zm2.04,33.56h.38-.38Zm1.79-.89l-.13-.13-.13.13h.26Zm.64,1.15h-.13l-.13.13h.13s.13,0,.13-.13Zm0-34.58l-.13-.13v.38c0-.13.13-.13.13-.26Zm.25,37.26c.77,0,1.15-.26,1.02-1.15-.89,0-1.28.13-1.02,1.15Zm.13,4.34h-.13v.26q.13-.13.26-.13c-.13,0-.13-.13-.13-.13Zm1.66-47.73c-.51.13-.89.13-1.53.13.64.38,1.15.25,1.4-.13l.26-.13-.13.13Zm0,7.53c.26-.13.51-.26.13-.64-.13.26-.26.51-.13.77h-.13l.13-.13Z"/>
      <path class="cls-1" d="m425.22,70.75c.77.13,1.66,0,2.42,0,.77-.38,1.02-.89,1.15-1.53,1.02-3.83,2.3-7.66,3.45-11.49,1.28-4.59,2.55-9.19,4.21-13.78,1.28-3.83,2.3-7.78,3.45-11.74,1.02-3.06,2.04-6.12,2.55-9.32-.64-1.79-1.91-2.42-3.7-2.17-.77.13-1.53.26-2.3,0-1.91-.38-3.19-1.79-3.06-3.57.38-3.45,0-6.76.13-10.21.13-3.06,1.28-4.08,4.34-4.21,6.51-.38,12.89.13,19.4,0,8.42-.13,16.85.13,25.27-.13.64-.13,1.28,0,1.91.13,1.66.38,2.55,1.28,2.81,2.94.13,1.28.25,2.42.13,3.57-.13,2.42-.13,4.85-.13,7.4,0,3.19-.64,3.83-3.83,4.08-1.53,0-3.19-.13-4.47.77-.77.89-.64,1.91-.26,2.94,1.66,4.59,2.94,9.44,4.21,14.17,1.53,5.1,3.06,10.34,4.59,15.44,1.02,3.45,2.04,6.89,2.94,10.46.51,1.91,1.28,3.83,1.91,5.61,1.4.77,2.68.38,3.83.38,2.94.13,3.7.89,4.08,3.83.38,2.55.64,5.11,0,7.66-.13.89.13,1.79.25,2.55.38,2.17-.64,3.7-2.68,3.96-1.53.38-3.19.51-4.72.38-6.64,0-13.4-.38-20.04.13-2.3.13-4.59-.13-6.89-.26-2.04-.13-2.94-.89-3.06-3.06-.13-3.83-.25-7.78-.13-11.61,0-2.55.89-3.19,3.57-3.19,1.4-.13,2.81.26,4.08-.51.89-5.23-1.02-6.64-4.59-7.66-1.92-.51-3.96-.38-5.87-.26s-3.96.38-5.87.51c-2.04.13-3.57,1.28-4.08,3.32-.25,1.28-1.02,2.3-.64,3.83,1.4.64,3.06.51,4.59.64,3.06.13,3.45.64,3.57,3.7.13,3.45-.26,6.89.26,10.34.38,2.04-1.53,3.83-3.96,4.08-1.15.13-2.55.25-3.7,0-2.04-.26-3.95-.13-5.87,0-3.7.13-7.4,0-11.1-.13-2.68-.26-5.23.13-7.78.13-2.17.13-3.96-.38-5.36-1.92v-8.93c.51-.89.51-1.66,0-2.42v-2.42c1.15-1.91,2.81-2.68,4.98-2.42Zm7.4,4.34c.13-.13.25-.25.38-.51.26,0,.26-.13.13-.13-.26.13,0-.13-.13.26-.26,0-.38.26-.38.51h-.13l.13-.13Zm2.42-3.83c-.13.26-.13.51.13.64.13-.13.13-.38-.13-.64Zm2.3,6.89q-.13-.13-.25-.26c-.13.26,0,.26.25.26Zm.13-15.95l.13-.13h-.13v.13Zm.13,7.53c0,.13-.13.26-.13.38.13,0,.26.13.38.13s.26-.13.13-.38c-.13,0-.26-.13-.38-.13Zm0-4.72c.26.13.51.26.77-.13-.38,0-.64-.38-.77.13Zm.89,2.81c.13-.51.26-.89-.38-1.02-.38.51-.13.77.38,1.02Zm.13-14.17c-.13.13,0,.26.13.26h.26c0-.26,0-.38-.26-.38,0,0-.13,0-.13.13Zm.13,19.91q.13-.13-.13-.13,0,.13.13.13Zm3.06-3.45c-1.02.26-1.66.38-2.17.64-.13.38-.38.89-.64,1.53,1.4-.38,1.79-1.15,2.81-2.17Zm-1.28-3.32c-.38.25-.38.51-.26.77.26.38.64.38.89.13.26-.64,0-1.02-.64-.89Zm-.13-6.51c.38.13.51-.13.77-.64-.77-.13-1.15-.13-.77.64Zm.51-10.85c-.25.26-.51.51-.64.89.64.25,1.28.38,2.42.64-.64-.89-1.02-1.4-1.79-1.53Zm-.64,6.64l.13-.13h-.13v.13Zm.13,8.42l-.13-.13v.13h.13Zm.26-7.15s-.26.13-.26.25c.26,0,.51,0,.26-.25Zm.13,18.5l-.26-.13v.26l.26-.13Zm2.17-10.85c.13-.51-.13-.64-.51-.77-.26-.64-.77-1.02-1.66-.64.64.26,1.02.89,1.79.51-.13.38-.13.77.38.89Zm-1.79,9.32q-.13,0-.26.13.13,0,.26-.13Zm0-18.76c.89.26,1.02-.38,1.28-.77,0,0,.26-.26,0,0-.51,0-1.4-.51-1.28.77Zm.64-10.59l-.13.13h.13v-.13Zm.38,33.31c0,.13-.13.26-.25.38.38,0,.38-.13.25-.38Zm.77-3.45c-.26-.13-.51-.38-.77-.64,0,.77.26.89.77.64Zm-.51-30.88c.26.26.51.51.64.13.13-.26-.13-.64-.64-.51v.38Zm.89,26.8s-.13,0-.25.13c.13,0,.25,0,.25-.13Zm.26-29.1c-.13,0-.26.13-.38.13.13,0,.26.26.38-.13Zm-.26,17.99c0,.13.13.13.26.13-.13,0-.26-.13-.26-.13Zm.26-1.4c.38-.26.77-.38,1.15-.64-.13-.64-.64-.51-1.02-.64-.13.51-.51.89-.13,1.28Zm.13,8.55s-.13.13-.26.13c.13,0,.26,0,.26-.13Zm0-17.1c.51,0,.64-.13.51-.77-.51.13-.89.38-.51.77Zm0,3.96s0-.13-.13-.13q0,.13.13.13Zm.13-12.63c1.02-.38,1.53-.51,2.17-.77-.77-.13-1.4-.25-2.17.77Zm.64-4.34l-.25.26c.13,0,.13-.13.25-.26Zm.51,25.4c.13-.13-.13-.51-.26-.51-.38,0-.51.13-.51.51.25.25.51.25.77,0Zm-.51,10.97c-.25.13,0-.13-.13.26h-.13s.13,0,.13-.13c.26,0,.26-.13.13-.13Zm.64-26.93c-.26-.38-.38-.38-.64-.13.26.26.38.26.64.13Zm-.26,5.74v.13c-.13,0-.51,0-.13.38v-.51h.13Zm0,3.57l.26.13v-.13h-.26Zm1.15-6c-.26.13-.64.26-.89.38.26.26.51.51.51.77,0,0,.13,0,.13-.13.64-.26.51-.64.26-1.02Zm.38,3.57h-.26c.13-.25.13-.51-.26-.38.13.13.26.13.38.26l.13.13Zm-.38,7.79c.13,0,.13-.13.13-.26-.13,0-.13.13-.13.26Zm.13-17.48l.13.13c.51.77,1.15,1.28,2.17,1.28q-.77-1.4-2.3-1.15v-.25Zm.51-9.57c-.13,0-.25.25-.13.25,0,.13.25.26.25.26.13-.13.13-.26.26-.38-.13-.13-.38-.13-.38-.13Zm.77,20.93c-.13,0-.38.13-.38.38.26.13.51.13.64.13,0,.77-.13,1.66.25,2.3.64.13,1.28.25,1.66.77-.64-.89-1.28-1.91-1.91-2.94-.13-.25-.13-.51-.26-.64Zm0-3.32c-.26.26-.26.38,0,.64.38-.13.26-.38,0-.64Zm.13-5.74l-.13-.13v.13h.13Zm-.13,3.32c.38.26.64.26.77-.13-.26-.13-.64-.51-.77.13Zm.13,4.72c.13,0,.25,0,.38-.13-.25,0-.38-.26-.38.13Zm.13-11.74c.38.38.64.13.77-.26-.38-.26-.64-.26-.77.26Zm.77,8.81c-.13-.13-.26-.13-.26-.13-.13-.25,0-.51-.38-.25.13,0,.26.13.38.13,0,.13-.13.51.26.25Zm-.51,29.61c0-.13,0-.26,0,0-.13-.26,0-.13,0,0Zm0-49.26c.51,0,.77-.25,1.15-.64-.64-.13-1.02,0-1.15.64Zm1.53,19.91c-.13-.13-.26-.13-.26.13,0,0,.13,0,.26-.13Zm-.26,2.55c0,.38,0,.77.77.51-.13-.38-.26-.77-.77-.51Zm.13-16.46v.38-.38Zm.51,2.81h.38-.38Zm.38-10.08h.13v-.13l-.13.13Zm.64,24.88l.13.13c.26.38-.51.64-.13.89.38-.26.64-.51.13-.77l-.13-.26Zm.38-21.95l.25.13v-.13h-.25Zm.64.89c-.26,0-.26.13-.51.51q0-.13.13-.25c.13,0,.51.13.38-.26Zm-.38,4.59l-.13-.13h.13v.13Zm2.04,19.27h.13c.26-.26.38-.51-.13-.77,0,.26-.26.38,0,.77Zm3.32-5.74c1.28-.26,2.81-.26,4.21-.38.89-.13,2.04-.13,2.94-.38,1.4-.38,2.17-1.53,1.79-2.93-.64-2.94-1.4-5.87-2.04-8.81-.38-1.91-1.02-3.7-1.02-5.61,0-.89-.26-1.66-1.02-2.3-2.55-.64-3.32-.13-3.57,2.3-.13.51-.13,1.02-.26,1.4-1.79,4.85-2.17,10.08-3.57,15.06-.13.38,0,.77,0,1.15.89.77,1.79.77,2.55.51Zm-.38,5.1l-.13.13h.13v-.13Zm1.79,0h-.13c-.26,0-.13.13,0,.26.13,0,.13-.13.13-.26Zm.89,0l.13.13v-.13h-.13Zm3.57-.89c-.26.26-.64.13-.64.51.26,0,.51.26.64-.51Zm2.68-.51h-.25.25Zm2.04.26c-.51.38-1.15.26-1.28,1.4.51-.64,1.15-.38,1.28-1.4Zm1.28,1.02l-.13.13c0,.13.13.13.13.13,0,0,.13,0,.13-.13,0,0,0-.13-.13-.13Zm.38-2.04c.38-.13.51-.26.51-1.28-.51.64-.89.77-.51,1.28Zm2.68-15.31c-.51-.64-.89-.64-1.4.13.51,0,.89.13,1.4-.13Zm1.15,2.17c.13-.26-.13-.38-.13-.51-.38-.51-.77-.51-1.28-.13-.26.13-.64.26-1.15.51,1.02.26,1.66-.25,2.42-.38,0,.13-.13.38.13.51Zm-2.17-5.1c.13-.25.13-.38-.13-.51,0,.26,0,.38.13.51Zm.51,15.7c.13-.38.26-.64-.13-.89-.25.26-.38.64.13.89Zm-.13,5.74c-.13.13-.25.38-.13.51.13.26.38.13.64,0,0-.38-.26-.51-.51-.51Zm.26-3.83c-.13-.13-.26-.13-.38,0,.13.25.25.25.38,0Zm-.26-4.6l.51.51c.13-.64.13-.89-.51-.51Zm1.28-19.4c-.38-.51-.77-.38-1.15.13.38.13.89.51,1.15-.13Zm-.89,18.12v.25c.13.13.38.13.51,0-.13-.25-.26-.38-.51-.25Zm.77,10.21c.64,0,1.02.13,1.27-.64-.51,0-.89-.25-1.27.64Zm.13-2.94c.26.26.38.13.51,0-.13-.13-.26-.38-.51,0Zm.89-2.3c-.26-.25-.51-.25-.51.26q-.26,0-.26.26c.13,0,.26-.13.13-.38.26.13.51.13.64-.13Zm-.13-15.06c0,.13.26.26.26.26.38-.26.25-.64.13-1.15-.51.26-.77.51-.38.89Zm1.53,23.86l-.13-.13c0-.38-.13-.77-.64-1.02-.38.13-.77.13-.51.77.38.26.77.26,1.27.26v.13Zm-.89-29.1l-.13.13v.13-.13l.13-.13Zm.38,16.85c.51,0,.64-.38.77-1.02-.64.26-1.28.13-.77,1.02Zm0-2.68c.26,0,.26-.26.13-.26-.13-.13-.26-.13-.26.13,0,.13.13.13.13.13Zm.13,6.64c.13.51.38.89.64,1.53q.13-1.4-.64-1.53Zm.64,5.61c-.38-.13-.64-.26-.64.38.38,0,.51-.13.64-.38Zm-.38-17.36v.13c.25.26.13.89.77.77,0-.51-.38-.51-.77-.64v-.26Zm.38,9.83l-.13-.13v.13h.13Zm.26-6.25l.13.13v-.13h-.13Zm.89.89c-.26-.13-.38,0-.38.26,0,.13,0,.26.13.26.26.13.38,0,.51-.26-.13-.13-.13-.26-.26-.26Zm.13-6.64c-.13.13-.26.13-.38.13.13.13.26.25.38-.13Zm.13,12.76c-.13,0-.26.13-.26.13,0,.13.13.13.13.13q.13,0,.13-.26Zm.13,13.27c-.38,0-.38.26-.26.38.26,0,.51-.13.26-.38Zm-.26-8.93l.13.13v-.13h-.13Zm.13-11.61h.26c0,.64.26,1.02,1.02,1.28-.13-.89-.64-1.02-1.28-1.28Zm.13,35.61h.13-.13l-.13-.13.13.13Zm.13-39.69s-.13,0-.13-.13c.13,0,.13.13.13.13Zm.13,18.63c-.26.25-.26.38,0,.51.38-.13.13-.26,0-.51Zm.13-20.8c.25.51.51.38.77,0-.26-.25-.51-.38-.77,0Zm0,16.21c.38.25.64.13.77-.26-.38-.38-.64-.26-.77.26Zm.77,8.42c-.26.26-.64.38-.77,1.02.89,0,1.15-.25.77-1.02Zm.38-19.01c-.13-.13-.26,0-.51,0,.13.25.38.13.51,0Zm-.26,6.12c.26-.25.38-.51.64-.64.26,0,.51,0,.51-.38-.38-.13-.51,0-.51.38-.26,0-.89-.13-.64.64Zm1.28,19.4c-.26-.13-.51-.13-.51.51.51-.13.77-.13.51-.51Zm0-12.63q0,.13.13.25l-.13-.25Zm.64-3.45c.13-.13.13-.38-.13-.38-.26-.13-.38.13-.38.38.13.13.38.25.51,0Zm.38,10.97c-.26-.13-.51.13-.64.38.38.13.64.13.64-.38Zm-.51-2.68c0,.13.13.13.13-.13,0,0-.13,0-.13.13Zm.38-12.12q0,.13.13.13l-.13-.13Zm.26-2.3h-.13v.13l.13-.13Zm0,20.42l-.13-.13v.13h.13Zm.25-17.1l.13.13c.26.13.26,0,.26-.13-.13-.13-.26-.13-.38,0Zm.51,4.21c.26-.25.38-.38,0-.64-.26.26-.26.38,0,.64Zm0,22.2l.13-.13h-.13v.13Zm1.02-16.84c-.13-.38-.38-.26-.64-.13.13.64.38.64.64.13Zm.26,17.86c.26.13.51,0,.51-.51-.38,0-.51.13-.51.51Zm.26-13.14c.13-1.02,1.02-1.28,1.02-1.92,0-.77-.38-.89-1.02-1.02,1.02.89-.89,1.79,0,2.94Zm1.66,4.98c-.38,0-.64,0-.89.13.38.51.64.26.89-.25v.13Zm.51,8.04c-.13.13-.38.13-.26.38.13-.13.13-.26.13-.51h.13v.13Zm.13-5.62c.38.13.38-.13.51-.38-.38-.13-.51,0-.51.38Zm2.81,1.02c.13.38.13.77.77.64,0-.51.13-1.02-.26-1.4-.51.26-.51.51-.51.77Z"/>
      <path class="cls-1" d="m631.07,70.37c2.17-.26,3.96,1.27,4.08,3.45v11.74c-.13.89-.13,1.79-1.15,2.55-2.68.89-5.74.77-8.81.64-1.4-.13-2.68-.26-3.95-.13-3.06.13-6.25.26-9.32,0-3.7-.26-7.53.13-11.23.13-3.57-.13-4.59-1.4-4.59-4.85,0-3.19.51-6.38.13-9.57-.26-2.17,1.28-3.57,3.45-3.7,1.28-.13,2.55.26,3.7-.13,1.28-.64,1.15-1.79,1.15-2.93,0-7.02,0-14.04.13-21.06,0-3.19.13-6.51.13-9.83-.13-4.47.38-8.93,0-13.4-.13-1.02-.26-2.04-1.4-2.55-.77,0-1.53-.13-2.3,0-3.57.26-5.23-1.53-4.85-4.85.13-.89.26-1.79,0-2.55-.13-1.15-.26-2.17.13-3.32.26-1.15.13-2.17,0-3.32-.26-2.55.89-4.08,3.57-4.08,6,.13,12-.51,17.99-.13,3.06.26,6.25,0,9.44,0,13.14,0,30.63,1.02,36.63,15.19,1.79,4.08,2.3,8.29,2.04,12.63-.51,14.04-14.55,21.31-25.91,26.16-4.08,1.79-7.91,4.21-11.48,7.02-1.91,1.4-2.17,4.85-.77,7.02,1.28.38,2.17,0,3.19-.13Zm-26.93,9.57h.51c-.26-.13-.38-.25-.51,0Zm3.83-6.38c.38.26.64.38,1.53.38-.77-.25-.77-.89-1.53-.38Zm.13,3.45c.51-.13.77-.38.38-.89-.51.13-.64.38-.38.89Zm.64,3.32c.13,0,.38-.26,0-.38-.13,0-.25.26-.51.38.26,0,.38.13.51,0Zm.89-26.29c0-.13-.13-.26-.26,0,0,.13.13.25.13.38.13-.13.26-.26.13-.38Zm1.53,18.63c-.51-.51-1.02-.64-1.66-.26.64.64,1.02.38,1.66.26Zm-1.28-21.57l.13.13.13-.13s0-.13-.13-.13c0,0-.13,0-.13.13Zm.13,13.4c0,.13-.25.64.26.89.38-.26.64-.51.89-1.28-.51.26-.89-.13-1.15.38Zm0,12.38c0,.13.13.26.38.13,0-.26-.13-.26-.13-.38-.13.13-.26.13-.26.26Zm2.17-16.72c-1.15,0-1.79.38-2.04,1.28.77-.13,1.53-.26,2.04-1.28Zm-.38-18.12c-.38-.38-.38-1.02-1.4-1.02.38.64.64,1.15,1.4,1.02Zm-1.02,5.62c-.26-.13-.38,0-.38.38,0,0,.13.25.26.25.26,0,.38-.13.38-.38-.13-.13-.13-.26-.25-.26Zm-.26,20.93c0,.13-.13.26-.13.38,0-.13.13-.26.13-.38Zm.26-13.27c0,.13.13.13.13.26q.13-.13.13-.26h-.25Zm.51-20.04s-.13,0-.26-.13c0,0,.13,0,.26.13Zm-.26,10.59c.13.13.26.13.38,0-.13-.26-.26-.13-.38,0Zm.38,22.21c0-.13-.13-.26-.26-.13v-.13l.26.26Zm-.26,3.06l.13-.13-.13.13v.13-.13Zm.26-4.85s0-.13-.13-.13q0,.13.13.13Zm0-22.84c.13.25.38.25.64,0-.26-.51-.51-.51-.64,0Zm.26,30.75c.26.13.38.26.38.26v-.51h.13c-.13.13-.38.26-.51.26Zm.26-29.35s-.13,0-.13.13l.13-.13Zm.77-4.72c.13.13,0,0,0-.25-.13-.38.26-.38.38-.64-.26-.26-.38-.38-.77-.26-.13.38-.13.77.38.89,0,.13.13.38,0,.25Zm.26,22.59c-.64.26-.89.51-.38,1.15.77,0,.77-.38.89-.89-.13-.13-.25-.13-.51-.26Zm-.64-13.02h.13v-.13l-.13.13Zm.51-3.7q-.13-.25-.38-.25c.13.13.26.13.38.25Zm0,10.34v.25-.25Zm.64-6.25h-.13v.13l.13-.13Zm.38-12.76c0,.13.13.13.26.13,0-.13-.13-.13-.26-.13Zm0,24.25c.13-.13.26-.13.38-.13-.13-.13-.26-.13-.38.13Zm.26,13.4c-.26,0-.26.13-.13.13,0,0,0-.13.13-.13Zm.26-22.46c0-.13-.26-.13-.26,0s.13.26.13.38c.13-.13.25-.26.13-.38Zm.89,13.91c-.13-.64-.26-1.02-1.15-1.02.13.64.38,1.15,1.15,1.02Zm-.89-30.63q0-.13-.13-.25c-.13.13-.13.25.13.25Zm0,10.08s-.13,0-.13.13l.13.13q.13,0,.13-.13l-.13-.13Zm.77-3.45h-.77c.25.26.51.38.77,0Zm-.51,35.22c.13,0,.26-.13.51-.13-.26,0-.38,0-.51.13Zm.51-23.61c0,.25.13.25.26.13,0-.13-.13-.25-.13-.38-.13.13-.13.26-.13.26Zm.38,17.61c.38,0,.64.51,1.28.13-.26-.64-.64-1.15-1.28-1.02-.38.38,0,.64,0,.89h-.13.13Zm.64-33.31c.26-.13.26-.38,0-.51-.26-.13-.38,0-.64.26.25.38.51.38.64.26Zm-.51,25.91l.13.13v-.13h-.13Zm.64-28.08c0-.13-.13-.38-.13-.64-.51.38-.64.51.13.64Zm-.51,19.91v.26-.26Zm.26-7.79c.38.64.77.64,1.4-.13-.64-.38-1.02-.64-1.4.13Zm.38,9.06l.13.13c-.13.38-.77.89.26,1.15,0-.38.13-.89-.38-1.15v-.13Zm1.02-2.55c-.51-.26-.77,0-.89.51.64.26.89,0,.89-.51Zm-.77-1.79q.13,0,.13-.13l-.13.13Zm0,25.4v-.13.13Zm1.4-19.01c-.25-.13-.64-.13-.89.26.26.77.77.77,1.4.38-.26-.25-.38-.51-.51-.64Zm-.25-1.4c0-.26,0-.51-.38-.38.13.26.26.38.38.38Zm-.26-6.51c.13.13.13.26.26.26.25.25.38.64.89.13h-.89c0-.25.13-.38-.26-.38Zm.13-10.72c.13-.13.26-.13.38-.13-.13-.13-.25-.13-.38.13Zm0,21.18q.13,0,.26-.13s-.13,0-.26.13Zm2.3-17.1c-1.02,0-1.4-.64-2.17-.38.51.77,1.02.64,2.17.38Zm-1.92,20.93v-.13.13Zm1.53-32.8c-.89-.38-1.15.13-1.4.51.64.38.77-.25,1.4-.51Zm-1.4,15.19v.13l.26-.13h-.26Zm.38-6l-.13.13s0,.13.13.25c.13,0,.13-.13,0-.38Zm.38,28.58v-.26.26Zm.51-31.52c-.13.26-.13.51.13.77.64-.26.64-.51-.13-.77Zm.51,18.89c-.38.13-.51.26-.51.51.64.25.77.13.51-.51Zm-.26-22.33v.13h.13l-.13-.13Zm0,28.59l.13-.13h-.13v.13Zm.26-9.7l-.13.13s0,.13.13.13l.13-.13-.13-.13Zm.38,1.15c-.13-.13-.38-.26-.51,0,.13.26.26.13.51,0Zm-.38-6c.26.13.38.13.51-.26-.25-.13-.51-.25-.51.26Zm.77,23.35c-.13-.38-.13-.77-.26-1.15-.38.51,0,.77.13,1.02l.13.13Zm0-43.52l-.13.13h.13v-.13Zm.26,24.63c.38,0,.51-.25.38-.89-.38.26-.89.38-.38.89Zm0,13.53l-.13-.13v.13h.13Zm.38-20.04c.25.26.38.13.64-.13-.26-.13-.51-.26-.64.13Zm3.45,9.83c-.77-.13-1.02.26-1.28.77-.26,0-.38,0-.64.13,0-.38.26-.77-.13-1.02-.25.38-.89.51-.89,1.27.51.13.77-.38,1.15-.38,0,.13.13.13.26.26,0-.13.13-.26.26-.26.64.26,1.28.38,1.28-.77Zm-2.81-12.12c.13.26.26.51.64.26,0-.38-.25-.77-.64-.26Zm.38,27.31v.13c.13,0,.13-.13.25-.13,0-.13-.13-.13-.25,0Zm.51-18.12c.89-.26.89-.77.77-1.4-.77.26-.89.64-.77,1.4Zm.38-5.36q-.13,0-.13.13s.13,0,.13-.13Zm0,13.4h.13l-.13-.26v.26Zm.64-3.19c-.13.26.13.51.38.51.13,0,.26-.25.38-.51-.51-.26-.77-.13-.77,0Zm1.15-7.91c.38-.38.38-.64.13-1.02-.38.26-.25.64-.13,1.02Zm.89,6c.64.38,1.28.51,1.79-.13.38-.13.64-.26.51-.77-.51,0-.38.51-.51.77-.51-.13-1.15-1.15-1.79.13Zm2.68-15.31c3.45-2.04,6.64-4.47,9.83-6.89,2.55-2.04,4.59-4.47,5.23-7.91-.77-2.94-2.55-4.98-5.61-5.87-3.06-.89-6.25-1.4-9.32-1.02-1.79,1.02-2.42,2.3-2.04,4.08.13.51,0,1.02.13,1.66.26,1.91-.38,3.7-.38,5.61.13,3.06.64,6.12.26,9.19-.13.51,0,1.02.38,1.53.64.26,1.02-.13,1.53-.38Zm-1.91,13.53l-.13-.13-.13.13s0,.13.13.13l.13-.13Zm.77-.51c-.13.51.13.64.89.64-.38-.38-.51-.64-.89-.64Zm.64-1.02c-.26-.25-.51-.13-.64.13.26.13.51.26.64-.13Zm-.26-1.28h.26c0-.13-.13-.13-.13-.13,0,0-.13,0-.13.13Zm.89-1.91h.26-.26Zm.64,3.96c0,.13-.13.13-.13.25l.13.13c.13,0,.13-.13.13-.13q0-.13-.13-.25Zm.38-2.94l.13-.13h-.13v.13Zm1.02,3.83c-.25,0-.38.13-.64.13.26.13.64.38.64-.13Zm1.15-7.02c-.51.51-.38.89,0,1.4.89-.51.77-.89,0-1.4Zm2.93-.89c-.38,0-.89-.13-1.28.25.64.51,1.02.51,1.15-.38h.13v.13Zm-.13,3.95c-.38-.51-.64-.89-1.02-1.53q.13,1.28,1.02,1.53Zm.77.89h-.25c0,.13.13.25.25,0Zm2.42-2.42c-.51-.26-.89-.26-1.02.38q.64.26,1.02-.38Zm-.77-4.34q.13,0,0,.13c-.26,0,.13.13,0-.13v-.13.13Zm.64-3.45c0,.77.13,1.28.64,1.4.89.13.89-.51,1.4-1.28-.89.51-1.4.38-2.04-.13Zm.77,2.55c-.13,0-.13.13-.13.26,0,0,.13,0,.13-.26Zm-.13,2.55c0,.13.13.13.26.13.13.13.25.26.13.13.13.13,0,0-.26,0,0-.13-.13-.13-.13-.26Zm1.91,2.17c-.13,0-.13.13-.13.26.13,0,.13-.13.13-.26Zm.38-9.7v.51c.13-.26.26-.38,0-.51Zm.51,4.21c-.13.13-.51.13-.26.51.26-.13.38-.25.26-.51Zm1.79,2.3c-.64-.64-.77-.26-.89.26.38.25.64,0,.89-.26Zm.13-8.29s-.13,0-.26.13c0,0,.13.13.26.13v-.26Zm1.15,7.02c.26,0-.13-.13.13.13,0,.38-.26.77.13,1.15.51-.13.89-.38.89-1.02-.38,0-.77-.13-1.15-.13-.13,0-.13-.13,0-.13Zm0-4.47q-.13.13.13.13c0-.13-.13-.13-.13-.13Zm.77,3.95v-.13h-.13l.13.13Zm.38,2.81c.38.13.77.38,1.15,0-.13-.26-.38-.51-.51-.77.38,0,.77-.13,1.02-.51.26,0,.51.38.77,0,.13-.51-.13-1.02-.64-1.28v1.4c-.38.13-.77.26-1.15.38-.25.25-.77.25-.64.77Zm3.32-4.85c-.51.13-.64.64-.77,1.28,1.15-.13,1.02-.64.77-1.28Zm2.42,1.91c.13-.25.13-.51,0-.77-.77.38-.77.51,0,.77Zm.64-9.7c.13.26.13.51.26.64.26-.38,0-.38-.26-.51v-.13Zm.26,6.76l-.13.26h.13v-.26Zm.64-8.29c.38-.13.77-.26,1.02-.51-.38,0-.89-.38-1.02.51Zm.89,4.08s0,.13-.13.13q.13,0,.13-.13Zm1.28,2.93c0,.26.13.26.26.26.13.38.25.64.64.13-.26,0-.38-.13-.64-.13,0-.13,0-.26-.26-.26Zm.77-11.23v.13h-.13l.13-.13Zm.77,3.32v.25-.25Zm.13,2.55c0,.64.13,1.15.51,1.4.13.38-.38.77-.26,1.28.51-.64,1.4-1.02.89-2.17-.13.38-.25.77-.64.89-.13-.38,0-.89-.51-1.4Zm1.15-4.98c-.13-.13-.25-.13-.25.13.25,0,.25-.13.25-.13Zm1.02-2.04q0-.25-.26-.13v.13c-.13,0,0,0,.13.13,0-.13.13-.13.13-.13Zm1.66,2.17v.13-.13h-.13.13Z"/>
      <path class="cls-1" d="m579.25,49.82l-5.53-18.42-2.29,1.94-.82,5.92-4.62,12.65-5.28-5.94-8.48-19.26-6.62-23.29-1.59-2.68-3.12,5.2-3.92,11.14-1.83-.52-10.32,32.56-6.74,12.11-14.52,27.27h16.04l5.21-9.37,7.44-23.47-12.14,10.04,20.37-28.61,1.69-2.39.56-1.84,1.07-3.53-10.87,14.86,7.49-15.81,4.09-22.42,3.23,10.64,7.4,26.65-6.26-12.7-2.49,5.72,3.02,10.61,2.34-1.07-2.09,1.99,2.54,8.92,8.48,19.26,5.28,5.94,4.62-12.65.69-4.97-7.16,6.84,8.34-10.69-1.27-9.69,2.28-6.96.2-7.78,2.54,8.85.62,7.68-2.37,2.76,3.56,2.59-4.18,3.98,5.4,17.97,3.14,8.65h10.85l-13.99-38.65Z"/>
    </g>
  </g>
</svg>