<?xml version="1.0" encoding="utf-8"?>
<!-- Generator: Adobe Illustrator 26.0.1, SVG Export Plug-In . SVG Version: 6.00 Build 0)  -->
<svg version="1.1" id="Layer_1" xmlns="http://www.w3.org/2000/svg" xmlns:xlink="http://www.w3.org/1999/xlink" x="0px" y="0px"
	 viewBox="0 0 329.1 124.5" style="enable-background:new 0 0 329.1 124.5;" xml:space="preserve">
<style type="text/css">
	.st0{fill:#1A1A1A;}
	.st1{fill:none;stroke:#DA7500;stroke-width:2;stroke-miterlimit:10;}
	.st2{enable-background:new    ;}
	.st3{fill:#FFF5DE;}
</style>
<g id="Layer_2_00000173126899242426065460000013328551267244738239_">
	<g id="Layer_1-2">
		
			<rect x="2.8" y="20.6" transform="matrix(0.9977 -6.836355e-02 6.836355e-02 0.9977 -4.2164 11.184)" class="st0" width="317" height="93.2"/>
		
			<rect x="8.2" y="11.8" transform="matrix(0.9977 -6.836355e-02 6.836355e-02 0.9977 -3.6009 11.5322)" class="st1" width="317" height="93.2"/>
		<g class="st2">
			<path class="st3" d="M59.4,56.4l3.2,5.3l-3,0.2l-2.7-2l-2.4,2.4l-3,0.2l2.4-5.7L59.4,56.4z M61.2,85.2l-5.5,0.4l-1.5-21.5
				l5.5-0.4L61.2,85.2z"/>
			<path class="st3" d="M85.6,79.4L84.4,62l5.5-0.4l1.5,21.5l-8.8,0.6L71.4,67.5l1.2,16.9l-5.5,0.4l-1.5-21.5l8.3-0.6L85.6,79.4z"/>
			<path class="st3" d="M108.4,82.3c-2.7,0.2-5.3-0.2-7.7-1c-2.5-0.9-4.3-2.1-5.6-3.6l3.5-3.5c0.9,1.3,2.3,2.3,4.1,3.3
				c1.8,0.9,3.8,1.3,6,1.1c2.7-0.2,4-1,3.9-2.5c0-0.5-0.5-0.9-1.3-1.2c-0.8-0.3-1.9-0.5-3.1-0.6c-1.2-0.1-2.5-0.3-4-0.6
				c-1.4-0.3-2.8-0.6-4-1c-1.2-0.4-2.3-1-3.2-1.9c-0.9-0.9-1.4-1.9-1.4-3.2c-0.1-2,0.6-3.6,2.3-4.9s3.9-2,6.8-2.2
				c2.9-0.2,5.5,0.2,7.7,1.1c2.2,0.9,3.8,2.1,4.7,3.5l-3.8,3.3c-0.5-1.1-1.5-2.1-3.2-3c-1.7-0.9-3.6-1.3-5.6-1.1
				c-2.2,0.1-3.2,0.9-3.1,2.2c0,0.5,0.4,0.9,1,1.2c0.6,0.3,1.4,0.5,2.4,0.7c1,0.2,2,0.3,3.2,0.5c1.2,0.1,2.3,0.3,3.5,0.6
				c1.2,0.3,2.2,0.6,3.2,1c1,0.4,1.8,1,2.4,1.7c0.6,0.8,1,1.7,1.1,2.7c0.1,2.1-0.7,3.8-2.5,5.2C113.9,81.3,111.5,82.1,108.4,82.3z"
				/>
			<path class="st3" d="M135.8,75.8c2.5-0.2,4.5-0.8,6-1.8c1.5-1,2.3-2.4,2.3-4l6.1,0.7c-0.6,2.8-2.2,5-4.7,6.7
				c-2.5,1.7-5.7,2.7-9.4,3c-4.4,0.3-7.9-0.4-10.6-2.2c-2.7-1.8-4.2-4.3-4.4-7.7c-0.2-3.4,0.9-6.3,3.3-8.5c2.4-2.2,5.8-3.5,10.2-3.8
				c3.7-0.3,7,0.3,9.7,1.7c2.7,1.4,4.6,3.5,5.6,6.2L144,68c-0.2-1.8-1.2-3.1-2.8-4c-1.6-0.9-3.7-1.3-6.3-1.1c-2.8,0.2-5,0.9-6.4,2.2
				c-1.4,1.2-2.1,2.9-1.9,5.1c0.1,2,1,3.6,2.6,4.6C130.8,75.6,133,76,135.8,75.8z"/>
			<path class="st3" d="M171.5,69.5L171.5,69.5c1.3,0.2,2.4,0.5,3.2,0.9c0.8,0.4,1.4,0.8,1.7,1.4c0.3,0.5,0.6,1.1,0.7,1.6
				c0.2,0.6,0.4,1.2,0.6,1.9c0.3,0.7,0.6,1.3,1,1.8l-6.1,0.4c-0.1-0.2-0.2-0.5-0.3-0.9c-0.1-0.4-0.1-0.9-0.2-1.3
				c-0.1-0.5-0.2-0.9-0.5-1.5c-0.3-0.5-0.7-1-1.1-1.3s-1.2-0.7-2.2-0.9c-1-0.2-2.2-0.2-3.6-0.2l-4,0.3l0.5,6.6l-5.5,0.4l-1.5-21.5
				l14.6-1c2.7-0.2,4.8,0.2,6.4,1.2c1.6,1,2.4,2.5,2.5,4.5c0.1,1.9-0.3,3.6-1.4,4.9C175.2,68.2,173.6,69.1,171.5,69.5z M160,61.4
				l0.4,5.8l8.9-0.6c1-0.1,1.7-0.4,2.3-1.1c0.5-0.7,0.8-1.4,0.7-2.2c-0.1-0.8-0.4-1.4-1.1-1.9c-0.7-0.4-1.6-0.6-2.6-0.5L160,61.4z"
				/>
			<path class="st3" d="M188.3,76.5l-5.5,0.4l-1.5-21.5l5.5-0.4L188.3,76.5z"/>
			<path class="st3" d="M199.2,67.3l0.3,3.8l14.5-1l0.3,4.5l-20,1.4l-1.5-21.5l19.6-1.3l0.3,4.5l-14.2,1l0.3,4.1l12.7-0.9l0.3,4.5
				L199.2,67.3z"/>
		</g>
		<g class="st2">
			<path class="st3" d="M217.7,67.6l-0.3-4.2l9.3-0.6l0.3,4.2L217.7,67.6z"/>
		</g>
		<g class="st2">
			<path class="st3" d="M226.1,52.3l23.7-1.6l0.3,4.5l-9.1,0.6l1.2,16.9l-5.5,0.4l-1.2-16.9l-9.1,0.6L226.1,52.3z"/>
			<path class="st3" d="M260.8,63.1l0.3,3.8l14.5-1l0.3,4.5l-20,1.4l-1.5-21.5L274,49l0.3,4.5l-14.2,1l0.3,4.1l12.7-0.9l0.3,4.5
				L260.8,63.1z"/>
		</g>
	</g>
</g>
</svg>
