<svg xmlns="http://www.w3.org/2000/svg" viewBox="0 0 1834.89 63.57"><defs><style>.cls-1{fill:#1a1a1a;}</style></defs><g id="Layer_2" data-name="Layer 2"><g id="Layer_1-2" data-name="Layer 1"><path class="cls-1" d="M307.49,29a1.65,1.65,0,0,1,2.89-1.59,46.76,46.76,0,0,0,6.68,9.15,44.64,44.64,0,0,0,6.43,5.67,43.42,43.42,0,0,0,22.56,8.05,1.65,1.65,0,1,1-.2,3.29,46.73,46.73,0,0,1-24.29-8.67,47.77,47.77,0,0,1-6.91-6.09A49.83,49.83,0,0,1,307.5,29Z"/><path class="cls-1" d="M301.84,22.7c-1.41-2.56-2.09-5.24-1.44-7.34.4-1.3,1.65-3.49,5.56-3.48a5.18,5.18,0,0,1,4.28,2.06c3.16,4.19.59,13.68.28,14.75a1.63,1.63,0,0,1-1,1.1,1.67,1.67,0,0,1-1.49-.18A20.61,20.61,0,0,1,301.84,22.7Zm6-6.43a2.07,2.07,0,0,0-.22-.35,1.86,1.86,0,0,0-1.65-.74c-2.05,0-2.31.83-2.4,1.15-.59,1.91,1.3,6,4.39,9C308.56,22.12,308.87,18.17,307.82,16.27Z"/><path class="cls-1" d="M314.41,38.51a1.55,1.55,0,0,1-.19-.56c-.17-1.15-1.53-11.32,1.93-15.44,1.9-2.25,4.27-2.92,6.35-1.79C324.88,22,326,25.29,325,28.36c-1.34,4.43-7.39,10-8.08,10.58a1.63,1.63,0,0,1-1.66.32A1.67,1.67,0,0,1,314.41,38.51Zm7.26-14.11a1.87,1.87,0,0,0-.74-.78c-.83-.46-1.77.44-2.25,1-1.42,1.68-1.69,5.88-1.51,9.48,1.9-2,4.1-4.7,4.71-6.7A4,4,0,0,0,321.67,24.4Z"/><path class="cls-1" d="M297.17,41.09a4.21,4.21,0,0,1-.5-2.44c.22-2.69,2.79-5,6-5.39,4.6-.55,12.09,2.77,12.93,3.15a1.67,1.67,0,0,1,1,1.4,1.63,1.63,0,0,1-.77,1.5c-1,.62-9.75,6-14.91,4.43A5.91,5.91,0,0,1,297.17,41.09Zm13.9-2.93c-2.62-.93-6-1.87-8-1.62-1.8.21-3,1.4-3.09,2.39s1.12,1.44,1.84,1.65C303.89,41.2,307.85,39.77,311.07,38.16Z"/><path class="cls-1" d="M327,47.24l-.08-.18c-.43-1.07-4.17-10.64-1.78-15.46,1.31-2.63,3.45-3.84,5.74-3.24,2.61.68,4.45,3.62,4.27,6.82-.25,4.63-4.82,11.43-5.34,12.2a1.63,1.63,0,0,1-1.54.7A1.65,1.65,0,0,1,327,47.24Zm4.38-14.49a2.32,2.32,0,0,0-1.34-1.2c-.92-.25-1.61.84-2,1.52-1,2-.24,6.11.78,9.56,1.37-2.41,2.88-5.54,3-7.63A4.19,4.19,0,0,0,331.38,32.75Z"/><path class="cls-1" d="M310.3,54.38a4.11,4.11,0,0,1-.48-1.39c-.42-2.66,1.53-5.52,4.54-6.65,4.33-1.63,12.4-.17,13.31,0a1.65,1.65,0,0,1,.87,2.77c-.81.83-8.07,8.09-13.44,7.84C312.53,56.83,311,55.7,310.3,54.38Zm13.4-5.28c-2.76-.28-6.23-.41-8.18.33-1.71.64-2.59,2.08-2.44,3s1.43,1.14,2.17,1.18C317.45,53.76,321,51.43,323.7,49.1Z"/><path class="cls-1" d="M424,49.71c-.28-.65-1.84-4.11-3-6.56,1,.34,1.8.56,2,.4.65-.42-1.13-2.2-1.13-2.2a12,12,0,0,0,2.22,1.34c.37,0,0-1.08,0-1.08s2.16,1.76,2.78,1-4.48-4.19-5.57-5.73c-.25-.35-.61-.92-1-1.57a.83.83,0,0,0,.36,0c.48-.1,0-1,0-1s2.34,1.48,3.19,1.15-2.26-2.13-2.61-2.83c-.2-.39-1.22-2.31-2.06-3.89a2.35,2.35,0,0,0,1.32.22c.51-.34-.89-1.74-.89-1.74a9.37,9.37,0,0,0,1.76,1.05c.29,0,0-.85,0-.85s1.71,1.4,2.2.78-3.55-3.32-4.42-4.55c-.44-.62-1.34-2.08-2.11-3.37.6.36,1.4.76,1.61.58s-.45-.88-1.11-1.72c0,0,2.88,1.93,3.43,1.61s-2.28-2.37-2.91-3.16c-.35-.46-1.54-2.37-2.51-3.95.52.44,1.26,1,1.5.9s-.62-1.55-.62-1.55,1.69.48,1.9.23-1.11-1.2-2.43-2.75a44.69,44.69,0,0,1-5-8.44,45.23,45.23,0,0,1-5,8.44c-1.33,1.55-2.64,2.5-2.43,2.75s1.89-.23,1.89-.23-1,1.38-.61,1.55,1-.46,1.5-.9c-1,1.58-2.16,3.49-2.52,3.95-.63.79-3.44,2.83-2.9,3.16s3.42-1.61,3.42-1.61c-.65.84-1.45,1.42-1.1,1.72s1-.22,1.61-.58c-.78,1.29-1.67,2.75-2.11,3.37-.87,1.23-4.91,3.93-4.42,4.55s2.2-.78,2.2-.78-.29.85,0,.85a9.37,9.37,0,0,0,1.76-1.05s-1.41,1.4-.9,1.74c.17.11.69,0,1.33-.22-.85,1.58-1.86,3.5-2.06,3.89-.35.7-3.46,2.5-2.61,2.83s3.18-1.15,3.18-1.15-.48.92,0,1a.86.86,0,0,0,.37,0c-.41.65-.77,1.22-1,1.57-1.09,1.54-6.19,5-5.57,5.73s2.77-1,2.77-1-.36,1.08,0,1.08a11.66,11.66,0,0,0,2.22-1.34s-1.77,1.78-1.13,2.2c.24.16,1.08-.06,2-.4-1.12,2.45-2.68,5.91-3,6.56-.44,1-4.36,3.7-3.29,4.19s4-1.71,4-1.71-.6,1.36,0,1.52,3.09-1.35,3.09-1.35-.95,1.77-.16,2,3.54-2.82,3.54-2.82-.83,1.46-.37,2.15,1.9-1.17,1.9-1.17-.56,2.37,0,2.27,2.51-2.44,2.65-2.6V63.57h3.34V53.1a6.9,6.9,0,0,0,2.64,1.71c.58,0,0-2.27,0-2.27s1.44,1.85,1.9,1.17-.36-2.15-.36-2.15,2.76,3.06,3.54,2.82-.16-2-.16-2,2.48,1.5,3.09,1.35,0-1.52,0-1.52,2.94,2.2,4,1.71S424.4,50.74,424,49.71Z"/><polygon class="cls-1" points="0 62.19 29.55 30.91 34.78 25.38 43.2 12.75 44.73 8.92 46.71 7.45 54.44 17.91 60.24 21.56 63.4 24.31 74.38 10.78 77.19 11.15 83.23 3.55 88.04 0 90.48 1.84 100.79 17.91 113.73 30.86 121.86 34.91 128.97 26.28 130.24 22.25 133.76 20.92 142.29 33.49 166.58 62.19 141.45 35.97 133.69 24.05 133.4 29.36 129.9 34.11 131.84 40.73 98.18 59.85 115.23 47.08 115.76 43.53 120.94 36.7 112.99 31.98 95.6 13.44 88.83 3.56 82.53 18.86 71.01 29.64 87.73 19.5 85.23 23.17 77.82 29.14 88.98 26.28 90.43 32.4 53.07 55.51 85.23 40.83 97.44 50.26 41.59 59.69 64.3 43.02 22.05 57.46 46.1 42.85 52.2 39.99 61.3 27.29 58.84 22.11 53.55 19.11 47.12 8.79 42.54 19.35 26.81 36.45 47.52 17.91 44.2 30.86 33.04 39.93 31.57 47.13 0 62.19"/><path class="cls-1" d="M227.91,7.79a7.24,7.24,0,0,0-8.4,2.29C213.39,16.2,206.9,22.31,200.4,28.8c-5,5-4.58,8,.77,13,5.73,5.35,12.6,10.31,17.19,17.19,3.06,4.21,8,4.21,11.46.38,6.88-7.64,14.52-14.13,21-22.93C250.84,30.33,247,25.75,227.91,7.79Zm-8.4,27.51a1.44,1.44,0,0,1,2.29,0C221,36.44,220.27,36.06,219.51,35.3Zm7.26-6.5c0,.38.38.38.76.38C227.15,29.57,227.15,29.57,226.77,28.8Zm1.52,5.74a1.4,1.4,0,0,0,.39-1.15C229.44,34.54,228.68,34.15,228.29,34.54Z"/><path class="cls-1" d="M775.47,29a1.65,1.65,0,0,1,2.89-1.59A46.76,46.76,0,0,0,785,36.59a45.18,45.18,0,0,0,6.43,5.67A43.45,43.45,0,0,0,814,50.31a1.65,1.65,0,1,1-.19,3.29,46.73,46.73,0,0,1-24.3-8.67,47.77,47.77,0,0,1-6.91-6.09,49.83,49.83,0,0,1-7.15-9.8Z"/><path class="cls-1" d="M769.82,22.7c-1.41-2.56-2.09-5.24-1.44-7.34.4-1.3,1.65-3.49,5.56-3.48a5.18,5.18,0,0,1,4.28,2.06c3.17,4.19.59,13.68.29,14.75a1.66,1.66,0,0,1-2.51.92A20.53,20.53,0,0,1,769.82,22.7Zm6-6.43a3,3,0,0,0-.22-.35,1.88,1.88,0,0,0-1.66-.74c-2,0-2.3.83-2.4,1.15-.59,1.91,1.3,6,4.39,9C776.54,22.12,776.85,18.17,775.81,16.27Z"/><path class="cls-1" d="M782.39,38.51a1.54,1.54,0,0,1-.18-.56c-.17-1.15-1.54-11.32,1.93-15.44,1.89-2.25,4.27-2.92,6.35-1.79C792.86,22,794,25.29,793,28.36c-1.34,4.43-7.4,10-8.08,10.58a1.64,1.64,0,0,1-1.67.32A1.67,1.67,0,0,1,782.39,38.51Zm7.26-14.11a1.85,1.85,0,0,0-.73-.78c-.84-.46-1.78.44-2.26,1-1.41,1.68-1.69,5.88-1.51,9.48,1.9-2,4.11-4.7,4.71-6.7A3.92,3.92,0,0,0,789.65,24.4Z"/><path class="cls-1" d="M765.15,41.09a4.21,4.21,0,0,1-.5-2.44c.22-2.69,2.8-5,6-5.39,4.6-.55,12.09,2.77,12.93,3.15a1.65,1.65,0,0,1,.2,2.9c-1,.62-9.76,6-14.92,4.43A5.91,5.91,0,0,1,765.15,41.09Zm13.9-2.93c-2.61-.93-5.95-1.87-8-1.62-1.81.21-3,1.4-3.09,2.39s1.11,1.44,1.83,1.65C771.88,41.2,775.83,39.77,779.05,38.16Z"/><path class="cls-1" d="M795,47.24a1.42,1.42,0,0,1-.08-.18c-.44-1.07-4.18-10.64-1.79-15.46,1.31-2.63,3.46-3.84,5.75-3.24,2.61.68,4.44,3.62,4.27,6.82-.25,4.63-4.83,11.43-5.34,12.2a1.66,1.66,0,0,1-2.81-.14Zm4.37-14.49a2.33,2.33,0,0,0-1.33-1.2c-.92-.25-1.62.84-1.95,1.52-1,2-.25,6.11.78,9.56,1.37-2.41,2.87-5.54,3-7.63A4.28,4.28,0,0,0,799.36,32.75Z"/><path class="cls-1" d="M778.28,54.38A4.34,4.34,0,0,1,777.8,53c-.41-2.66,1.54-5.52,4.54-6.65,4.34-1.63,12.41-.17,13.31,0a1.63,1.63,0,0,1,1.27,1.12,1.65,1.65,0,0,1-.4,1.65c-.81.83-8.06,8.09-13.44,7.84C780.51,56.83,779,55.7,778.28,54.38Zm13.4-5.28c-2.76-.28-6.23-.41-8.18.33-1.7.64-2.59,2.08-2.44,3s1.43,1.14,2.18,1.18C785.43,53.76,788.94,51.43,791.68,49.1Z"/><path class="cls-1" d="M891.94,49.71c-.28-.65-1.85-4.11-3-6.56,1,.34,1.79.56,2,.4.64-.42-1.13-2.2-1.13-2.2a11.66,11.66,0,0,0,2.22,1.34c.36,0,0-1.08,0-1.08s2.15,1.76,2.77,1-4.48-4.19-5.57-5.73c-.25-.35-.61-.92-1-1.57a.88.88,0,0,0,.37,0c.48-.1,0-1,0-1s2.33,1.48,3.18,1.15-2.26-2.13-2.61-2.83c-.2-.39-1.21-2.31-2.06-3.89.64.21,1.16.33,1.33.22.51-.34-.9-1.74-.9-1.74a9.37,9.37,0,0,0,1.76,1.05c.29,0,0-.85,0-.85s1.71,1.4,2.2.78-3.55-3.32-4.41-4.55c-.45-.62-1.34-2.08-2.12-3.37.61.36,1.4.76,1.61.58s-.45-.88-1.1-1.72c0,0,2.88,1.93,3.42,1.61s-2.27-2.37-2.9-3.16c-.36-.46-1.55-2.37-2.52-3.95.52.44,1.27,1,1.5.9s-.61-1.55-.61-1.55,1.68.48,1.89.23-1.1-1.2-2.43-2.75a45.23,45.23,0,0,1-5-8.44,45.14,45.14,0,0,1-5,8.44c-1.33,1.55-2.64,2.5-2.44,2.75s1.9-.23,1.9-.23-1,1.38-.62,1.55,1-.46,1.5-.9c-1,1.58-2.15,3.49-2.51,3.95-.63.79-3.45,2.83-2.91,3.16s3.43-1.61,3.43-1.61c-.66.84-1.46,1.42-1.11,1.72s1-.22,1.61-.58c-.77,1.29-1.67,2.75-2.11,3.37-.87,1.23-4.9,3.93-4.41,4.55s2.19-.78,2.19-.78-.28.85,0,.85a9.37,9.37,0,0,0,1.76-1.05s-1.4,1.4-.89,1.74a2.35,2.35,0,0,0,1.32-.22c-.84,1.58-1.86,3.5-2.06,3.89-.35.7-3.45,2.5-2.61,2.83s3.19-1.15,3.19-1.15-.48.92,0,1a.83.83,0,0,0,.36,0c-.41.65-.77,1.22-1,1.57-1.09,1.54-6.19,5-5.57,5.73s2.78-1,2.78-1-.37,1.08,0,1.08a12,12,0,0,0,2.22-1.34s-1.78,1.78-1.13,2.2c.23.16,1.07-.06,2-.4-1.12,2.45-2.68,5.91-3,6.56-.45,1-4.37,3.7-3.3,4.19s4-1.71,4-1.71-.61,1.36,0,1.52,3.08-1.35,3.08-1.35-.94,1.77-.16,2S873,51.56,873,51.56s-.83,1.46-.36,2.15,1.9-1.17,1.9-1.17-.57,2.37,0,2.27,2.5-2.44,2.64-2.6V63.57h3.35V53.1c1,.84,2.1,1.71,2.64,1.71s0-2.27,0-2.27,1.43,1.85,1.9,1.17-.37-2.15-.37-2.15,2.76,3.06,3.55,2.82-.17-2-.17-2,2.48,1.5,3.09,1.35,0-1.52,0-1.52,2.95,2.2,4,1.71S892.38,50.74,891.94,49.71Z"/><polygon class="cls-1" points="467.98 62.19 497.53 30.91 502.76 25.38 511.18 12.75 512.72 8.92 514.7 7.45 522.42 17.91 528.23 21.56 531.38 24.31 542.36 10.78 545.18 11.15 551.22 3.55 556.02 0 558.47 1.84 568.77 17.91 581.72 30.86 589.85 34.91 596.96 26.28 598.23 22.25 601.74 20.92 610.27 33.49 634.57 62.19 609.44 35.97 601.68 24.05 601.38 29.36 597.88 34.11 599.83 40.73 566.16 59.85 583.22 47.08 583.75 43.53 588.92 36.7 580.97 31.98 563.59 13.44 556.82 3.56 550.52 18.86 538.99 29.64 555.72 19.5 553.22 23.17 545.8 29.14 556.96 26.28 558.41 32.4 521.05 55.51 553.22 40.83 565.42 50.26 509.57 59.69 532.28 43.02 490.04 57.46 514.09 42.85 520.19 39.99 529.28 27.29 526.82 22.11 521.53 19.11 515.11 8.79 510.52 19.35 494.8 36.45 515.5 17.91 512.18 30.86 501.03 39.93 499.56 47.13 467.98 62.19"/><path class="cls-1" d="M695.89,7.79a7.24,7.24,0,0,0-8.4,2.29c-6.11,6.12-12.61,12.23-19.1,18.72-5,5-4.59,8,.76,13,5.73,5.35,12.61,10.31,17.19,17.19,3.06,4.21,8,4.21,11.46.38,6.88-7.64,14.52-14.13,21-22.93C718.82,30.33,715,25.75,695.89,7.79Zm-8.4,27.51a1.44,1.44,0,0,1,2.29,0C689,36.44,688.25,36.06,687.49,35.3Zm7.26-6.5c0,.38.38.38.76.38C695.13,29.57,695.13,29.57,694.75,28.8Zm1.53,5.74a1.43,1.43,0,0,0,.38-1.15C697.42,34.54,696.66,34.15,696.28,34.54Z"/><path class="cls-1" d="M1247,29a1.64,1.64,0,0,1,2.88-1.59,46.76,46.76,0,0,0,6.68,9.15,45.18,45.18,0,0,0,6.43,5.67,43.45,43.45,0,0,0,22.56,8.05,1.65,1.65,0,0,1-.19,3.29,46.73,46.73,0,0,1-24.3-8.67,48.31,48.31,0,0,1-6.91-6.09A49.83,49.83,0,0,1,1247,29Z"/><path class="cls-1" d="M1241.31,22.7c-1.41-2.56-2.09-5.24-1.44-7.34.4-1.3,1.66-3.49,5.56-3.48a5.18,5.18,0,0,1,4.28,2.06c3.17,4.19.59,13.68.29,14.75a1.66,1.66,0,0,1-2.51.92A20.53,20.53,0,0,1,1241.31,22.7Zm6-6.43a3,3,0,0,0-.22-.35,1.86,1.86,0,0,0-1.66-.74c-2.05,0-2.3.83-2.4,1.15-.59,1.91,1.3,6,4.39,9C1248,22.12,1248.34,18.17,1247.3,16.27Z"/><path class="cls-1" d="M1253.88,38.51a1.54,1.54,0,0,1-.18-.56c-.17-1.15-1.53-11.32,1.93-15.44,1.89-2.25,4.27-2.92,6.35-1.79,2.37,1.28,3.46,4.57,2.53,7.64-1.34,4.43-7.4,10-8.08,10.58a1.63,1.63,0,0,1-1.66.32A1.65,1.65,0,0,1,1253.88,38.51Zm7.27-14.11a1.93,1.93,0,0,0-.74-.78c-.84-.46-1.78.44-2.26,1-1.41,1.68-1.69,5.88-1.51,9.48,1.91-2,4.11-4.7,4.71-6.7A4,4,0,0,0,1261.15,24.4Z"/><path class="cls-1" d="M1236.64,41.09a4.29,4.29,0,0,1-.5-2.44c.22-2.69,2.8-5,6-5.39,4.6-.55,12.1,2.77,12.93,3.15a1.65,1.65,0,0,1,.2,2.9c-1,.62-9.76,6-14.92,4.43A5.91,5.91,0,0,1,1236.64,41.09Zm13.9-2.93c-2.61-.93-6-1.87-8-1.62-1.81.21-3,1.4-3.09,2.39s1.11,1.44,1.83,1.65C1243.37,41.2,1247.33,39.77,1250.54,38.16Z"/><path class="cls-1" d="M1266.48,47.24a1.42,1.42,0,0,1-.08-.18c-.44-1.07-4.18-10.64-1.79-15.46,1.31-2.63,3.46-3.84,5.75-3.24,2.61.68,4.44,3.62,4.27,6.82-.25,4.63-4.82,11.43-5.34,12.2a1.66,1.66,0,0,1-2.81-.14Zm4.38-14.49a2.35,2.35,0,0,0-1.34-1.2c-.92-.25-1.62.84-2,1.52-1,2-.25,6.11.78,9.56,1.37-2.41,2.87-5.54,3-7.63A4.38,4.38,0,0,0,1270.86,32.75Z"/><path class="cls-1" d="M1249.77,54.38a4.09,4.09,0,0,1-.47-1.39c-.42-2.66,1.53-5.52,4.53-6.65,4.34-1.63,12.41-.17,13.31,0a1.63,1.63,0,0,1,1.27,1.12,1.67,1.67,0,0,1-.39,1.65c-.81.83-8.07,8.09-13.45,7.84C1252,56.83,1250.49,55.7,1249.77,54.38Zm13.4-5.28c-2.76-.28-6.23-.41-8.18.33-1.7.64-2.59,2.08-2.44,3s1.43,1.14,2.18,1.18C1256.92,53.76,1260.43,51.43,1263.17,49.1Z"/><path class="cls-1" d="M1363.43,49.71c-.28-.65-1.85-4.11-3-6.56,1,.34,1.79.56,2,.4.64-.42-1.13-2.2-1.13-2.2a12,12,0,0,0,2.22,1.34c.36,0,0-1.08,0-1.08s2.16,1.76,2.77,1-4.48-4.19-5.57-5.73c-.25-.35-.61-.92-1-1.57a.88.88,0,0,0,.37,0c.48-.1,0-1,0-1s2.33,1.48,3.18,1.15-2.25-2.13-2.61-2.83c-.2-.39-1.21-2.31-2.06-3.89.64.21,1.16.33,1.33.22.51-.34-.9-1.74-.9-1.74a9.37,9.37,0,0,0,1.76,1.05c.29,0,0-.85,0-.85s1.71,1.4,2.2.78-3.55-3.32-4.41-4.55c-.44-.62-1.34-2.08-2.12-3.37.61.36,1.4.76,1.61.58s-.45-.88-1.1-1.72c0,0,2.88,1.93,3.42,1.61s-2.27-2.37-2.9-3.16c-.36-.46-1.55-2.37-2.51-3.95.51.44,1.26,1,1.49.9s-.61-1.55-.61-1.55,1.68.48,1.89.23-1.1-1.2-2.43-2.75a45.23,45.23,0,0,1-5-8.44,45.14,45.14,0,0,1-5,8.44c-1.33,1.55-2.64,2.5-2.43,2.75s1.89-.23,1.89-.23-1,1.38-.62,1.55,1-.46,1.5-.9c-1,1.58-2.15,3.49-2.51,3.95-.63.79-3.45,2.83-2.91,3.16s3.43-1.61,3.43-1.61c-.66.84-1.46,1.42-1.11,1.72s1-.22,1.61-.58c-.77,1.29-1.67,2.75-2.11,3.37-.86,1.23-4.9,3.93-4.41,4.55s2.19-.78,2.19-.78-.28.85,0,.85a9.37,9.37,0,0,0,1.76-1.05s-1.4,1.4-.89,1.74a2.35,2.35,0,0,0,1.32-.22c-.84,1.58-1.86,3.5-2.06,3.89-.35.7-3.45,2.5-2.61,2.83s3.19-1.15,3.19-1.15-.48.92,0,1a.83.83,0,0,0,.36,0c-.41.65-.77,1.22-1,1.57-1.09,1.54-6.19,5-5.57,5.73s2.78-1,2.78-1-.37,1.08,0,1.08a12,12,0,0,0,2.22-1.34s-1.78,1.78-1.13,2.2c.24.16,1.07-.06,2-.4-1.11,2.45-2.68,5.91-3,6.56-.45,1-4.36,3.7-3.29,4.19s4-1.71,4-1.71-.61,1.36,0,1.52,3.09-1.35,3.09-1.35-1,1.77-.17,2,3.54-2.82,3.54-2.82-.83,1.46-.36,2.15,1.9-1.17,1.9-1.17-.57,2.37,0,2.27,2.5-2.44,2.64-2.6V63.57h3.35V53.1c1,.84,2.1,1.71,2.64,1.71s0-2.27,0-2.27,1.43,1.85,1.9,1.17-.36-2.15-.36-2.15,2.75,3.06,3.54,2.82-.17-2-.17-2,2.48,1.5,3.09,1.35,0-1.52,0-1.52,3,2.2,4,1.71S1363.87,50.74,1363.43,49.71Z"/><polygon class="cls-1" points="939.48 62.19 969.02 30.91 974.26 25.38 982.67 12.75 984.21 8.92 986.19 7.45 993.92 17.91 999.72 21.56 1002.87 24.31 1013.85 10.78 1016.67 11.15 1022.71 3.55 1027.51 0 1029.96 1.84 1040.26 17.91 1053.21 30.86 1061.34 34.91 1068.45 26.28 1069.72 22.25 1073.23 20.92 1081.76 33.49 1106.06 62.19 1080.93 35.97 1073.17 24.05 1072.87 29.36 1069.37 34.11 1071.32 40.73 1037.65 59.85 1054.71 47.08 1055.24 43.53 1060.41 36.7 1052.46 31.98 1035.08 13.44 1028.31 3.56 1022.01 18.86 1010.48 29.64 1027.21 19.5 1024.71 23.17 1017.29 29.14 1028.45 26.28 1029.9 32.4 992.54 55.51 1024.71 40.83 1036.91 50.26 981.07 59.69 1003.77 43.02 961.53 57.46 985.58 42.85 991.68 39.99 1000.77 27.29 998.31 22.11 993.02 19.11 986.6 8.79 982.01 19.35 966.29 36.45 986.99 17.91 983.67 30.86 972.52 39.93 971.05 47.13 939.48 62.19"/><path class="cls-1" d="M1167.39,7.79a7.25,7.25,0,0,0-8.41,2.29c-6.11,6.12-12.61,12.23-19.1,18.72-5,5-4.59,8,.76,13,5.73,5.35,12.61,10.31,17.19,17.19,3.06,4.21,8,4.21,11.47.38,6.87-7.64,14.52-14.13,21-22.93C1190.31,30.33,1186.49,25.75,1167.39,7.79ZM1159,35.3a1.44,1.44,0,0,1,2.29,0C1160.51,36.44,1159.75,36.06,1159,35.3Zm7.26-6.5c0,.38.38.38.76.38C1166.62,29.57,1166.62,29.57,1166.24,28.8Zm1.53,5.74a1.43,1.43,0,0,0,.38-1.15C1168.91,34.54,1168.15,34.15,1167.77,34.54Z"/><path class="cls-1" d="M1715,29a1.65,1.65,0,0,1,2.89-1.59,47.12,47.12,0,0,0,6.67,9.15,45.25,45.25,0,0,0,6.44,5.67,43.42,43.42,0,0,0,22.56,8.05,1.65,1.65,0,1,1-.2,3.29A46.73,46.73,0,0,1,1729,44.93a47.25,47.25,0,0,1-6.91-6.09A50.29,50.29,0,0,1,1715,29Z"/><path class="cls-1" d="M1709.29,22.7c-1.4-2.56-2.08-5.24-1.44-7.34.4-1.3,1.66-3.49,5.56-3.48a5.18,5.18,0,0,1,4.28,2.06c3.17,4.19.6,13.68.29,14.75a1.63,1.63,0,0,1-1,1.1,1.67,1.67,0,0,1-1.49-.18A20.74,20.74,0,0,1,1709.29,22.7Zm6-6.43a3,3,0,0,0-.22-.35,1.86,1.86,0,0,0-1.65-.74c-2.05,0-2.31.83-2.41,1.15-.59,1.91,1.3,6,4.4,9C1716,22.12,1716.33,18.17,1715.28,16.27Z"/><path class="cls-1" d="M1721.86,38.51a1.75,1.75,0,0,1-.18-.56c-.17-1.15-1.53-11.32,1.93-15.44,1.9-2.25,4.27-2.92,6.35-1.79,2.38,1.28,3.46,4.57,2.53,7.64-1.34,4.43-7.39,10-8.08,10.58a1.63,1.63,0,0,1-1.66.32A1.69,1.69,0,0,1,1721.86,38.51Zm7.27-14.11a1.87,1.87,0,0,0-.74-.78c-.84-.46-1.77.44-2.25,1-1.42,1.68-1.69,5.88-1.52,9.48,1.91-2,4.11-4.7,4.72-6.7A4,4,0,0,0,1729.13,24.4Z"/><path class="cls-1" d="M1704.62,41.09a4.37,4.37,0,0,1-.5-2.44c.23-2.69,2.8-5,6-5.39,4.59-.55,12.09,2.77,12.93,3.15a1.67,1.67,0,0,1,1,1.4,1.63,1.63,0,0,1-.77,1.5c-1,.62-9.76,6-14.92,4.43A5.91,5.91,0,0,1,1704.62,41.09Zm13.91-2.93c-2.62-.93-6-1.87-8-1.62-1.8.21-3,1.4-3.09,2.39s1.11,1.44,1.83,1.65C1711.35,41.2,1715.31,39.77,1718.53,38.16Z"/><path class="cls-1" d="M1734.46,47.24l-.08-.18c-.43-1.07-4.17-10.64-1.78-15.46,1.31-2.63,3.45-3.84,5.74-3.24,2.61.68,4.45,3.62,4.27,6.82-.25,4.63-4.82,11.43-5.34,12.2a1.63,1.63,0,0,1-1.54.7A1.65,1.65,0,0,1,1734.46,47.24Zm4.38-14.49a2.35,2.35,0,0,0-1.34-1.2c-.92-.25-1.61.84-2,1.52-1,2-.24,6.11.78,9.56,1.37-2.41,2.88-5.54,3-7.63A4.19,4.19,0,0,0,1738.84,32.75Z"/><path class="cls-1" d="M1717.76,54.38a4.11,4.11,0,0,1-.48-1.39c-.42-2.66,1.53-5.52,4.54-6.65,4.33-1.63,12.4-.17,13.31,0a1.65,1.65,0,0,1,.87,2.77c-.81.83-8.07,8.09-13.44,7.84C1720,56.83,1718.48,55.7,1717.76,54.38Zm13.4-5.28c-2.76-.28-6.23-.41-8.19.33-1.7.64-2.59,2.08-2.43,3s1.42,1.14,2.17,1.18C1724.91,53.76,1728.41,51.43,1731.16,49.1Z"/><path class="cls-1" d="M1831.41,49.71c-.28-.65-1.85-4.11-3-6.56,1,.34,1.79.56,2,.4.65-.42-1.13-2.2-1.13-2.2a12,12,0,0,0,2.22,1.34c.37,0,0-1.08,0-1.08s2.16,1.76,2.78,1-4.48-4.19-5.57-5.73c-.25-.35-.61-.92-1-1.57a.83.83,0,0,0,.36,0c.48-.1,0-1,0-1s2.34,1.48,3.19,1.15-2.26-2.13-2.61-2.83c-.2-.39-1.22-2.31-2.06-3.89A2.35,2.35,0,0,0,1828,29c.51-.34-.89-1.74-.89-1.74a9.37,9.37,0,0,0,1.76,1.05c.28,0,0-.85,0-.85s1.7,1.4,2.19.78-3.55-3.32-4.41-4.55c-.44-.62-1.34-2.08-2.11-3.37.6.36,1.39.76,1.61.58s-.45-.88-1.11-1.72c0,0,2.88,1.93,3.43,1.61s-2.28-2.37-2.91-3.16c-.36-.46-1.55-2.37-2.51-3.95.52.44,1.26,1,1.5.9s-.62-1.55-.62-1.55,1.68.48,1.89.23-1.1-1.2-2.43-2.75a45.14,45.14,0,0,1-5-8.44,45.23,45.23,0,0,1-5,8.44c-1.33,1.55-2.64,2.5-2.43,2.75s1.89-.23,1.89-.23-1,1.38-.61,1.55,1-.46,1.49-.9c-1,1.58-2.15,3.49-2.51,3.95-.63.79-3.45,2.83-2.9,3.16s3.42-1.61,3.42-1.61c-.65.84-1.45,1.42-1.1,1.72s1-.22,1.61-.58c-.78,1.29-1.68,2.75-2.12,3.37-.86,1.23-4.9,3.93-4.41,4.55s2.2-.78,2.2-.78-.29.85,0,.85a9.37,9.37,0,0,0,1.76-1.05s-1.41,1.4-.9,1.74c.17.11.69,0,1.33-.22-.85,1.58-1.86,3.5-2.06,3.89-.36.7-3.46,2.5-2.61,2.83s3.18-1.15,3.18-1.15-.48.92,0,1a.88.88,0,0,0,.37,0c-.41.65-.77,1.22-1,1.57-1.09,1.54-6.19,5-5.57,5.73s2.77-1,2.77-1-.36,1.08,0,1.08a12,12,0,0,0,2.22-1.34s-1.77,1.78-1.13,2.2c.24.16,1.07-.06,2-.4-1.11,2.45-2.68,5.91-3,6.56-.44,1-4.36,3.7-3.29,4.19s4-1.71,4-1.71-.61,1.36,0,1.52,3.09-1.35,3.09-1.35-1,1.77-.17,2,3.55-2.82,3.55-2.82-.83,1.46-.37,2.15,1.9-1.17,1.9-1.17-.57,2.37,0,2.27,2.51-2.44,2.64-2.6V63.57H1820V53.1a6.9,6.9,0,0,0,2.64,1.71c.57,0,0-2.27,0-2.27s1.44,1.85,1.9,1.17-.36-2.15-.36-2.15,2.76,3.06,3.54,2.82-.17-2-.17-2,2.49,1.5,3.09,1.35,0-1.52,0-1.52,3,2.2,4,1.71S1831.86,50.74,1831.41,49.71Z"/><polygon class="cls-1" points="1407.46 62.19 1437.01 30.91 1442.24 25.38 1450.65 12.75 1452.19 8.92 1454.17 7.45 1461.9 17.91 1467.7 21.56 1470.86 24.31 1481.84 10.78 1484.65 11.15 1490.69 3.55 1495.49 0 1497.94 1.84 1508.25 17.91 1521.19 30.86 1529.32 34.91 1536.43 26.28 1537.7 22.25 1541.22 20.92 1549.75 33.49 1574.04 62.19 1548.91 35.97 1541.15 24.05 1540.86 29.36 1537.35 34.11 1539.3 40.73 1505.64 59.85 1522.69 47.08 1523.22 43.53 1528.39 36.7 1520.45 31.98 1503.06 13.44 1496.29 3.56 1489.99 18.86 1478.47 29.64 1495.19 19.5 1492.69 23.17 1485.28 29.14 1496.43 26.28 1497.88 32.4 1460.53 55.51 1492.69 40.83 1504.89 50.26 1449.05 59.69 1471.75 43.02 1429.51 57.46 1453.56 42.85 1459.66 39.99 1468.76 27.29 1466.29 22.11 1461.01 19.11 1454.58 8.79 1450 19.35 1434.27 36.45 1454.97 17.91 1451.66 30.86 1440.5 39.93 1439.03 47.13 1407.46 62.19"/><path class="cls-1" d="M1635.37,7.79a7.26,7.26,0,0,0-8.41,2.29c-6.11,6.12-12.61,12.23-19.1,18.72-5,5-4.58,8,.77,13,5.72,5.35,12.6,10.31,17.19,17.19,3,4.21,8,4.21,11.46.38,6.88-7.64,14.52-14.13,21-22.93C1658.29,30.33,1654.47,25.75,1635.37,7.79ZM1627,35.3a1.45,1.45,0,0,1,2.3,0C1628.49,36.44,1627.73,36.06,1627,35.3Zm7.26-6.5c0,.38.39.38.77.38C1634.61,29.57,1634.61,29.57,1634.22,28.8Zm1.53,5.74a1.43,1.43,0,0,0,.38-1.15C1636.9,34.54,1636.13,34.15,1635.75,34.54Z"/></g></g></svg>