<?xml version="1.0" encoding="utf-8"?>
<!-- Generator: Adobe Illustrator 26.0.1, SVG Export Plug-In . SVG Version: 6.00 Build 0)  -->
<svg version="1.1" id="Layer_1" xmlns="http://www.w3.org/2000/svg" xmlns:xlink="http://www.w3.org/1999/xlink" x="0px" y="0px"
	 viewBox="0 0 1080 742.1" style="enable-background:new 0 0 1080 742.1;" xml:space="preserve">
<style type="text/css">
	.st0{fill:none;stroke:#000000;stroke-width:2;stroke-miterlimit:10;}
	.st1{opacity:0.9;}
	.st2{clip-path:url(#SVGID_00000129907688852551965110000000413698551950032534_);}
	.st3{opacity:0.8;}
	.st4{opacity:0.9;fill:#DABA7B;enable-background:new    ;}
	.st5{clip-path:url(#SVGID_00000078015459083150473620000006687454628046211994_);}
	.st6{clip-path:url(#SVGID_00000114073092561189486380000016755008863328855474_);}
	.st7{clip-path:url(#SVGID_00000106108530806652513860000003003115939471463854_);}
	.st8{clip-path:url(#SVGID_00000023265759413274301220000010717567562895981224_);}
	.st9{clip-path:url(#SVGID_00000183929521913609817750000002362564485239122560_);}
</style>
<g>
	<g>
		<path class="st0" d="M-178.2-29.9C-77.4,55.7,79.1,165.5,281.2,218.6c82.5,21.7,213.2,54.5,376.7,19.5
			c241.3-51.6,422.1-222.4,529.9-349.3"/>
	</g>
</g>
<image style="overflow:visible;enable-background:new    ;" width="3997" height="5996" xlink:href="C403887E.jpeg"  transform="matrix(6.848554e-02 1.448211e-02 -1.448211e-02 6.848554e-02 60.64 201.5651)">
</image>
<g class="st1">
	<g>
		<defs>
			<path id="SVGID_1_" d="M264,178.5c0,0-56.3,2.6-64,0s-23.9-1.8-23.9-1.8s-1.6,0.8-2.4,3.7s-5.5,10.6-5.4,14.1
				c0.2,2.9,0.1,5.8-0.1,8.6c-0.3,3.4,0.2,4.6-2.4,9.6s-5.3,15.9-6.8,20.2s-2.6,10.2-4.9,13.9s-0.2-0.4-3,7.3s-3.2,12.6-3.1,12.6
				s31,20.8,52.3,23.2s41.4,2.8,41.4,2.8s7.6-3.4,12.3-14.2s7.2-4.6,8.8-27.8L264,178.5z"/>
		</defs>
		<clipPath id="SVGID_00000078766479123174552390000015660607030222788790_">
			<use xlink:href="#SVGID_1_"  style="overflow:visible;"/>
		</clipPath>
		<g style="clip-path:url(#SVGID_00000078766479123174552390000015660607030222788790_);">
			
				<image style="overflow:visible;opacity:0.45;enable-background:new    ;" width="226" height="126" xlink:href="C4038887.png"  transform="matrix(1 0 0 1 11.24 149.6852)">
			</image>
			<g class="st3">
				<path class="st4" d="M38.3,151.1l-25.8,87.7c-0.1,0.3,0,0.6,0.2,0.6c3.3,0.8,28.7,7.2,31.1,7.3c2.6,0.1,2.4,0.7,4.4,0.9
					c1.9,0.1,3.8,0.4,5.7,0.9c2,0.6,10.7,2.1,13.2,2.8s11.3,2.3,13.4,2.9s11.2,2.2,13.8,2.9s17.5,4.4,21.8,4.9s17.3,3.2,20.4,4.1
					s23.9,4.8,26.3,5.3s2.8,1,5.6,0.9s13.3,1.3,16.4,1s20.6,0.2,24.6,0.3c3.4,0.1,9.6,0.2,11.2,0.2c0.2,0,0.4-0.2,0.5-0.5
					c0.8-3.9,5.8-27.2,5.8-28.1s4.2-20.5,4.4-22.6s4.5-22.8,4.9-25c0.4-2,2.2-11.2,2.6-13.6c0.1-0.3-0.1-0.6-0.3-0.6
					c-3-0.1-22.4-0.4-26.5-0.2c-4.4,0.2-19.8-0.3-24.1-0.3s-14.4,0.3-16.6,0.2s-2.8-0.2-3.4,0s-0.9,0.5-1.3,0.3
					c-0.7-0.6-1.4-1.2-2.1-1.7c-0.8-0.4-2.3-1-4.6-2s-7.3-2.5-10.2-3.7s-6-2-7.7-2.6c-3-1.1-6.1-2-9.2-2.7
					c-3.1-0.5-5.7-1.5-10.3-2.2s-7.7-1.6-10.4-2s-10.8-2.7-14.4-3.2s-8.2-1.8-11-2.3s-3.8-0.9-5-1c-1.2,0.1-2.4,0-3.6-0.1
					c-2-0.4-6.5-1.6-12.5-2.8s-9.9-2.3-11.9-2.7s-4.1-1.3-7.6-2c-2.8-0.5-6.2-1.3-7.3-1.6C38.7,150.6,38.4,150.8,38.3,151.1z"/>
				<g>
					<defs>
						<path id="SVGID_00000096038716920089796770000010422581945818323853_" d="M38.3,151.1l-25.8,87.7c-0.1,0.3,0,0.6,0.2,0.6
							c3.3,0.8,28.7,7.2,31.1,7.3c2.6,0.1,2.4,0.7,4.4,0.9c1.9,0.1,3.8,0.4,5.7,0.9c2,0.6,10.7,2.1,13.2,2.8s11.3,2.3,13.4,2.9
							s11.2,2.2,13.8,2.9s17.5,4.4,21.8,4.9s17.3,3.2,20.4,4.1s23.9,4.8,26.3,5.3s2.8,1,5.6,0.9s13.3,1.3,16.4,1s20.6,0.2,24.6,0.3
							c3.4,0.1,9.6,0.2,11.2,0.2c0.2,0,0.4-0.2,0.5-0.5c0.8-3.9,5.8-27.2,5.8-28.1s4.2-20.5,4.4-22.6s4.5-22.8,4.9-25
							c0.4-2,2.2-11.2,2.6-13.6c0.1-0.3-0.1-0.6-0.3-0.6c-3-0.1-22.4-0.4-26.5-0.2c-4.4,0.2-19.8-0.3-24.1-0.3s-14.4,0.3-16.6,0.2
							s-2.8-0.2-3.4,0s-0.9,0.5-1.3,0.3c-0.7-0.6-1.4-1.2-2.1-1.7c-0.8-0.4-2.3-1-4.6-2s-7.3-2.5-10.2-3.7s-6-2-7.7-2.6
							c-3-1.1-6.1-2-9.2-2.7c-3.1-0.5-5.7-1.5-10.3-2.2s-7.7-1.6-10.4-2s-10.8-2.7-14.4-3.2s-8.2-1.8-11-2.3s-3.8-0.9-5-1
							c-1.2,0.1-2.4,0-3.6-0.1c-2-0.4-6.5-1.6-12.5-2.8s-9.9-2.3-11.9-2.7s-4.1-1.3-7.6-2c-2.8-0.5-6.2-1.3-7.3-1.6
							C38.7,150.6,38.4,150.8,38.3,151.1z"/>
					</defs>
					<clipPath id="SVGID_00000038393452195273888300000009556011437985321606_">
						<use xlink:href="#SVGID_00000096038716920089796770000010422581945818323853_"  style="overflow:visible;"/>
					</clipPath>
					<g style="clip-path:url(#SVGID_00000038393452195273888300000009556011437985321606_);">
						
							<image style="overflow:visible;enable-background:new    ;" width="56" height="106" xlink:href="C4038889.png"  transform="matrix(1 0 0 1 37.24 152.6852)">
						</image>
						
							<image style="overflow:visible;opacity:0.61;enable-background:new    ;" width="18" height="46" xlink:href="C403888A.png"  transform="matrix(1 0 0 1 154.24 178.6852)">
						</image>
						
							<image style="overflow:visible;opacity:0.7;enable-background:new    ;" width="76" height="122" xlink:href="C403888B.png"  transform="matrix(1 0 0 1 72.24 164.6852)">
						</image>
						
							<image style="overflow:visible;opacity:0.56;enable-background:new    ;" width="77" height="124" xlink:href="C403888C.png"  transform="matrix(1 0 0 1 169.24 168.6852)">
						</image>
					</g>
				</g>
			</g>
		</g>
	</g>
</g>
<image style="overflow:visible;enable-background:new    ;" width="4160" height="6240" xlink:href="../photos/IMG_6740.jpg"  transform="matrix(5.931121e-02 -9.065297e-03 9.065297e-03 5.931121e-02 816.84 206.4252)">
</image>
<image style="overflow:visible;enable-background:new    ;" width="2624" height="3936" xlink:href="../photos/DSC06595.jpg"  transform="matrix(0.12 0 0 0.12 421.27 269.8152)">
</image>
<g class="st1">
	<g>
		<defs>
			<path id="SVGID_00000054975024768567535270000016867410380622760865_" d="M641.7,209.5c0,0-58.1,7.4-66.3,5.2s-24.9,0.2-24.9,0.2
				s-1.6,1-2.2,4s-4.8,11.4-4.4,15c0.4,3,0.6,6,0.6,9c0,3.5,0.6,4.7-1.7,10.1s-4.2,16.9-5.4,21.5s-1.9,10.8-3.9,14.8
				s-0.2-0.4-2.5,7.8s-2.3,13.3-2.1,13.3s33.8,19,56.1,19.7s43.1-0.5,43.1-0.5s7.6-4.1,11.6-15.7s7.1-5.4,6.8-29.5L641.7,209.5z"/>
		</defs>
		<clipPath id="SVGID_00000080184325285246673930000014172184260476016293_">
			<use xlink:href="#SVGID_00000054975024768567535270000016867410380622760865_"  style="overflow:visible;"/>
		</clipPath>
		<g style="clip-path:url(#SVGID_00000080184325285246673930000014172184260476016293_);">
			
				<image style="overflow:visible;opacity:0.45;enable-background:new    ;" width="230" height="116" xlink:href="C403888D.png"  transform="matrix(1 0 0 1 385.24 198.6852)">
			</image>
			<g class="st3">
				<path class="st4" d="M405.8,199.7l-19.5,92.9c-0.1,0.3,0,0.6,0.3,0.6c3.5,0.6,30.3,5.1,32.8,5c2.6-0.1,2.6,0.5,4.6,0.6
					c2-0.1,4,0.1,6,0.5c2.1,0.5,11.2,1.3,13.9,1.9s11.9,1.5,14.1,1.9s11.8,1.3,14.6,1.8s18.5,3.1,23,3.3s18.2,1.9,21.5,2.5
					s25.2,3,27.6,3.3s3,0.8,5.9,0.5s13.9,0.2,17-0.3s21.3-1.5,25.4-1.7c3.6-0.1,9.9-0.6,11.6-0.8c0.2,0,0.4-0.3,0.5-0.6
					c0.5-4.1,3.8-28.6,3.7-29.6s2.6-21.5,2.7-23.7s2.8-24,3.1-26.3c0.2-2,1.3-11.8,1.6-14.3c0-0.3-0.1-0.6-0.3-0.6
					c-3.1,0.2-23.2,1.4-27.5,1.9c-4.6,0.6-20.5,1.3-25,1.6s-14.9,1.5-17.2,1.6s-3,0.1-3.5,0.3s-0.9,0.6-1.4,0.4
					c-0.8-0.6-1.5-1.1-2.3-1.6c-0.8-0.3-2.5-0.9-5-1.6s-7.8-2-10.8-3s-6.3-1.6-8.2-2.1c-3.2-0.9-6.5-1.6-9.8-2
					c-3.3-0.2-6-1.1-10.9-1.5s-8.1-1-10.9-1.2s-11.4-1.9-15.1-2.2s-8.6-1.1-11.6-1.5s-4-0.6-5.2-0.7s-1.6,0.4-3.7,0.2
					s-6.9-1.1-13.1-1.8s-10.4-1.5-12.5-1.8s-4.3-1-8-1.4c-3-0.3-6.6-0.9-7.7-1C406.1,199.2,405.9,199.4,405.8,199.7z"/>
				<g>
					<defs>
						<path id="SVGID_00000165208109314876732480000001019653498056381629_" d="M405.8,199.7l-19.5,92.9c-0.1,0.3,0,0.6,0.3,0.6
							c3.5,0.6,30.3,5.1,32.8,5c2.6-0.1,2.6,0.5,4.6,0.6c2-0.1,4,0.1,6,0.5c2.1,0.5,11.2,1.3,13.9,1.9s11.9,1.5,14.1,1.9
							s11.8,1.3,14.6,1.8s18.5,3.1,23,3.3s18.2,1.9,21.5,2.5s25.2,3,27.6,3.3s3,0.8,5.9,0.5s13.9,0.2,17-0.3s21.3-1.5,25.4-1.7
							c3.6-0.1,9.9-0.6,11.6-0.8c0.2,0,0.4-0.3,0.5-0.6c0.5-4.1,3.8-28.6,3.7-29.6s2.6-21.5,2.7-23.7s2.8-24,3.1-26.3
							c0.2-2,1.3-11.8,1.6-14.3c0-0.3-0.1-0.6-0.3-0.6c-3.1,0.2-23.2,1.4-27.5,1.9c-4.6,0.6-20.5,1.3-25,1.6s-14.9,1.5-17.2,1.6
							s-3,0.1-3.5,0.3s-0.9,0.6-1.4,0.4c-0.8-0.6-1.5-1.1-2.3-1.6c-0.8-0.3-2.5-0.9-5-1.6s-7.8-2-10.8-3s-6.3-1.6-8.2-2.1
							c-3.2-0.9-6.5-1.6-9.8-2c-3.3-0.2-6-1.1-10.9-1.5s-8.1-1-10.9-1.2s-11.4-1.9-15.1-2.2s-8.6-1.1-11.6-1.5s-4-0.6-5.2-0.7
							s-1.6,0.4-3.7,0.2s-6.9-1.1-13.1-1.8s-10.4-1.5-12.5-1.8s-4.3-1-8-1.4c-3-0.3-6.6-0.9-7.7-1
							C406.1,199.2,405.9,199.4,405.8,199.7z"/>
					</defs>
					<clipPath id="SVGID_00000016755165306299902590000015973538116024243635_">
						<use xlink:href="#SVGID_00000165208109314876732480000001019653498056381629_"  style="overflow:visible;"/>
					</clipPath>
					<g style="clip-path:url(#SVGID_00000016755165306299902590000015973538116024243635_);">
						
							<image style="overflow:visible;enable-background:new    ;" width="50" height="112" xlink:href="5482BA9B.png"  transform="matrix(1 0 0 1 413.24 197.6852)">
						</image>
						
							<image style="overflow:visible;opacity:0.61;enable-background:new    ;" width="15" height="49" xlink:href="5482BA9C.png"  transform="matrix(1 0 0 1 531.24 217.6852)">
						</image>
						
							<image style="overflow:visible;opacity:0.7;enable-background:new    ;" width="69" height="128" xlink:href="5482BA9D.png"  transform="matrix(1 0 0 1 451.24 206.6852)">
						</image>
						
							<image style="overflow:visible;opacity:0.56;enable-background:new    ;" width="77" height="127" xlink:href="5482BA9E.png"  transform="matrix(1 0 0 1 546.24 206.6852)">
						</image>
					</g>
				</g>
			</g>
		</g>
	</g>
</g>
<g class="st1">
	<g>
		<defs>
			<path id="SVGID_00000049934945760637387020000005759789639781311889_" d="M939.1,85c0,0-48.7,33.5-57,35.4s-22.3,11.7-22.3,11.7
				s-1,1.6-0.1,4.6s1,12.5,3,15.5c1.7,2.5,3.3,5.1,4.7,7.7c1.6,3.2,2.7,4,3.1,9.9s4.1,17,5.1,21.7s3.3,10.5,3.4,15.1
				s-0.4-0.2,1.4,8.1s4.1,13,4.3,12.9s39.1,1.3,59.4-8.3s38.3-20.5,38.3-20.5s4.9-7.2,3.1-19.5s3.9-8.1-7.6-29.6L939.1,85z"/>
		</defs>
		<clipPath id="SVGID_00000099636968241766346360000008732150720094363788_">
			<use xlink:href="#SVGID_00000049934945760637387020000005759789639781311889_"  style="overflow:visible;"/>
		</clipPath>
		<g style="clip-path:url(#SVGID_00000099636968241766346360000008732150720094363788_);">
			
				<image style="overflow:visible;opacity:0.45;enable-background:new    ;" width="232" height="174" xlink:href="5482BA9A.png"  transform="matrix(1 0 0 1 723.24 107.6852)">
			</image>
			<g class="st3">
				<path class="st4" d="M723.1,185.6l25.6,92.3c0.1,0.3,0.3,0.5,0.5,0.5c3.4-1.1,29.5-9.5,31.7-10.7c2.3-1.3,2.6-0.7,4.4-1.6
					c1.8-1,3.6-1.7,5.6-2.3c2.1-0.6,10.7-4,13.3-4.8s11.3-4.2,13.5-4.9s11.2-4.2,13.9-5.1s18-5.8,22.1-7.7s17.2-6.7,20.4-7.7
					s24-9,26.3-9.8s3.1-0.7,5.5-2.3s12.6-6.3,15.1-8.1s18.5-11.3,22.1-13.4c3.1-1.8,8.6-5.2,10-6c0.2-0.2,0.3-0.5,0.1-0.8
					c-1.4-3.9-9.9-27.4-10.4-28.2s-7.6-20.5-8.6-22.5s-8.6-22.8-9.5-25c-0.7-2-4.3-11.2-5.2-13.6c-0.1-0.3-0.4-0.5-0.6-0.4
					c-2.7,1.6-20.2,12-23.7,14.5c-3.8,2.6-17.8,10.7-21.6,13s-12.6,8.2-14.6,9.4s-2.6,1.4-3,1.9s-0.5,1-1,1
					c-0.9-0.2-1.9-0.3-2.9-0.4c-0.9,0.1-2.6,0.4-5.2,0.8s-7.9,1.8-11.1,2.4s-6.4,1.5-8.3,1.9c-3.3,0.6-6.5,1.6-9.7,2.8
					c-3.1,1.3-5.9,1.8-10.4,3.7s-7.7,2.9-10.4,3.9s-11.1,3.6-14.6,5.1s-8.3,3-11.1,4.1s-3.9,1.3-5,1.8s-1.2,1.1-3.3,1.9
					s-6.7,2.2-12.6,4.5s-10.1,3.5-12.1,4.2s-4.3,1.1-7.8,2.5c-2.8,1.1-6.3,2.3-7.4,2.7C723.1,185,723,185.3,723.1,185.6z"/>
				<g>
					<defs>
						<path id="SVGID_00000083808022335492305960000017167806561305396616_" d="M723.1,185.6l25.6,92.3c0.1,0.3,0.3,0.5,0.5,0.5
							c3.4-1.1,29.5-9.5,31.7-10.7c2.3-1.3,2.6-0.7,4.4-1.6c1.8-1,3.6-1.7,5.6-2.3c2.1-0.6,10.7-4,13.3-4.8s11.3-4.2,13.5-4.9
							s11.2-4.2,13.9-5.1s18-5.8,22.1-7.7s17.2-6.7,20.4-7.7s24-9,26.3-9.8s3.1-0.7,5.5-2.3s12.6-6.3,15.1-8.1s18.5-11.3,22.1-13.4
							c3.1-1.8,8.6-5.2,10-6c0.2-0.2,0.3-0.5,0.1-0.8c-1.4-3.9-9.9-27.4-10.4-28.2s-7.6-20.5-8.6-22.5s-8.6-22.8-9.5-25
							c-0.7-2-4.3-11.2-5.2-13.6c-0.1-0.3-0.4-0.5-0.6-0.4c-2.7,1.6-20.2,12-23.7,14.5c-3.8,2.6-17.8,10.7-21.6,13
							s-12.6,8.2-14.6,9.4s-2.6,1.4-3,1.9s-0.5,1-1,1c-0.9-0.2-1.9-0.3-2.9-0.4c-0.9,0.1-2.6,0.4-5.2,0.8s-7.9,1.8-11.1,2.4
							s-6.4,1.5-8.3,1.9c-3.3,0.6-6.5,1.6-9.7,2.8c-3.1,1.3-5.9,1.8-10.4,3.7s-7.7,2.9-10.4,3.9s-11.1,3.6-14.6,5.1s-8.3,3-11.1,4.1
							s-3.9,1.3-5,1.8s-1.2,1.1-3.3,1.9s-6.7,2.2-12.6,4.5s-10.1,3.5-12.1,4.2s-4.3,1.1-7.8,2.5c-2.8,1.1-6.3,2.3-7.4,2.7
							C723.1,185,723,185.3,723.1,185.6z"/>
					</defs>
					<clipPath id="SVGID_00000119105181578865738530000016136007868693163649_">
						<use xlink:href="#SVGID_00000083808022335492305960000017167806561305396616_"  style="overflow:visible;"/>
					</clipPath>
					<g style="clip-path:url(#SVGID_00000119105181578865738530000016136007868693163649_);">
						
							<image style="overflow:visible;enable-background:new    ;" width="37" height="120" xlink:href="5482BA88.png"  transform="matrix(1 0 0 1 758.24 159.6852)">
						</image>
						
							<image style="overflow:visible;opacity:0.61;enable-background:new    ;" width="25" height="49" xlink:href="5482BA89.png"  transform="matrix(1 0 0 1 847.24 136.6852)">
						</image>
						
							<image style="overflow:visible;opacity:0.7;enable-background:new    ;" width="56" height="136" xlink:href="5482BA8A.png"  transform="matrix(1 0 0 1 808.24 140.6852)">
						</image>
						
							<image style="overflow:visible;opacity:0.56;enable-background:new    ;" width="93" height="140" xlink:href="5482BA8B.png"  transform="matrix(1 0 0 1 857.24 93.6852)">
						</image>
					</g>
				</g>
			</g>
		</g>
	</g>
</g>
</svg>
