<?xml version="1.0" encoding="utf-8"?>
<!-- Generator: Adobe Illustrator 26.0.1, SVG Export Plug-In . SVG Version: 6.00 Build 0)  -->
<svg version="1.1" id="Layer_1" xmlns="http://www.w3.org/2000/svg" xmlns:xlink="http://www.w3.org/1999/xlink" x="0px" y="0px"
	 viewBox="0 0 2172.7 738.8" style="enable-background:new 0 0 2172.7 738.8;" xml:space="preserve">
<style type="text/css">
	.st0{opacity:0.9;}
	.st1{clip-path:url(#SVGID_00000094614741781133949790000007858729599416164772_);}
	.st2{opacity:0.8;}
	.st3{opacity:0.9;fill:#DABA7B;enable-background:new    ;}
	.st4{clip-path:url(#SVGID_00000021102848083253069630000009171063542705054395_);}
	.st5{clip-path:url(#SVGID_00000023972852874335596990000008795767713166600122_);}
	.st6{clip-path:url(#SVGID_00000116934553209069804220000010901843453085167794_);}
	.st7{clip-path:url(#SVGID_00000063630911100281467610000002414541821086674563_);}
	.st8{clip-path:url(#SVGID_00000152265999339186115670000017038000031586199448_);}
	.st9{clip-path:url(#SVGID_00000183943402274841027400000015320601256658765961_);}
	.st10{clip-path:url(#SVGID_00000080893931915578835100000003405222795076650903_);}
	.st11{clip-path:url(#SVGID_00000163047466601954879810000017919820107685514669_);}
	.st12{clip-path:url(#SVGID_00000108290482885111194700000003605476432505199783_);}
	.st13{clip-path:url(#SVGID_00000141426682832551764220000003046301211679415956_);}
	.st14{fill:none;stroke:#000000;stroke-width:2;stroke-miterlimit:10;}
</style>
<g>
	<g id="Layer_2_00000037662838648533747670000005589459365859851165_">
		<g id="Layer_1-2">
			
				<image style="overflow:visible;enable-background:new    ;" width="2400" height="3600" xlink:href="21818A05.jpg"  transform="matrix(0.1018 2.263232e-02 -2.263232e-02 0.1018 179.1461 210.5474)">
			</image>
			<g class="st0">
				<g>
					<defs>
						<path id="SVGID_1_" d="M373.8,188.5c0,0-53.9,2.5-61.2,0c-7.3-2.5-22.9-1.7-22.9-1.7c-1.2,0.8-2,2.1-2.3,3.5
							c-0.7,2.7-5.2,10.1-5.1,13.5c0.2,2.8,0.1,5.5-0.1,8.3c-0.3,3.2,0.2,4.4-2.3,9.1c-2.5,4.8-5.1,15.2-6.5,19.3s-2.5,9.7-4.6,13.3
							c-2.1,3.6-0.2-0.4-2.9,7c-2.7,7.4-3.1,12-2.9,12.1c0.2,0.1,29.7,19.9,50,22.2c20.3,2.3,39.5,2.6,39.5,2.6s7.3-3.2,11.8-13.6
							c4.5-10.4,6.9-4.4,8.4-26.6L373.8,188.5z"/>
					</defs>
					<clipPath id="SVGID_00000003095222136741297270000000017973465200679813_">
						<use xlink:href="#SVGID_1_"  style="overflow:visible;"/>
					</clipPath>
					<g style="clip-path:url(#SVGID_00000003095222136741297270000000017973465200679813_);">
						
							<image style="overflow:visible;opacity:0.45;enable-background:new    ;" width="192" height="106" xlink:href="21818A07.png"  transform="matrix(1.1316 0 0 1.1316 131.607 161.8087)">
						</image>
						<g class="st2">
							<path class="st3" d="M158,162.3l-24.7,83.8c-0.1,0.3,0,0.6,0.2,0.6c3.2,0.8,27.5,6.9,29.7,7s2.3,0.7,4.2,0.8
								c1.8,0.1,3.6,0.4,5.4,0.9c1.9,0.6,10.2,2,12.6,2.7c2.4,0.7,10.8,2.3,12.8,2.7c2,0.5,10.7,2.1,13.2,2.7
								c2.5,0.6,16.7,4.2,20.8,4.7c4.1,0.4,16.5,3.1,19.5,3.9c3,0.8,22.9,4.5,25.1,5.1c2.2,0.5,2.7,1,5.4,0.8
								c2.6-0.1,12.8,1.2,15.6,1c2.9-0.2,19.7,0.2,23.5,0.3c3.3,0.1,9.2,0.1,10.7,0.2c0.2,0,0.4-0.2,0.5-0.5
								c0.8-3.7,5.5-26,5.5-26.9s4-19.6,4.2-21.6c0.2-2,4.3-21.8,4.7-23.9c0.4-1.9,2.1-10.8,2.5-13c0.1-0.3-0.1-0.5-0.3-0.5
								c-2.9-0.1-21.4-0.4-25.3-0.2c-4.2,0.2-18.9-0.3-23-0.3c-4.1,0-13.7,0.3-15.8,0.2c-1.1-0.2-2.2-0.2-3.3,0
								c-0.5,0.2-0.8,0.5-1.3,0.3c-0.6-0.6-1.3-1.1-2-1.7c-0.7-0.4-2.3-1-4.4-1.9c-2.2-0.9-7-2.4-9.7-3.5c-2.7-1.1-5.7-1.9-7.3-2.5
								c-2.9-1.1-5.8-1.9-8.8-2.5c-3-0.5-5.4-1.5-9.9-2.1c-4.4-0.7-7.4-1.5-9.9-1.9c-2.6-0.4-10.3-2.6-13.7-3.1s-7.8-1.7-10.5-2.2
								c-2.7-0.5-3.6-0.9-4.8-1c-1.1,0.1-2.3,0-3.4-0.1c-1.9-0.3-6.2-1.5-11.9-2.6c-5.7-1.1-9.5-2.2-11.4-2.6
								c-1.9-0.4-3.9-1.2-7.2-1.9c-2.7-0.5-6-1.3-7-1.5C158.3,161.8,158.1,162,158,162.3z"/>
							<g>
								<defs>
									<path id="SVGID_00000088110294081807275870000007129886516043038084_" d="M158,162.3l-24.7,83.8c-0.1,0.3,0,0.6,0.2,0.6
										c3.2,0.8,27.5,6.9,29.7,7s2.3,0.7,4.2,0.8c1.8,0.1,3.6,0.4,5.4,0.9c1.9,0.6,10.2,2,12.6,2.7c2.4,0.7,10.8,2.3,12.8,2.7
										c2,0.5,10.7,2.1,13.2,2.7c2.5,0.6,16.7,4.2,20.8,4.7c4.1,0.4,16.5,3.1,19.5,3.9c3,0.8,22.9,4.5,25.1,5.1
										c2.2,0.5,2.7,1,5.4,0.8c2.6-0.1,12.8,1.2,15.6,1c2.9-0.2,19.7,0.2,23.5,0.3c3.3,0.1,9.2,0.1,10.7,0.2
										c0.2,0,0.4-0.2,0.5-0.5c0.8-3.7,5.5-26,5.5-26.9s4-19.6,4.2-21.6c0.2-2,4.3-21.8,4.7-23.9c0.4-1.9,2.1-10.8,2.5-13
										c0.1-0.3-0.1-0.5-0.3-0.5c-2.9-0.1-21.4-0.4-25.3-0.2c-4.2,0.2-18.9-0.3-23-0.3c-4.1,0-13.7,0.3-15.8,0.2
										c-1.1-0.2-2.2-0.2-3.3,0c-0.5,0.2-0.8,0.5-1.3,0.3c-0.6-0.6-1.3-1.1-2-1.7c-0.7-0.4-2.3-1-4.4-1.9c-2.2-0.9-7-2.4-9.7-3.5
										c-2.7-1.1-5.7-1.9-7.3-2.5c-2.9-1.1-5.8-1.9-8.8-2.5c-3-0.5-5.4-1.5-9.9-2.1c-4.4-0.7-7.4-1.5-9.9-1.9
										c-2.6-0.4-10.3-2.6-13.7-3.1s-7.8-1.7-10.5-2.2c-2.7-0.5-3.6-0.9-4.8-1c-1.1,0.1-2.3,0-3.4-0.1c-1.9-0.3-6.2-1.5-11.9-2.6
										c-5.7-1.1-9.5-2.2-11.4-2.6c-1.9-0.4-3.9-1.2-7.2-1.9c-2.7-0.5-6-1.3-7-1.5C158.3,161.8,158.1,162,158,162.3z"/>
								</defs>
								<clipPath id="SVGID_00000096741936987810923190000006070309176763728016_">
									<use xlink:href="#SVGID_00000088110294081807275870000007129886516043038084_"  style="overflow:visible;"/>
								</clipPath>
								<g style="clip-path:url(#SVGID_00000096741936987810923190000006070309176763728016_);">
									
										<image style="overflow:visible;enable-background:new    ;" width="48" height="89" xlink:href="21818A05.png"  transform="matrix(1.1316 0 0 1.1316 156.5025 164.0719)">
									</image>
									
										<image style="overflow:visible;opacity:0.61;enable-background:new    ;" width="15" height="40" xlink:href="21818A03.png"  transform="matrix(1.1316 0 0 1.1316 268.5325 187.8358)">
									</image>
									
										<image style="overflow:visible;opacity:0.7;enable-background:new    ;" width="64" height="103" xlink:href="21818A0D.png"  transform="matrix(1.1316 0 0 1.1316 190.451 175.3881)">
									</image>
									
										<image style="overflow:visible;opacity:0.56;enable-background:new    ;" width="65" height="104" xlink:href="21818A0F.png"  transform="matrix(1.1316 0 0 1.1316 283.2435 179.9145)">
									</image>
								</g>
							</g>
						</g>
					</g>
				</g>
			</g>
			
				<image style="overflow:visible;enable-background:new    ;" width="2400" height="3600" xlink:href="21818A0D.jpg"  transform="matrix(0.1132 -2.263232e-02 2.263232e-02 0.1132 1272.7625 326.3004)">
			</image>
			
				<image style="overflow:visible;enable-background:new    ;" width="2400" height="3600" xlink:href="21818A03.jpg"  transform="matrix(0.1018 0 0 0.1018 980.8622 341.0227)">
			</image>
			
				<image style="overflow:visible;enable-background:new    ;" width="6000" height="3375" xlink:href="21818A06.jpg"  transform="matrix(7.921312e-02 -2.263232e-02 2.263232e-02 7.921312e-02 1564.9231 281.975)">
			</image>
			
				<image style="overflow:visible;enable-background:new    ;" width="6000" height="4000" xlink:href="D7B8F2CE.jpg"  transform="matrix(7.921312e-02 1.131616e-02 -1.131616e-02 7.921312e-02 471.1935 289.5794)">
			</image>
			<g class="st0">
				<g>
					<defs>
						<path id="SVGID_00000010295446344150229110000003063096752591084673_" d="M754.8,246.3c0,0-53.9,2.5-61.2,0
							c-7.3-2.5-22.9-1.7-22.9-1.7c-1.2,0.8-2,2.1-2.3,3.5c-0.7,2.7-5.2,10.1-5.1,13.5c0.2,2.8,0.1,5.5-0.1,8.3
							c-0.3,3.2,0.2,4.4-2.3,9.2s-5.1,15.2-6.5,19.3c-1.4,4.1-2.5,9.7-4.6,13.3c-2.1,3.6-0.2-0.4-2.9,7c-2.7,7.4-3.1,12-2.9,12.1
							c0.2,0.1,29.7,19.9,50,22.2c20.3,2.3,39.6,2.6,39.6,2.6s7.3-3.2,11.8-13.6c4.5-10.4,6.9-4.4,8.4-26.6L754.8,246.3z"/>
					</defs>
					<clipPath id="SVGID_00000062180653377806486070000014669367981242855325_">
						<use xlink:href="#SVGID_00000010295446344150229110000003063096752591084673_"  style="overflow:visible;"/>
					</clipPath>
					<g style="clip-path:url(#SVGID_00000062180653377806486070000014669367981242855325_);">
						
							<image style="overflow:visible;opacity:0.45;enable-background:new    ;" width="191" height="106" xlink:href="D7B8F2CE.png"  transform="matrix(1.1316 0 0 1.1316 512.9615 219.5211)">
						</image>
						<g class="st2">
							<path class="st3" d="M539,220.2L514.3,304c-0.1,0.3,0,0.6,0.2,0.6c3.2,0.8,27.4,6.9,29.7,7c2.3,0.1,2.3,0.7,4.2,0.8
								c1.8,0.1,3.7,0.4,5.4,0.9c1.9,0.6,10.2,2,12.6,2.7c2.4,0.7,10.8,2.3,12.8,2.7c2,0.5,10.7,2.1,13.2,2.7
								c2.5,0.6,16.7,4.2,20.8,4.7c4.1,0.4,16.5,3.1,19.5,3.9c3,0.8,22.9,4.5,25.1,5.1s2.7,1,5.4,0.8c2.6-0.1,12.8,1.2,15.6,1
								s19.7,0.2,23.5,0.3c3.3,0.1,9.2,0.1,10.7,0.2c0.2,0,0.4-0.2,0.5-0.5c0.8-3.7,5.5-26,5.5-26.9c0-0.9,4-19.6,4.2-21.6
								c0.2-2,4.3-21.8,4.7-23.9c0.4-1.9,2.1-10.8,2.5-13c0-0.3-0.1-0.5-0.3-0.5c-2.9-0.1-21.4-0.4-25.3-0.2
								c-4.2,0.2-18.9-0.3-23-0.3c-4.1,0-13.8,0.3-15.8,0.2c-1.1-0.2-2.2-0.2-3.3,0c-0.5,0.2-0.8,0.5-1.3,0.2
								c-0.7-0.6-1.3-1.1-2-1.7c-0.7-0.4-2.3-1-4.4-1.9c-2.2-0.9-7-2.4-9.7-3.5s-5.7-1.9-7.3-2.5c-2.9-1.1-5.8-1.9-8.8-2.5
								c-3-0.5-5.4-1.5-9.9-2.1c-4.4-0.6-7.4-1.5-9.9-1.9c-2.6-0.4-10.3-2.6-13.7-3.1s-7.8-1.7-10.5-2.2c-2.7-0.5-3.6-0.9-4.8-1
								c-1.1,0.1-2.3,0-3.4-0.1c-1.9-0.4-6.2-1.5-11.9-2.6c-5.7-1.1-9.4-2.2-11.4-2.6c-1.9-0.4-3.9-1.2-7.2-1.9
								c-2.7-0.5-6-1.3-7-1.5C539.3,219.6,539.1,219.8,539,220.2z"/>
							<g>
								<defs>
									<path id="SVGID_00000072238309540887652320000011413470920693464964_" d="M539,220.2L514.3,304c-0.1,0.3,0,0.6,0.2,0.6
										c3.2,0.8,27.4,6.9,29.7,7c2.3,0.1,2.3,0.7,4.2,0.8c1.8,0.1,3.7,0.4,5.4,0.9c1.9,0.6,10.2,2,12.6,2.7
										c2.4,0.7,10.8,2.3,12.8,2.7c2,0.5,10.7,2.1,13.2,2.7c2.5,0.6,16.7,4.2,20.8,4.7c4.1,0.4,16.5,3.1,19.5,3.9
										c3,0.8,22.9,4.5,25.1,5.1s2.7,1,5.4,0.8c2.6-0.1,12.8,1.2,15.6,1s19.7,0.2,23.5,0.3c3.3,0.1,9.2,0.1,10.7,0.2
										c0.2,0,0.4-0.2,0.5-0.5c0.8-3.7,5.5-26,5.5-26.9c0-0.9,4-19.6,4.2-21.6c0.2-2,4.3-21.8,4.7-23.9c0.4-1.9,2.1-10.8,2.5-13
										c0-0.3-0.1-0.5-0.3-0.5c-2.9-0.1-21.4-0.4-25.3-0.2c-4.2,0.2-18.9-0.3-23-0.3c-4.1,0-13.8,0.3-15.8,0.2
										c-1.1-0.2-2.2-0.2-3.3,0c-0.5,0.2-0.8,0.5-1.3,0.2c-0.7-0.6-1.3-1.1-2-1.7c-0.7-0.4-2.3-1-4.4-1.9c-2.2-0.9-7-2.4-9.7-3.5
										s-5.7-1.9-7.3-2.5c-2.9-1.1-5.8-1.9-8.8-2.5c-3-0.5-5.4-1.5-9.9-2.1c-4.4-0.6-7.4-1.5-9.9-1.9c-2.6-0.4-10.3-2.6-13.7-3.1
										s-7.8-1.7-10.5-2.2c-2.7-0.5-3.6-0.9-4.8-1c-1.1,0.1-2.3,0-3.4-0.1c-1.9-0.4-6.2-1.5-11.9-2.6c-5.7-1.1-9.4-2.2-11.4-2.6
										c-1.9-0.4-3.9-1.2-7.2-1.9c-2.7-0.5-6-1.3-7-1.5C539.3,219.6,539.1,219.8,539,220.2z"/>
								</defs>
								<clipPath id="SVGID_00000103954194408048750120000003375132245215481509_">
									<use xlink:href="#SVGID_00000072238309540887652320000011413470920693464964_"  style="overflow:visible;"/>
								</clipPath>
								<g style="clip-path:url(#SVGID_00000103954194408048750120000003375132245215481509_);">
									
										<image style="overflow:visible;enable-background:new    ;" width="47" height="89" xlink:href="D7B8F2CA.png"  transform="matrix(1.1316 0 0 1.1316 537.8571 221.7843)">
									</image>
									
										<image style="overflow:visible;opacity:0.61;enable-background:new    ;" width="15" height="40" xlink:href="D7B8F2C9.png"  transform="matrix(1.1316 0 0 1.1316 649.8871 245.5482)">
									</image>
									
										<image style="overflow:visible;opacity:0.7;enable-background:new    ;" width="64" height="103" xlink:href="D7B8F2C6.png"  transform="matrix(1.1316 0 0 1.1316 571.8055 233.1005)">
									</image>
									
										<image style="overflow:visible;opacity:0.56;enable-background:new    ;" width="65" height="104" xlink:href="D7B8F2D9.png"  transform="matrix(1.1316 0 0 1.1316 664.5981 237.6269)">
									</image>
								</g>
							</g>
						</g>
					</g>
				</g>
			</g>
			<g class="st0">
				<g>
					<defs>
						<path id="SVGID_00000119111275009314378700000003575702169360494246_" d="M1801.4,125.5c0,0-29.2,45.3-35.5,49.8
							c-6.3,4.5-14.6,17.7-14.6,17.7c0,1.5,0.5,2.9,1.5,3.9c1.8,2.2,5.2,10.2,8,12c2.3,1.5,4.6,3.1,6.7,4.9c2.5,2.1,3.7,2.4,6.1,7.2
							c2.4,4.8,9.4,12.9,12,16.5c2.5,3.6,6.5,7.7,8.2,11.5c1.7,3.8-0.4-0.1,4,6.4s7.9,9.5,8.1,9.4c0.2-0.1,33.4-12.7,47.1-27.9
							c13.7-15.2,25.1-30.7,25.1-30.7s1.6-7.8-4.3-17.5c-5.9-9.7,0.4-8.1-16.8-22.2L1801.4,125.5z"/>
					</defs>
					<clipPath id="SVGID_00000173846397427154808520000006099471124594175872_">
						<use xlink:href="#SVGID_00000119111275009314378700000003575702169360494246_"  style="overflow:visible;"/>
					</clipPath>
					<g style="clip-path:url(#SVGID_00000173846397427154808520000006099471124594175872_);">
						
							<image style="overflow:visible;opacity:0.45;enable-background:new    ;" width="176" height="182" xlink:href="D7B8F2DA.png"  transform="matrix(1.1316 0 0 1.1316 1654.762 151.6241)">
						</image>
						<g class="st2">
							<path class="st3" d="M1655,286.1l54,68.7c0.2,0.2,0.5,0.3,0.6,0.2c2.5-2.1,21.5-18.4,22.9-20.2c1.4-1.8,1.9-1.5,3.1-2.9
								c1.1-1.4,2.5-2.7,3.9-3.9c1.6-1.2,7.6-7.2,9.5-8.7c1.9-1.6,8.1-7.5,9.7-8.8c1.6-1.4,7.9-7.5,9.9-9.2
								c2-1.7,13.1-11.2,15.8-14.2c2.7-3.1,12.1-11.7,14.5-13.7c2.4-2,17-16,18.7-17.5s2.4-1.7,3.8-3.9c1.4-2.2,8.4-9.7,9.9-12.2
								s11.6-16,13.9-19c2-2.6,5.4-7.4,6.3-8.6c0.1-0.2,0-0.5-0.1-0.7c-2.6-2.8-18-19.6-18.7-20.1c-0.8-0.5-13.6-14.6-15.1-15.9
								s-15.2-16.1-16.7-17.7c-1.3-1.4-7.5-7.9-9.1-9.6c-0.2-0.2-0.5-0.3-0.6-0.1c-1.7,2.3-12.8,17.2-14.9,20.5
								c-2.3,3.6-11.2,15.2-13.6,18.6c-2.4,3.3-7.7,11.4-9.1,13s-1.7,2.1-1.9,2.7s-0.1,1-0.5,1.1c-0.9,0.2-1.7,0.4-2.5,0.7
								c-0.7,0.4-2.1,1.2-4.1,2.5s-6,4.3-8.5,5.9c-2.5,1.6-4.9,3.5-6.3,4.5c-2.6,1.7-5,3.6-7.2,5.7c-2.1,2.2-4.4,3.6-7.5,6.8
								c-3.1,3.2-5.5,5.1-7.4,7c-1.9,1.8-8.1,6.9-10.5,9.4c-2.4,2.5-5.9,5.4-7.9,7.3c-2,1.9-2.8,2.4-3.6,3.3c-0.6,1-1.3,1.9-2.1,2.7
								c-1.4,1.4-4.9,4.2-9.1,8.2s-7.3,6.4-8.7,7.8c-1.4,1.3-3.3,2.5-5.7,4.8c-2,1.9-4.5,4.1-5.3,4.8
								C1654.8,285.6,1654.8,285.9,1655,286.1z"/>
							<g>
								<defs>
									<path id="SVGID_00000048484124374208325650000002789424710327520916_" d="M1655,286.1l54,68.7c0.2,0.2,0.5,0.3,0.6,0.2
										c2.5-2.1,21.5-18.4,22.9-20.2c1.4-1.8,1.9-1.5,3.1-2.9c1.1-1.4,2.5-2.7,3.9-3.9c1.6-1.2,7.6-7.2,9.5-8.7
										c1.9-1.6,8.1-7.5,9.7-8.8c1.6-1.4,7.9-7.5,9.9-9.2c2-1.7,13.1-11.2,15.8-14.2c2.7-3.1,12.1-11.7,14.5-13.7
										c2.4-2,17-16,18.7-17.5s2.4-1.7,3.8-3.9c1.4-2.2,8.4-9.7,9.9-12.2s11.6-16,13.9-19c2-2.6,5.4-7.4,6.3-8.6
										c0.1-0.2,0-0.5-0.1-0.7c-2.6-2.8-18-19.6-18.7-20.1c-0.8-0.5-13.6-14.6-15.1-15.9s-15.2-16.1-16.7-17.7
										c-1.3-1.4-7.5-7.9-9.1-9.6c-0.2-0.2-0.5-0.3-0.6-0.1c-1.7,2.3-12.8,17.2-14.9,20.5c-2.3,3.6-11.2,15.2-13.6,18.6
										c-2.4,3.3-7.7,11.4-9.1,13s-1.7,2.1-1.9,2.7s-0.1,1-0.5,1.1c-0.9,0.2-1.7,0.4-2.5,0.7c-0.7,0.4-2.1,1.2-4.1,2.5
										s-6,4.3-8.5,5.9c-2.5,1.6-4.9,3.5-6.3,4.5c-2.6,1.7-5,3.6-7.2,5.7c-2.1,2.2-4.4,3.6-7.5,6.8c-3.1,3.2-5.5,5.1-7.4,7
										c-1.9,1.8-8.1,6.9-10.5,9.4c-2.4,2.5-5.9,5.4-7.9,7.3c-2,1.9-2.8,2.4-3.6,3.3c-0.6,1-1.3,1.9-2.1,2.7
										c-1.4,1.4-4.9,4.2-9.1,8.2s-7.3,6.4-8.7,7.8c-1.4,1.3-3.3,2.5-5.7,4.8c-2,1.9-4.5,4.1-5.3,4.8
										C1654.8,285.6,1654.8,285.9,1655,286.1z"/>
								</defs>
								<clipPath id="SVGID_00000055697708972534706840000005419500776753004931_">
									<use xlink:href="#SVGID_00000048484124374208325650000002789424710327520916_"  style="overflow:visible;"/>
								</clipPath>
								<g style="clip-path:url(#SVGID_00000055697708972534706840000005419500776753004931_);">
									
										<image style="overflow:visible;enable-background:new    ;" width="61" height="87" xlink:href="D7B8F2D8.png"  transform="matrix(1.1316 0 0 1.1316 1677.3943 246.6799)">
									</image>
									
										<image style="overflow:visible;opacity:0.61;enable-background:new    ;" width="32" height="32" xlink:href="D7B8F2DE.png"  transform="matrix(1.1316 0 0 1.1316 1744.1597 198.0204)">
									</image>
									
										<image style="overflow:visible;opacity:0.7;enable-background:new    ;" width="78" height="104" xlink:href="D7B8F2DB.png"  transform="matrix(1.1316 0 0 1.1316 1713.606 210.4682)">
									</image>
									
										<image style="overflow:visible;opacity:0.56;enable-background:new    ;" width="98" height="104" xlink:href="D7B8F2FD.png"  transform="matrix(1.1316 0 0 1.1316 1746.4229 139.1763)">
									</image>
								</g>
							</g>
						</g>
					</g>
				</g>
			</g>
			<g class="st0">
				<g>
					<defs>
						<path id="SVGID_00000151525096307936950890000004623924511008614835_" d="M1418.2,221.9c0,0-40.3,35.8-47.6,38.4
							c-7.3,2.6-18.9,13.1-18.9,13.1c-0.4,1.4-0.3,2.9,0.4,4.2c1.1,2.6,2.3,11.2,4.5,13.7c1.8,2,3.6,4.2,5.1,6.5
							c1.8,2.7,2.9,3.3,3.9,8.6c1,5.3,5.6,15,7.1,19.1c1.5,4.1,4.2,9.2,4.8,13.3c0.6,4.1-0.4-0.2,2.2,7.2s5.1,11.3,5.3,11.2
							c0.2-0.1,35.6-3.2,52.8-14.2s32.4-22.8,32.4-22.8s3.7-7.1,0.6-18c-3-10.9,2.6-7.7-10.2-26L1418.2,221.9z"/>
					</defs>
					<clipPath id="SVGID_00000162316749305866994210000018198726481853934771_">
						<use xlink:href="#SVGID_00000151525096307936950890000004623924511008614835_"  style="overflow:visible;"/>
					</clipPath>
					<g style="clip-path:url(#SVGID_00000162316749305866994210000018198726481853934771_);">
						
							<image style="overflow:visible;opacity:0.45;enable-background:new    ;" width="187" height="156" xlink:href="D7B8F2FF.png"  transform="matrix(1.1316 0 0 1.1316 1233.8008 244.4166)">
						</image>
						<g class="st2">
							<path class="st3" d="M1233.9,337.1l33.5,80.7c0.1,0.3,0.4,0.4,0.5,0.4c3-1.4,25.7-11.9,27.5-13.2c1.8-1.4,2.3-0.9,3.8-2
								c1.5-1.1,3.1-2,4.8-2.7c1.8-0.7,9.2-4.8,11.5-5.8s9.8-5,11.7-5.9c1.9-0.9,9.6-5.1,12-6.2c2.4-1.1,15.7-7.2,19.1-9.4
								c3.5-2.2,14.8-8,17.7-9.2c2.9-1.2,20.7-10.8,22.7-11.8c2-1,2.7-0.9,4.7-2.7c2-1.8,10.7-7.1,12.8-9.1
								c2.1-2,15.4-12.3,18.5-14.5c2.6-2,7.2-5.7,8.4-6.6c0.2-0.2,0.2-0.5,0-0.7c-1.7-3.4-12-23.7-12.6-24.4
								c-0.6-0.7-9.2-17.7-10.3-19.4c-1.1-1.7-10.3-19.6-11.3-21.6c-0.9-1.7-5.1-9.7-6.2-11.7c-0.1-0.3-0.4-0.4-0.6-0.3
								c-2.3,1.7-17,13.1-19.9,15.7c-3.2,2.8-14.9,11.7-18.1,14.2c-3.2,2.6-10.5,8.9-12.2,10.1s-2.3,1.6-2.5,2.1
								c-0.3,0.5-0.3,0.9-0.8,1c-0.9-0.1-1.8-0.1-2.6,0c-0.8,0.2-2.3,0.6-4.6,1.3c-2.3,0.7-7,2.5-9.8,3.4c-2.8,0.9-5.7,2.1-7.3,2.6
								c-2.9,0.9-5.8,2.1-8.5,3.6c-2.6,1.5-5.1,2.3-9.1,4.5c-3.9,2.3-6.7,3.5-9,4.7s-9.7,4.5-12.6,6.2c-3,1.7-7.2,3.6-9.6,4.9
								c-2.4,1.3-3.4,1.6-4.3,2.2c-0.8,0.8-1.8,1.4-2.7,2c-1.7,1-5.8,2.7-10.9,5.4c-5.1,2.7-8.7,4.2-10.5,5.1
								c-1.7,0.9-3.8,1.5-6.8,3.1c-2.4,1.3-5.4,2.8-6.4,3.2C1233.8,336.5,1233.8,336.8,1233.9,337.1z"/>
							<g>
								<defs>
									<path id="SVGID_00000051361939987384202170000002929330026996829375_" d="M1233.9,337.1l33.5,80.7c0.1,0.3,0.4,0.4,0.5,0.4
										c3-1.4,25.7-11.9,27.5-13.2c1.8-1.4,2.3-0.9,3.8-2c1.5-1.1,3.1-2,4.8-2.7c1.8-0.7,9.2-4.8,11.5-5.8s9.8-5,11.7-5.9
										c1.9-0.9,9.6-5.1,12-6.2c2.4-1.1,15.7-7.2,19.1-9.4c3.5-2.2,14.8-8,17.7-9.2c2.9-1.2,20.7-10.8,22.7-11.8
										c2-1,2.7-0.9,4.7-2.7c2-1.8,10.7-7.1,12.8-9.1c2.1-2,15.4-12.3,18.5-14.5c2.6-2,7.2-5.7,8.4-6.6c0.2-0.2,0.2-0.5,0-0.7
										c-1.7-3.4-12-23.7-12.6-24.4c-0.6-0.7-9.2-17.7-10.3-19.4c-1.1-1.7-10.3-19.6-11.3-21.6c-0.9-1.7-5.1-9.7-6.2-11.7
										c-0.1-0.3-0.4-0.4-0.6-0.3c-2.3,1.7-17,13.1-19.9,15.7c-3.2,2.8-14.9,11.7-18.1,14.2c-3.2,2.6-10.5,8.9-12.2,10.1
										s-2.3,1.6-2.5,2.1c-0.3,0.5-0.3,0.9-0.8,1c-0.9-0.1-1.8-0.1-2.6,0c-0.8,0.2-2.3,0.6-4.6,1.3c-2.3,0.7-7,2.5-9.8,3.4
										c-2.8,0.9-5.7,2.1-7.3,2.6c-2.9,0.9-5.8,2.1-8.5,3.6c-2.6,1.5-5.1,2.3-9.1,4.5c-3.9,2.3-6.7,3.5-9,4.7s-9.7,4.5-12.6,6.2
										c-3,1.7-7.2,3.6-9.6,4.9c-2.4,1.3-3.4,1.6-4.3,2.2c-0.8,0.8-1.8,1.4-2.7,2c-1.7,1-5.8,2.7-10.9,5.4
										c-5.1,2.7-8.7,4.2-10.5,5.1c-1.7,0.9-3.8,1.5-6.8,3.1c-2.4,1.3-5.4,2.8-6.4,3.2C1233.8,336.5,1233.8,336.8,1233.9,337.1z"
										/>
								</defs>
								<clipPath id="SVGID_00000131343652086492495150000004630884208552402831_">
									<use xlink:href="#SVGID_00000051361939987384202170000002929330026996829375_"  style="overflow:visible;"/>
								</clipPath>
								<g style="clip-path:url(#SVGID_00000131343652086492495150000004630884208552402831_);">
									
										<image style="overflow:visible;enable-background:new    ;" width="40" height="96" xlink:href="D7B8F2FC.png"  transform="matrix(1.1316 0 0 1.1316 1263.2229 307.7871)">
									</image>
									
										<image style="overflow:visible;opacity:0.61;enable-background:new    ;" width="25" height="37" xlink:href="D7B8F2FB.png"  transform="matrix(1.1316 0 0 1.1316 1341.3043 278.3651)">
									</image>
									
										<image style="overflow:visible;opacity:0.7;enable-background:new    ;" width="57" height="109" xlink:href="D7B8F2F5.png"  transform="matrix(1.1316 0 0 1.1316 1306.2242 285.1548)">
									</image>
									
										<image style="overflow:visible;opacity:0.56;enable-background:new    ;" width="84" height="112" xlink:href="D7B8F2F7.png"  transform="matrix(1.1316 0 0 1.1316 1348.094 231.9689)">
									</image>
								</g>
							</g>
						</g>
					</g>
				</g>
			</g>
			<g class="st0">
				<g>
					<defs>
						<path id="SVGID_00000107576214001974977060000006774450150878574739_" d="M1184.8,280.9c0,0-53.5-6.8-60.2-10.6
							c-6.8-3.8-22.2-5.6-22.2-5.6c-1.3,0.6-2.4,1.7-2.9,3.1c-1.2,2.6-6.9,9.1-7.4,12.4c-0.3,2.7-0.8,5.5-1.5,8.1
							c-0.8,3.1-0.6,4.3-3.9,8.6s-7.6,14.1-9.7,17.9c-2.1,3.8-4.2,9.2-6.9,12.3c-2.7,3.2-0.2-0.4-4.1,6.3c-3.9,6.8-5.1,11.3-5,11.4
							s25.8,24.7,45.4,30.5c19.6,5.8,38.5,9.4,38.5,9.4s7.7-1.9,13.9-11.3c6.2-9.4,7.5-3.1,12.9-24.7L1184.8,280.9z"/>
					</defs>
					<clipPath id="SVGID_00000083076997629081092520000004641376392871508630_">
						<use xlink:href="#SVGID_00000107576214001974977060000006774450150878574739_"  style="overflow:visible;"/>
					</clipPath>
					<g style="clip-path:url(#SVGID_00000083076997629081092520000004641376392871508630_);">
						
							<image style="overflow:visible;opacity:0.45;enable-background:new    ;" width="196" height="131" xlink:href="D7B8F2F4.png"  transform="matrix(1.1316 0 0 1.1316 936.1859 217.2579)">
						</image>
						<g class="st2">
							<path class="st3" d="M976.7,217.9L938,296.2c-0.1,0.3-0.1,0.6,0.1,0.6c3,1.3,25.8,11.6,28.1,12s2.2,1.1,4,1.6
								c1.8,0.4,3.5,1,5.2,1.8c1.8,0.9,9.7,3.8,11.9,4.8s10.2,4.1,12.1,4.9c1.9,0.8,10.2,3.9,12.6,5c2.4,1.1,15.8,7,19.7,8.2
								c3.9,1.1,15.8,5.9,18.6,7.2c2.8,1.3,21.8,8.5,23.9,9.3c2.1,0.9,2.5,1.4,5.1,1.8c2.6,0.3,12.4,3.4,15.2,3.7
								c2.9,0.3,19.4,3.6,23.1,4.3c3.2,0.7,9.1,1.7,10.5,2c0.2,0,0.4-0.2,0.6-0.4c1.4-3.5,9.9-24.6,10.1-25.6
								c0.1-0.9,7.3-18.6,7.9-20.5c0.6-1.9,8-20.7,8.8-22.7c0.7-1.8,3.9-10.2,4.7-12.4c0.1-0.3,0-0.5-0.2-0.6
								c-2.8-0.6-21-4.1-24.9-4.6c-4.2-0.5-18.6-3.5-22.6-4.3c-4.1-0.7-13.6-2.1-15.7-2.5c-1-0.3-2.1-0.5-3.2-0.6
								c-0.6,0.1-0.9,0.4-1.3,0c-0.5-0.7-1.1-1.4-1.7-2c-0.6-0.5-2-1.3-4.1-2.6c-2-1.3-6.5-3.6-9-5.1c-2.5-1.5-5.3-2.9-6.8-3.7
								c-2.6-1.6-5.4-2.9-8.3-4c-2.9-1-5.1-2.4-9.4-3.8c-4.3-1.4-7-2.7-9.5-3.6s-9.7-4.3-13-5.4c-3.3-1.1-7.4-3-10-4
								s-3.4-1.5-4.5-1.8c-1.2-0.1-2.3-0.4-3.4-0.7c-1.9-0.7-5.9-2.6-11.3-4.7s-8.9-3.8-10.8-4.5c-1.8-0.7-3.6-1.9-6.8-3.1
								c-2.6-1-5.7-2.3-6.7-2.7C977.1,217.5,976.9,217.7,976.7,217.9z"/>
							<g>
								<defs>
									<path id="SVGID_00000153696985595843090830000005586232286556239025_" d="M976.7,217.9L938,296.2c-0.1,0.3-0.1,0.6,0.1,0.6
										c3,1.3,25.8,11.6,28.1,12s2.2,1.1,4,1.6c1.8,0.4,3.5,1,5.2,1.8c1.8,0.9,9.7,3.8,11.9,4.8s10.2,4.1,12.1,4.9
										c1.9,0.8,10.2,3.9,12.6,5c2.4,1.1,15.8,7,19.7,8.2c3.9,1.1,15.8,5.9,18.6,7.2c2.8,1.3,21.8,8.5,23.9,9.3
										c2.1,0.9,2.5,1.4,5.1,1.8c2.6,0.3,12.4,3.4,15.2,3.7c2.9,0.3,19.4,3.6,23.1,4.3c3.2,0.7,9.1,1.7,10.5,2
										c0.2,0,0.4-0.2,0.6-0.4c1.4-3.5,9.9-24.6,10.1-25.6c0.1-0.9,7.3-18.6,7.9-20.5c0.6-1.9,8-20.7,8.8-22.7
										c0.7-1.8,3.9-10.2,4.7-12.4c0.1-0.3,0-0.5-0.2-0.6c-2.8-0.6-21-4.1-24.9-4.6c-4.2-0.5-18.6-3.5-22.6-4.3
										c-4.1-0.7-13.6-2.1-15.7-2.5c-1-0.3-2.1-0.5-3.2-0.6c-0.6,0.1-0.9,0.4-1.3,0c-0.5-0.7-1.1-1.4-1.7-2
										c-0.6-0.5-2-1.3-4.1-2.6c-2-1.3-6.5-3.6-9-5.1c-2.5-1.5-5.3-2.9-6.8-3.7c-2.6-1.6-5.4-2.9-8.3-4c-2.9-1-5.1-2.4-9.4-3.8
										c-4.3-1.4-7-2.7-9.5-3.6s-9.7-4.3-13-5.4c-3.3-1.1-7.4-3-10-4s-3.4-1.5-4.5-1.8c-1.2-0.1-2.3-0.4-3.4-0.7
										c-1.9-0.7-5.9-2.6-11.3-4.7s-8.9-3.8-10.8-4.5c-1.8-0.7-3.6-1.9-6.8-3.1c-2.6-1-5.7-2.3-6.7-2.7
										C977.1,217.5,976.9,217.7,976.7,217.9z"/>
								</defs>
								<clipPath id="SVGID_00000049925946103856234100000017685445930999292344_">
									<use xlink:href="#SVGID_00000153696985595843090830000005586232286556239025_"  style="overflow:visible;"/>
								</clipPath>
								<g style="clip-path:url(#SVGID_00000049925946103856234100000017685445930999292344_);">
									
										<image style="overflow:visible;enable-background:new    ;" width="61" height="85" xlink:href="D7B8F2EB.png"  transform="matrix(1.1316 0 0 1.1316 958.8182 225.1792)">
									</image>
									
										<image style="overflow:visible;opacity:0.61;enable-background:new    ;" width="20" height="38" xlink:href="D7B8F2ED.png"  transform="matrix(1.1316 0 0 1.1316 1075.3746 263.6541)">
									</image>
									
										<image style="overflow:visible;opacity:0.7;enable-background:new    ;" width="78" height="99" xlink:href="D7B8F2EF.png"  transform="matrix(1.1316 0 0 1.1316 988.2402 245.5482)">
									</image>
									
										<image style="overflow:visible;opacity:0.56;enable-background:new    ;" width="75" height="107" xlink:href="D7B8F310.png"  transform="matrix(1.1316 0 0 1.1316 1083.2959 257.996)">
									</image>
								</g>
							</g>
						</g>
					</g>
				</g>
			</g>
			<g>
				<defs>
					<rect id="SVGID_00000114050030437715351280000001149493082594375833_" y="-157.6" width="2172.7" height="482.3"/>
				</defs>
				<clipPath id="SVGID_00000158748971915906310820000008133947935838285470_">
					<use xlink:href="#SVGID_00000114050030437715351280000001149493082594375833_"  style="overflow:visible;"/>
				</clipPath>
				<g style="clip-path:url(#SVGID_00000158748971915906310820000008133947935838285470_);">
					<path class="st14" d="M-358.5-22.2C-155.7,74.7,159.2,198.9,565.7,259c165.9,24.5,428.9,61.6,757.9,22.1
						c485.5-58.4,849.1-251.6,1066-395.2"/>
				</g>
			</g>
		</g>
	</g>
</g>
</svg>
