<?xml version="1.0" encoding="utf-8"?>
<!-- Generator: Adobe Illustrator 26.0.1, SVG Export Plug-In . SVG Version: 6.00 Build 0)  -->
<svg version="1.1" id="Layer_1" xmlns="http://www.w3.org/2000/svg" xmlns:xlink="http://www.w3.org/1999/xlink" x="0px" y="0px"
	 viewBox="0 0 1920 737.1" style="enable-background:new 0 0 1920 737.1;" xml:space="preserve">
<style type="text/css">
	.st0{fill:none;stroke:#000000;stroke-width:2;stroke-miterlimit:10;}
	.st1{opacity:0.9;}
	.st2{clip-path:url(#SVGID_00000159433976664263971990000012975712352068311462_);}
	.st3{opacity:0.8;}
	.st4{opacity:0.9;fill:#DABA7B;enable-background:new    ;}
	.st5{clip-path:url(#SVGID_00000116227244538303525370000002715789036870272693_);}
	.st6{clip-path:url(#SVGID_00000147208905598702499440000001610429151699720638_);}
	.st7{clip-path:url(#SVGID_00000170975226968689682250000002041403965658351516_);}
	.st8{clip-path:url(#SVGID_00000121243173333304525320000008204414057510002617_);}
	.st9{clip-path:url(#SVGID_00000137850165482511344820000006807842409693123756_);}
	.st10{clip-path:url(#SVGID_00000069360222095127200670000005849702791371053230_);}
	.st11{clip-path:url(#SVGID_00000021842230185093476670000006083045114328881339_);}
	.st12{clip-path:url(#SVGID_00000141439123114896830470000003787328861225314717_);}
	.st13{clip-path:url(#SVGID_00000007429576345251350680000008601005318465438361_);}
</style>
<g>
	<g>
		<path class="st0" d="M-316.8-30.6C-137.6,55,140.7,164.8,499.9,218c146.6,21.7,379,54.5,669.7,19.5
			c429-51.6,750.4-222.4,942-349.3"/>
	</g>
</g>
<image style="overflow:visible;enable-background:new    ;" width="3997" height="5996" xlink:href="21818A05.jpeg"  transform="matrix(5.870188e-02 1.241324e-02 -1.241324e-02 5.870188e-02 155.04 175.3533)">
</image>
<image style="overflow:visible;enable-background:new    ;" width="2624" height="3936" xlink:href="../photos/DSC06595.jpg"  transform="matrix(0.1196 1.012482e-02 -1.012482e-02 0.1196 456.6 239.9233)">
</image>
<g class="st1">
	<g>
		<g>
			<defs>
				<path id="SVGID_1_" d="M667,206.7c0,0-47.6,2.2-54.1,0s-20.2-1.5-20.2-1.5c-1.1,0.7-1.8,1.9-2,3.1c-0.7,2.4-4.6,9-4.5,11.9
					c0.1,2.4,0.1,4.9-0.1,7.3c-0.2,2.9,0.2,3.9-2.1,8.1s-4.5,13.4-5.8,17.1s-2.2,8.6-4.1,11.8s-0.2-0.4-2.5,6.2s-2.8,10.6-2.6,10.7
					s26.2,17.5,44.2,19.6s35,2.3,35,2.3s6.4-2.8,10.4-12s6.1-3.9,7.4-23.5L667,206.7z"/>
			</defs>
			<clipPath id="SVGID_00000175311611066519669670000012330238003570983079_">
				<use xlink:href="#SVGID_1_"  style="overflow:visible;"/>
			</clipPath>
			<g style="clip-path:url(#SVGID_00000175311611066519669670000012330238003570983079_);">
				
					<image style="overflow:visible;opacity:0.45;enable-background:new    ;" width="192" height="106" xlink:href="21818A05.png"  transform="matrix(1 0 0 1 453.02 182.5933)">
				</image>
				<g class="st3">
					<path class="st4" d="M476.3,183.6l-21.8,74.1c-0.1,0.3,0,0.5,0.2,0.5c2.8,0.7,24.2,6.1,26.3,6.2s2.1,0.6,3.7,0.8
						c1.6,0.1,3.2,0.4,4.8,0.8c1.7,0.5,9,1.8,11.1,2.4s9.5,2,11.3,2.4c1.8,0.4,9.4,1.8,11.7,2.4s14.8,3.7,18.4,4.1
						s14.6,2.7,17.3,3.5s20.2,4,22.2,4.5s2.4,0.9,4.7,0.8s11.3,1.1,13.8,0.9s17.4,0.1,20.8,0.3c2.9,0.1,8.1,0.1,9.4,0.1
						c0.2,0,0.4-0.2,0.4-0.5c0.7-3.3,4.9-23,4.9-23.8s3.5-17.3,3.7-19.1s3.8-19.2,4.2-21.1c0.3-1.6,1.8-9.5,2.2-11.5
						c0-0.3,0-0.5-0.2-0.5c-2.5,0-18.9-0.4-22.4-0.2c-3.8,0.2-16.7-0.2-20.3-0.3s-12.2,0.3-14,0.2c-1-0.1-1.9-0.1-2.9,0
						c-0.5,0.2-0.7,0.5-1.1,0.2c-0.6-0.5-1.2-1-1.8-1.5c-0.6-0.3-2-0.9-3.9-1.7s-6.2-2.1-8.6-3.1s-5-1.7-6.5-2.2
						c-2.5-1-5.1-1.7-7.8-2.2c-2.7-0.4-4.8-1.3-8.7-1.9s-6.5-1.3-8.8-1.7s-9.1-2.3-12.1-2.8s-6.9-1.5-9.3-1.9s-3.2-0.8-4.2-0.9
						c-1,0.1-2,0-3-0.1c-1.7-0.3-5.5-1.3-10.5-2.3s-8.4-1.9-10.1-2.3s-3.4-1.1-6.4-1.6c-2.4-0.5-5.3-1.1-6.2-1.3
						C476.6,183.1,476.4,183.3,476.3,183.6z"/>
					<g>
						<g>
							<defs>
								<path id="SVGID_00000090262712015525227560000014806100742350570880_" d="M476.3,183.6l-21.8,74.1c-0.1,0.3,0,0.5,0.2,0.5
									c2.8,0.7,24.2,6.1,26.3,6.2s2.1,0.6,3.7,0.8c1.6,0.1,3.2,0.4,4.8,0.8c1.7,0.5,9,1.8,11.1,2.4s9.5,2,11.3,2.4
									c1.8,0.4,9.4,1.8,11.7,2.4s14.8,3.7,18.4,4.1s14.6,2.7,17.3,3.5s20.2,4,22.2,4.5s2.4,0.9,4.7,0.8s11.3,1.1,13.8,0.9
									s17.4,0.1,20.8,0.3c2.9,0.1,8.1,0.1,9.4,0.1c0.2,0,0.4-0.2,0.4-0.5c0.7-3.3,4.9-23,4.9-23.8s3.5-17.3,3.7-19.1
									s3.8-19.2,4.2-21.1c0.3-1.6,1.8-9.5,2.2-11.5c0-0.3,0-0.5-0.2-0.5c-2.5,0-18.9-0.4-22.4-0.2c-3.8,0.2-16.7-0.2-20.3-0.3
									s-12.2,0.3-14,0.2c-1-0.1-1.9-0.1-2.9,0c-0.5,0.2-0.7,0.5-1.1,0.2c-0.6-0.5-1.2-1-1.8-1.5c-0.6-0.3-2-0.9-3.9-1.7
									s-6.2-2.1-8.6-3.1s-5-1.7-6.5-2.2c-2.5-1-5.1-1.7-7.8-2.2c-2.7-0.4-4.8-1.3-8.7-1.9s-6.5-1.3-8.8-1.7s-9.1-2.3-12.1-2.8
									s-6.9-1.5-9.3-1.9s-3.2-0.8-4.2-0.9c-1,0.1-2,0-3-0.1c-1.7-0.3-5.5-1.3-10.5-2.3s-8.4-1.9-10.1-2.3s-3.4-1.1-6.4-1.6
									c-2.4-0.5-5.3-1.1-6.2-1.3C476.6,183.1,476.4,183.3,476.3,183.6z"/>
							</defs>
							<clipPath id="SVGID_00000042720502967342009670000013871264303232938419_">
								<use xlink:href="#SVGID_00000090262712015525227560000014806100742350570880_"  style="overflow:visible;"/>
							</clipPath>
							<g style="clip-path:url(#SVGID_00000042720502967342009670000013871264303232938419_);">
								
									<image style="overflow:visible;enable-background:new    ;" width="48" height="90" xlink:href="21818A03.png"  transform="matrix(1 0 0 1 475.02 184.5933)">
								</image>
								
									<image style="overflow:visible;opacity:0.61;enable-background:new    ;" width="15" height="39" xlink:href="21818A0D.png"  transform="matrix(1 0 0 1 574.02 206.5933)">
								</image>
								
									<image style="overflow:visible;opacity:0.7;enable-background:new    ;" width="64" height="104" xlink:href="21818A0F.png"  transform="matrix(1 0 0 1 505.02 194.5933)">
								</image>
								
									<image style="overflow:visible;opacity:0.56;enable-background:new    ;" width="65" height="104" xlink:href="21818A02.png"  transform="matrix(1 0 0 1 587.02 198.5933)">
								</image>
							</g>
						</g>
					</g>
				</g>
			</g>
		</g>
	</g>
</g>
<g class="st1">
	<g>
		<g>
			<defs>
				<path id="SVGID_00000055697378951339727880000001259259359970488234_" d="M330.3,155.6c0,0-47.6,2.2-54.1,0s-20.2-1.5-20.2-1.5
					c-1.1,0.7-1.8,1.9-2,3.1c-0.6,2.4-4.6,8.9-4.5,11.9c0.1,2.4,0.1,4.9-0.1,7.3c-0.2,2.9,0.2,3.9-2.1,8.1s-4.5,13.4-5.8,17.1
					s-2.2,8.6-4.1,11.8s-0.2-0.4-2.5,6.2s-2.7,10.6-2.6,10.7s26.2,17.5,44.2,19.6s35,2.3,35,2.3s6.4-2.8,10.4-12s6.1-3.9,7.4-23.5
					L330.3,155.6z"/>
			</defs>
			<clipPath id="SVGID_00000021829475543474598520000011015639500992857762_">
				<use xlink:href="#SVGID_00000055697378951339727880000001259259359970488234_"  style="overflow:visible;"/>
			</clipPath>
			<g style="clip-path:url(#SVGID_00000021829475543474598520000011015639500992857762_);">
				
					<image style="overflow:visible;opacity:0.45;enable-background:new    ;" width="191" height="106" xlink:href="21818A01.png"  transform="matrix(1 0 0 1 117.02 131.5933)">
				</image>
				<g class="st3">
					<path class="st4" d="M139.6,132.5l-21.8,74.1c-0.1,0.3,0,0.5,0.2,0.5c2.8,0.7,24.3,6.1,26.3,6.2s2,0.6,3.7,0.8
						c1.6,0.1,3.2,0.4,4.8,0.8c1.7,0.5,9,1.8,11.1,2.4s9.5,2,11.3,2.4s9.4,1.8,11.7,2.4s14.8,3.7,18.4,4.1s14.6,2.7,17.3,3.5
						s20.2,4,22.2,4.5s2.4,0.9,4.7,0.8s11.3,1.1,13.8,0.9s17.4,0.1,20.8,0.3c2.9,0.1,8.1,0.1,9.4,0.1c0.2,0,0.4-0.2,0.4-0.5
						c0.7-3.3,4.9-23,4.9-23.8s3.5-17.3,3.7-19.1s3.8-19.2,4.2-21.1c0.3-1.6,1.9-9.5,2.2-11.5c0-0.3,0-0.5-0.2-0.5
						c-2.5-0.1-19-0.4-22.4-0.2c-3.8,0.2-16.7-0.2-20.4-0.3s-12.1,0.2-14,0.2c-1-0.1-1.9-0.1-2.9,0c-0.5,0.2-0.7,0.5-1.1,0.2
						c-0.6-0.5-1.2-1-1.8-1.5c-0.6-0.3-2-0.9-3.9-1.7s-6.2-2.1-8.6-3.1s-5-1.7-6.5-2.2c-2.5-1-5.1-1.7-7.8-2.2
						c-2.6-0.4-4.8-1.3-8.7-1.9s-6.5-1.3-8.8-1.7s-9.1-2.3-12.1-2.8s-6.9-1.5-9.3-1.9s-3.2-0.8-4.2-0.9c-1,0.1-2,0-3-0.1
						c-1.7-0.3-5.5-1.3-10.5-2.3s-8.4-1.9-10.1-2.3s-3.4-1.1-6.4-1.6c-2.4-0.5-5.3-1.1-6.2-1.3C139.9,132,139.7,132.2,139.6,132.5z"
						/>
					<g>
						<g>
							<defs>
								<path id="SVGID_00000162312313065653434450000014252407379175100327_" d="M139.6,132.5l-21.8,74.1c-0.1,0.3,0,0.5,0.2,0.5
									c2.8,0.7,24.3,6.1,26.3,6.2s2,0.6,3.7,0.8c1.6,0.1,3.2,0.4,4.8,0.8c1.7,0.5,9,1.8,11.1,2.4s9.5,2,11.3,2.4s9.4,1.8,11.7,2.4
									s14.8,3.7,18.4,4.1s14.6,2.7,17.3,3.5s20.2,4,22.2,4.5s2.4,0.9,4.7,0.8s11.3,1.1,13.8,0.9s17.4,0.1,20.8,0.3
									c2.9,0.1,8.1,0.1,9.4,0.1c0.2,0,0.4-0.2,0.4-0.5c0.7-3.3,4.9-23,4.9-23.8s3.5-17.3,3.7-19.1s3.8-19.2,4.2-21.1
									c0.3-1.6,1.9-9.5,2.2-11.5c0-0.3,0-0.5-0.2-0.5c-2.5-0.1-19-0.4-22.4-0.2c-3.8,0.2-16.7-0.2-20.4-0.3s-12.1,0.2-14,0.2
									c-1-0.1-1.9-0.1-2.9,0c-0.5,0.2-0.7,0.5-1.1,0.2c-0.6-0.5-1.2-1-1.8-1.5c-0.6-0.3-2-0.9-3.9-1.7s-6.2-2.1-8.6-3.1
									s-5-1.7-6.5-2.2c-2.5-1-5.1-1.7-7.8-2.2c-2.6-0.4-4.8-1.3-8.7-1.9s-6.5-1.3-8.8-1.7s-9.1-2.3-12.1-2.8s-6.9-1.5-9.3-1.9
									s-3.2-0.8-4.2-0.9c-1,0.1-2,0-3-0.1c-1.7-0.3-5.5-1.3-10.5-2.3s-8.4-1.9-10.1-2.3s-3.4-1.1-6.4-1.6
									c-2.4-0.5-5.3-1.1-6.2-1.3C139.9,132,139.7,132.2,139.6,132.5z"/>
							</defs>
							<clipPath id="SVGID_00000060714632805540546220000009245278729813990843_">
								<use xlink:href="#SVGID_00000162312313065653434450000014252407379175100327_"  style="overflow:visible;"/>
							</clipPath>
							<g style="clip-path:url(#SVGID_00000060714632805540546220000009245278729813990843_);">
								
									<image style="overflow:visible;enable-background:new    ;" width="47" height="90" xlink:href="21818A06.png"  transform="matrix(1 0 0 1 139.02 133.5933)">
								</image>
								
									<image style="overflow:visible;opacity:0.61;enable-background:new    ;" width="14" height="39" xlink:href="D7B8F2CE.png"  transform="matrix(1 0 0 1 238.02 155.5933)">
								</image>
								
									<image style="overflow:visible;opacity:0.7;enable-background:new    ;" width="64" height="104" xlink:href="D7B8F2C9.png"  transform="matrix(1 0 0 1 168.02 143.5933)">
								</image>
								
									<image style="overflow:visible;opacity:0.56;enable-background:new    ;" width="65" height="104" xlink:href="D7B8F2CA.png"  transform="matrix(1 0 0 1 250.02 147.5933)">
								</image>
							</g>
						</g>
					</g>
				</g>
			</g>
		</g>
	</g>
</g>
<image style="overflow:visible;enable-background:new    ;" width="4160" height="6240" xlink:href="../photos/IMG_6740.jpg"  transform="matrix(5.000000e-02 0 0 5.000000e-02 859.2 278.9033)">
</image>
<g class="st1">
	<g>
		<g>
			<defs>
				<path id="SVGID_00000150803604978600104750000016472586855278740902_" d="M1047,237.3c0,0-47.3-6-53.2-9.4s-19.7-5-19.7-5
					c-1.2,0.5-2.1,1.5-2.5,2.7c-1.1,2.3-6.1,8-6.5,11c-0.3,2.4-0.7,4.8-1.3,7.2c-0.7,2.8-0.5,3.8-3.4,7.6s-6.7,12.4-8.6,15.8
					s-3.7,8.1-6.1,10.9s-0.2-0.4-3.6,5.6s-4.5,10-4.4,10.1s22.8,21.8,40.2,26.9s34,8.3,34,8.3s6.8-1.7,12.3-10
					c5.5-8.3,6.7-2.8,11.4-21.9L1047,237.3z"/>
			</defs>
			<clipPath id="SVGID_00000049205859006912120020000000725648911790880406_">
				<use xlink:href="#SVGID_00000150803604978600104750000016472586855278740902_"  style="overflow:visible;"/>
			</clipPath>
			<g style="clip-path:url(#SVGID_00000049205859006912120020000000725648911790880406_);">
				
					<image style="overflow:visible;opacity:0.45;enable-background:new    ;" width="196" height="132" xlink:href="D7B8F2C6.png"  transform="matrix(1 0 0 1 827.02 180.5933)">
				</image>
				<g class="st3">
					<path class="st4" d="M863.1,181.6l-34.2,69.2c-0.1,0.2-0.1,0.5,0.1,0.6c2.6,1.2,22.8,10.2,24.8,10.6s1.9,1,3.5,1.4
						s3.1,0.9,4.6,1.6c1.5,0.8,8.6,3.3,10.5,4.3s9,3.6,10.7,4.3s9,3.4,11.1,4.4s13.9,6.2,17.4,7.2s13.9,5.2,16.4,6.4
						s19.2,7.5,21.1,8.2s2.2,1.3,4.5,1.5s10.9,3,13.5,3.2s17.1,3.1,20.4,3.8c2.9,0.6,8,1.5,9.3,1.8c0.2,0,0.4-0.1,0.5-0.4
						c1.3-3.1,8.8-21.8,8.9-22.6s6.5-16.4,7-18.1s7.1-18.3,7.8-20.1c0.6-1.6,3.5-9,4.2-11c0.1-0.2,0-0.5-0.1-0.5
						c-2.5-0.5-18.6-3.6-22-4.1c-3.7-0.5-16.4-3.1-20-3.8s-12-1.9-13.8-2.2c-0.9-0.3-1.9-0.5-2.8-0.5c-0.5,0.1-0.8,0.3-1.2,0
						c-0.5-0.6-1-1.2-1.5-1.8c-0.6-0.4-1.8-1.2-3.6-2.3s-5.7-3.2-7.9-4.5s-4.7-2.5-6-3.3c-2.3-1.4-4.8-2.6-7.3-3.6
						c-2.5-0.9-4.5-2.1-8.3-3.4s-6.2-2.4-8.4-3.2s-8.6-3.8-11.5-4.8s-6.6-2.6-8.8-3.5s-3-1.3-4-1.6c-1-0.1-2-0.3-3-0.6
						c-1.6-0.6-5.2-2.3-10-4.1s-7.9-3.4-9.5-4s-3.2-1.7-6-2.7c-2.3-0.9-5-2-5.9-2.4C863.5,181.2,863.2,181.4,863.1,181.6z"/>
					<g>
						<g>
							<defs>
								<path id="SVGID_00000036943163391530336850000000127361429257750657_" d="M863.1,181.6l-34.2,69.2c-0.1,0.2-0.1,0.5,0.1,0.6
									c2.6,1.2,22.8,10.2,24.8,10.6s1.9,1,3.5,1.4s3.1,0.9,4.6,1.6c1.5,0.8,8.6,3.3,10.5,4.3s9,3.6,10.7,4.3s9,3.4,11.1,4.4
									s13.9,6.2,17.4,7.2s13.9,5.2,16.4,6.4s19.2,7.5,21.1,8.2s2.2,1.3,4.5,1.5s10.9,3,13.5,3.2s17.1,3.1,20.4,3.8
									c2.9,0.6,8,1.5,9.3,1.8c0.2,0,0.4-0.1,0.5-0.4c1.3-3.1,8.8-21.8,8.9-22.6s6.5-16.4,7-18.1s7.1-18.3,7.8-20.1
									c0.6-1.6,3.5-9,4.2-11c0.1-0.2,0-0.5-0.1-0.5c-2.5-0.5-18.6-3.6-22-4.1c-3.7-0.5-16.4-3.1-20-3.8s-12-1.9-13.8-2.2
									c-0.9-0.3-1.9-0.5-2.8-0.5c-0.5,0.1-0.8,0.3-1.2,0c-0.5-0.6-1-1.2-1.5-1.8c-0.6-0.4-1.8-1.2-3.6-2.3s-5.7-3.2-7.9-4.5
									s-4.7-2.5-6-3.3c-2.3-1.4-4.8-2.6-7.3-3.6c-2.5-0.9-4.5-2.1-8.3-3.4s-6.2-2.4-8.4-3.2s-8.6-3.8-11.5-4.8s-6.6-2.6-8.8-3.5
									s-3-1.3-4-1.6c-1-0.1-2-0.3-3-0.6c-1.6-0.6-5.2-2.3-10-4.1s-7.9-3.4-9.5-4s-3.2-1.7-6-2.7c-2.3-0.9-5-2-5.9-2.4
									C863.5,181.2,863.2,181.4,863.1,181.6z"/>
							</defs>
							<clipPath id="SVGID_00000053512908986741448550000012354598065867614883_">
								<use xlink:href="#SVGID_00000036943163391530336850000000127361429257750657_"  style="overflow:visible;"/>
							</clipPath>
							<g style="clip-path:url(#SVGID_00000053512908986741448550000012354598065867614883_);">
								
									<image style="overflow:visible;enable-background:new    ;" width="61" height="84" xlink:href="D7B8F2D9.png"  transform="matrix(1 0 0 1 847.02 188.5933)">
								</image>
								
									<image style="overflow:visible;opacity:0.61;enable-background:new    ;" width="20" height="39" xlink:href="D7B8F2DA.png"  transform="matrix(1 0 0 1 950.02 221.5933)">
								</image>
								
									<image style="overflow:visible;opacity:0.7;enable-background:new    ;" width="79" height="100" xlink:href="D7B8F2D8.png"  transform="matrix(1 0 0 1 873.02 205.5933)">
								</image>
								
									<image style="overflow:visible;opacity:0.56;enable-background:new    ;" width="75" height="107" xlink:href="D7B8F2DE.png"  transform="matrix(1 0 0 1 957.02 216.5933)">
								</image>
							</g>
						</g>
					</g>
				</g>
			</g>
		</g>
	</g>
</g>
<image style="overflow:visible;enable-background:new    ;" width="4160" height="6240" xlink:href="../photos/IMG_8309.jpg"  transform="matrix(7.000000e-02 -1.000000e-02 1.000000e-02 7.000000e-02 1164.79 266.8433)">
</image>
<g class="st1">
	<g>
		<g>
			<defs>
				<path id="SVGID_00000094595789009026538100000008658183239541313979_" d="M1323.3,165.2c0,0-35.7,31.6-42.1,33.9
					s-16.7,11.5-16.7,11.5c-0.4,1.2-0.2,2.6,0.4,3.7c1,2.3,2,9.9,4,12.1c1.6,1.8,3.1,3.7,4.5,5.7c1.6,2.4,2.6,2.9,3.5,7.6
					s4.9,13.2,6.2,16.9c1.3,3.7,3.7,8.1,4.2,11.7s-0.3-0.2,1.9,6.4s4.5,10,4.7,9.9s31.4-2.8,46.7-12.5s28.7-20.1,28.7-20.1
					s3.2-6.2,0.5-15.9s2.3-6.8-9-22.9L1323.3,165.2z"/>
			</defs>
			<clipPath id="SVGID_00000101084705973080047030000007656323539779504813_">
				<use xlink:href="#SVGID_00000094595789009026538100000008658183239541313979_"  style="overflow:visible;"/>
			</clipPath>
			<g style="clip-path:url(#SVGID_00000101084705973080047030000007656323539779504813_);">
				
					<image style="overflow:visible;opacity:0.45;enable-background:new    ;" width="187" height="156" xlink:href="D7B8F2FD.png"  transform="matrix(1 0 0 1 1160.02 185.5933)">
				</image>
				<g class="st3">
					<path class="st4" d="M1160.4,267l29.6,71.3c0.1,0.2,0.3,0.4,0.5,0.3c2.6-1.2,22.7-10.5,24.3-11.7s2-0.8,3.4-1.8
						c1.3-0.9,2.7-1.7,4.2-2.4c1.6-0.6,8.2-4.3,10.2-5.1s8.7-4.5,10.3-5.2s8.5-4.5,10.6-5.5s13.8-6.4,16.9-8.4s13.1-7.1,15.6-8.2
						s18.3-9.6,20.1-10.5s2.4-0.8,4.2-2.4s9.4-6.2,11.3-8s13.7-10.8,16.3-12.9c2.3-1.8,6.4-5,7.4-5.8c0.1-0.2,0.1-0.4,0-0.6
						c-1.5-3-10.6-20.9-11.1-21.6s-8.1-15.7-9.1-17.2s-9.1-17.4-10-19.1c-0.8-1.5-4.5-8.5-5.5-10.4c-0.1-0.2-0.3-0.3-0.5-0.2
						c-2,1.5-15,11.6-17.6,13.9c-2.8,2.5-13.2,10.3-16,12.6s-9.3,7.8-10.8,8.9s-2,1.4-2.2,1.8s-0.3,0.8-0.7,0.9c-0.8,0-1.5,0-2.3,0
						c-0.7,0.1-2.1,0.6-4.1,1.2s-6.2,2.2-8.6,3s-5,1.9-6.4,2.3c-2.6,0.8-5.1,1.9-7.5,3.1c-2.3,1.4-4.6,2-8,4s-5.9,3.1-7.9,4.2
						s-8.5,4-11.2,5.5s-6.3,3.2-8.4,4.3s-3,1.4-3.8,2c-0.8,0.7-1.6,1.3-2.4,1.8c-1.5,0.8-5.1,2.4-9.7,4.8c-4.6,2.4-7.7,3.8-9.2,4.5
						s-3.4,1.3-6,2.7c-2.2,1.2-4.8,2.4-5.7,2.9C1160.3,266.4,1160.3,266.7,1160.4,267z"/>
					<g>
						<g>
							<defs>
								<path id="SVGID_00000013164847869877374750000008843582991064447106_" d="M1160.4,267l29.6,71.3c0.1,0.2,0.3,0.4,0.5,0.3
									c2.6-1.2,22.7-10.5,24.3-11.7s2-0.8,3.4-1.8c1.3-0.9,2.7-1.7,4.2-2.4c1.6-0.6,8.2-4.3,10.2-5.1s8.7-4.5,10.3-5.2
									s8.5-4.5,10.6-5.5s13.8-6.4,16.9-8.4s13.1-7.1,15.6-8.2s18.3-9.6,20.1-10.5s2.4-0.8,4.2-2.4s9.4-6.2,11.3-8
									s13.7-10.8,16.3-12.9c2.3-1.8,6.4-5,7.4-5.8c0.1-0.2,0.1-0.4,0-0.6c-1.5-3-10.6-20.9-11.1-21.6s-8.1-15.7-9.1-17.2
									s-9.1-17.4-10-19.1c-0.8-1.5-4.5-8.5-5.5-10.4c-0.1-0.2-0.3-0.3-0.5-0.2c-2,1.5-15,11.6-17.6,13.9
									c-2.8,2.5-13.2,10.3-16,12.6s-9.3,7.8-10.8,8.9s-2,1.4-2.2,1.8s-0.3,0.8-0.7,0.9c-0.8,0-1.5,0-2.3,0
									c-0.7,0.1-2.1,0.6-4.1,1.2s-6.2,2.2-8.6,3s-5,1.9-6.4,2.3c-2.6,0.8-5.1,1.9-7.5,3.1c-2.3,1.4-4.6,2-8,4s-5.9,3.1-7.9,4.2
									s-8.5,4-11.2,5.5s-6.3,3.2-8.4,4.3s-3,1.4-3.8,2c-0.8,0.7-1.6,1.3-2.4,1.8c-1.5,0.8-5.1,2.4-9.7,4.8
									c-4.6,2.4-7.7,3.8-9.2,4.5s-3.4,1.3-6,2.7c-2.2,1.2-4.8,2.4-5.7,2.9C1160.3,266.4,1160.3,266.7,1160.4,267z"/>
							</defs>
							<clipPath id="SVGID_00000116928749492399313850000017737308242204692380_">
								<use xlink:href="#SVGID_00000013164847869877374750000008843582991064447106_"  style="overflow:visible;"/>
							</clipPath>
							<g style="clip-path:url(#SVGID_00000116928749492399313850000017737308242204692380_);">
								
									<image style="overflow:visible;enable-background:new    ;" width="41" height="95" xlink:href="D7B8F2FF.png"  transform="matrix(1 0 0 1 1186.02 241.5933)">
								</image>
								
									<image style="overflow:visible;opacity:0.61;enable-background:new    ;" width="25" height="38" xlink:href="D7B8F2FC.png"  transform="matrix(1 0 0 1 1255.02 214.5933)">
								</image>
								
									<image style="overflow:visible;opacity:0.7;enable-background:new    ;" width="56" height="110" xlink:href="D7B8F2FB.png"  transform="matrix(1 0 0 1 1225.02 220.5933)">
								</image>
								
									<image style="overflow:visible;opacity:0.56;enable-background:new    ;" width="84" height="112" xlink:href="D7B8F2F5.png"  transform="matrix(1 0 0 1 1261.02 173.5933)">
								</image>
							</g>
						</g>
					</g>
				</g>
			</g>
		</g>
	</g>
</g>
<image style="overflow:visible;enable-background:new    ;" width="4160" height="6240" xlink:href="../photos/IMG_6701.jpg"  transform="matrix(6.000000e-02 -1.000000e-02 1.000000e-02 6.000000e-02 1536.51 165.3733)">
</image>
<g class="st1">
	<g>
		<g>
			<defs>
				<path id="SVGID_00000042698458794139037210000006334076998033524373_" d="M1646.2,67.4c0,0-25.8,40.1-31.4,44
					s-12.9,15.6-12.9,15.6c0,1.3,0.5,2.5,1.4,3.5c1.6,1.9,4.6,9,7.1,10.6c2.1,1.3,4,2.7,5.9,4.3c2.2,1.8,3.2,2.1,5.4,6.4
					s8.3,11.4,10.6,14.6s5.7,6.8,7.2,10.2s-0.4-0.1,3.6,5.6s7,8.4,7.2,8.3s29.5-11.2,41.6-24.6s22.2-27.1,22.2-27.1
					s1.4-6.9-3.8-15.4s0.4-7.2-14.8-19.7L1646.2,67.4z"/>
			</defs>
			<clipPath id="SVGID_00000179619911844872142290000014531088179995536565_">
				<use xlink:href="#SVGID_00000042698458794139037210000006334076998033524373_"  style="overflow:visible;"/>
			</clipPath>
			<g style="clip-path:url(#SVGID_00000179619911844872142290000014531088179995536565_);">
				
					<image style="overflow:visible;opacity:0.45;enable-background:new    ;" width="177" height="182" xlink:href="D7B8F2F4.png"  transform="matrix(1 0 0 1 1516.02 90.5933)">
				</image>
				<g class="st3">
					<path class="st4" d="M1516.8,209.4l47.7,60.7c0.2,0.2,0.4,0.3,0.5,0.2c2.2-1.9,19.1-16.2,20.3-17.8s1.7-1.3,2.8-2.6
						c1-1.3,2.2-2.4,3.4-3.4c1.4-1.1,6.7-6.3,8.4-7.7s7.1-6.6,8.5-7.8s7-6.6,8.7-8.1s11.6-9.9,14-12.6s10.7-10.3,12.8-12.1
						s15-14.1,16.5-15.5s2.1-1.5,3.3-3.4s7.4-8.6,8.7-10.8s10.2-14.1,12.3-16.8c1.8-2.3,4.8-6.5,5.6-7.6c0.1-0.2,0-0.5-0.1-0.6
						c-2.3-2.5-15.9-17.3-16.6-17.8s-12-12.9-13.4-14.1s-13.5-14.2-14.8-15.7c-1.2-1.2-6.7-7-8.1-8.5c-0.2-0.2-0.4-0.2-0.5-0.1
						c-1.5,2-11.3,15.2-13.2,18.1c-2,3.2-9.9,13.5-12,16.4s-6.8,10-8,11.5c-0.7,0.7-1.2,1.5-1.7,2.4c-0.2,0.5-0.1,0.9-0.5,1
						c-0.8,0.2-1.5,0.4-2.2,0.6c-0.6,0.3-1.8,1.1-3.6,2.2s-5.3,3.8-7.5,5.2s-4.3,3.1-5.6,4c-2.3,1.5-4.4,3.2-6.4,5.1
						c-1.9,1.9-3.8,3.1-6.6,6s-4.9,4.5-6.5,6.2s-7.2,6.1-9.3,8.3s-5.2,4.8-7,6.5s-2.5,2.1-3.2,2.9c-0.5,0.9-1.2,1.7-1.8,2.4
						c-1.2,1.2-4.3,3.7-8,7.2s-6.4,5.7-7.7,6.9s-2.9,2.2-5,4.2c-1.8,1.7-4,3.6-4.7,4.3C1516.6,208.9,1516.7,209.2,1516.8,209.4z"/>
					<g>
						<g>
							<defs>
								<path id="SVGID_00000169559232707933750020000003616639622933742779_" d="M1516.8,209.4l47.7,60.7c0.2,0.2,0.4,0.3,0.5,0.2
									c2.2-1.9,19.1-16.2,20.3-17.8s1.7-1.3,2.8-2.6c1-1.3,2.2-2.4,3.4-3.4c1.4-1.1,6.7-6.3,8.4-7.7s7.1-6.6,8.5-7.8
									s7-6.6,8.7-8.1s11.6-9.9,14-12.6s10.7-10.3,12.8-12.1s15-14.1,16.5-15.5s2.1-1.5,3.3-3.4s7.4-8.6,8.7-10.8
									s10.2-14.1,12.3-16.8c1.8-2.3,4.8-6.5,5.6-7.6c0.1-0.2,0-0.5-0.1-0.6c-2.3-2.5-15.9-17.3-16.6-17.8s-12-12.9-13.4-14.1
									s-13.5-14.2-14.8-15.7c-1.2-1.2-6.7-7-8.1-8.5c-0.2-0.2-0.4-0.2-0.5-0.1c-1.5,2-11.3,15.2-13.2,18.1
									c-2,3.2-9.9,13.5-12,16.4s-6.8,10-8,11.5c-0.7,0.7-1.2,1.5-1.7,2.4c-0.2,0.5-0.1,0.9-0.5,1c-0.8,0.2-1.5,0.4-2.2,0.6
									c-0.6,0.3-1.8,1.1-3.6,2.2s-5.3,3.8-7.5,5.2s-4.3,3.1-5.6,4c-2.3,1.5-4.4,3.2-6.4,5.1c-1.9,1.9-3.8,3.1-6.6,6
									s-4.9,4.5-6.5,6.2s-7.2,6.1-9.3,8.3s-5.2,4.8-7,6.5s-2.5,2.1-3.2,2.9c-0.5,0.9-1.2,1.7-1.8,2.4c-1.2,1.2-4.3,3.7-8,7.2
									s-6.4,5.7-7.7,6.9s-2.9,2.2-5,4.2c-1.8,1.7-4,3.6-4.7,4.3C1516.6,208.9,1516.7,209.2,1516.8,209.4z"/>
							</defs>
							<clipPath id="SVGID_00000147205908988164166750000012803338160962692267_">
								<use xlink:href="#SVGID_00000169559232707933750020000003616639622933742779_"  style="overflow:visible;"/>
							</clipPath>
							<g style="clip-path:url(#SVGID_00000147205908988164166750000012803338160962692267_);">
								
									<image style="overflow:visible;enable-background:new    ;" width="61" height="88" xlink:href="D7B8F2EB.png"  transform="matrix(1 0 0 1 1537.02 173.5933)">
								</image>
								
									<image style="overflow:visible;opacity:0.61;enable-background:new    ;" width="31" height="32" xlink:href="D7B8F2ED.png"  transform="matrix(1 0 0 1 1596.02 131.5933)">
								</image>
								
									<image style="overflow:visible;opacity:0.7;enable-background:new    ;" width="78" height="104" xlink:href="D7B8F2EF.png"  transform="matrix(1 0 0 1 1569.02 142.5933)">
								</image>
								
									<image style="overflow:visible;opacity:0.56;enable-background:new    ;" width="99" height="104" xlink:href="D7B8F310.png"  transform="matrix(1 0 0 1 1597.02 78.5933)">
								</image>
							</g>
						</g>
					</g>
				</g>
			</g>
		</g>
	</g>
</g>
</svg>
