<svg xmlns="http://www.w3.org/2000/svg" viewBox="0 0 66.28 66.28"><defs><style>.cls-1{fill:#fff;}.cls-1,.cls-2{fill-rule:evenodd;}.cls-2{fill:#fff;}</style></defs><g id="Layer_2" data-name="Layer 2"><g id="Layer_1-2" data-name="Layer 1"><path class="cls-1" d="M34.94,51.8c0-1.58.06-6.81.77-8.29a8.43,8.43,0,0,1,.51-.95,1,1,0,0,0-.21-1.4c.29-.4.39-1.13-.29-1.32.26-.43.33-1-.28-1.27a1.6,1.6,0,0,0-.6-1.7c0,.81-1.7,3.55-2.85,3.36-.93-.14-.56-2-.56-2.27-1.05,1-1.78,2.06-.23,4.87.58,1.06.54,6,.3,8.2l-.07,1c.81-.15,3.51,0,3.51-.27Z"/><path class="cls-2" d="M34.79,49.19h0c-.24.67-.84.28-.95-.56-.17-1.32,1.19-1.94,1.35-3a9,9,0,0,1,.26-1.33.09.09,0,0,1,.16,0,3.52,3.52,0,0,1,.33,3,14.61,14.61,0,0,0-1.15,1.89Zm-4-5.27c-.28.27-.49.79-.06,1.1a.08.08,0,0,1,0,.12A.8.8,0,0,0,31,46.35a.08.08,0,0,1,0,.12.67.67,0,0,0,.26,1.07.08.08,0,0,1,0,.12,1.31,1.31,0,0,0,.19,1.8.09.09,0,0,0,.13-.06,1,1,0,0,1,.36-.51,4.16,4.16,0,0,1,.86-.58.68.68,0,0,0-.15-1.2.08.08,0,0,1,0-.15c.39-.28,1-.68.73-1.12-.14-.26-.32-.28-.66-.21a.09.09,0,0,1-.08-.14c.45-.47.21-1-.5-1a.08.08,0,0,1-.08-.13c.37-.53.4-.76.09-1s-.9,0-1.4.55Zm12.31-21.3h-8a.07.07,0,0,1-.08-.08s0-8.25,0-8.25h0a.09.09,0,0,0-.08-.08H31.53a.09.09,0,0,0-.09.09v8.24a.08.08,0,0,1-.09.08H23.2a.09.09,0,0,0-.09.1v3.35a.09.09,0,0,0,.09.1h8.15a.09.09,0,0,1,.09.08V37.89a.71.71,0,0,0,0,.14h0c-.39,1.44-.08,2.27.45,2.35.84.14,2.2-1.18,2.73-2.5a2.63,2.63,0,0,0,.23-1c0-.58.13-10.62.13-10.62a.09.09,0,0,1,.08-.08h8a.09.09,0,0,0,.09-.1V22.72A.09.09,0,0,0,43.08,22.62Z"/><path d="M33.14,66.28A33.14,33.14,0,1,1,66.28,33.14,33.18,33.18,0,0,1,33.14,66.28ZM33.14.9A32.24,32.24,0,1,0,65.38,33.14,32.27,32.27,0,0,0,33.14.9Z"/></g></g></svg>