<svg width="960" height="53" viewBox="0 0 960 53" fill="none" xmlns="http://www.w3.org/2000/svg">
<path d="M0 43L12.3 45.2C24.7 47.3 49.3 51.7 74 51.7C98.7 51.7 123.3 47.3 148 47.7C172.7 48 197.3 53 221.8 52.7C246.3 52.3 270.7 46.7 295.2 44.3C319.7 42 344.3 43 369 44.3C393.7 45.7 418.3 47.3 443 46.8C467.7 46.3 492.3 43.7 517 43.8C541.7 44 566.3 47 591 44.8C615.7 42.7 640.3 35.3 664.8 32.7C689.3 30 713.7 32 738.2 34C762.7 36 787.3 38 812 41.2C836.7 44.3 861.3 48.7 886 48.7C910.7 48.7 935.3 44.3 947.7 42.2L960 40V0H947.7C935.3 0 910.7 0 886 0C861.3 0 836.7 0 812 0C787.3 0 762.7 0 738.2 0C713.7 0 689.3 0 664.8 0C640.3 0 615.7 0 591 0C566.3 0 541.7 0 517 0C492.3 0 467.7 0 443 0C418.3 0 393.7 0 369 0C344.3 0 319.7 0 295.2 0C270.7 0 246.3 0 221.8 0C197.3 0 172.7 0 148 0C123.3 0 98.7 0 74 0C49.3 0 24.7 0 12.3 0H0V43Z" fill="#FFF0C8"/>
</svg>
