<svg width="960" height="52" viewBox="0 0 960 52" fill="none" xmlns="http://www.w3.org/2000/svg">
<path d="M0 20L12.3 25.2C24.7 30.3 49.3 40.7 74 41.2C98.7 41.7 123.3 32.3 148 28.7C172.7 25 197.3 27 221.8 28.2C246.3 29.3 270.7 29.7 295.2 33.8C319.7 38 344.3 46 369 49.3C393.7 52.7 418.3 51.3 443 46.5C467.7 41.7 492.3 33.3 517 28.3C541.7 23.3 566.3 21.7 591 19.3C615.7 17 640.3 14 664.8 15.8C689.3 17.7 713.7 24.3 738.2 25.2C762.7 26 787.3 21 812 21C836.7 21 861.3 26 886 26.2C910.7 26.3 935.3 21.7 947.7 19.3L960 17V0H947.7C935.3 0 910.7 0 886 0C861.3 0 836.7 0 812 0C787.3 0 762.7 0 738.2 0C713.7 0 689.3 0 664.8 0C640.3 0 615.7 0 591 0C566.3 0 541.7 0 517 0C492.3 0 467.7 0 443 0C418.3 0 393.7 0 369 0C344.3 0 319.7 0 295.2 0C270.7 0 246.3 0 221.8 0C197.3 0 172.7 0 148 0C123.3 0 98.7 0 74 0C49.3 0 24.7 0 12.3 0H0V20Z" fill="#0E7E6F"/>
</svg>
