<svg width="960" height="149" viewBox="0 0 960 149" fill="none" xmlns="http://www.w3.org/2000/svg">
<path d="M0 0L14.5 8.8C29 17.7 58 35.3 87.2 43.7C116.3 52 145.7 51 174.8 53.3C204 55.7 233 61.3 262 54.5C291 47.7 320 28.3 349 34.7C378 41 407 73 436.2 91.5C465.3 110 494.7 115 523.8 101.2C553 87.3 582 54.7 611 48.3C640 42 669 62 698 75.7C727 89.3 756 96.7 785.2 90.3C814.3 84 843.7 64 872.8 57.5C902 51 931 58 945.5 61.5L960 65V150H945.5C931 150 902 150 872.8 150C843.7 150 814.3 150 785.2 150C756 150 727 150 698 150C669 150 640 150 611 150C582 150 553 150 523.8 150C494.7 150 465.3 150 436.2 150C407 150 378 150 349 150C320 150 291 150 262 150C233 150 204 150 174.8 150C145.7 150 116.3 150 87.2 150C58 150 29 150 14.5 150H0V0Z" fill="#FFF0C8"/>
</svg>
