<svg width="960" height="55" viewBox="0 0 960 55" fill="none" xmlns="http://www.w3.org/2000/svg">
<path d="M0 20L12.3 18.7C24.7 17.3 49.3 14.7 74 17.7C98.7 20.7 123.3 29.3 148 26.3C172.7 23.3 197.3 8.69997 221.8 6.49997C246.3 4.29997 270.7 14.7 295.2 16.5C319.7 18.3 344.3 11.7 369 8.69999C393.7 5.69999 418.3 6.29999 443 8.69999C467.7 11 492.3 15 517 16.3C541.7 17.7 566.3 16.3 591 17.8C615.7 19.3 640.3 23.7 664.8 20.3C689.3 17 713.7 5.99997 738.2 1.99997C762.7 -2.00003 787.3 0.999973 812 4.99997C836.7 8.99997 861.3 14 886 19.3C910.7 24.7 935.3 30.3 947.7 33.2L960 36V56H947.7C935.3 56 910.7 56 886 56C861.3 56 836.7 56 812 56C787.3 56 762.7 56 738.2 56C713.7 56 689.3 56 664.8 56C640.3 56 615.7 56 591 56C566.3 56 541.7 56 517 56C492.3 56 467.7 56 443 56C418.3 56 393.7 56 369 56C344.3 56 319.7 56 295.2 56C270.7 56 246.3 56 221.8 56C197.3 56 172.7 56 148 56C123.3 56 98.7 56 74 56C49.3 56 24.7 56 12.3 56H0V20Z" fill="#FFF0C8"/>
</svg>
