<svg width="960" height="52" viewBox="0 0 960 52" fill="none" xmlns="http://www.w3.org/2000/svg">
<path d="M0 17L12.3 18.3C24.7 19.7 49.3 22.3 74 19C98.7 15.7 123.3 6.30005 148 3.20005C172.7 4.673e-05 197.3 3.00002 221.8 7.30002C246.3 11.7 270.7 17.3 295.2 16C319.7 14.7 344.3 6.30002 369 7.80002C393.7 9.30002 418.3 20.7 443 19.3C467.7 18 492.3 4.00003 517 1.00003C541.7 -1.99997 566.3 6.00003 591 6.00003C615.7 6.00003 640.3 -1.99995 664.8 2.20005C689.3 6.30005 713.7 22.7 738.2 31C762.7 39.3 787.3 39.7 812 31.8C836.7 24 861.3 8.00003 886 3.50003C910.7 -0.999965 935.3 6.00003 947.7 9.50003L960 13V53H947.7C935.3 53 910.7 53 886 53C861.3 53 836.7 53 812 53C787.3 53 762.7 53 738.2 53C713.7 53 689.3 53 664.8 53C640.3 53 615.7 53 591 53C566.3 53 541.7 53 517 53C492.3 53 467.7 53 443 53C418.3 53 393.7 53 369 53C344.3 53 319.7 53 295.2 53C270.7 53 246.3 53 221.8 53C197.3 53 172.7 53 148 53C123.3 53 98.7 53 74 53C49.3 53 24.7 53 12.3 53H0V17Z" fill="#0E7E6F"/>
</svg>
